M48
METRIC,LZ,000.000
;FILE_FORMAT=3:3
;TYPE=PLATED
;Layer: PTH_Through
;EasyEDA v6.5.54, 2026-04-14 14:33:15
;27845933940048b08c14d6c4289a14c4,81a6330f3d4149d2af66a0b9843494eb,10
;Gerber Generator version 0.2
;Holesize 1 = 0.101 mm
T01C0.101
;Holesize 2 = 0.151 mm
T02C0.151
;Holesize 3 = 0.200 mm
T03C0.200
;Holesize 4 = 0.301 mm
T04C0.301
;Holesize 5 = 0.310 mm
T05C0.310
;Holesize 6 = 0.850 mm
T06C0.850
;Holesize 7 = 1.101 mm
T07C1.101
;Holesize 8 = 1.200 mm
T08C1.200
%
G05
G90
T01
X057583Y025340
X013387Y-021015
X-001060Y-005700
X-002361Y-005902
X012879Y-020888
X-006701Y-001202
X-007220Y-000750
X-007695Y000702
X024066Y-027715
X017279Y-024491
X033199Y-014157
X059583Y025340
X-011505Y015942
X-007695Y024070
X-006425Y022165
X019864Y000448
X025246Y003369
X026198Y031817
X009577Y-027492
X004512Y031690
X-004495Y024070
T02
X-000762Y000381
X-002834Y005798
X007434Y000448
X007434Y-002351
X-002750Y-001365
X-002750Y-000730
X-002157Y-002677
X-002115Y-003270
X-004020Y-001365
X-004020Y-002000
X-003413Y-002001
X-003385Y-001365
X-003385Y-000730
X-002115Y-000730
X-002115Y-001365
X-002115Y-002000
X-001480Y-002000
X-001480Y-001365
X-001480Y-002635
X-003385Y-003270
X-003385Y-002635
X-004034Y-002622
X-002750Y-002635
X-002750Y-003270
X-004020Y-003270
X-001522Y-003312
X-001480Y-000730
X-004020Y-000730
X-002750Y-002001
X-016093Y027687
X-008757Y026610
X047679Y012385
X053789Y010993
X061136Y005776
X061139Y004512
X061136Y003147
X061136Y001850
X061136Y000486
X061136Y-000779
X061136Y-002143
X014857Y-019283
X014396Y-020355
X015054Y-014477
X-001472Y001591
X-002615Y001845
X028630Y-016483
X017054Y-014460
X017272Y-019050
X-008838Y-004400
X-008924Y-010028
X-010023Y-011428
X-014918Y-005521
X-014918Y-008061
X-013537Y-013125
X-010346Y-013903
X-005917Y-011728
X-003123Y-011601
X-000456Y-011601
X-017220Y-000999
X-014426Y-001599
X-014664Y002480
X-011632Y007798
X-002834Y007798
X-000018Y007798
X002798Y007798
X005614Y007798
X014847Y-018475
X029949Y-015461
X026722Y-011191
X009434Y000448
X025211Y-003616
X028697Y-002965
X019801Y-003616
X016054Y-002870
X009450Y-014665
X008942Y-016316
X013260Y-016316
X019702Y005909
X016054Y000057
X019801Y-001076
X019702Y003369
X019801Y-002346
X021896Y-001838
X009831Y006798
X009912Y003115
X-001726Y010100
X-002794Y000381
X-004393Y003369
X-004393Y007179
X-005409Y010735
X-014426Y010735
X-013029Y010735
X-000456Y004512
X-006298Y002353
X-005155Y003877
X-000329Y002480
X001068Y002480
X016054Y002057
X016054Y-004871
X004878Y-014538
X000687Y-015554
X012752Y001718
X-011759Y-004251
X-012394Y-004251
X-013029Y-004251
X-013664Y-004251
X-014299Y-004251
X-014934Y-004251
X-015569Y-004251
X-009092Y-001838
X-009727Y-001838
X-010362Y-001838
X-010997Y-001838
X-011632Y-001838
X-012267Y-001838
X-012902Y-001838
X-016077Y-001838
X-015442Y-001838
X-011124Y-004251
X-010489Y-004251
X-016839Y-004251
X-016204Y-004251
X-017474Y-004251
X-018109Y-004251
X-016585Y-001838
X-017220Y-001838
X-018490Y-001838
X-017855Y-001838
X-019633Y-001838
X-018998Y-001838
X-018744Y-004251
X-019379Y-004251
X043740Y021911
X043740Y024451
X041200Y021911
X041200Y024451
X042470Y021911
X042470Y024451
X039930Y021911
X039930Y024451
X043740Y023181
X043740Y025721
X041200Y023181
X041200Y025721
X042470Y023181
X042470Y025721
X039930Y023181
X039930Y025721
X041835Y022546
X041835Y025086
X044375Y025086
X044375Y022546
X039295Y022546
X039295Y025086
X040565Y023816
X040565Y026356
X043105Y026356
X043105Y023816
X043105Y021276
X040565Y021276
X043105Y022546
X043105Y025086
X040565Y022546
X040565Y025086
X039295Y021276
X039295Y026356
X039295Y023816
X041835Y021276
X044375Y021276
X044375Y023816
X044375Y026356
X041835Y026356
X041835Y023816
X000687Y006798
T03
X-022935Y-005096
T04
X061136Y011209
X036993Y002193
X041872Y003004
X036993Y-007492
X039930Y-002092
X036993Y-009392
X055789Y002728
X036993Y012767
X034993Y004820
X034993Y002193
X034993Y-000434
X043522Y-003870
X049582Y002099
X018340Y013783
X012879Y004639
X011482Y-002346
T05
X-011505Y-005521
X-000456Y-008315
X039834Y004670
X022404Y017847
X022404Y014799
X056567Y027753
X057778Y019302
X057329Y-007172
X019685Y-018796
T06
X010450Y027626
X008450Y027626
X026198Y027626
X024198Y027626
T07
X-019125Y022419
X-019125Y024959
X-021919Y022419
X-021919Y019879
X-021919Y017339
T08
X001195Y031690
X-001345Y031690
X-003885Y031690
X-006425Y031690
X-008965Y031690
X-011505Y031690
M30
