G04 Layer: BottomSilkscreenLayer*
G04 EasyEDA v6.5.54, 2026-04-14 14:33:15*
G04 27845933940048b08c14d6c4289a14c4,81a6330f3d4149d2af66a0b9843494eb,10*
G04 Gerber Generator version 0.2*
G04 Scale: 100 percent, Rotated: No, Reflected: No *
G04 Dimensions in millimeters *
G04 leading zeros omitted , absolute positions ,4 integer and 5 decimal *
%FSLAX45Y45*%
%MOMM*%

%ADD10C,0.1000*%
%ADD11C,0.2540*%
%ADD12C,0.1524*%
%ADD13C,0.0165*%

%LPD*%
G36*
X122377Y-2656687D02*
G01*
X106375Y-2656789D01*
X92862Y-2658110D01*
X79908Y-2660548D01*
X65938Y-2664510D01*
X55524Y-2668574D01*
X45110Y-2673451D01*
X32562Y-2680817D01*
X22758Y-2687777D01*
X15036Y-2694228D01*
X8128Y-2700578D01*
X101Y-2709418D01*
X-6908Y-2718155D01*
X-10464Y-2723134D01*
X-18237Y-2736138D01*
X-21488Y-2742590D01*
X-26466Y-2754630D01*
X-29667Y-2764129D01*
X-32461Y-2775254D01*
X-34340Y-2785364D01*
X-35661Y-2798318D01*
X-35689Y-2811018D01*
X-24638Y-2811018D01*
X-24485Y-2799638D01*
X-22809Y-2785110D01*
X-20523Y-2774238D01*
X-19253Y-2769311D01*
X-17272Y-2763164D01*
X-11633Y-2749143D01*
X-7721Y-2741320D01*
X-4267Y-2735427D01*
X3505Y-2723997D01*
X7416Y-2719120D01*
X11430Y-2714599D01*
X19659Y-2706268D01*
X27279Y-2699715D01*
X33375Y-2695092D01*
X39370Y-2691079D01*
X46329Y-2686913D01*
X54051Y-2682951D01*
X62890Y-2678988D01*
X70307Y-2676296D01*
X81280Y-2673146D01*
X94843Y-2670505D01*
X104597Y-2669489D01*
X117348Y-2669184D01*
X117500Y-2669336D01*
X123850Y-2669540D01*
X133146Y-2670505D01*
X142849Y-2672232D01*
X151536Y-2674366D01*
X156768Y-2675940D01*
X166065Y-2679293D01*
X177342Y-2684424D01*
X183286Y-2687624D01*
X191109Y-2692603D01*
X197408Y-2696972D01*
X202438Y-2700985D01*
X212394Y-2709875D01*
X220929Y-2719425D01*
X224231Y-2723540D01*
X230784Y-2732836D01*
X234543Y-2738932D01*
X238353Y-2746044D01*
X242976Y-2756204D01*
X246735Y-2767025D01*
X249936Y-2779115D01*
X251256Y-2786532D01*
X251917Y-2791561D01*
X252729Y-2801112D01*
X252882Y-2813964D01*
X251815Y-2825597D01*
X249936Y-2836875D01*
X246379Y-2850134D01*
X244144Y-2856636D01*
X240284Y-2865780D01*
X238048Y-2870504D01*
X234746Y-2876550D01*
X230327Y-2883865D01*
X223520Y-2893314D01*
X216560Y-2901645D01*
X207467Y-2910586D01*
X202234Y-2915158D01*
X194106Y-2921355D01*
X186791Y-2926232D01*
X178612Y-2930804D01*
X169164Y-2935427D01*
X159715Y-2939034D01*
X153212Y-2941116D01*
X144272Y-2943402D01*
X133197Y-2945384D01*
X124002Y-2946400D01*
X109474Y-2946654D01*
X106883Y-2946349D01*
X102006Y-2946196D01*
X96774Y-2945638D01*
X86664Y-2944063D01*
X73964Y-2940761D01*
X67208Y-2938526D01*
X59943Y-2935732D01*
X52730Y-2932379D01*
X43484Y-2927350D01*
X37185Y-2923387D01*
X28956Y-2917444D01*
X19812Y-2909773D01*
X11785Y-2901696D01*
X5943Y-2894838D01*
X2133Y-2889961D01*
X-1574Y-2884678D01*
X-6451Y-2876804D01*
X-10058Y-2869996D01*
X-13004Y-2863850D01*
X-15595Y-2857500D01*
X-18389Y-2849473D01*
X-19964Y-2843936D01*
X-21996Y-2835249D01*
X-23825Y-2823565D01*
X-24638Y-2811018D01*
X-35689Y-2811018D01*
X-35712Y-2814624D01*
X-33934Y-2830931D01*
X-31800Y-2841599D01*
X-28651Y-2852724D01*
X-26873Y-2857957D01*
X-22098Y-2869692D01*
X-18592Y-2876702D01*
X-14274Y-2884373D01*
X-10566Y-2890164D01*
X-6502Y-2895904D01*
X-711Y-2903220D01*
X4013Y-2908604D01*
X8839Y-2913532D01*
X15595Y-2919882D01*
X25501Y-2927858D01*
X35153Y-2934360D01*
X43281Y-2939084D01*
X56083Y-2945231D01*
X66954Y-2949295D01*
X80467Y-2953156D01*
X88138Y-2954680D01*
X96469Y-2956001D01*
X104292Y-2956712D01*
X125628Y-2956712D01*
X136702Y-2955340D01*
X148437Y-2953207D01*
X157937Y-2950616D01*
X165912Y-2947974D01*
X178155Y-2942844D01*
X185623Y-2939084D01*
X192328Y-2935274D01*
X201625Y-2929178D01*
X213664Y-2919577D01*
X222097Y-2911551D01*
X229209Y-2903728D01*
X232917Y-2899156D01*
X237337Y-2893161D01*
X242163Y-2885846D01*
X245770Y-2879801D01*
X248412Y-2874924D01*
X251561Y-2868320D01*
X254762Y-2860649D01*
X256946Y-2854706D01*
X260553Y-2842107D01*
X262483Y-2832557D01*
X263753Y-2824480D01*
X264261Y-2819857D01*
X264312Y-2794914D01*
X263194Y-2785313D01*
X260654Y-2771952D01*
X259435Y-2767228D01*
X255473Y-2754833D01*
X251764Y-2745892D01*
X247700Y-2737205D01*
X244043Y-2730703D01*
X239826Y-2724048D01*
X234645Y-2716682D01*
X226821Y-2707081D01*
X220624Y-2700629D01*
X214223Y-2694533D01*
X206603Y-2688183D01*
X202742Y-2685237D01*
X192989Y-2678734D01*
X184353Y-2673756D01*
X169621Y-2667000D01*
X167690Y-2666441D01*
X167386Y-2666136D01*
X152857Y-2661513D01*
X138531Y-2658414D01*
X126796Y-2656992D01*
X123850Y-2656941D01*
G37*
G36*
X58419Y-2694787D02*
G01*
X57759Y-2695702D01*
X57251Y-2698343D01*
X57251Y-2701899D01*
X58064Y-2713278D01*
X58724Y-2727858D01*
X58369Y-2738678D01*
X57200Y-2750413D01*
X57607Y-2752852D01*
X58013Y-2754071D01*
X59334Y-2755849D01*
X70205Y-2765247D01*
X78943Y-2774188D01*
X85750Y-2782620D01*
X92862Y-2792120D01*
X103428Y-2807258D01*
X112572Y-2821940D01*
X116332Y-2828645D01*
X127457Y-2850489D01*
X128524Y-2851759D01*
X129285Y-2852166D01*
X130251Y-2851708D01*
X142697Y-2833522D01*
X147624Y-2827731D01*
X156464Y-2818688D01*
X176631Y-2800350D01*
X181660Y-2795524D01*
X181660Y-2794762D01*
X178968Y-2792018D01*
X171043Y-2785110D01*
X157073Y-2774035D01*
X152400Y-2770784D01*
X150114Y-2770073D01*
X148437Y-2770073D01*
X147929Y-2770632D01*
X139090Y-2790901D01*
X133654Y-2802331D01*
X132080Y-2803804D01*
X130556Y-2803804D01*
X129641Y-2803144D01*
X127965Y-2800299D01*
X124307Y-2793136D01*
X113690Y-2770073D01*
X102920Y-2749194D01*
X93167Y-2732481D01*
X86309Y-2722016D01*
X82448Y-2716530D01*
X79197Y-2712618D01*
X73456Y-2706471D01*
X67106Y-2700528D01*
X62890Y-2696870D01*
X59791Y-2694787D01*
G37*
G36*
X42316Y-2849270D02*
G01*
X37896Y-2849422D01*
X30581Y-2850896D01*
X27076Y-2852013D01*
X26924Y-2852267D01*
X26822Y-2859024D01*
X27228Y-2859430D01*
X31699Y-2857246D01*
X36931Y-2855722D01*
X42011Y-2855417D01*
X45364Y-2855823D01*
X47548Y-2856585D01*
X49631Y-2857855D01*
X51358Y-2859582D01*
X52324Y-2861716D01*
X52628Y-2864764D01*
X52324Y-2867558D01*
X51663Y-2869387D01*
X51155Y-2870149D01*
X49225Y-2871470D01*
X44450Y-2873349D01*
X38303Y-2874975D01*
X32461Y-2877007D01*
X29260Y-2878836D01*
X27076Y-2880918D01*
X25552Y-2883204D01*
X24434Y-2885592D01*
X24079Y-2886964D01*
X23977Y-2895447D01*
X24333Y-2897225D01*
X25908Y-2900476D01*
X27889Y-2902915D01*
X30429Y-2904998D01*
X33020Y-2906268D01*
X37592Y-2907588D01*
X47040Y-2907741D01*
X52425Y-2906776D01*
X59131Y-2904744D01*
X59537Y-2904439D01*
X59334Y-2897073D01*
X59080Y-2896819D01*
X52273Y-2900070D01*
X46024Y-2901746D01*
X40538Y-2901746D01*
X38100Y-2901340D01*
X35458Y-2900222D01*
X33223Y-2898546D01*
X31851Y-2896616D01*
X31140Y-2894431D01*
X30835Y-2890774D01*
X31597Y-2887776D01*
X32258Y-2886456D01*
X34239Y-2884474D01*
X37592Y-2882849D01*
X49936Y-2879293D01*
X54051Y-2877413D01*
X55372Y-2876499D01*
X57708Y-2873806D01*
X58674Y-2872028D01*
X59842Y-2868371D01*
X60045Y-2864815D01*
X59690Y-2862326D01*
X58724Y-2859430D01*
X57912Y-2857652D01*
X55930Y-2854960D01*
X53136Y-2852470D01*
X51003Y-2851150D01*
X48310Y-2850083D01*
X45720Y-2849524D01*
G37*
G36*
X106578Y-2850032D02*
G01*
X99720Y-2850235D01*
X99568Y-2850438D01*
X99466Y-2873349D01*
X78130Y-2873349D01*
X78130Y-2850438D01*
X77724Y-2850083D01*
X70612Y-2850286D01*
X70612Y-2906877D01*
X77927Y-2907080D01*
X78079Y-2906826D01*
X78130Y-2882900D01*
X78333Y-2879902D01*
X99314Y-2879902D01*
X99618Y-2906826D01*
X106781Y-2907131D01*
X107035Y-2906674D01*
X106933Y-2850489D01*
G37*
G36*
X200406Y-2850134D02*
G01*
X186639Y-2850235D01*
X180086Y-2850540D01*
X175514Y-2851556D01*
X172415Y-2853080D01*
X170230Y-2854756D01*
X168300Y-2856992D01*
X166319Y-2861208D01*
X165508Y-2866542D01*
X173736Y-2866542D01*
X173990Y-2863037D01*
X174345Y-2862021D01*
X175717Y-2859938D01*
X177241Y-2858414D01*
X179527Y-2857195D01*
X183337Y-2856534D01*
X192684Y-2856382D01*
X192786Y-2876702D01*
X182372Y-2876651D01*
X179425Y-2875940D01*
X177088Y-2874822D01*
X175158Y-2873044D01*
X174091Y-2870860D01*
X173736Y-2866542D01*
X165508Y-2866542D01*
X165658Y-2868574D01*
X166268Y-2871317D01*
X167182Y-2873502D01*
X169011Y-2876194D01*
X171958Y-2878378D01*
X175920Y-2879902D01*
X176733Y-2879902D01*
X176936Y-2880207D01*
X174396Y-2881376D01*
X172415Y-2882849D01*
X169976Y-2886151D01*
X159461Y-2906623D01*
X159562Y-2906979D01*
X165709Y-2907131D01*
X167386Y-2906928D01*
X171145Y-2898851D01*
X176987Y-2887319D01*
X179628Y-2884678D01*
X181864Y-2883509D01*
X185318Y-2882798D01*
X192786Y-2882900D01*
X192836Y-2907030D01*
X200456Y-2906877D01*
X200710Y-2906725D01*
X200710Y-2850438D01*
G37*
G36*
X132384Y-2863596D02*
G01*
X129285Y-2864256D01*
X127050Y-2865170D01*
X124968Y-2866593D01*
X122174Y-2869387D01*
X120548Y-2871825D01*
X119278Y-2874568D01*
X117856Y-2880766D01*
X117575Y-2888030D01*
X125069Y-2888030D01*
X125069Y-2881731D01*
X125526Y-2878480D01*
X126085Y-2876397D01*
X126949Y-2874416D01*
X129285Y-2871419D01*
X131013Y-2870250D01*
X132994Y-2869539D01*
X138328Y-2869438D01*
X141528Y-2870758D01*
X143916Y-2873298D01*
X145135Y-2875737D01*
X146253Y-2881122D01*
X146659Y-2884424D01*
X146151Y-2891383D01*
X145237Y-2895295D01*
X143764Y-2898140D01*
X141681Y-2900375D01*
X139496Y-2901543D01*
X137871Y-2902051D01*
X133299Y-2901950D01*
X131165Y-2901188D01*
X129946Y-2900527D01*
X127914Y-2898546D01*
X126390Y-2895701D01*
X125374Y-2891993D01*
X125069Y-2888030D01*
X117575Y-2888030D01*
X118262Y-2893161D01*
X118872Y-2895752D01*
X121513Y-2901289D01*
X123342Y-2903524D01*
X126136Y-2905607D01*
X128066Y-2906572D01*
X130200Y-2907233D01*
X136144Y-2907944D01*
X140766Y-2907436D01*
X143256Y-2906725D01*
X144881Y-2905912D01*
X146812Y-2904591D01*
X149047Y-2902458D01*
X150825Y-2899968D01*
X152146Y-2897225D01*
X153263Y-2892501D01*
X153771Y-2888742D01*
X153619Y-2881122D01*
X153162Y-2878226D01*
X151485Y-2872841D01*
X149301Y-2869234D01*
X146202Y-2866339D01*
X142900Y-2864713D01*
X138836Y-2863646D01*
G37*
G36*
X-494080Y-2656687D02*
G01*
X-495604Y-2656941D01*
X-495604Y-2665476D01*
X-495096Y-2665476D01*
X-494639Y-2666542D01*
X-429259Y-2732481D01*
X-429219Y-2735630D01*
X-415340Y-2735630D01*
X-414680Y-2735173D01*
X-411124Y-2735173D01*
X-410493Y-2735884D01*
X-407771Y-2735884D01*
X-407517Y-2735326D01*
X-406857Y-2735326D01*
X-406654Y-2735681D01*
X-406450Y-2737408D01*
X-406857Y-2742133D01*
X-407111Y-2743098D01*
X-407365Y-2742539D01*
X-407771Y-2735884D01*
X-410493Y-2735884D01*
X-410057Y-2738170D01*
X-410006Y-2740304D01*
X-410260Y-2740558D01*
X-411378Y-2739948D01*
X-414680Y-2736596D01*
X-415340Y-2735630D01*
X-429219Y-2735630D01*
X-429259Y-2754934D01*
X-426516Y-2754934D01*
X-426516Y-2736392D01*
X-425856Y-2735834D01*
X-410870Y-2750820D01*
X-408940Y-2753055D01*
X-408686Y-2754630D01*
X-409143Y-2755442D01*
X-425907Y-2755493D01*
X-426516Y-2754934D01*
X-429259Y-2754934D01*
X-429259Y-2756662D01*
X-428904Y-2757728D01*
X-427837Y-2758135D01*
X-409143Y-2758135D01*
X-408753Y-2758490D01*
X-405841Y-2758490D01*
X-405130Y-2758135D01*
X-403707Y-2758135D01*
X-348386Y-2813862D01*
X-348386Y-2814421D01*
X-337159Y-2814421D01*
X-337159Y-2813812D01*
X-287070Y-2761335D01*
X-286156Y-2761132D01*
X-285953Y-2761640D01*
X-287375Y-2774950D01*
X-291134Y-2817368D01*
X-291490Y-2819196D01*
X-292150Y-2828544D01*
X-292506Y-2830322D01*
X-294894Y-2855772D01*
X-295300Y-2856280D01*
X-295605Y-2856280D01*
X-337159Y-2814421D01*
X-348386Y-2814421D01*
X-348792Y-2815183D01*
X-395681Y-2864154D01*
X-396849Y-2864866D01*
X-397154Y-2864408D01*
X-401828Y-2807106D01*
X-402183Y-2805277D01*
X-405841Y-2758490D01*
X-408753Y-2758490D01*
X-408025Y-2763062D01*
X-407365Y-2773273D01*
X-407009Y-2775102D01*
X-404418Y-2808782D01*
X-403910Y-2812796D01*
X-401320Y-2846171D01*
X-399440Y-2867355D01*
X-399796Y-2868218D01*
X-478891Y-2950870D01*
X-478891Y-2951835D01*
X-474421Y-2956712D01*
X-473456Y-2956458D01*
X-419201Y-2899714D01*
X-417677Y-2898343D01*
X-417322Y-2898343D01*
X-417931Y-2902458D01*
X-417654Y-2906115D01*
X-413816Y-2906115D01*
X-413766Y-2900273D01*
X-412851Y-2897276D01*
X-411480Y-2894482D01*
X-411124Y-2894330D01*
X-410413Y-2892907D01*
X-406755Y-2889351D01*
X-402437Y-2887167D01*
X-398627Y-2886100D01*
X-393649Y-2886151D01*
X-390398Y-2886964D01*
X-385724Y-2889351D01*
X-382219Y-2892755D01*
X-379882Y-2896565D01*
X-378917Y-2899257D01*
X-378510Y-2902762D01*
X-378764Y-2906115D01*
X-380085Y-2910332D01*
X-382422Y-2913989D01*
X-385013Y-2916529D01*
X-387350Y-2918104D01*
X-387654Y-2918104D01*
X-388518Y-2918764D01*
X-391922Y-2919933D01*
X-394157Y-2920339D01*
X-398322Y-2920339D01*
X-400710Y-2919933D01*
X-405739Y-2917748D01*
X-407619Y-2916377D01*
X-410057Y-2913989D01*
X-411480Y-2911906D01*
X-412699Y-2909570D01*
X-413816Y-2906115D01*
X-417654Y-2906115D01*
X-416712Y-2909976D01*
X-415442Y-2912821D01*
X-413766Y-2915513D01*
X-410006Y-2919374D01*
X-407974Y-2920847D01*
X-405130Y-2922320D01*
X-399846Y-2924048D01*
X-392633Y-2924048D01*
X-388670Y-2922930D01*
X-385521Y-2921508D01*
X-383133Y-2919933D01*
X-379780Y-2916783D01*
X-378002Y-2914497D01*
X-375920Y-2910484D01*
X-374700Y-2906115D01*
X-374700Y-2900426D01*
X-375818Y-2896260D01*
X-377647Y-2892653D01*
X-379425Y-2890062D01*
X-382778Y-2886862D01*
X-387654Y-2883916D01*
X-389890Y-2883154D01*
X-394868Y-2882239D01*
X-398830Y-2882493D01*
X-402082Y-2883052D01*
X-402691Y-2882747D01*
X-402691Y-2882341D01*
X-399135Y-2878734D01*
X-398780Y-2878734D01*
X-398373Y-2879598D01*
X-398373Y-2880309D01*
X-397814Y-2880918D01*
X-396697Y-2880918D01*
X-395935Y-2880309D01*
X-396240Y-2876296D01*
X-395986Y-2875381D01*
X-343154Y-2819958D01*
X-342087Y-2820009D01*
X-296113Y-2866237D01*
X-295859Y-2867253D01*
X-297332Y-2884170D01*
X-297688Y-2886354D01*
X-299415Y-2906115D01*
X-299974Y-2909671D01*
X-300532Y-2910078D01*
X-373024Y-2910078D01*
X-373888Y-2910484D01*
X-374142Y-2911652D01*
X-373024Y-2912618D01*
X-298704Y-2912618D01*
X-297738Y-2912110D01*
X-297383Y-2911652D01*
X-295605Y-2890977D01*
X-295300Y-2889300D01*
X-293624Y-2869895D01*
X-293420Y-2869692D01*
X-292404Y-2869946D01*
X-206603Y-2956306D01*
X-205282Y-2956306D01*
X-201625Y-2951734D01*
X-201726Y-2950667D01*
X-291592Y-2860395D01*
X-292506Y-2859074D01*
X-288391Y-2813202D01*
X-288036Y-2811475D01*
X-285445Y-2782163D01*
X-284937Y-2778302D01*
X-284226Y-2768904D01*
X-283921Y-2767076D01*
X-283210Y-2757830D01*
X-282448Y-2756509D01*
X-196646Y-2666644D01*
X-196138Y-2665476D01*
X-195630Y-2665476D01*
X-195630Y-2656941D01*
X-197307Y-2656738D01*
X-197916Y-2657652D01*
X-280974Y-2744419D01*
X-281838Y-2743860D01*
X-280314Y-2726791D01*
X-279603Y-2721000D01*
X-279196Y-2714650D01*
X-278892Y-2713431D01*
X-278028Y-2713024D01*
X-266395Y-2713024D01*
X-265633Y-2712516D01*
X-265633Y-2711399D01*
X-266395Y-2710688D01*
X-278028Y-2710688D01*
X-279095Y-2709519D01*
X-279603Y-2706065D01*
X-281635Y-2702458D01*
X-286461Y-2697581D01*
X-289763Y-2695448D01*
X-291490Y-2694635D01*
X-292201Y-2693517D01*
X-292201Y-2686253D01*
X-292862Y-2685897D01*
X-306933Y-2685897D01*
X-307340Y-2686304D01*
X-307594Y-2688590D01*
X-308457Y-2688793D01*
X-310184Y-2688183D01*
X-324002Y-2686050D01*
X-330708Y-2685592D01*
X-331724Y-2685897D01*
X-332079Y-2685542D01*
X-332435Y-2683967D01*
X-333298Y-2683560D01*
X-370078Y-2683560D01*
X-370636Y-2684373D01*
X-370636Y-2686304D01*
X-370890Y-2686761D01*
X-378968Y-2688082D01*
X-385013Y-2689402D01*
X-394817Y-2692247D01*
X-395173Y-2692552D01*
X-402640Y-2695803D01*
X-405638Y-2697734D01*
X-409295Y-2700985D01*
X-410464Y-2700985D01*
X-410921Y-2700070D01*
X-413156Y-2698038D01*
X-414680Y-2697175D01*
X-417423Y-2696057D01*
X-422452Y-2696057D01*
X-425551Y-2697276D01*
X-427126Y-2698292D01*
X-429107Y-2700223D01*
X-430479Y-2702255D01*
X-431292Y-2704236D01*
X-431698Y-2707233D01*
X-431383Y-2709570D01*
X-408686Y-2709570D01*
X-408381Y-2708097D01*
X-408584Y-2704134D01*
X-407314Y-2702509D01*
X-404164Y-2699816D01*
X-402082Y-2698445D01*
X-397256Y-2696006D01*
X-395986Y-2695600D01*
X-395782Y-2695295D01*
X-386588Y-2692400D01*
X-381406Y-2691130D01*
X-371094Y-2689352D01*
X-370636Y-2689961D01*
X-370636Y-2695041D01*
X-368249Y-2695041D01*
X-368198Y-2686304D01*
X-367690Y-2685796D01*
X-335889Y-2685745D01*
X-335178Y-2686050D01*
X-334772Y-2686558D01*
X-334873Y-2695143D01*
X-335686Y-2695803D01*
X-367284Y-2695752D01*
X-367995Y-2695600D01*
X-368249Y-2695041D01*
X-370636Y-2695041D01*
X-370636Y-2697429D01*
X-369976Y-2697988D01*
X-332892Y-2697988D01*
X-332333Y-2697429D01*
X-332333Y-2688285D01*
X-331571Y-2687777D01*
X-330708Y-2688031D01*
X-328523Y-2688082D01*
X-319328Y-2689098D01*
X-308559Y-2691079D01*
X-307746Y-2691485D01*
X-307340Y-2692247D01*
X-307340Y-2710383D01*
X-292201Y-2710383D01*
X-292150Y-2698242D01*
X-291642Y-2697480D01*
X-291236Y-2697480D01*
X-286715Y-2700629D01*
X-284022Y-2703423D01*
X-281635Y-2708249D01*
X-281482Y-2709773D01*
X-281838Y-2710688D01*
X-291998Y-2710586D01*
X-292201Y-2710383D01*
X-307340Y-2710434D01*
X-307797Y-2710688D01*
X-408228Y-2710688D01*
X-408686Y-2709570D01*
X-431383Y-2709570D01*
X-430479Y-2712313D01*
X-428013Y-2715463D01*
X-409600Y-2715463D01*
X-409498Y-2713278D01*
X-408635Y-2713075D01*
X-282448Y-2713075D01*
X-281584Y-2713380D01*
X-281838Y-2717292D01*
X-282346Y-2721000D01*
X-282702Y-2726842D01*
X-284632Y-2747111D01*
X-284937Y-2748330D01*
X-342442Y-2808376D01*
X-343306Y-2808376D01*
X-374751Y-2776880D01*
X-374751Y-2775915D01*
X-374243Y-2775712D01*
X-330454Y-2775712D01*
X-329438Y-2775204D01*
X-329488Y-2760522D01*
X-330708Y-2760116D01*
X-382270Y-2760116D01*
X-383032Y-2760624D01*
X-383032Y-2767076D01*
X-383336Y-2767482D01*
X-384352Y-2767076D01*
X-403555Y-2747772D01*
X-403910Y-2746857D01*
X-404012Y-2733395D01*
X-405028Y-2732735D01*
X-407009Y-2732836D01*
X-407670Y-2732481D01*
X-408178Y-2731566D01*
X-409600Y-2715463D01*
X-428013Y-2715463D01*
X-426212Y-2716834D01*
X-423976Y-2717901D01*
X-420776Y-2718562D01*
X-419100Y-2718562D01*
X-415848Y-2717901D01*
X-413258Y-2716377D01*
X-412191Y-2716174D01*
X-411886Y-2716987D01*
X-410667Y-2731719D01*
X-411276Y-2732735D01*
X-417271Y-2732836D01*
X-418693Y-2732430D01*
G37*
G36*
X-394665Y-2894838D02*
G01*
X-398576Y-2894939D01*
X-400913Y-2896057D01*
X-402234Y-2897073D01*
X-403199Y-2898140D01*
X-404418Y-2900121D01*
X-404926Y-2902407D01*
X-404926Y-2904642D01*
X-404469Y-2906623D01*
X-403199Y-2908909D01*
X-400964Y-2910840D01*
X-398475Y-2911957D01*
X-393801Y-2912008D01*
X-391058Y-2910738D01*
X-389585Y-2909519D01*
X-388264Y-2907792D01*
X-387299Y-2905658D01*
X-387299Y-2901289D01*
X-388264Y-2899105D01*
X-389585Y-2897378D01*
X-391210Y-2896057D01*
X-393141Y-2895142D01*
G37*
G36*
X-313182Y-2914751D02*
G01*
X-313740Y-2915513D01*
X-313740Y-2926740D01*
X-313182Y-2927502D01*
X-298399Y-2927502D01*
X-297688Y-2926638D01*
X-297688Y-2915666D01*
X-298399Y-2914751D01*
G37*
G36*
X578256Y-2656687D02*
G01*
X567334Y-2656789D01*
X558495Y-2657500D01*
X548843Y-2658821D01*
X543255Y-2659888D01*
X534009Y-2662123D01*
X523087Y-2665628D01*
X513283Y-2669590D01*
X503478Y-2674467D01*
X494538Y-2679649D01*
X487324Y-2684526D01*
X478129Y-2691638D01*
X471424Y-2697530D01*
X465023Y-2703931D01*
X457250Y-2712923D01*
X453999Y-2717038D01*
X448970Y-2724251D01*
X444855Y-2730804D01*
X439166Y-2741371D01*
X434035Y-2753309D01*
X431901Y-2759252D01*
X429209Y-2767990D01*
X427228Y-2776575D01*
X425399Y-2787904D01*
X424383Y-2798013D01*
X424230Y-2806700D01*
X451154Y-2806700D01*
X451459Y-2799080D01*
X452272Y-2790850D01*
X453288Y-2784449D01*
X455422Y-2774950D01*
X458673Y-2764536D01*
X461924Y-2756611D01*
X464312Y-2751531D01*
X468579Y-2743809D01*
X472795Y-2737256D01*
X478383Y-2729738D01*
X484378Y-2722778D01*
X490270Y-2716885D01*
X497230Y-2710891D01*
X504748Y-2705303D01*
X508863Y-2702560D01*
X517550Y-2697581D01*
X526135Y-2693517D01*
X530606Y-2691739D01*
X537616Y-2689301D01*
X544728Y-2687320D01*
X554482Y-2685288D01*
X561695Y-2684373D01*
X573582Y-2683662D01*
X578815Y-2683814D01*
X587756Y-2684475D01*
X597814Y-2686050D01*
X606653Y-2688082D01*
X614883Y-2690672D01*
X626262Y-2695346D01*
X632307Y-2698343D01*
X640181Y-2703068D01*
X645668Y-2706725D01*
X650240Y-2710129D01*
X658114Y-2716885D01*
X665632Y-2724607D01*
X671372Y-2731516D01*
X677011Y-2739339D01*
X681126Y-2746044D01*
X685850Y-2755188D01*
X689711Y-2764536D01*
X693013Y-2774950D01*
X695604Y-2786989D01*
X696976Y-2799080D01*
X697230Y-2806700D01*
X696976Y-2814370D01*
X695858Y-2824530D01*
X694690Y-2831541D01*
X691946Y-2842158D01*
X689711Y-2848914D01*
X685850Y-2858262D01*
X682244Y-2865374D01*
X675589Y-2876194D01*
X670001Y-2883712D01*
X664006Y-2890621D01*
X658114Y-2896565D01*
X650290Y-2903270D01*
X642874Y-2908655D01*
X635508Y-2913278D01*
X631748Y-2915361D01*
X621995Y-2920034D01*
X612444Y-2923590D01*
X604774Y-2925876D01*
X595376Y-2927858D01*
X588924Y-2928823D01*
X581914Y-2929483D01*
X574294Y-2929788D01*
X566572Y-2929483D01*
X554482Y-2928112D01*
X544169Y-2926029D01*
X537210Y-2923997D01*
X528421Y-2920847D01*
X522528Y-2918307D01*
X514807Y-2914345D01*
X506577Y-2909417D01*
X498957Y-2903880D01*
X492099Y-2898140D01*
X484378Y-2890621D01*
X478332Y-2883611D01*
X471830Y-2874721D01*
X468934Y-2870200D01*
X465835Y-2864815D01*
X462686Y-2858566D01*
X458673Y-2848914D01*
X455422Y-2838500D01*
X453288Y-2829001D01*
X452069Y-2820873D01*
X451459Y-2814370D01*
X451154Y-2806700D01*
X424230Y-2806700D01*
X424383Y-2815437D01*
X425399Y-2825546D01*
X426262Y-2831490D01*
X427786Y-2839567D01*
X430733Y-2850591D01*
X432358Y-2855620D01*
X436727Y-2866745D01*
X440588Y-2874873D01*
X447497Y-2886913D01*
X453898Y-2896209D01*
X456844Y-2900019D01*
X465378Y-2909874D01*
X471424Y-2915920D01*
X480415Y-2923692D01*
X484733Y-2927096D01*
X489864Y-2930753D01*
X497179Y-2935376D01*
X502005Y-2938170D01*
X507949Y-2941269D01*
X519176Y-2946298D01*
X524001Y-2948127D01*
X536752Y-2952038D01*
X544271Y-2953766D01*
X550976Y-2954985D01*
X563016Y-2956356D01*
X567994Y-2956712D01*
X580542Y-2956712D01*
X593039Y-2955544D01*
X598932Y-2954731D01*
X607669Y-2953004D01*
X613867Y-2951429D01*
X621487Y-2949092D01*
X632155Y-2945079D01*
X642315Y-2940354D01*
X652272Y-2934766D01*
X659841Y-2929788D01*
X663651Y-2927045D01*
X670661Y-2921508D01*
X675081Y-2917647D01*
X680313Y-2912668D01*
X687933Y-2904439D01*
X694588Y-2896108D01*
X699566Y-2888996D01*
X702818Y-2883814D01*
X706424Y-2877515D01*
X711149Y-2867914D01*
X714451Y-2859938D01*
X716280Y-2854858D01*
X718769Y-2846882D01*
X721309Y-2836164D01*
X723290Y-2823413D01*
X723950Y-2815894D01*
X724255Y-2809595D01*
X724255Y-2803855D01*
X723544Y-2792476D01*
X723036Y-2787548D01*
X721817Y-2779928D01*
X720191Y-2772156D01*
X718769Y-2766517D01*
X715264Y-2755544D01*
X711758Y-2746857D01*
X705662Y-2734513D01*
X699414Y-2724251D01*
X696214Y-2719578D01*
X691438Y-2713228D01*
X687781Y-2708808D01*
X683514Y-2704084D01*
X676960Y-2697530D01*
X669493Y-2690926D01*
X661873Y-2685034D01*
X651103Y-2677972D01*
X645007Y-2674467D01*
X634288Y-2669235D01*
X625195Y-2665628D01*
X618134Y-2663240D01*
X612902Y-2661716D01*
X604367Y-2659735D01*
X593039Y-2657856D01*
G37*
G36*
X573684Y-2725267D02*
G01*
X573735Y-2816402D01*
X574294Y-2819806D01*
X575157Y-2823210D01*
X576122Y-2825902D01*
X577748Y-2829407D01*
X580796Y-2833827D01*
X583488Y-2836570D01*
X586892Y-2839161D01*
X590194Y-2841091D01*
X594969Y-2842971D01*
X600608Y-2844292D01*
X603554Y-2844749D01*
X615391Y-2844850D01*
X622401Y-2844038D01*
X626160Y-2843072D01*
X629615Y-2841853D01*
X633374Y-2840024D01*
X636168Y-2838196D01*
X638606Y-2836164D01*
X641350Y-2833116D01*
X644296Y-2828391D01*
X645617Y-2825242D01*
X646480Y-2822346D01*
X647090Y-2819400D01*
X647496Y-2816047D01*
X647598Y-2725267D01*
X618998Y-2725267D01*
X618998Y-2813761D01*
X618744Y-2817266D01*
X617677Y-2820314D01*
X617270Y-2820974D01*
X615899Y-2822346D01*
X614222Y-2823159D01*
X612648Y-2823464D01*
X608634Y-2823514D01*
X605688Y-2822346D01*
X604316Y-2820974D01*
X603097Y-2818333D01*
X602335Y-2815488D01*
X602284Y-2725267D01*
G37*
G36*
X533400Y-2769565D02*
G01*
X533400Y-2863291D01*
X502107Y-2863291D01*
X502107Y-2887218D01*
X562152Y-2887218D01*
X562152Y-2769565D01*
G37*
G36*
X612089Y-2852216D02*
G01*
X608482Y-2852318D01*
X604367Y-2853385D01*
X601116Y-2855214D01*
X598982Y-2857042D01*
X597103Y-2859176D01*
X595782Y-2861360D01*
X594868Y-2863545D01*
X594309Y-2865628D01*
X594085Y-2867355D01*
X597154Y-2867355D01*
X597763Y-2864561D01*
X598678Y-2862275D01*
X599948Y-2860192D01*
X602132Y-2857855D01*
X604062Y-2856484D01*
X607415Y-2855112D01*
X609650Y-2854756D01*
X612952Y-2854909D01*
X616508Y-2856128D01*
X618947Y-2857601D01*
X620979Y-2859582D01*
X622350Y-2861513D01*
X623417Y-2863748D01*
X624078Y-2866085D01*
X624332Y-2868930D01*
X624078Y-2871724D01*
X623417Y-2874060D01*
X622350Y-2876296D01*
X620979Y-2878277D01*
X618642Y-2880461D01*
X616661Y-2881680D01*
X614984Y-2882442D01*
X612902Y-2883001D01*
X609447Y-2883103D01*
X606907Y-2882595D01*
X604774Y-2881731D01*
X602742Y-2880461D01*
X600456Y-2878277D01*
X599033Y-2876245D01*
X597306Y-2871520D01*
X597154Y-2867355D01*
X594085Y-2867355D01*
X593953Y-2869895D01*
X594410Y-2872689D01*
X595071Y-2874924D01*
X595985Y-2877007D01*
X597712Y-2879547D01*
X599694Y-2881579D01*
X601827Y-2883154D01*
X604824Y-2884576D01*
X608228Y-2885541D01*
X613206Y-2885541D01*
X617474Y-2884271D01*
X621334Y-2881884D01*
X623722Y-2879547D01*
X626059Y-2875686D01*
X626770Y-2873806D01*
X627278Y-2871520D01*
X627430Y-2867660D01*
X627024Y-2865069D01*
X625856Y-2861868D01*
X624636Y-2859684D01*
X622909Y-2857500D01*
X621030Y-2855772D01*
X617016Y-2853436D01*
X615137Y-2852775D01*
G37*
G36*
X616864Y-2860446D02*
G01*
X607415Y-2860548D01*
X605637Y-2861411D01*
X604570Y-2862529D01*
X604012Y-2864053D01*
X603961Y-2865780D01*
X607110Y-2865780D01*
X607263Y-2864205D01*
X607872Y-2863392D01*
X608787Y-2862884D01*
X613765Y-2862732D01*
X613714Y-2867914D01*
X609041Y-2867914D01*
X607974Y-2867304D01*
X607415Y-2866694D01*
X607110Y-2865780D01*
X603961Y-2865780D01*
X604570Y-2867558D01*
X605637Y-2868472D01*
X606755Y-2869082D01*
X605688Y-2869539D01*
X604977Y-2870301D01*
X604570Y-2871266D01*
X604215Y-2876245D01*
X603758Y-2877108D01*
X606806Y-2877210D01*
X607212Y-2876702D01*
X607517Y-2875280D01*
X607618Y-2872282D01*
X607974Y-2871317D01*
X609447Y-2870301D01*
X613765Y-2870200D01*
X613765Y-2877210D01*
X616864Y-2877210D01*
G37*
G36*
X-2656586Y1172210D02*
G01*
X-2656586Y1152652D01*
X-2571242Y1152652D01*
X-2571242Y1145540D01*
X-2571750Y1138885D01*
X-2573274Y1133094D01*
X-2575814Y1128217D01*
X-2579370Y1124204D01*
X-2589377Y1118870D01*
X-2603246Y1117092D01*
X-2618435Y1118870D01*
X-2629408Y1124204D01*
X-2636062Y1133094D01*
X-2638298Y1145540D01*
X-2638298Y1152652D01*
X-2656586Y1152652D01*
X-2656586Y1145540D01*
X-2655773Y1134110D01*
X-2653233Y1124204D01*
X-2649067Y1115822D01*
X-2643225Y1108964D01*
X-2635758Y1103630D01*
X-2626563Y1099820D01*
X-2615742Y1097534D01*
X-2603246Y1096772D01*
X-2591409Y1097534D01*
X-2581148Y1099820D01*
X-2572461Y1103630D01*
X-2565349Y1108964D01*
X-2559812Y1115822D01*
X-2555849Y1124204D01*
X-2553512Y1134110D01*
X-2552700Y1145540D01*
X-2552700Y1172210D01*
G37*
G36*
X-2591562Y1085342D02*
G01*
X-2608529Y1083005D01*
X-2621280Y1075944D01*
X-2629103Y1064666D01*
X-2631694Y1049528D01*
X-2613660Y1049528D01*
X-2613406Y1052677D01*
X-2612593Y1055471D01*
X-2611221Y1058011D01*
X-2609342Y1060196D01*
X-2607056Y1062126D01*
X-2604312Y1063701D01*
X-2601112Y1064818D01*
X-2597404Y1065530D01*
X-2597404Y1034287D01*
X-2601112Y1034542D01*
X-2604312Y1035303D01*
X-2607056Y1036574D01*
X-2609342Y1038352D01*
X-2611221Y1040485D01*
X-2612593Y1043076D01*
X-2613406Y1046073D01*
X-2613660Y1049528D01*
X-2631694Y1049528D01*
X-2629255Y1034846D01*
X-2622042Y1023874D01*
X-2610104Y1017016D01*
X-2593594Y1014730D01*
X-2583688Y1015237D01*
X-2583688Y1064514D01*
X-2573375Y1056436D01*
X-2569972Y1041400D01*
X-2570276Y1033526D01*
X-2570784Y1028446D01*
X-2572004Y1020571D01*
X-2553208Y1018540D01*
X-2552192Y1025804D01*
X-2551277Y1038047D01*
X-2551176Y1043178D01*
X-2553766Y1060958D01*
X-2561590Y1074166D01*
X-2574290Y1082548D01*
G37*
G36*
X-2553462Y995171D02*
G01*
X-2572512Y992886D01*
X-2570378Y974394D01*
X-2570022Y969416D01*
X-2570073Y962761D01*
X-2570327Y958799D01*
X-2570835Y955548D01*
X-2571496Y953008D01*
X-2572258Y951026D01*
X-2573223Y949604D01*
X-2574391Y948740D01*
X-2575814Y948436D01*
X-2577236Y948740D01*
X-2578455Y949604D01*
X-2579522Y951026D01*
X-2580386Y953008D01*
X-2588920Y982014D01*
X-2590495Y985164D01*
X-2592374Y987856D01*
X-2594610Y990092D01*
X-2597099Y991768D01*
X-2599994Y992936D01*
X-2603347Y993648D01*
X-2607056Y993902D01*
X-2614574Y992733D01*
X-2620721Y989177D01*
X-2625547Y983284D01*
X-2628950Y975055D01*
X-2631033Y964437D01*
X-2631694Y948944D01*
X-2631440Y941069D01*
X-2630424Y929640D01*
X-2611882Y931671D01*
X-2612440Y938021D01*
X-2612847Y947978D01*
X-2612593Y961796D01*
X-2612186Y965555D01*
X-2611628Y968502D01*
X-2610916Y970737D01*
X-2609951Y972312D01*
X-2608884Y973277D01*
X-2607564Y973582D01*
X-2606040Y973328D01*
X-2604770Y972515D01*
X-2603754Y971143D01*
X-2602992Y969264D01*
X-2595473Y942746D01*
X-2593644Y938733D01*
X-2591511Y935278D01*
X-2589022Y932434D01*
X-2586278Y930300D01*
X-2583180Y928827D01*
X-2579674Y927912D01*
X-2575814Y927608D01*
X-2568295Y928725D01*
X-2562148Y932027D01*
X-2557322Y937564D01*
X-2553919Y945337D01*
X-2551836Y955294D01*
X-2551176Y967486D01*
X-2551734Y983030D01*
G37*
G36*
X-2570988Y907034D02*
G01*
X-2570988Y878332D01*
X-2612136Y878332D01*
X-2612136Y902462D01*
X-2630424Y902462D01*
X-2630424Y858519D01*
X-2570988Y858519D01*
X-2570988Y835406D01*
X-2552700Y835406D01*
X-2552700Y907034D01*
G37*
G36*
X-2653538Y881887D02*
G01*
X-2656179Y881684D01*
X-2658618Y880973D01*
X-2660751Y879906D01*
X-2662682Y878332D01*
X-2664256Y876452D01*
X-2665323Y874268D01*
X-2666034Y871880D01*
X-2666238Y869187D01*
X-2666034Y866546D01*
X-2665323Y864108D01*
X-2664256Y861923D01*
X-2662682Y860044D01*
X-2660751Y858469D01*
X-2658618Y857402D01*
X-2656179Y856691D01*
X-2653538Y856487D01*
X-2650845Y856691D01*
X-2648458Y857402D01*
X-2646273Y858469D01*
X-2644394Y860044D01*
X-2642819Y861923D01*
X-2641701Y864108D01*
X-2641041Y866546D01*
X-2640838Y869187D01*
X-2641041Y871880D01*
X-2641701Y874268D01*
X-2642819Y876452D01*
X-2644394Y878332D01*
X-2646273Y879906D01*
X-2648458Y881024D01*
X-2650845Y881684D01*
G37*
G36*
X-2591562Y823721D02*
G01*
X-2608529Y821740D01*
X-2621280Y815848D01*
X-2629103Y806145D01*
X-2631694Y793242D01*
X-2631440Y789076D01*
X-2631163Y787654D01*
X-2613152Y787654D01*
X-2612796Y791260D01*
X-2611729Y794410D01*
X-2610002Y797102D01*
X-2607564Y799338D01*
X-2604363Y801116D01*
X-2600655Y802386D01*
X-2596388Y803148D01*
X-2591562Y803402D01*
X-2575356Y799439D01*
X-2569972Y787654D01*
X-2570276Y783793D01*
X-2571242Y780542D01*
X-2572816Y777951D01*
X-2575052Y775970D01*
X-2577998Y774547D01*
X-2581706Y773480D01*
X-2586228Y772871D01*
X-2591562Y772668D01*
X-2596743Y772871D01*
X-2601214Y773582D01*
X-2604871Y774649D01*
X-2607818Y776224D01*
X-2610154Y778357D01*
X-2611831Y780999D01*
X-2612796Y784098D01*
X-2613152Y787654D01*
X-2631163Y787654D01*
X-2630728Y785418D01*
X-2629560Y782320D01*
X-2627884Y779780D01*
X-2625699Y777697D01*
X-2623058Y775970D01*
X-2619857Y774649D01*
X-2616200Y773684D01*
X-2616200Y772414D01*
X-2630424Y771144D01*
X-2630424Y752602D01*
X-2559558Y752602D01*
X-2541625Y755091D01*
X-2529078Y762508D01*
X-2521458Y775055D01*
X-2518410Y793496D01*
X-2517648Y816102D01*
X-2534920Y816864D01*
X-2535682Y791972D01*
X-2536139Y787247D01*
X-2537206Y783234D01*
X-2538933Y779881D01*
X-2541270Y777240D01*
X-2544368Y775258D01*
X-2548077Y773836D01*
X-2552344Y772972D01*
X-2557272Y772668D01*
X-2566670Y772668D01*
X-2566670Y774192D01*
X-2563114Y775055D01*
X-2560015Y776376D01*
X-2557373Y778103D01*
X-2555240Y780288D01*
X-2553462Y782929D01*
X-2552192Y785926D01*
X-2551430Y789381D01*
X-2551176Y793242D01*
X-2553766Y806145D01*
X-2561590Y815848D01*
X-2574290Y821740D01*
G37*
G36*
X-2630424Y730504D02*
G01*
X-2630424Y712978D01*
X-2616200Y710946D01*
X-2616200Y708914D01*
X-2619857Y708101D01*
X-2623058Y706932D01*
X-2625699Y705459D01*
X-2627884Y703580D01*
X-2629560Y701141D01*
X-2630728Y698195D01*
X-2631440Y694690D01*
X-2631694Y690626D01*
X-2631236Y684784D01*
X-2629865Y679653D01*
X-2627528Y675233D01*
X-2624328Y671576D01*
X-2620264Y668578D01*
X-2615387Y666445D01*
X-2609697Y665124D01*
X-2603246Y664718D01*
X-2552700Y664718D01*
X-2552700Y684784D01*
X-2598420Y684784D01*
X-2601671Y684936D01*
X-2604516Y685495D01*
X-2607005Y686358D01*
X-2609088Y687578D01*
X-2610764Y689152D01*
X-2611932Y691032D01*
X-2612644Y693216D01*
X-2612898Y695706D01*
X-2607564Y706932D01*
X-2591562Y710692D01*
X-2552700Y710692D01*
X-2552700Y730504D01*
G37*
G36*
X-2591562Y645668D02*
G01*
X-2608529Y643382D01*
X-2621280Y636524D01*
X-2629103Y625195D01*
X-2631651Y609854D01*
X-2613660Y609854D01*
X-2613406Y613105D01*
X-2612593Y616000D01*
X-2611221Y618591D01*
X-2609342Y620776D01*
X-2607056Y622706D01*
X-2604312Y624281D01*
X-2601112Y625398D01*
X-2597404Y626110D01*
X-2597404Y594868D01*
X-2601112Y595122D01*
X-2604312Y595833D01*
X-2607056Y597001D01*
X-2609342Y598678D01*
X-2611221Y600913D01*
X-2612593Y603504D01*
X-2613406Y606501D01*
X-2613660Y609854D01*
X-2631651Y609854D01*
X-2629255Y595426D01*
X-2622042Y584454D01*
X-2610104Y577596D01*
X-2593594Y575310D01*
X-2583688Y575818D01*
X-2583688Y625094D01*
X-2573375Y617016D01*
X-2569972Y601980D01*
X-2570276Y594106D01*
X-2570784Y589026D01*
X-2572004Y581152D01*
X-2553208Y579120D01*
X-2552192Y586232D01*
X-2551277Y598627D01*
X-2551176Y603758D01*
X-2553766Y621538D01*
X-2561590Y634746D01*
X-2574290Y642924D01*
G37*
G36*
X-2591562Y560070D02*
G01*
X-2608529Y558038D01*
X-2621280Y551942D01*
X-2629103Y542442D01*
X-2631694Y529590D01*
X-2631440Y525526D01*
X-2631130Y524001D01*
X-2613152Y524001D01*
X-2612796Y527608D01*
X-2611729Y530707D01*
X-2610002Y533450D01*
X-2607564Y535686D01*
X-2604363Y537464D01*
X-2600655Y538734D01*
X-2596388Y539496D01*
X-2591562Y539750D01*
X-2575356Y535838D01*
X-2569972Y524001D01*
X-2570276Y520141D01*
X-2571242Y516890D01*
X-2572816Y514299D01*
X-2575052Y512318D01*
X-2577998Y510743D01*
X-2581706Y509676D01*
X-2586228Y508965D01*
X-2591562Y508762D01*
X-2596743Y509016D01*
X-2601214Y509727D01*
X-2604871Y510895D01*
X-2607818Y512572D01*
X-2610154Y514705D01*
X-2611831Y517347D01*
X-2612796Y520446D01*
X-2613152Y524001D01*
X-2631130Y524001D01*
X-2630728Y522020D01*
X-2629560Y519074D01*
X-2627884Y516635D01*
X-2625699Y514553D01*
X-2623058Y512876D01*
X-2619857Y511657D01*
X-2616200Y510793D01*
X-2616200Y508762D01*
X-2662682Y508762D01*
X-2662682Y488950D01*
X-2552700Y488950D01*
X-2551938Y505968D01*
X-2566670Y508762D01*
X-2566670Y510540D01*
X-2563114Y511301D01*
X-2560015Y512572D01*
X-2557373Y514350D01*
X-2555240Y516635D01*
X-2553462Y519277D01*
X-2552192Y522274D01*
X-2551430Y525729D01*
X-2551176Y529590D01*
X-2553766Y542442D01*
X-2561590Y551942D01*
X-2574290Y558038D01*
G37*
G36*
X-2570988Y379730D02*
G01*
X-2570988Y351028D01*
X-2612136Y351028D01*
X-2612136Y375158D01*
X-2630424Y375158D01*
X-2630424Y331216D01*
X-2570988Y331216D01*
X-2570988Y308102D01*
X-2552700Y308102D01*
X-2552700Y379730D01*
G37*
G36*
X-2653538Y354584D02*
G01*
X-2656179Y354380D01*
X-2658618Y353669D01*
X-2660751Y352602D01*
X-2662682Y351028D01*
X-2664256Y349097D01*
X-2665323Y346964D01*
X-2666034Y344576D01*
X-2666238Y341884D01*
X-2666034Y339242D01*
X-2665323Y336804D01*
X-2664256Y334670D01*
X-2662682Y332740D01*
X-2660751Y331165D01*
X-2658618Y330098D01*
X-2656179Y329387D01*
X-2653538Y329184D01*
X-2650845Y329387D01*
X-2648458Y330047D01*
X-2646273Y331165D01*
X-2644394Y332740D01*
X-2642819Y334670D01*
X-2641701Y336804D01*
X-2641041Y339242D01*
X-2640838Y341884D01*
X-2641041Y344576D01*
X-2641701Y346964D01*
X-2642819Y349148D01*
X-2644394Y351028D01*
X-2646273Y352602D01*
X-2648458Y353720D01*
X-2650845Y354380D01*
G37*
G36*
X-2630424Y291084D02*
G01*
X-2630424Y273304D01*
X-2616200Y271526D01*
X-2616200Y269494D01*
X-2619857Y268681D01*
X-2623058Y267512D01*
X-2625699Y266039D01*
X-2627884Y264160D01*
X-2629560Y261721D01*
X-2630728Y258775D01*
X-2631440Y255270D01*
X-2631694Y251206D01*
X-2631236Y245364D01*
X-2629865Y240233D01*
X-2627528Y235813D01*
X-2624328Y232156D01*
X-2620264Y229158D01*
X-2615387Y227025D01*
X-2609697Y225704D01*
X-2603246Y225298D01*
X-2552700Y225298D01*
X-2552700Y245110D01*
X-2598420Y245110D01*
X-2601671Y245313D01*
X-2604516Y245871D01*
X-2607005Y246837D01*
X-2609088Y248158D01*
X-2610764Y249732D01*
X-2611932Y251561D01*
X-2612644Y253796D01*
X-2612898Y256286D01*
X-2607564Y267512D01*
X-2591562Y271272D01*
X-2552700Y271272D01*
X-2552700Y291084D01*
G37*
G36*
X-2656586Y115824D02*
G01*
X-2656586Y96520D01*
X-2570480Y96520D01*
X-2570480Y78994D01*
X-2570734Y75285D01*
X-2571445Y72034D01*
X-2572613Y69189D01*
X-2574290Y66802D01*
X-2576271Y64922D01*
X-2578658Y63550D01*
X-2581503Y62738D01*
X-2584704Y62484D01*
X-2587853Y62788D01*
X-2590596Y63652D01*
X-2593035Y65074D01*
X-2595118Y67056D01*
X-2596692Y69596D01*
X-2597759Y72593D01*
X-2598470Y76047D01*
X-2598674Y80010D01*
X-2598674Y96520D01*
X-2616454Y96520D01*
X-2616454Y83566D01*
X-2619451Y73253D01*
X-2628392Y69850D01*
X-2632964Y70764D01*
X-2636215Y73507D01*
X-2638145Y78130D01*
X-2638806Y84582D01*
X-2638806Y96520D01*
X-2656586Y96520D01*
X-2656586Y83820D01*
X-2654909Y69240D01*
X-2649982Y58419D01*
X-2646324Y54508D01*
X-2641904Y51765D01*
X-2636774Y50088D01*
X-2630932Y49530D01*
X-2626156Y49936D01*
X-2621889Y51104D01*
X-2618282Y53086D01*
X-2615184Y55880D01*
X-2612593Y59385D01*
X-2610662Y63500D01*
X-2609443Y68275D01*
X-2608834Y73660D01*
X-2606548Y73660D01*
X-2606548Y70358D01*
X-2606141Y64008D01*
X-2604871Y58419D01*
X-2602839Y53593D01*
X-2599944Y49530D01*
X-2596286Y46329D01*
X-2591917Y43992D01*
X-2586888Y42621D01*
X-2581148Y42164D01*
X-2574798Y42672D01*
X-2569159Y44246D01*
X-2564231Y46888D01*
X-2560066Y50546D01*
X-2554528Y60960D01*
X-2552700Y74930D01*
X-2552700Y115824D01*
G37*
G36*
X-2591562Y30480D02*
G01*
X-2608529Y28143D01*
X-2621280Y21082D01*
X-2629103Y9956D01*
X-2631652Y-5334D01*
X-2613660Y-5334D01*
X-2613406Y-2082D01*
X-2612593Y812D01*
X-2611221Y3403D01*
X-2609342Y5588D01*
X-2607056Y7416D01*
X-2604312Y8890D01*
X-2601112Y9956D01*
X-2597404Y10668D01*
X-2597404Y-20320D01*
X-2601112Y-20066D01*
X-2604312Y-19354D01*
X-2607056Y-18186D01*
X-2609342Y-16510D01*
X-2611221Y-14274D01*
X-2612593Y-11684D01*
X-2613406Y-8686D01*
X-2613660Y-5334D01*
X-2631652Y-5334D01*
X-2629255Y-19862D01*
X-2622042Y-30733D01*
X-2610104Y-37592D01*
X-2593594Y-39878D01*
X-2583688Y-39370D01*
X-2583688Y9906D01*
X-2573375Y1828D01*
X-2569972Y-13208D01*
X-2570276Y-21082D01*
X-2572004Y-34290D01*
X-2553208Y-36068D01*
X-2552192Y-29006D01*
X-2551277Y-16713D01*
X-2551176Y-11684D01*
X-2553766Y6299D01*
X-2561590Y19558D01*
X-2574290Y27736D01*
G37*
G36*
X-2630424Y-60452D02*
G01*
X-2630424Y-78232D01*
X-2616200Y-80010D01*
X-2616200Y-82296D01*
X-2619857Y-83007D01*
X-2623058Y-84124D01*
X-2625699Y-85699D01*
X-2627884Y-87630D01*
X-2629560Y-89966D01*
X-2630728Y-92811D01*
X-2631440Y-96316D01*
X-2631694Y-100330D01*
X-2631236Y-106172D01*
X-2629865Y-111302D01*
X-2627528Y-115722D01*
X-2624328Y-119380D01*
X-2620264Y-122377D01*
X-2615387Y-124510D01*
X-2609697Y-125831D01*
X-2603246Y-126237D01*
X-2552700Y-126237D01*
X-2552700Y-106426D01*
X-2598420Y-106426D01*
X-2601671Y-106222D01*
X-2604516Y-105664D01*
X-2607005Y-104698D01*
X-2609088Y-103378D01*
X-2610764Y-101803D01*
X-2611932Y-99923D01*
X-2612644Y-97739D01*
X-2612898Y-95250D01*
X-2607564Y-84023D01*
X-2591562Y-80264D01*
X-2552700Y-80264D01*
X-2552700Y-60452D01*
G37*
G36*
X-2591562Y-143002D02*
G01*
X-2608529Y-145034D01*
X-2621280Y-151130D01*
X-2629103Y-160731D01*
X-2631694Y-173736D01*
X-2631212Y-179070D01*
X-2613152Y-179070D01*
X-2612796Y-175463D01*
X-2611729Y-172313D01*
X-2610002Y-169621D01*
X-2607564Y-167386D01*
X-2604363Y-165608D01*
X-2600655Y-164338D01*
X-2596388Y-163576D01*
X-2591562Y-163322D01*
X-2575356Y-167284D01*
X-2569972Y-179070D01*
X-2570276Y-182981D01*
X-2571242Y-186232D01*
X-2572816Y-188925D01*
X-2575052Y-191008D01*
X-2577998Y-192430D01*
X-2581706Y-193497D01*
X-2586228Y-194106D01*
X-2591562Y-194310D01*
X-2596743Y-194056D01*
X-2601214Y-193344D01*
X-2604871Y-192176D01*
X-2607818Y-190500D01*
X-2610154Y-188366D01*
X-2611831Y-185724D01*
X-2612796Y-182626D01*
X-2613152Y-179070D01*
X-2631212Y-179070D01*
X-2630728Y-181559D01*
X-2629560Y-184658D01*
X-2627884Y-187198D01*
X-2625699Y-189280D01*
X-2623058Y-190957D01*
X-2619857Y-192176D01*
X-2616200Y-193040D01*
X-2616200Y-194564D01*
X-2630424Y-195580D01*
X-2630424Y-214121D01*
X-2559558Y-214121D01*
X-2541625Y-211734D01*
X-2529078Y-204470D01*
X-2521458Y-191719D01*
X-2518410Y-173228D01*
X-2517648Y-150622D01*
X-2534920Y-149860D01*
X-2535682Y-174752D01*
X-2536139Y-179476D01*
X-2537206Y-183591D01*
X-2538933Y-186994D01*
X-2541270Y-189738D01*
X-2544368Y-191719D01*
X-2548077Y-193192D01*
X-2552344Y-194005D01*
X-2557272Y-194310D01*
X-2566670Y-194310D01*
X-2566670Y-192532D01*
X-2563114Y-191770D01*
X-2560015Y-190500D01*
X-2557373Y-188722D01*
X-2555240Y-186436D01*
X-2553462Y-183794D01*
X-2552192Y-180797D01*
X-2551430Y-177342D01*
X-2551176Y-173482D01*
X-2553766Y-160629D01*
X-2561590Y-151130D01*
X-2574290Y-145034D01*
G37*
G36*
X-2574544Y-230886D02*
G01*
X-2580741Y-231444D01*
X-2586177Y-233171D01*
X-2590800Y-236016D01*
X-2594610Y-240029D01*
X-2599740Y-250799D01*
X-2601468Y-265430D01*
X-2601455Y-268325D01*
X-2584958Y-268325D01*
X-2584399Y-259689D01*
X-2582722Y-254812D01*
X-2579979Y-251917D01*
X-2576068Y-250952D01*
X-2572512Y-251612D01*
X-2569972Y-253695D01*
X-2568448Y-257098D01*
X-2567940Y-261874D01*
X-2568092Y-264922D01*
X-2568498Y-267716D01*
X-2569210Y-270256D01*
X-2570226Y-272542D01*
X-2571445Y-274574D01*
X-2572816Y-276352D01*
X-2574391Y-277876D01*
X-2576068Y-279146D01*
X-2577947Y-280060D01*
X-2581757Y-281178D01*
X-2583688Y-281432D01*
X-2584704Y-273812D01*
X-2584958Y-268325D01*
X-2601455Y-268325D01*
X-2600960Y-275945D01*
X-2599944Y-281432D01*
X-2603144Y-281076D01*
X-2605633Y-280111D01*
X-2607716Y-278434D01*
X-2609342Y-276098D01*
X-2610612Y-273100D01*
X-2611577Y-269494D01*
X-2612237Y-265226D01*
X-2612644Y-260350D01*
X-2613152Y-240538D01*
X-2631186Y-241808D01*
X-2630932Y-258825D01*
X-2628696Y-277164D01*
X-2622550Y-290068D01*
X-2612644Y-297891D01*
X-2599182Y-300482D01*
X-2570480Y-300482D01*
X-2568702Y-311150D01*
X-2552700Y-311150D01*
X-2551938Y-283464D01*
X-2569210Y-282194D01*
X-2569210Y-280416D01*
X-2564942Y-279603D01*
X-2561285Y-278130D01*
X-2558186Y-276047D01*
X-2555748Y-273304D01*
X-2553766Y-270002D01*
X-2552293Y-266192D01*
X-2551480Y-261874D01*
X-2551176Y-257048D01*
X-2551531Y-251155D01*
X-2552700Y-245973D01*
X-2554579Y-241503D01*
X-2557272Y-237744D01*
X-2560624Y-234746D01*
X-2564638Y-232613D01*
X-2569260Y-231292D01*
G37*
G36*
X-2662682Y-319024D02*
G01*
X-2662682Y-360680D01*
X-2585720Y-360680D01*
X-2582418Y-360832D01*
X-2579573Y-361289D01*
X-2577185Y-362102D01*
X-2575306Y-363220D01*
X-2573883Y-364845D01*
X-2572816Y-367284D01*
X-2572207Y-370433D01*
X-2572004Y-374396D01*
X-2572156Y-377799D01*
X-2573578Y-385927D01*
X-2574798Y-390652D01*
X-2554224Y-392938D01*
X-2552903Y-386892D01*
X-2551938Y-381000D01*
X-2551379Y-374954D01*
X-2551176Y-368554D01*
X-2551684Y-361696D01*
X-2553208Y-355904D01*
X-2555748Y-351180D01*
X-2559304Y-347472D01*
X-2569768Y-342544D01*
X-2584958Y-340868D01*
X-2644394Y-340868D01*
X-2644394Y-319024D01*
G37*
G36*
X-2630424Y-410464D02*
G01*
X-2630424Y-430276D01*
X-2583942Y-430276D01*
X-2580843Y-430479D01*
X-2578100Y-431038D01*
X-2575763Y-432003D01*
X-2573782Y-433324D01*
X-2572105Y-435000D01*
X-2570937Y-436930D01*
X-2570226Y-439166D01*
X-2569972Y-441706D01*
X-2570327Y-444906D01*
X-2571343Y-447751D01*
X-2573121Y-450138D01*
X-2575560Y-452120D01*
X-2578709Y-453694D01*
X-2582722Y-454812D01*
X-2587701Y-455472D01*
X-2593594Y-455676D01*
X-2630424Y-455676D01*
X-2630424Y-475488D01*
X-2570480Y-475488D01*
X-2568702Y-486156D01*
X-2552700Y-486156D01*
X-2551938Y-456946D01*
X-2567686Y-455930D01*
X-2567686Y-453643D01*
X-2563977Y-452526D01*
X-2560675Y-451002D01*
X-2557881Y-448970D01*
X-2555494Y-446532D01*
X-2553614Y-443738D01*
X-2552242Y-440639D01*
X-2551430Y-437235D01*
X-2551176Y-433578D01*
X-2551633Y-428396D01*
X-2553004Y-423875D01*
X-2555341Y-419912D01*
X-2558542Y-416559D01*
X-2562606Y-413867D01*
X-2567381Y-411988D01*
X-2572867Y-410819D01*
X-2579116Y-410464D01*
G37*
G36*
X-2569718Y-493522D02*
G01*
X-2569718Y-509778D01*
X-2613406Y-509778D01*
X-2613406Y-496316D01*
X-2630424Y-496316D01*
X-2630424Y-526796D01*
X-2612898Y-529082D01*
X-2612898Y-531622D01*
X-2626969Y-537260D01*
X-2631694Y-551688D01*
X-2631186Y-556818D01*
X-2629662Y-561340D01*
X-2627122Y-565200D01*
X-2623566Y-568452D01*
X-2613660Y-573024D01*
X-2600198Y-574548D01*
X-2600198Y-554736D01*
X-2603398Y-554583D01*
X-2606090Y-554126D01*
X-2608326Y-553313D01*
X-2610104Y-552196D01*
X-2611424Y-550722D01*
X-2612390Y-548894D01*
X-2612948Y-546658D01*
X-2613152Y-544068D01*
X-2612694Y-540613D01*
X-2611374Y-537667D01*
X-2609138Y-535178D01*
X-2606040Y-533146D01*
X-2602230Y-531571D01*
X-2597607Y-530453D01*
X-2592171Y-529793D01*
X-2585974Y-529590D01*
X-2569718Y-529590D01*
X-2569718Y-547878D01*
X-2552700Y-547878D01*
X-2552700Y-493522D01*
G37*
G36*
X-2630424Y-586232D02*
G01*
X-2630424Y-606044D01*
X-2583942Y-606044D01*
X-2580843Y-606247D01*
X-2578100Y-606806D01*
X-2575763Y-607771D01*
X-2573782Y-609092D01*
X-2572105Y-610768D01*
X-2570937Y-612698D01*
X-2570226Y-614934D01*
X-2569972Y-617474D01*
X-2570327Y-620674D01*
X-2571343Y-623519D01*
X-2573121Y-625906D01*
X-2575560Y-627888D01*
X-2578709Y-629462D01*
X-2582722Y-630529D01*
X-2587701Y-631240D01*
X-2593594Y-631444D01*
X-2630424Y-631444D01*
X-2630424Y-651256D01*
X-2570480Y-651256D01*
X-2568702Y-661924D01*
X-2552700Y-661924D01*
X-2551938Y-632714D01*
X-2567686Y-631698D01*
X-2567686Y-629412D01*
X-2563977Y-628294D01*
X-2560675Y-626770D01*
X-2557881Y-624738D01*
X-2555494Y-622300D01*
X-2553614Y-619506D01*
X-2552242Y-616407D01*
X-2551430Y-613003D01*
X-2551176Y-609346D01*
X-2551633Y-604164D01*
X-2553004Y-599643D01*
X-2555341Y-595680D01*
X-2558542Y-592328D01*
X-2562606Y-589635D01*
X-2567381Y-587756D01*
X-2572867Y-586587D01*
X-2579116Y-586232D01*
G37*
G36*
X302107Y2363012D02*
G01*
X290017Y2360777D01*
X279755Y2354122D01*
X288645Y2343962D01*
X292150Y2346960D01*
X295554Y2349093D01*
X298856Y2350414D01*
X302107Y2350820D01*
X304088Y2350719D01*
X305917Y2350312D01*
X307441Y2349703D01*
X309778Y2347823D01*
X310591Y2346655D01*
X311048Y2345283D01*
X311251Y2343708D01*
X310794Y2341372D01*
X309575Y2339289D01*
X307492Y2337308D01*
X304647Y2335580D01*
X295249Y2330754D01*
X291846Y2328773D01*
X288899Y2326640D01*
X286258Y2324303D01*
X284022Y2321864D01*
X282295Y2319274D01*
X281025Y2316581D01*
X280263Y2313838D01*
X280009Y2310942D01*
X280416Y2306624D01*
X281635Y2302814D01*
X283718Y2299512D01*
X286613Y2296718D01*
X290271Y2294483D01*
X294640Y2292908D01*
X299770Y2291943D01*
X305663Y2291638D01*
X311404Y2291892D01*
X317093Y2292654D01*
X322326Y2293874D01*
X326999Y2295448D01*
X325221Y2308656D01*
X319836Y2306675D01*
X314655Y2305253D01*
X309676Y2304389D01*
X304901Y2304084D01*
X302361Y2304186D01*
X300177Y2304542D01*
X298297Y2305100D01*
X296722Y2305862D01*
X295503Y2306878D01*
X294640Y2308098D01*
X294132Y2309520D01*
X293979Y2311196D01*
X294335Y2313381D01*
X295402Y2315260D01*
X297230Y2316937D01*
X309727Y2323134D01*
X313182Y2325116D01*
X316230Y2327300D01*
X318871Y2329688D01*
X321157Y2332278D01*
X322935Y2334920D01*
X324154Y2337765D01*
X324967Y2340762D01*
X325221Y2343962D01*
X324815Y2348280D01*
X323697Y2352040D01*
X321767Y2355240D01*
X319125Y2357932D01*
X315823Y2360168D01*
X311912Y2361742D01*
X307340Y2362708D01*
G37*
G36*
X418947Y2361996D02*
G01*
X413664Y2361641D01*
X409041Y2360625D01*
X405028Y2358847D01*
X401675Y2356408D01*
X398983Y2353462D01*
X397052Y2349855D01*
X395935Y2345690D01*
X395579Y2340914D01*
X395794Y2339898D01*
X409549Y2339898D01*
X409701Y2342286D01*
X410159Y2344369D01*
X410972Y2346096D01*
X412089Y2347518D01*
X413461Y2348636D01*
X415035Y2349449D01*
X416864Y2349906D01*
X418947Y2350058D01*
X430885Y2350058D01*
X430885Y2329992D01*
X418947Y2329992D01*
X416864Y2330145D01*
X415035Y2330653D01*
X413461Y2331415D01*
X412089Y2332532D01*
X410972Y2334056D01*
X410159Y2335784D01*
X409701Y2337714D01*
X409549Y2339898D01*
X395794Y2339898D01*
X398170Y2328672D01*
X405993Y2320848D01*
X393039Y2292654D01*
X408533Y2292654D01*
X418693Y2318054D01*
X430885Y2318054D01*
X430885Y2292654D01*
X443585Y2292654D01*
X443585Y2361996D01*
G37*
G36*
X336651Y2361996D02*
G01*
X336651Y2350058D01*
X371195Y2350058D01*
X371195Y2333294D01*
X345287Y2333294D01*
X345287Y2321356D01*
X371195Y2321356D01*
X371195Y2304592D01*
X336651Y2304592D01*
X336651Y2292654D01*
X384149Y2292654D01*
X384149Y2361996D01*
G37*
G36*
X219303Y2361996D02*
G01*
X219303Y2350058D01*
X254101Y2350058D01*
X254101Y2333294D01*
X228193Y2333294D01*
X228193Y2321356D01*
X254101Y2321356D01*
X254101Y2304592D01*
X219303Y2304592D01*
X219303Y2292654D01*
X266801Y2292654D01*
X266801Y2361996D01*
G37*
G36*
X159867Y2361996D02*
G01*
X159867Y2350058D01*
X179679Y2350058D01*
X179679Y2292654D01*
X192379Y2292654D01*
X192379Y2350058D01*
X212191Y2350058D01*
X212191Y2361996D01*
G37*
G36*
X1650847Y2369108D02*
G01*
X1647494Y2368956D01*
X1644345Y2368550D01*
X1641398Y2367838D01*
X1638655Y2366822D01*
X1636115Y2365552D01*
X1633931Y2364079D01*
X1632051Y2362403D01*
X1630527Y2360472D01*
X1637893Y2351074D01*
X1640382Y2353513D01*
X1643380Y2355291D01*
X1646885Y2356307D01*
X1650847Y2356662D01*
X1654810Y2356307D01*
X1658366Y2355189D01*
X1661515Y2353360D01*
X1664309Y2350820D01*
X1666493Y2347468D01*
X1668119Y2343607D01*
X1669034Y2339086D01*
X1669389Y2334056D01*
X1668018Y2323490D01*
X1664055Y2315972D01*
X1657350Y2311450D01*
X1648053Y2309926D01*
X1644497Y2310130D01*
X1640992Y2310688D01*
X1637487Y2311654D01*
X1634083Y2312974D01*
X1631797Y2301036D01*
X1636115Y2299614D01*
X1640586Y2298547D01*
X1645157Y2297938D01*
X1649831Y2297734D01*
X1659889Y2298750D01*
X1668170Y2301697D01*
X1674571Y2306675D01*
X1679143Y2313635D01*
X1681886Y2322626D01*
X1682851Y2333548D01*
X1680718Y2348484D01*
X1674469Y2359710D01*
X1664360Y2366772D01*
G37*
G36*
X1539849Y2369108D02*
G01*
X1528267Y2366822D01*
X1520037Y2360015D01*
X1515059Y2348687D01*
X1513433Y2332786D01*
X1526895Y2332786D01*
X1530096Y2350719D01*
X1539849Y2356662D01*
X1549349Y2350719D01*
X1552549Y2332786D01*
X1549349Y2315616D01*
X1539849Y2309926D01*
X1530096Y2315616D01*
X1526895Y2332786D01*
X1513433Y2332786D01*
X1515059Y2317445D01*
X1519986Y2306523D01*
X1528267Y2299919D01*
X1539849Y2297734D01*
X1551381Y2299919D01*
X1559661Y2306472D01*
X1564589Y2317445D01*
X1566265Y2332786D01*
X1564589Y2348687D01*
X1559661Y2360015D01*
X1551381Y2366822D01*
G37*
G36*
X1747875Y2368092D02*
G01*
X1747875Y2356154D01*
X1782673Y2356154D01*
X1782673Y2336596D01*
X1757527Y2336596D01*
X1757527Y2324404D01*
X1782673Y2324404D01*
X1782673Y2298750D01*
X1795373Y2298750D01*
X1795373Y2368092D01*
G37*
G36*
X1707743Y2368092D02*
G01*
X1694880Y2323642D01*
X1707997Y2323642D01*
X1715109Y2351074D01*
X1715871Y2351074D01*
X1722983Y2323642D01*
X1694880Y2323642D01*
X1687677Y2298750D01*
X1701647Y2298750D01*
X1704949Y2311958D01*
X1726031Y2311958D01*
X1729587Y2298750D01*
X1743557Y2298750D01*
X1723491Y2368092D01*
G37*
G36*
X1572107Y2368092D02*
G01*
X1572107Y2356154D01*
X1591919Y2356154D01*
X1591919Y2298750D01*
X1604822Y2298750D01*
X1604822Y2356154D01*
X1624685Y2356154D01*
X1624685Y2368092D01*
G37*
G36*
X1479905Y2368092D02*
G01*
X1474622Y2367737D01*
X1469999Y2366721D01*
X1465986Y2364943D01*
X1462633Y2362504D01*
X1459839Y2359558D01*
X1457858Y2355951D01*
X1456639Y2351786D01*
X1456283Y2347010D01*
X1456498Y2345994D01*
X1470253Y2345994D01*
X1470406Y2348280D01*
X1470863Y2350312D01*
X1471676Y2352090D01*
X1472793Y2353614D01*
X1474165Y2354732D01*
X1475841Y2355545D01*
X1477721Y2356002D01*
X1479905Y2356154D01*
X1491589Y2356154D01*
X1491589Y2335834D01*
X1479905Y2335834D01*
X1477721Y2335987D01*
X1475841Y2336546D01*
X1474165Y2337409D01*
X1472793Y2338628D01*
X1471676Y2340051D01*
X1470863Y2341727D01*
X1470406Y2343708D01*
X1470253Y2345994D01*
X1456498Y2345994D01*
X1458874Y2334768D01*
X1466697Y2326944D01*
X1453743Y2298750D01*
X1469237Y2298750D01*
X1479397Y2324150D01*
X1491589Y2324150D01*
X1491589Y2298750D01*
X1504543Y2298750D01*
X1504543Y2368092D01*
G37*
G36*
X1393545Y2368092D02*
G01*
X1416151Y2320848D01*
X1416151Y2298750D01*
X1429105Y2298750D01*
X1429105Y2320848D01*
X1451457Y2368092D01*
X1436979Y2368092D01*
X1423009Y2335834D01*
X1422247Y2335834D01*
X1407972Y2368092D01*
G37*
G36*
X3925315Y233425D02*
G01*
X3925315Y205486D01*
X3986276Y205486D01*
X3986276Y25400D01*
X4016756Y25400D01*
X4016756Y205486D01*
X4077715Y205486D01*
X4077715Y233425D01*
G37*
G36*
X3476751Y233425D02*
G01*
X3461867Y232562D01*
X3448812Y229971D01*
X3437483Y225704D01*
X3427984Y219710D01*
X3420414Y212090D01*
X3415029Y203047D01*
X3411778Y192532D01*
X3410712Y180594D01*
X3410992Y177800D01*
X3441446Y177800D01*
X3443833Y189636D01*
X3451098Y198374D01*
X3462578Y203708D01*
X3478276Y205486D01*
X3508248Y205486D01*
X3508248Y149098D01*
X3476244Y149098D01*
X3461562Y150977D01*
X3450590Y156718D01*
X3443732Y165658D01*
X3441446Y177800D01*
X3410992Y177800D01*
X3411728Y170484D01*
X3414776Y161645D01*
X3419856Y153974D01*
X3426968Y147574D01*
X3436061Y142443D01*
X3446881Y138785D01*
X3460496Y136550D01*
X3460496Y134467D01*
X3447287Y133756D01*
X3434130Y131216D01*
X3422751Y127000D01*
X3413251Y121158D01*
X3405682Y113588D01*
X3400298Y104648D01*
X3397046Y94284D01*
X3396372Y86868D01*
X3426714Y86868D01*
X3429508Y101447D01*
X3437890Y112268D01*
X3451301Y119075D01*
X3469386Y121361D01*
X3508248Y121361D01*
X3508248Y53340D01*
X3467354Y53340D01*
X3450183Y55524D01*
X3437382Y62230D01*
X3429355Y72694D01*
X3426714Y86868D01*
X3396372Y86868D01*
X3395979Y82550D01*
X3396996Y69697D01*
X3400094Y58419D01*
X3405225Y48615D01*
X3412490Y40386D01*
X3421481Y33782D01*
X3432200Y29108D01*
X3444697Y26314D01*
X3458972Y25400D01*
X3538728Y25400D01*
X3538728Y233425D01*
G37*
G36*
X840232Y233425D02*
G01*
X825246Y232562D01*
X812088Y229971D01*
X800709Y225704D01*
X791210Y219710D01*
X783640Y212090D01*
X778256Y203047D01*
X775004Y192532D01*
X773938Y180594D01*
X774218Y177800D01*
X804672Y177800D01*
X807059Y189636D01*
X814324Y198374D01*
X825906Y203708D01*
X841502Y205486D01*
X871474Y205486D01*
X871474Y149098D01*
X839419Y149098D01*
X824788Y150977D01*
X813816Y156718D01*
X806958Y165658D01*
X804672Y177800D01*
X774218Y177800D01*
X774954Y170484D01*
X777951Y161645D01*
X783082Y153974D01*
X790194Y147574D01*
X799287Y142443D01*
X810107Y138785D01*
X823721Y136550D01*
X823721Y134467D01*
X810514Y133756D01*
X797356Y131216D01*
X785977Y127000D01*
X776478Y121158D01*
X768908Y113588D01*
X763524Y104648D01*
X760272Y94284D01*
X759598Y86868D01*
X789940Y86868D01*
X792683Y101447D01*
X801116Y112268D01*
X814628Y119075D01*
X832866Y121361D01*
X871474Y121361D01*
X871474Y53340D01*
X830834Y53340D01*
X813612Y55524D01*
X800608Y62230D01*
X792581Y72694D01*
X789940Y86868D01*
X759598Y86868D01*
X759206Y82550D01*
X760222Y69697D01*
X763320Y58419D01*
X768451Y48615D01*
X775716Y40386D01*
X784707Y33782D01*
X795426Y29108D01*
X807923Y26314D01*
X822198Y25400D01*
X901953Y25400D01*
X901953Y233425D01*
G37*
G36*
X1723898Y227584D02*
G01*
X1723898Y180594D01*
X1653286Y180594D01*
X1653286Y153416D01*
X1723898Y153416D01*
X1723898Y85598D01*
X1721662Y69596D01*
X1715007Y58674D01*
X1702968Y52374D01*
X1685289Y50292D01*
X1677720Y50444D01*
X1661007Y51968D01*
X1651000Y53340D01*
X1647443Y25908D01*
X1657654Y24384D01*
X1667510Y23368D01*
X1677517Y22758D01*
X1688338Y22606D01*
X1704746Y23469D01*
X1718716Y26212D01*
X1730248Y30733D01*
X1739392Y37084D01*
X1746250Y45516D01*
X1751177Y56184D01*
X1754124Y69037D01*
X1755139Y84074D01*
X1755139Y153416D01*
X1794002Y153416D01*
X1794002Y180594D01*
X1755139Y180594D01*
X1755139Y227584D01*
G37*
G36*
X1372362Y227584D02*
G01*
X1372362Y180594D01*
X1301750Y180594D01*
X1301750Y153416D01*
X1372362Y153416D01*
X1372362Y85598D01*
X1370126Y69596D01*
X1363472Y58674D01*
X1351432Y52374D01*
X1333754Y50292D01*
X1326184Y50444D01*
X1309471Y51968D01*
X1299464Y53340D01*
X1295908Y25908D01*
X1306118Y24384D01*
X1315974Y23368D01*
X1325981Y22758D01*
X1336802Y22606D01*
X1353210Y23469D01*
X1367180Y26212D01*
X1378712Y30733D01*
X1387856Y37084D01*
X1394714Y45516D01*
X1399641Y56184D01*
X1402588Y69037D01*
X1403604Y84074D01*
X1403604Y153416D01*
X1442466Y153416D01*
X1442466Y180594D01*
X1403604Y180594D01*
X1403604Y227584D01*
G37*
G36*
X3825748Y183642D02*
G01*
X3810508Y182321D01*
X3797096Y178358D01*
X3785463Y171754D01*
X3775710Y162560D01*
X3770172Y155041D01*
X3765651Y146558D01*
X3762146Y137160D01*
X3759657Y126746D01*
X3758133Y115417D01*
X3757676Y103124D01*
X3789934Y103124D01*
X3790492Y115062D01*
X3792270Y125526D01*
X3795217Y134467D01*
X3799332Y141986D01*
X3810609Y152247D01*
X3825748Y155702D01*
X3840835Y152247D01*
X3852164Y141986D01*
X3856228Y134467D01*
X3859174Y125526D01*
X3860952Y115062D01*
X3861562Y103124D01*
X3860952Y91236D01*
X3859174Y80772D01*
X3856228Y71678D01*
X3852164Y64008D01*
X3840835Y53695D01*
X3825748Y50292D01*
X3810609Y53695D01*
X3799332Y64008D01*
X3795217Y71678D01*
X3792270Y80772D01*
X3790492Y91236D01*
X3789934Y103124D01*
X3757676Y103124D01*
X3758133Y90779D01*
X3759657Y79451D01*
X3762146Y69088D01*
X3765651Y59639D01*
X3770172Y51155D01*
X3775710Y43688D01*
X3785463Y34442D01*
X3797096Y27838D01*
X3810508Y23876D01*
X3825748Y22606D01*
X3840937Y23876D01*
X3854348Y27838D01*
X3865981Y34442D01*
X3875786Y43688D01*
X3881272Y51155D01*
X3885793Y59639D01*
X3889298Y69088D01*
X3891787Y79451D01*
X3893312Y90779D01*
X3893769Y103124D01*
X3893312Y115417D01*
X3891787Y126746D01*
X3889298Y137160D01*
X3885793Y146558D01*
X3881272Y155041D01*
X3875786Y162560D01*
X3865981Y171754D01*
X3854348Y178358D01*
X3840937Y182321D01*
G37*
G36*
X3297936Y183642D02*
G01*
X3283051Y182422D01*
X3269996Y178866D01*
X3258667Y172923D01*
X3249168Y164592D01*
X3241598Y153974D01*
X3236214Y141224D01*
X3232962Y126288D01*
X3232136Y113030D01*
X3260090Y113030D01*
X3262528Y131470D01*
X3269996Y145288D01*
X3281781Y153670D01*
X3297428Y156464D01*
X3315004Y153060D01*
X3328162Y143002D01*
X3332937Y135534D01*
X3336340Y126746D01*
X3338372Y116484D01*
X3338576Y113030D01*
X3232136Y113030D01*
X3231896Y109169D01*
X3232150Y98907D01*
X3232912Y89408D01*
X3337407Y89408D01*
X3335324Y81127D01*
X3330651Y71628D01*
X3324098Y63754D01*
X3315766Y57607D01*
X3305911Y53238D01*
X3294430Y50647D01*
X3281426Y49784D01*
X3271824Y50038D01*
X3262376Y50800D01*
X3252876Y52069D01*
X3243326Y53848D01*
X3239516Y26619D01*
X3252622Y24384D01*
X3264662Y23114D01*
X3275431Y22707D01*
X3284982Y22606D01*
X3297682Y23164D01*
X3309365Y24892D01*
X3320084Y27787D01*
X3329787Y31851D01*
X3338474Y37033D01*
X3346196Y43434D01*
X3352749Y50850D01*
X3358184Y59334D01*
X3362350Y68834D01*
X3365347Y79298D01*
X3367176Y90830D01*
X3367786Y103327D01*
X3367278Y115570D01*
X3365754Y126847D01*
X3363214Y137210D01*
X3359658Y146608D01*
X3355086Y155041D01*
X3349498Y162560D01*
X3339388Y171754D01*
X3327450Y178358D01*
X3313633Y182321D01*
G37*
G36*
X3122168Y183642D02*
G01*
X3107283Y182422D01*
X3094228Y178866D01*
X3082899Y172923D01*
X3073400Y164592D01*
X3065830Y153974D01*
X3060446Y141224D01*
X3057194Y126288D01*
X3056368Y113030D01*
X3084322Y113030D01*
X3086760Y131470D01*
X3094228Y145288D01*
X3106013Y153670D01*
X3121660Y156464D01*
X3139236Y153060D01*
X3152394Y143002D01*
X3157169Y135534D01*
X3160572Y126746D01*
X3162604Y116484D01*
X3162808Y113030D01*
X3056368Y113030D01*
X3056128Y109169D01*
X3056280Y98907D01*
X3056890Y89408D01*
X3161639Y89408D01*
X3159556Y81127D01*
X3154883Y71628D01*
X3148330Y63754D01*
X3139998Y57607D01*
X3130143Y53238D01*
X3118662Y50647D01*
X3105658Y49784D01*
X3096056Y50038D01*
X3086608Y50800D01*
X3077108Y52069D01*
X3067558Y53848D01*
X3063748Y26619D01*
X3076854Y24384D01*
X3088894Y23114D01*
X3099663Y22707D01*
X3109214Y22606D01*
X3121914Y23164D01*
X3133598Y24892D01*
X3144316Y27787D01*
X3154019Y31851D01*
X3162706Y37033D01*
X3170428Y43434D01*
X3176981Y50850D01*
X3182416Y59334D01*
X3186582Y68834D01*
X3189579Y79298D01*
X3191408Y90830D01*
X3192018Y103327D01*
X3191510Y115570D01*
X3189986Y126847D01*
X3187446Y137210D01*
X3183890Y146608D01*
X3179318Y155041D01*
X3173730Y162560D01*
X3163620Y171754D01*
X3151682Y178358D01*
X3137865Y182321D01*
G37*
G36*
X2595372Y183642D02*
G01*
X2580030Y182321D01*
X2566517Y178358D01*
X2554884Y171754D01*
X2545080Y162560D01*
X2539644Y155041D01*
X2535174Y146558D01*
X2531719Y137160D01*
X2529230Y126746D01*
X2527757Y115417D01*
X2527300Y103124D01*
X2559558Y103124D01*
X2560116Y115062D01*
X2561894Y125526D01*
X2564841Y134467D01*
X2568956Y141986D01*
X2580132Y152247D01*
X2595372Y155702D01*
X2610459Y152247D01*
X2621788Y141986D01*
X2625750Y134467D01*
X2628646Y125526D01*
X2630322Y115062D01*
X2630932Y103124D01*
X2630322Y91236D01*
X2628646Y80772D01*
X2625750Y71678D01*
X2621788Y64008D01*
X2610459Y53695D01*
X2595372Y50292D01*
X2580132Y53695D01*
X2568956Y64008D01*
X2564841Y71678D01*
X2561894Y80772D01*
X2560116Y91236D01*
X2559558Y103124D01*
X2527300Y103124D01*
X2527757Y90779D01*
X2529230Y79451D01*
X2531719Y69088D01*
X2535174Y59639D01*
X2539644Y51155D01*
X2545080Y43688D01*
X2554884Y34442D01*
X2566517Y27838D01*
X2580030Y23876D01*
X2595372Y22606D01*
X2610561Y23876D01*
X2623972Y27838D01*
X2635605Y34442D01*
X2645410Y43688D01*
X2650794Y51155D01*
X2655265Y59639D01*
X2658719Y69088D01*
X2661208Y79451D01*
X2662682Y90779D01*
X2663190Y103124D01*
X2662682Y115417D01*
X2661208Y126746D01*
X2658719Y137160D01*
X2655265Y146558D01*
X2650794Y155041D01*
X2645410Y162560D01*
X2635605Y171754D01*
X2623972Y178358D01*
X2610561Y182321D01*
G37*
G36*
X2384298Y183642D02*
G01*
X2373122Y182778D01*
X2363622Y180187D01*
X2355748Y175920D01*
X2349500Y169926D01*
X2344674Y161950D01*
X2341270Y151892D01*
X2339238Y139598D01*
X2338578Y125222D01*
X2369312Y125222D01*
X2370582Y139852D01*
X2374392Y149860D01*
X2377287Y153060D01*
X2381046Y155346D01*
X2385568Y156718D01*
X2390902Y157226D01*
X2400046Y156159D01*
X2408021Y153009D01*
X2414778Y147777D01*
X2420366Y140411D01*
X2424582Y131064D01*
X2427579Y119887D01*
X2429408Y106933D01*
X2430018Y92202D01*
X2430018Y52527D01*
X2391918Y52527D01*
X2391918Y25400D01*
X2495804Y25400D01*
X2495804Y52527D01*
X2461006Y52527D01*
X2461006Y153416D01*
X2489708Y153416D01*
X2489708Y180594D01*
X2435860Y180594D01*
X2430627Y140919D01*
X2427224Y140919D01*
X2425242Y153974D01*
X2421178Y164642D01*
X2415082Y172974D01*
X2406904Y178866D01*
X2396591Y182422D01*
G37*
G36*
X2056130Y183642D02*
G01*
X2044496Y182676D01*
X2034235Y179882D01*
X2025446Y175209D01*
X2018030Y168656D01*
X2012137Y160375D01*
X2007920Y150622D01*
X2005380Y139293D01*
X2004568Y126492D01*
X2004568Y25400D01*
X2035810Y25400D01*
X2035810Y126492D01*
X2036216Y133045D01*
X2037588Y138836D01*
X2039772Y143865D01*
X2042922Y148082D01*
X2046935Y151384D01*
X2051710Y153771D01*
X2057247Y155194D01*
X2063496Y155702D01*
X2074672Y154482D01*
X2083816Y150926D01*
X2090928Y144932D01*
X2096007Y136601D01*
X2099056Y125882D01*
X2100072Y112776D01*
X2100072Y25400D01*
X2131314Y25400D01*
X2131314Y180594D01*
X2103069Y180594D01*
X2100529Y152654D01*
X2097278Y152654D01*
X2093772Y166217D01*
X2085848Y176022D01*
X2073300Y181711D01*
G37*
G36*
X1892046Y183642D02*
G01*
X1876806Y182321D01*
X1863394Y178358D01*
X1851761Y171754D01*
X1842007Y162560D01*
X1836572Y155041D01*
X1832102Y146558D01*
X1828647Y137160D01*
X1826158Y126746D01*
X1824685Y115417D01*
X1824228Y103124D01*
X1856486Y103124D01*
X1857044Y115062D01*
X1858772Y125526D01*
X1861616Y134467D01*
X1865630Y141986D01*
X1876907Y152247D01*
X1892046Y155702D01*
X1907336Y152247D01*
X1918716Y141986D01*
X1922678Y134467D01*
X1925574Y125526D01*
X1927250Y115062D01*
X1927860Y103124D01*
X1927250Y91236D01*
X1925574Y80772D01*
X1922678Y71678D01*
X1918716Y64008D01*
X1907336Y53695D01*
X1892046Y50292D01*
X1876907Y53695D01*
X1865630Y64008D01*
X1861616Y71678D01*
X1858772Y80772D01*
X1857044Y91236D01*
X1856486Y103124D01*
X1824228Y103124D01*
X1824685Y90779D01*
X1826158Y79451D01*
X1828647Y69088D01*
X1832102Y59639D01*
X1836572Y51155D01*
X1842007Y43688D01*
X1851761Y34442D01*
X1863394Y27838D01*
X1876806Y23876D01*
X1892046Y22606D01*
X1907235Y23876D01*
X1920697Y27838D01*
X1932432Y34442D01*
X1942338Y43688D01*
X1947722Y51155D01*
X1952193Y59639D01*
X1955647Y69088D01*
X1958136Y79451D01*
X1959610Y90779D01*
X1960118Y103124D01*
X1959610Y115417D01*
X1958136Y126746D01*
X1955647Y137160D01*
X1952193Y146558D01*
X1947722Y155041D01*
X1942338Y162560D01*
X1932432Y171754D01*
X1920697Y178358D01*
X1907235Y182321D01*
G37*
G36*
X1188974Y183642D02*
G01*
X1173734Y182321D01*
X1160322Y178358D01*
X1148689Y171754D01*
X1138936Y162560D01*
X1133500Y155041D01*
X1129030Y146558D01*
X1125575Y137160D01*
X1123086Y126746D01*
X1121613Y115417D01*
X1121156Y103124D01*
X1153414Y103124D01*
X1153972Y115062D01*
X1155700Y125526D01*
X1158544Y134467D01*
X1162558Y141986D01*
X1173835Y152247D01*
X1188974Y155702D01*
X1204214Y152247D01*
X1215390Y141986D01*
X1219454Y134467D01*
X1222400Y125526D01*
X1224178Y115062D01*
X1224788Y103124D01*
X1224178Y91236D01*
X1222400Y80772D01*
X1219454Y71678D01*
X1215390Y64008D01*
X1204214Y53695D01*
X1188974Y50292D01*
X1173835Y53695D01*
X1162558Y64008D01*
X1158544Y71678D01*
X1155700Y80772D01*
X1153972Y91236D01*
X1153414Y103124D01*
X1121156Y103124D01*
X1121613Y90779D01*
X1123086Y79451D01*
X1125575Y69088D01*
X1129030Y59639D01*
X1133500Y51155D01*
X1138936Y43688D01*
X1148689Y34442D01*
X1160322Y27838D01*
X1173734Y23876D01*
X1188974Y22606D01*
X1204163Y23876D01*
X1217574Y27838D01*
X1229207Y34442D01*
X1239012Y43688D01*
X1244498Y51155D01*
X1249019Y59639D01*
X1252524Y69088D01*
X1255014Y79451D01*
X1256538Y90779D01*
X1257046Y103124D01*
X1256538Y115417D01*
X1255014Y126746D01*
X1252524Y137160D01*
X1249019Y146558D01*
X1244498Y155041D01*
X1239012Y162560D01*
X1229207Y171754D01*
X1217574Y178358D01*
X1204163Y182321D01*
G37*
G36*
X661162Y183642D02*
G01*
X646277Y182422D01*
X633222Y178866D01*
X621893Y172923D01*
X612394Y164592D01*
X604824Y153974D01*
X599440Y141224D01*
X596188Y126288D01*
X595362Y113030D01*
X623316Y113030D01*
X625754Y131470D01*
X633222Y145288D01*
X645058Y153670D01*
X660908Y156464D01*
X678383Y153060D01*
X691388Y143002D01*
X696163Y135534D01*
X699566Y126746D01*
X701598Y116484D01*
X701802Y113030D01*
X595362Y113030D01*
X595122Y109169D01*
X595376Y98907D01*
X596138Y89408D01*
X700633Y89408D01*
X698550Y81127D01*
X693877Y71628D01*
X687324Y63754D01*
X678992Y57607D01*
X669137Y53238D01*
X657656Y50647D01*
X644652Y49784D01*
X635050Y50038D01*
X625602Y50800D01*
X616102Y52069D01*
X606552Y53848D01*
X602742Y26619D01*
X615848Y24384D01*
X627888Y23114D01*
X638657Y22707D01*
X648208Y22606D01*
X660908Y23164D01*
X672592Y24892D01*
X683310Y27787D01*
X693013Y31851D01*
X701700Y37033D01*
X709422Y43434D01*
X715975Y50850D01*
X721410Y59334D01*
X725576Y68834D01*
X728573Y79298D01*
X730402Y90830D01*
X731012Y103327D01*
X730504Y115570D01*
X728980Y126847D01*
X726440Y137210D01*
X722833Y146608D01*
X718312Y155041D01*
X712724Y162560D01*
X702614Y171754D01*
X690676Y178358D01*
X676859Y182321D01*
G37*
G36*
X485393Y183642D02*
G01*
X470509Y182422D01*
X457454Y178866D01*
X446125Y172923D01*
X436626Y164592D01*
X429056Y153974D01*
X423672Y141224D01*
X420420Y126288D01*
X419594Y113030D01*
X447548Y113030D01*
X449986Y131470D01*
X457454Y145288D01*
X469290Y153670D01*
X485140Y156464D01*
X502513Y153060D01*
X515569Y143002D01*
X520395Y135534D01*
X523798Y126746D01*
X525830Y116484D01*
X526034Y113030D01*
X419594Y113030D01*
X419354Y109169D01*
X419557Y98907D01*
X420319Y89408D01*
X524865Y89408D01*
X522782Y81127D01*
X518109Y71628D01*
X511556Y63754D01*
X503224Y57607D01*
X493369Y53238D01*
X481888Y50647D01*
X468884Y49784D01*
X459282Y50038D01*
X449834Y50800D01*
X440334Y52069D01*
X430784Y53848D01*
X426974Y26619D01*
X440080Y24384D01*
X452069Y23114D01*
X462889Y22707D01*
X472440Y22606D01*
X485140Y23164D01*
X496824Y24892D01*
X507542Y27787D01*
X517245Y31851D01*
X525932Y37033D01*
X533654Y43434D01*
X540207Y50850D01*
X545642Y59334D01*
X549808Y68834D01*
X552805Y79298D01*
X554634Y90830D01*
X555244Y103327D01*
X554736Y115570D01*
X553212Y126847D01*
X550672Y137210D01*
X547065Y146608D01*
X542544Y155041D01*
X536956Y162560D01*
X526846Y171754D01*
X514908Y178358D01*
X501091Y182321D01*
G37*
G36*
X2928569Y62738D02*
G01*
X2946146Y-38354D01*
X2974340Y-38354D01*
X2962656Y62738D01*
G37*
D10*
X552383Y-1994590D02*
G01*
X552378Y-2090044D01*
X584200Y-1994590D02*
G01*
X520565Y-1994590D01*
X490562Y-1994590D02*
G01*
X490562Y-2090046D01*
X426928Y-1994593D02*
G01*
X426928Y-2090046D01*
X490562Y-2040046D02*
G01*
X426928Y-2040046D01*
X396925Y-1994590D02*
G01*
X396925Y-2090049D01*
X303291Y-2008228D02*
G01*
X312381Y-1999137D01*
X326019Y-1994590D01*
X344200Y-1994590D01*
X357837Y-1999140D01*
X366928Y-2008228D01*
X366928Y-2017316D01*
X362381Y-2026409D01*
X357835Y-2030953D01*
X348747Y-2035500D01*
X321472Y-2044590D01*
X312381Y-2049137D01*
X307837Y-2053681D01*
X303291Y-2062772D01*
X303291Y-2076409D01*
X312381Y-2085500D01*
X326016Y-2090046D01*
X344203Y-2090046D01*
X357837Y-2085500D01*
X366928Y-2076409D01*
X139654Y-2008230D02*
G01*
X148750Y-1999137D01*
X162382Y-1994588D01*
X180563Y-1994588D01*
X194200Y-1999137D01*
X203291Y-2008228D01*
X203291Y-2017318D01*
X198747Y-2026409D01*
X194200Y-2030953D01*
X185110Y-2035500D01*
X157838Y-2044593D01*
X148747Y-2049137D01*
X144200Y-2053681D01*
X139654Y-2062772D01*
X139654Y-2076409D01*
X148747Y-2085502D01*
X162382Y-2090044D01*
X180563Y-2090044D01*
X194200Y-2085500D01*
X203291Y-2076409D01*
X109656Y-1994590D02*
G01*
X109654Y-2090046D01*
X79654Y-1994593D02*
G01*
X79654Y-2090046D01*
X79654Y-1994593D02*
G01*
X47835Y-1994590D01*
X34201Y-1999137D01*
X25110Y-2008228D01*
X20561Y-2017318D01*
X16022Y-2030953D01*
X16019Y-2053681D01*
X20563Y-2067318D01*
X25110Y-2076409D01*
X34201Y-2085500D01*
X47835Y-2090046D01*
X79654Y-2090046D01*
X-13980Y-1994588D02*
G01*
X-13980Y-2090044D01*
X-13980Y-1994588D02*
G01*
X-73068Y-1994590D01*
X-13980Y-2040046D02*
G01*
X-50345Y-2040049D01*
X-13980Y-2090044D02*
G01*
X-73073Y-2090046D01*
X-173070Y-1994590D02*
G01*
X-173067Y-2062772D01*
X-177619Y-2076409D01*
X-186710Y-2085500D01*
X-200345Y-2090044D01*
X-209435Y-2090046D01*
X-223070Y-2085500D01*
X-232161Y-2076409D01*
X-236707Y-2062772D01*
X-236707Y-1994588D01*
X-266707Y-1994590D02*
G01*
X-266705Y-2090046D01*
X-266707Y-1994590D02*
G01*
X-307619Y-1994590D01*
X-321251Y-1999137D01*
X-325798Y-2003684D01*
X-330344Y-2012772D01*
X-330344Y-2026406D01*
X-325798Y-2035500D01*
X-321251Y-2040046D01*
X-307616Y-2044590D01*
X-266707Y-2044590D01*
G36*
X5265369Y-2371648D02*
G01*
X5265369Y-2391460D01*
X5344566Y-2391460D01*
X5344566Y-2371648D01*
G37*
G36*
X4753864Y-2315565D02*
G01*
X4753864Y-2447544D01*
X4773625Y-2447544D01*
X4773625Y-2315565D01*
G37*
G36*
X4724146Y-2371648D02*
G01*
X4724146Y-2391460D01*
X4803343Y-2391460D01*
X4803343Y-2371648D01*
G37*
G36*
X2975864Y2866034D02*
G01*
X2975864Y2734056D01*
X2995676Y2734056D01*
X2995676Y2866034D01*
G37*
G36*
X2946146Y2809951D02*
G01*
X2946146Y2790139D01*
X3025343Y2790139D01*
X3025343Y2809951D01*
G37*
G36*
X3487369Y2809951D02*
G01*
X3487369Y2790139D01*
X3566566Y2790139D01*
X3566566Y2809951D01*
G37*
D11*
X1918055Y2399080D02*
G01*
X1318056Y2399080D01*
X1318054Y2825940D02*
G01*
X1318054Y2572169D01*
X1918055Y2825940D02*
G01*
X1918055Y2572169D01*
X1918055Y2999054D02*
G01*
X1318054Y2999054D01*
X-1819958Y-1179659D02*
G01*
X-1819958Y-1827949D01*
X5876241Y-1827949D01*
X-1819958Y730338D02*
G01*
X-1819958Y-398429D01*
X5876241Y1511561D02*
G01*
X5876241Y2159850D01*
X-1819958Y2159850D01*
X-1819958Y1511561D01*
X5876241Y-398429D02*
G01*
X5876241Y730338D01*
X5876241Y-1827949D02*
G01*
X5876241Y-1179659D01*
D12*
X1176875Y3078594D02*
G01*
X1035875Y3078594D01*
X1035875Y3259315D02*
G01*
X1176875Y3259315D01*
X1192115Y3244075D02*
G01*
X1192115Y3093834D01*
X814636Y3078594D02*
G01*
X955636Y3078594D01*
X955636Y3259315D02*
G01*
X814636Y3259315D01*
X799396Y3244075D02*
G01*
X799396Y3093834D01*
X1348036Y3259315D02*
G01*
X1489036Y3259315D01*
X1489036Y3078594D02*
G01*
X1348036Y3078594D01*
X1332796Y3093834D02*
G01*
X1332796Y3244075D01*
X1710275Y3259315D02*
G01*
X1569275Y3259315D01*
X1569275Y3078594D02*
G01*
X1710275Y3078594D01*
X1725515Y3093834D02*
G01*
X1725515Y3244075D01*
D11*
X-854577Y2853009D02*
G01*
X-894577Y2893009D01*
X-904577Y2903009D01*
X-894577Y2913034D01*
X-854577Y2953034D01*
X-854577Y2853009D02*
G01*
X-854577Y2953034D01*
X-830254Y3004736D02*
G01*
X-675314Y3004736D01*
X-675314Y2801536D01*
X-830254Y2801536D01*
X-908994Y3007276D02*
G01*
X-1056314Y3007276D01*
X-1096954Y2966636D01*
X-1096954Y2839636D01*
X-1058854Y2801536D01*
X-906454Y2801536D01*
X4416940Y3068154D02*
G01*
X4376940Y3108154D01*
X4366940Y3118154D01*
X4376940Y3128180D01*
X4416940Y3168180D01*
X4416940Y3068154D02*
G01*
X4416940Y3168180D01*
X4441263Y3219881D02*
G01*
X4596203Y3219881D01*
X4596203Y3016681D01*
X4441263Y3016681D01*
X4362523Y3222421D02*
G01*
X4215203Y3222421D01*
X4174563Y3181781D01*
X4174563Y3054781D01*
X4212663Y3016681D01*
X4365063Y3016681D01*
X-854580Y2356954D02*
G01*
X-894580Y2396954D01*
X-904580Y2406954D01*
X-894580Y2416980D01*
X-854580Y2456980D01*
X-854580Y2356954D02*
G01*
X-854580Y2456980D01*
X-830257Y2508681D02*
G01*
X-675317Y2508681D01*
X-675317Y2305481D01*
X-830257Y2305481D01*
X-908997Y2511221D02*
G01*
X-1056317Y2511221D01*
X-1096957Y2470581D01*
X-1096957Y2343581D01*
X-1058857Y2305481D01*
X-906457Y2305481D01*
X597268Y2399080D02*
G01*
X-2730Y2399080D01*
X-2733Y2825940D02*
G01*
X-2733Y2572169D01*
X597268Y2825940D02*
G01*
X597268Y2572169D01*
X597268Y2999054D02*
G01*
X-2733Y2999054D01*
X4792385Y3025703D02*
G01*
X4982885Y3025703D01*
X4982885Y3203503D02*
G01*
X4792385Y3203503D01*
X4766985Y3178103D02*
G01*
X4766985Y3051103D01*
X5008285Y3178103D02*
G01*
X5008285Y3051103D01*
D12*
X503636Y3077245D02*
G01*
X375142Y3077245D01*
X375142Y3260664D01*
X503636Y3260664D01*
X598876Y3077245D02*
G01*
X727369Y3077245D01*
X727369Y3260664D01*
X598876Y3260664D01*
X3850076Y3209864D02*
G01*
X3978569Y3209864D01*
X3978569Y3026445D01*
X3850076Y3026445D01*
X3754836Y3209864D02*
G01*
X3626342Y3209864D01*
X3626342Y3026445D01*
X3754836Y3026445D01*
X-1404548Y2498664D02*
G01*
X-1276055Y2498664D01*
X-1276055Y2315245D01*
X-1404548Y2315245D01*
X-1499788Y2498664D02*
G01*
X-1628282Y2498664D01*
X-1628282Y2315245D01*
X-1499788Y2315245D01*
X-1404546Y2994718D02*
G01*
X-1276052Y2994718D01*
X-1276052Y2811299D01*
X-1404546Y2811299D01*
X-1499786Y2994718D02*
G01*
X-1628279Y2994718D01*
X-1628279Y2811299D01*
X-1499786Y2811299D01*
X2567376Y3273364D02*
G01*
X2695869Y3273364D01*
X2695869Y3089945D01*
X2567376Y3089945D01*
X2472136Y3273364D02*
G01*
X2343642Y3273364D01*
X2343642Y3089945D01*
X2472136Y3089945D01*
X5369913Y-2459415D02*
G01*
X5371914Y-2195774D01*
X4836228Y-2195774D01*
X4696782Y-2335220D01*
X4698121Y-2464760D01*
X5371294Y-2604107D02*
G01*
X5371965Y-2870956D01*
X4836345Y-2870956D01*
X4696731Y-2731343D01*
X4696731Y-2601920D01*
X3591918Y2722181D02*
G01*
X3593922Y2985820D01*
X3058236Y2985820D01*
X2918790Y2846374D01*
X2920126Y2716834D01*
X3593304Y2577485D02*
G01*
X3593973Y2310638D01*
X3058353Y2310638D01*
X2918739Y2450251D01*
X2918739Y2579674D01*
G75*
G01*
X1176876Y3259315D02*
G02*
X1192116Y3244075I0J-15240D01*
G75*
G01*
X1192116Y3093834D02*
G02*
X1176876Y3078594I-15240J0D01*
G75*
G01*
X814636Y3259315D02*
G03*
X799396Y3244075I0J-15240D01*
G75*
G01*
X799396Y3093834D02*
G03*
X814636Y3078594I15240J0D01*
G75*
G01*
X1348036Y3078594D02*
G02*
X1332796Y3093834I0J15240D01*
G75*
G01*
X1332796Y3244075D02*
G02*
X1348036Y3259315I15240J0D01*
G75*
G01*
X1710276Y3078594D02*
G03*
X1725516Y3093834I0J15240D01*
G75*
G01*
X1725516Y3244075D02*
G03*
X1710276Y3259315I-15240J0D01*
D11*
G75*
G01*
X4766986Y3178104D02*
G02*
X4792386Y3203504I25400J0D01*
G75*
G01*
X4792386Y3025704D02*
G02*
X4766986Y3051104I0J25400D01*
G75*
G01*
X5008286Y3051104D02*
G02*
X4982886Y3025704I-25400J0D01*
G75*
G01*
X4982886Y3203504D02*
G02*
X5008286Y3178104I0J-25400D01*
G75*
G01
X1471625Y2495855D02*
G03X1471625Y2495855I-56794J0D01*
G75*
G01
X1465529Y2896159D02*
G03X1465529Y2896159I-56794J0D01*
G75*
G01
X1871929Y2489759D02*
G03X1871929Y2489759I-56794J0D01*
G75*
G01
X1878025Y2902255D02*
G03X1878025Y2902255I-56794J0D01*
G75*
G01
X1788897Y2699055D02*
G03X1788897Y2699055I-170866J0D01*
G75*
G01
X150851Y2495829D02*
G03X150851Y2495829I-56794J0D01*
G75*
G01
X144755Y2896133D02*
G03X144755Y2896133I-56794J0D01*
G75*
G01
X551155Y2489733D02*
G03X551155Y2489733I-56794J0D01*
G75*
G01
X557251Y2902229D02*
G03X557251Y2902229I-56794J0D01*
G75*
G01
X468122Y2699029D02*
G03X468122Y2699029I-170866J0D01*
M02*
