G04 Layer: BottomPasteMaskLayer*
G04 EasyEDA v6.5.54, 2026-04-14 14:33:15*
G04 27845933940048b08c14d6c4289a14c4,81a6330f3d4149d2af66a0b9843494eb,10*
G04 Gerber Generator version 0.2*
G04 Scale: 100 percent, Rotated: No, Reflected: No *
G04 Dimensions in millimeters *
G04 leading zeros omitted , absolute positions ,4 integer and 5 decimal *
%FSLAX45Y45*%
%MOMM*%

%AMMACRO1*21,1,$1,$2,0,0,$3*%
%AMMACRO2*4,1,37,0.1588,0.635,-0.2223,0.635,-0.2457,0.6339,-0.2689,0.6307,-0.2918,0.6253,-0.314,0.6179,-0.3355,0.6084,-0.356,0.597,-0.3753,0.5837,-0.3934,0.5687,-0.41,0.5521,-0.4249,0.5341,-0.4382,0.5147,-0.4496,0.4942,-0.4591,0.4727,-0.4665,0.4505,-0.4719,0.4277,-0.4752,0.4044,-0.4763,0.381,-0.4763,-0.4445,-0.4696,-0.4663,-0.4609,-0.4875,-0.4504,-0.5078,-0.4382,-0.5271,-0.4242,-0.5452,-0.4087,-0.5619,-0.3917,-0.5773,-0.3734,-0.591,-0.3539,-0.603,-0.3335,-0.6132,-0.3122,-0.6215,-0.2903,-0.6279,-0.2678,-0.6323,-0.2451,-0.6347,-0.2223,-0.635,0.1588,-0.635,0.4763,0,0.1588,0.635,0*%
%AMMACRO3*4,1,39,0.1905,0.635,0.2139,0.6339,0.2372,0.6307,0.26,0.6253,0.2822,0.6179,0.3037,0.6084,0.3242,0.597,0.3436,0.5837,0.3616,0.5687,0.3782,0.5521,0.3932,0.5341,0.4065,0.5147,0.4179,0.4942,0.4274,0.4727,0.4348,0.4505,0.4402,0.4277,0.4434,0.4044,0.4445,0.381,0.4445,-0.381,0.4434,-0.4044,0.4402,-0.4277,0.4348,-0.4505,0.4274,-0.4727,0.4179,-0.4942,0.4065,-0.5147,0.3932,-0.5341,0.3782,-0.5521,0.3616,-0.5687,0.3436,-0.5837,0.3242,-0.597,0.3037,-0.6084,0.2822,-0.6179,0.26,-0.6253,0.2372,-0.6307,0.2139,-0.6339,0.1905,-0.635,-0.4445,-0.635,-0.127,0,-0.4445,0.635,0.1905,0.635,0*%
%ADD10MACRO1,1.8X1.2X0.0000*%
%ADD11MACRO1,5.32X7.35X0.0000*%
%ADD12R,1.0000X1.3995*%
%ADD13MACRO1,1X1.3995X0.0000*%
%ADD14MACRO2*%
%ADD15MACRO3*%
%ADD16MACRO1,3.5X1.2X0.0000*%
%ADD17C,0.0122*%

%LPD*%
G36*
X833272Y3235960D02*
G01*
X828243Y3230930D01*
X828243Y3102965D01*
X833272Y3097936D01*
X948232Y3097936D01*
X953262Y3102965D01*
X953769Y3143961D01*
X908761Y3143961D01*
X908761Y3188970D01*
X952753Y3188970D01*
X953262Y3230930D01*
X948232Y3235960D01*
G37*
G36*
X1048258Y3235960D02*
G01*
X1043279Y3230930D01*
X1043279Y3188970D01*
X1087780Y3188970D01*
X1087780Y3143961D01*
X1043736Y3143961D01*
X1043279Y3102965D01*
X1048258Y3097936D01*
X1163269Y3097936D01*
X1168247Y3102965D01*
X1168247Y3230930D01*
X1163269Y3235960D01*
G37*
G36*
X1576679Y3239973D02*
G01*
X1571650Y3234944D01*
X1571142Y3193948D01*
X1616151Y3193948D01*
X1616151Y3148939D01*
X1572158Y3148939D01*
X1571650Y3106978D01*
X1576679Y3101949D01*
X1691639Y3101949D01*
X1696669Y3106978D01*
X1696669Y3234944D01*
X1691639Y3239973D01*
G37*
G36*
X1361643Y3239973D02*
G01*
X1356664Y3234944D01*
X1356664Y3106978D01*
X1361643Y3101949D01*
X1476654Y3101949D01*
X1481683Y3106978D01*
X1481632Y3148939D01*
X1437182Y3148939D01*
X1437182Y3193948D01*
X1481175Y3193948D01*
X1481683Y3234944D01*
X1476654Y3239973D01*
G37*
G36*
X601268Y3237941D02*
G01*
X596239Y3232962D01*
X595731Y3191967D01*
X640740Y3191967D01*
X640740Y3146958D01*
X596747Y3146958D01*
X596239Y3104946D01*
X601268Y3099968D01*
X716280Y3099968D01*
X721258Y3104946D01*
X721258Y3232962D01*
X716280Y3237941D01*
G37*
G36*
X386283Y3237941D02*
G01*
X381254Y3232962D01*
X381254Y3104946D01*
X386283Y3099968D01*
X501243Y3099968D01*
X506272Y3104946D01*
X506272Y3146958D01*
X461772Y3146958D01*
X461772Y3191967D01*
X505764Y3191967D01*
X506272Y3232962D01*
X501243Y3237941D01*
G37*
G36*
X3637432Y3187141D02*
G01*
X3632454Y3182162D01*
X3632454Y3054146D01*
X3637432Y3049168D01*
X3752443Y3049168D01*
X3757472Y3054146D01*
X3757980Y3095142D01*
X3712972Y3095142D01*
X3712972Y3140151D01*
X3756964Y3140151D01*
X3757472Y3182162D01*
X3752443Y3187141D01*
G37*
G36*
X3852468Y3187141D02*
G01*
X3847439Y3182162D01*
X3847439Y3140151D01*
X3891940Y3140151D01*
X3891940Y3095142D01*
X3847947Y3095142D01*
X3847439Y3054146D01*
X3852468Y3049168D01*
X3967479Y3049168D01*
X3972458Y3054146D01*
X3972458Y3182162D01*
X3967479Y3187141D01*
G37*
G36*
X-1617167Y2475941D02*
G01*
X-1622145Y2470962D01*
X-1622145Y2342946D01*
X-1617167Y2337968D01*
X-1502156Y2337968D01*
X-1497177Y2342946D01*
X-1496669Y2383942D01*
X-1541678Y2383942D01*
X-1541678Y2428951D01*
X-1497685Y2428951D01*
X-1497177Y2470962D01*
X-1502156Y2475941D01*
G37*
G36*
X-1402181Y2475941D02*
G01*
X-1407160Y2470962D01*
X-1407160Y2428951D01*
X-1362659Y2428951D01*
X-1362659Y2383942D01*
X-1406652Y2383942D01*
X-1407160Y2342946D01*
X-1402181Y2337968D01*
X-1287170Y2337968D01*
X-1282192Y2342946D01*
X-1282192Y2470962D01*
X-1287170Y2475941D01*
G37*
G36*
X-1617167Y2972003D02*
G01*
X-1622145Y2967024D01*
X-1622145Y2839008D01*
X-1617167Y2834030D01*
X-1502156Y2834030D01*
X-1497177Y2839008D01*
X-1496669Y2880004D01*
X-1541678Y2880004D01*
X-1541678Y2925013D01*
X-1497685Y2925013D01*
X-1497177Y2967024D01*
X-1502156Y2972003D01*
G37*
G36*
X-1402181Y2972003D02*
G01*
X-1407160Y2967024D01*
X-1407160Y2925013D01*
X-1362659Y2925013D01*
X-1362659Y2880004D01*
X-1406652Y2880004D01*
X-1407160Y2839008D01*
X-1402181Y2834030D01*
X-1287170Y2834030D01*
X-1282141Y2839008D01*
X-1282141Y2967024D01*
X-1287170Y2972003D01*
G37*
G36*
X2354732Y3250641D02*
G01*
X2349754Y3245662D01*
X2349754Y3117646D01*
X2354732Y3112668D01*
X2469743Y3112668D01*
X2474772Y3117646D01*
X2475280Y3158642D01*
X2430272Y3158642D01*
X2430272Y3203651D01*
X2474264Y3203651D01*
X2474772Y3245662D01*
X2469743Y3250641D01*
G37*
G36*
X2569768Y3250641D02*
G01*
X2564739Y3245662D01*
X2564739Y3203651D01*
X2609240Y3203651D01*
X2609240Y3158642D01*
X2565247Y3158642D01*
X2564739Y3117646D01*
X2569768Y3112668D01*
X2684780Y3112668D01*
X2689758Y3117646D01*
X2689758Y3245662D01*
X2684780Y3250641D01*
G37*
D10*
G01*
X2018030Y2924048D03*
G01*
X2018030Y2474061D03*
G01*
X1218031Y2474061D03*
G01*
X1218031Y2924048D03*
D11*
G01*
X-2057347Y-789045D03*
G01*
X6113635Y-789045D03*
G01*
X-2057347Y1120950D03*
G01*
X6113635Y1120950D03*
D12*
G01*
X-979601Y2903016D03*
D13*
G01*
X-769548Y2903009D03*
D12*
G01*
X4291914Y3118154D03*
D13*
G01*
X4501969Y3118154D03*
D12*
G01*
X-979601Y2406954D03*
D13*
G01*
X-769551Y2406954D03*
D10*
G01*
X697242Y2924048D03*
G01*
X697242Y2474061D03*
G01*
X-102755Y2474061D03*
G01*
X-102755Y2924048D03*
D14*
G01*
X4836835Y3114603D03*
D15*
G01*
X4938435Y3114603D03*
D16*
G01*
X5301345Y-2533340D03*
G01*
X4767351Y-2533340D03*
G01*
X3523353Y2648254D03*
G01*
X2989359Y2648254D03*
M02*
