G04 Layer: TopSilkscreenLayer*
G04 EasyEDA v6.5.54, 2026-04-14 14:33:15*
G04 27845933940048b08c14d6c4289a14c4,81a6330f3d4149d2af66a0b9843494eb,10*
G04 Gerber Generator version 0.2*
G04 Scale: 100 percent, Rotated: No, Reflected: No *
G04 Dimensions in millimeters *
G04 leading zeros omitted , absolute positions ,4 integer and 5 decimal *
%FSLAX45Y45*%
%MOMM*%

%ADD10C,0.1520*%
%ADD11C,0.2540*%
%ADD12C,0.1524*%
%ADD13C,0.2032*%
%ADD14C,0.2030*%
%ADD15C,0.1520*%
%ADD16C,0.0147*%
%ADD17C,0.1000*%
%ADD18C,0.2000*%
%ADD19C,0.3000*%
%ADD20C,0.4000*%

%LPD*%
G36*
X690372Y2584958D02*
G01*
X671017Y2582468D01*
X656590Y2575052D01*
X647446Y2563063D01*
X644398Y2546858D01*
X646430Y2534666D01*
X652526Y2523490D01*
X662330Y2513634D01*
X675386Y2505456D01*
X695452Y2495804D01*
X700430Y2492908D01*
X704037Y2489555D01*
X706170Y2485796D01*
X706882Y2481580D01*
X706526Y2478227D01*
X705510Y2475331D01*
X703732Y2472893D01*
X701294Y2470912D01*
X698195Y2469235D01*
X694486Y2468067D01*
X690219Y2467356D01*
X685292Y2467102D01*
X675589Y2467711D01*
X665530Y2469438D01*
X655167Y2472385D01*
X644398Y2476500D01*
X640842Y2450084D01*
X645312Y2448407D01*
X655218Y2445613D01*
X660654Y2444496D01*
X672033Y2442972D01*
X683768Y2442464D01*
X695248Y2443073D01*
X705358Y2445004D01*
X714044Y2448153D01*
X721360Y2452624D01*
X731469Y2464714D01*
X734822Y2481072D01*
X734314Y2486710D01*
X732790Y2492197D01*
X730250Y2497480D01*
X726694Y2502662D01*
X717092Y2512212D01*
X704088Y2520442D01*
X685292Y2530094D01*
X679602Y2533700D01*
X675589Y2537612D01*
X673150Y2541828D01*
X672338Y2546350D01*
X672642Y2549601D01*
X673557Y2552446D01*
X675030Y2554935D01*
X677164Y2557018D01*
X679805Y2558592D01*
X682955Y2559710D01*
X686562Y2560370D01*
X690626Y2560574D01*
X703630Y2557221D01*
X717296Y2547112D01*
X735076Y2567686D01*
X725424Y2575255D01*
X714756Y2580640D01*
X703072Y2583891D01*
G37*
G36*
X805688Y2584958D02*
G01*
X795629Y2584246D01*
X786688Y2582062D01*
X778764Y2578455D01*
X771855Y2573426D01*
X766064Y2566924D01*
X761288Y2558999D01*
X757631Y2549601D01*
X754989Y2538780D01*
X753364Y2526538D01*
X752856Y2512822D01*
X779780Y2512822D01*
X780491Y2527401D01*
X782675Y2539339D01*
X786282Y2548636D01*
X791311Y2555290D01*
X797763Y2559253D01*
X805688Y2560574D01*
X813511Y2559253D01*
X819962Y2555290D01*
X824941Y2548636D01*
X828497Y2539339D01*
X830630Y2527401D01*
X831342Y2512822D01*
X830630Y2498852D01*
X828497Y2487422D01*
X824941Y2478532D01*
X819962Y2472182D01*
X813511Y2468372D01*
X805688Y2467102D01*
X797763Y2468372D01*
X791311Y2472182D01*
X786282Y2478532D01*
X782675Y2487422D01*
X780491Y2498852D01*
X779780Y2512822D01*
X752856Y2512822D01*
X753364Y2499461D01*
X754989Y2487472D01*
X757631Y2476957D01*
X761288Y2467813D01*
X766064Y2460040D01*
X771855Y2453741D01*
X778764Y2448814D01*
X786688Y2445258D01*
X795629Y2443175D01*
X805688Y2442464D01*
X815746Y2443175D01*
X824687Y2445258D01*
X832612Y2448814D01*
X839520Y2453741D01*
X845312Y2460040D01*
X850087Y2467813D01*
X853744Y2476957D01*
X856386Y2487472D01*
X858012Y2499461D01*
X858519Y2512822D01*
X858012Y2526538D01*
X856386Y2538780D01*
X853744Y2549601D01*
X850087Y2558999D01*
X845312Y2566924D01*
X839520Y2573426D01*
X832612Y2578455D01*
X824687Y2582062D01*
X815746Y2584246D01*
G37*
G36*
X878078Y2583180D02*
G01*
X878078Y2444496D01*
X973328Y2444496D01*
X973328Y2468118D01*
X903986Y2468118D01*
X903986Y2583180D01*
G37*
G36*
X1024128Y2583180D02*
G01*
X998638Y2494534D01*
X1024890Y2494534D01*
X1039114Y2549144D01*
X1040892Y2549144D01*
X1055116Y2494534D01*
X998638Y2494534D01*
X984250Y2444496D01*
X1011936Y2444496D01*
X1018794Y2470658D01*
X1061212Y2470658D01*
X1068070Y2444496D01*
X1095756Y2444496D01*
X1055878Y2583180D01*
G37*
G36*
X1110488Y2583180D02*
G01*
X1110488Y2559304D01*
X1160018Y2559304D01*
X1164234Y2558999D01*
X1167942Y2558034D01*
X1171194Y2556459D01*
X1173988Y2554224D01*
X1176121Y2551277D01*
X1177594Y2547823D01*
X1178509Y2543810D01*
X1178814Y2539238D01*
X1178509Y2534666D01*
X1177594Y2530652D01*
X1176121Y2527198D01*
X1173988Y2524252D01*
X1171194Y2521915D01*
X1167942Y2520238D01*
X1164234Y2519273D01*
X1160018Y2518918D01*
X1136396Y2518918D01*
X1136396Y2559304D01*
X1110488Y2559304D01*
X1110488Y2444496D01*
X1136396Y2444496D01*
X1136396Y2495296D01*
X1160526Y2495296D01*
X1181100Y2444496D01*
X1211834Y2444496D01*
X1185926Y2500884D01*
X1195019Y2507691D01*
X1201572Y2516632D01*
X1205433Y2527757D01*
X1206754Y2541016D01*
X1203706Y2558999D01*
X1194562Y2572258D01*
X1187856Y2577033D01*
X1179830Y2580436D01*
X1170584Y2582519D01*
X1160018Y2583180D01*
G37*
G36*
X2219553Y2566212D02*
G01*
X2200148Y2563723D01*
X2185771Y2556306D01*
X2176627Y2544318D01*
X2173579Y2528112D01*
X2175611Y2515920D01*
X2181707Y2504744D01*
X2191461Y2494889D01*
X2204567Y2486710D01*
X2224633Y2477058D01*
X2229612Y2474163D01*
X2233168Y2470861D01*
X2235301Y2467051D01*
X2236063Y2462834D01*
X2235708Y2459482D01*
X2234641Y2456637D01*
X2232914Y2454148D01*
X2230475Y2452166D01*
X2227376Y2450490D01*
X2223668Y2449322D01*
X2219350Y2448610D01*
X2214473Y2448356D01*
X2204770Y2448966D01*
X2194712Y2450693D01*
X2184298Y2453640D01*
X2173579Y2457754D01*
X2170023Y2431338D01*
X2174494Y2429662D01*
X2184400Y2426868D01*
X2189835Y2425750D01*
X2201164Y2424226D01*
X2207006Y2423820D01*
X2212949Y2423718D01*
X2224430Y2424379D01*
X2234539Y2426258D01*
X2243226Y2429459D01*
X2250541Y2433878D01*
X2260600Y2445969D01*
X2264003Y2462326D01*
X2263495Y2467965D01*
X2261971Y2473452D01*
X2259431Y2478735D01*
X2255875Y2483916D01*
X2246274Y2493467D01*
X2233269Y2501696D01*
X2214473Y2511348D01*
X2208784Y2514955D01*
X2204720Y2518867D01*
X2202281Y2523083D01*
X2201519Y2527604D01*
X2201773Y2530856D01*
X2202688Y2533700D01*
X2204212Y2536190D01*
X2206345Y2538272D01*
X2208987Y2539847D01*
X2212086Y2540965D01*
X2215692Y2541625D01*
X2219807Y2541828D01*
X2232812Y2538476D01*
X2246477Y2528366D01*
X2264257Y2548940D01*
X2254554Y2556510D01*
X2243937Y2561894D01*
X2232253Y2565146D01*
G37*
G36*
X2698597Y2566212D02*
G01*
X2684068Y2565044D01*
X2671318Y2561590D01*
X2660345Y2555798D01*
X2651099Y2547670D01*
X2643835Y2537460D01*
X2638704Y2525318D01*
X2635605Y2511298D01*
X2634589Y2495346D01*
X2635250Y2481732D01*
X2637231Y2469540D01*
X2640533Y2458821D01*
X2645156Y2449525D01*
X2651150Y2441600D01*
X2658414Y2435199D01*
X2667050Y2430170D01*
X2677007Y2426563D01*
X2688285Y2424430D01*
X2700883Y2423718D01*
X2719171Y2425395D01*
X2736443Y2430322D01*
X2732125Y2454198D01*
X2718257Y2449830D01*
X2704185Y2448356D01*
X2694228Y2449118D01*
X2685592Y2451354D01*
X2678328Y2455062D01*
X2672334Y2460294D01*
X2667711Y2467000D01*
X2664409Y2475230D01*
X2662428Y2484932D01*
X2661767Y2496108D01*
X2664206Y2515463D01*
X2671673Y2529890D01*
X2683459Y2538831D01*
X2698597Y2541828D01*
X2713431Y2538984D01*
X2724505Y2530398D01*
X2738983Y2549194D01*
X2735935Y2553055D01*
X2732278Y2556459D01*
X2727960Y2559405D01*
X2722981Y2561894D01*
X2717444Y2563774D01*
X2711551Y2565146D01*
X2705252Y2565958D01*
G37*
G36*
X2276449Y2564434D02*
G01*
X2291435Y2425750D01*
X2326487Y2425750D01*
X2334107Y2502458D01*
X2335377Y2502458D01*
X2343251Y2425750D01*
X2378303Y2425750D01*
X2393035Y2564434D01*
X2367635Y2564434D01*
X2359253Y2448610D01*
X2356459Y2448610D01*
X2346299Y2529128D01*
X2323439Y2529128D01*
X2313025Y2448610D01*
X2310485Y2448610D01*
X2301849Y2564434D01*
G37*
G36*
X2408021Y2564434D02*
G01*
X2408021Y2541320D01*
X2439009Y2541320D01*
X2439009Y2448864D01*
X2408021Y2448864D01*
X2408021Y2425750D01*
X2495905Y2425750D01*
X2495905Y2448864D01*
X2464663Y2448864D01*
X2464663Y2541320D01*
X2495905Y2541320D01*
X2495905Y2564434D01*
G37*
G36*
X2516733Y2564434D02*
G01*
X2516733Y2540558D01*
X2556357Y2540558D01*
X2556357Y2425750D01*
X2582011Y2425750D01*
X2582011Y2540558D01*
X2621635Y2540558D01*
X2621635Y2564434D01*
G37*
G36*
X2757017Y2564434D02*
G01*
X2757017Y2425750D01*
X2782671Y2425750D01*
X2782671Y2482900D01*
X2824327Y2482900D01*
X2824327Y2425750D01*
X2850235Y2425750D01*
X2850235Y2564434D01*
X2824327Y2564434D01*
X2824327Y2506776D01*
X2782671Y2506776D01*
X2782671Y2564434D01*
G37*
G36*
X80010Y-500075D02*
G01*
X24993Y-555091D01*
X80010Y-555091D01*
G37*
G36*
X4859578Y-898347D02*
G01*
X4859578Y-949401D01*
X4905298Y-949401D01*
X4905298Y-898347D01*
G37*
G36*
X4859578Y-662889D02*
G01*
X4859578Y-713943D01*
X4905298Y-713943D01*
X4905298Y-662889D01*
G37*
G36*
X4859578Y-479247D02*
G01*
X4859578Y-530301D01*
X4905298Y-530301D01*
X4905298Y-479247D01*
G37*
G36*
X4859578Y-243789D02*
G01*
X4859578Y-294843D01*
X4905298Y-294843D01*
X4905298Y-243789D01*
G37*
G36*
X2126691Y963218D02*
G01*
X2126691Y927963D01*
X2157171Y927963D01*
X2157171Y963218D01*
G37*
G36*
X2126691Y837946D02*
G01*
X2126691Y802690D01*
X2157171Y802690D01*
X2157171Y837946D01*
G37*
D10*
X29997Y-550113D02*
G01*
X79984Y-500100D01*
X79984Y-499186D01*
X79994Y154899D02*
G01*
X-630003Y154899D01*
X-630003Y-555099D01*
X79994Y-555099D01*
X79994Y154899D01*
D11*
X5559640Y-1941360D02*
G01*
X5559640Y-2233244D01*
X4559642Y-2233244D01*
X4559642Y-1941360D01*
X4559630Y-1233119D02*
G01*
X5559628Y-1233119D01*
X5559628Y-1233373D01*
X5559628Y-1525219D01*
X5559628Y-1525219D01*
X4559642Y-1525130D02*
G01*
X4559642Y-1233246D01*
D12*
X-1631683Y-380966D02*
G01*
X-1631683Y-239966D01*
X-1812404Y-239966D02*
G01*
X-1812404Y-380966D01*
X-1797164Y-396206D02*
G01*
X-1646923Y-396206D01*
X-1631683Y-18727D02*
G01*
X-1631683Y-159727D01*
X-1812404Y-159727D02*
G01*
X-1812404Y-18727D01*
X-1797164Y-3487D02*
G01*
X-1646923Y-3487D01*
X-402704Y-879025D02*
G01*
X-402704Y-1020025D01*
X-221983Y-1020025D02*
G01*
X-221983Y-879025D01*
X-237223Y-863785D02*
G01*
X-387464Y-863785D01*
X-402704Y-1241264D02*
G01*
X-402704Y-1100264D01*
X-221983Y-1100264D02*
G01*
X-221983Y-1241264D01*
X-237223Y-1256504D02*
G01*
X-387464Y-1256504D01*
D11*
X3966156Y1336558D02*
G01*
X4436155Y1336558D01*
X4436155Y1410942D01*
X3966156Y1404673D02*
G01*
X3966156Y1336558D01*
D12*
X662236Y-888385D02*
G01*
X803236Y-888385D01*
X803236Y-707664D02*
G01*
X662236Y-707664D01*
X646996Y-722904D02*
G01*
X646996Y-873145D01*
X1024475Y-888385D02*
G01*
X883475Y-888385D01*
X883475Y-707664D02*
G01*
X1024475Y-707664D01*
X1039715Y-722904D02*
G01*
X1039715Y-873145D01*
X662236Y-611271D02*
G01*
X803236Y-611271D01*
X803236Y-430550D02*
G01*
X662236Y-430550D01*
X646996Y-445790D02*
G01*
X646996Y-596031D01*
X1024475Y-611271D02*
G01*
X883475Y-611271D01*
X883475Y-430550D02*
G01*
X1024475Y-430550D01*
X1039715Y-445790D02*
G01*
X1039715Y-596031D01*
X-501383Y-1253964D02*
G01*
X-501383Y-1112964D01*
X-682104Y-1112964D02*
G01*
X-682104Y-1253964D01*
X-666864Y-1269204D02*
G01*
X-516623Y-1269204D01*
X-501383Y-891725D02*
G01*
X-501383Y-1032725D01*
X-682104Y-1032725D02*
G01*
X-682104Y-891725D01*
X-666864Y-876485D02*
G01*
X-516623Y-876485D01*
X-193009Y498637D02*
G01*
X-193009Y639638D01*
X-373730Y639638D02*
G01*
X-373730Y498637D01*
X-358490Y483397D02*
G01*
X-208249Y483397D01*
X-193009Y860877D02*
G01*
X-193009Y719876D01*
X-373730Y719876D02*
G01*
X-373730Y860877D01*
X-358490Y876117D02*
G01*
X-208249Y876117D01*
X88587Y498635D02*
G01*
X88587Y639635D01*
X-92133Y639635D02*
G01*
X-92133Y498635D01*
X-76893Y483395D02*
G01*
X73347Y483395D01*
X88587Y860874D02*
G01*
X88587Y719874D01*
X-92133Y719874D02*
G01*
X-92133Y860874D01*
X-76893Y876114D02*
G01*
X73347Y876114D01*
X-1072883Y498637D02*
G01*
X-1072883Y639638D01*
X-1253604Y639638D02*
G01*
X-1253604Y498637D01*
X-1238364Y483397D02*
G01*
X-1088123Y483397D01*
X-1072883Y860877D02*
G01*
X-1072883Y719876D01*
X-1253604Y719876D02*
G01*
X-1253604Y860877D01*
X-1238364Y876117D02*
G01*
X-1088123Y876117D01*
X-474609Y498637D02*
G01*
X-474609Y639638D01*
X-655330Y639638D02*
G01*
X-655330Y498637D01*
X-640090Y483397D02*
G01*
X-489849Y483397D01*
X-474609Y860877D02*
G01*
X-474609Y719876D01*
X-655330Y719876D02*
G01*
X-655330Y860877D01*
X-640090Y876117D02*
G01*
X-489849Y876117D01*
X-1185324Y338315D02*
G01*
X-1326324Y338315D01*
X-1326324Y157594D02*
G01*
X-1185324Y157594D01*
X-1170084Y172834D02*
G01*
X-1170084Y323075D01*
X-1547563Y338315D02*
G01*
X-1406563Y338315D01*
X-1406563Y157594D02*
G01*
X-1547563Y157594D01*
X-1562803Y172834D02*
G01*
X-1562803Y323075D01*
X-1572963Y-896505D02*
G01*
X-1431963Y-896505D01*
X-1431963Y-715784D02*
G01*
X-1572963Y-715784D01*
X-1588203Y-731024D02*
G01*
X-1588203Y-881265D01*
X-1210724Y-896505D02*
G01*
X-1351724Y-896505D01*
X-1351724Y-715784D02*
G01*
X-1210724Y-715784D01*
X-1195484Y-731024D02*
G01*
X-1195484Y-881265D01*
X44716Y-1241264D02*
G01*
X44716Y-1100264D01*
X-136004Y-1100264D02*
G01*
X-136004Y-1241264D01*
X-120764Y-1256504D02*
G01*
X29476Y-1256504D01*
X44716Y-879025D02*
G01*
X44716Y-1020025D01*
X-136004Y-1020025D02*
G01*
X-136004Y-879025D01*
X-120764Y-863785D02*
G01*
X29476Y-863785D01*
X-1263383Y-1393664D02*
G01*
X-1263383Y-1252664D01*
X-1444104Y-1252664D02*
G01*
X-1444104Y-1393664D01*
X-1428864Y-1408904D02*
G01*
X-1278623Y-1408904D01*
X-1263383Y-1031425D02*
G01*
X-1263383Y-1172425D01*
X-1444104Y-1172425D02*
G01*
X-1444104Y-1031425D01*
X-1428864Y-1016185D02*
G01*
X-1278623Y-1016185D01*
X-1115763Y-1480700D02*
G01*
X-974763Y-1480700D01*
X-974763Y-1299979D02*
G01*
X-1115763Y-1299979D01*
X-1131003Y-1315219D02*
G01*
X-1131003Y-1465460D01*
X-753524Y-1480700D02*
G01*
X-894524Y-1480700D01*
X-894524Y-1299979D02*
G01*
X-753524Y-1299979D01*
X-738284Y-1315219D02*
G01*
X-738284Y-1465460D01*
X662236Y-1442605D02*
G01*
X803236Y-1442605D01*
X803236Y-1261884D02*
G01*
X662236Y-1261884D01*
X646996Y-1277124D02*
G01*
X646996Y-1427365D01*
X1024475Y-1442605D02*
G01*
X883475Y-1442605D01*
X883475Y-1261884D02*
G01*
X1024475Y-1261884D01*
X1039715Y-1277124D02*
G01*
X1039715Y-1427365D01*
X651774Y498635D02*
G01*
X651774Y639635D01*
X471053Y639635D02*
G01*
X471053Y498635D01*
X486293Y483395D02*
G01*
X636534Y483395D01*
X651774Y860874D02*
G01*
X651774Y719874D01*
X471053Y719874D02*
G01*
X471053Y860874D01*
X486293Y876114D02*
G01*
X636534Y876114D01*
X-1572963Y-642505D02*
G01*
X-1431963Y-642505D01*
X-1431963Y-461784D02*
G01*
X-1572963Y-461784D01*
X-1588203Y-477024D02*
G01*
X-1588203Y-627265D01*
X-1210724Y-642505D02*
G01*
X-1351724Y-642505D01*
X-1351724Y-461784D02*
G01*
X-1210724Y-461784D01*
X-1195484Y-477024D02*
G01*
X-1195484Y-627265D01*
X1024475Y-984770D02*
G01*
X883475Y-984770D01*
X883475Y-1165491D02*
G01*
X1024475Y-1165491D01*
X1039715Y-1150251D02*
G01*
X1039715Y-1000010D01*
X662236Y-984770D02*
G01*
X803236Y-984770D01*
X803236Y-1165491D02*
G01*
X662236Y-1165491D01*
X646996Y-1150251D02*
G01*
X646996Y-1000010D01*
X3780373Y309669D02*
G01*
X3639372Y309669D01*
X3639372Y128948D02*
G01*
X3780373Y128948D01*
X3795613Y144188D02*
G01*
X3795613Y294429D01*
X3418133Y309669D02*
G01*
X3559134Y309669D01*
X3559134Y128948D02*
G01*
X3418133Y128948D01*
X3402893Y144188D02*
G01*
X3402893Y294429D01*
X3780375Y572322D02*
G01*
X3639375Y572322D01*
X3639375Y391601D02*
G01*
X3780375Y391601D01*
X3795615Y406841D02*
G01*
X3795615Y557082D01*
X3418136Y572322D02*
G01*
X3559136Y572322D01*
X3559136Y391601D02*
G01*
X3418136Y391601D01*
X3402896Y406841D02*
G01*
X3402896Y557082D01*
X5297741Y-375381D02*
G01*
X5438741Y-375381D01*
X5438741Y-194660D02*
G01*
X5297741Y-194660D01*
X5282501Y-209900D02*
G01*
X5282501Y-360141D01*
X5659981Y-375381D02*
G01*
X5518980Y-375381D01*
X5518980Y-194660D02*
G01*
X5659981Y-194660D01*
X5675221Y-209900D02*
G01*
X5675221Y-360141D01*
X5659975Y1189639D02*
G01*
X5518975Y1189639D01*
X5518975Y1008918D02*
G01*
X5659975Y1008918D01*
X5675215Y1024158D02*
G01*
X5675215Y1174399D01*
X5297736Y1189639D02*
G01*
X5438736Y1189639D01*
X5438736Y1008918D02*
G01*
X5297736Y1008918D01*
X5282496Y1024158D02*
G01*
X5282496Y1174399D01*
X3780375Y47012D02*
G01*
X3639375Y47012D01*
X3639375Y-133708D02*
G01*
X3780375Y-133708D01*
X3795615Y-118468D02*
G01*
X3795615Y31772D01*
X3418136Y47012D02*
G01*
X3559136Y47012D01*
X3559136Y-133708D02*
G01*
X3418136Y-133708D01*
X3402896Y-118468D02*
G01*
X3402896Y31772D01*
X6040170Y1773415D02*
G01*
X5899170Y1773415D01*
X5899170Y1592694D02*
G01*
X6040170Y1592694D01*
X6055410Y1607934D02*
G01*
X6055410Y1758175D01*
X5677931Y1773415D02*
G01*
X5818931Y1773415D01*
X5818931Y1592694D02*
G01*
X5677931Y1592694D01*
X5662691Y1607934D02*
G01*
X5662691Y1758175D01*
X5677931Y2443596D02*
G01*
X5818931Y2443596D01*
X5818931Y2624317D02*
G01*
X5677931Y2624317D01*
X5662691Y2609077D02*
G01*
X5662691Y2458836D01*
X6040170Y2443596D02*
G01*
X5899170Y2443596D01*
X5899170Y2624317D02*
G01*
X6040170Y2624317D01*
X6055410Y2609077D02*
G01*
X6055410Y2458836D01*
X1695716Y-568164D02*
G01*
X1695716Y-427164D01*
X1514995Y-427164D02*
G01*
X1514995Y-568164D01*
X1530235Y-583404D02*
G01*
X1680476Y-583404D01*
X1695716Y-205925D02*
G01*
X1695716Y-346925D01*
X1514995Y-346925D02*
G01*
X1514995Y-205925D01*
X1530235Y-190685D02*
G01*
X1680476Y-190685D01*
X2779318Y-15425D02*
G01*
X2779318Y-156425D01*
X2960039Y-156425D02*
G01*
X2960039Y-15425D01*
X2944799Y-185D02*
G01*
X2794558Y-185D01*
X2779318Y-377664D02*
G01*
X2779318Y-236664D01*
X2960039Y-236664D02*
G01*
X2960039Y-377664D01*
X2944799Y-392904D02*
G01*
X2794558Y-392904D01*
X370177Y498635D02*
G01*
X370177Y639635D01*
X189456Y639635D02*
G01*
X189456Y498635D01*
X204696Y483395D02*
G01*
X354937Y483395D01*
X370177Y860874D02*
G01*
X370177Y719874D01*
X189456Y719874D02*
G01*
X189456Y860874D01*
X204696Y876114D02*
G01*
X354937Y876114D01*
D11*
X-923820Y-230949D02*
G01*
X-843818Y-230949D01*
X-954806Y-341924D02*
G01*
X-954806Y-261927D01*
X-812840Y-341924D02*
G01*
X-812840Y-261927D01*
X-955387Y-399514D02*
G01*
X-955387Y-479513D01*
X-924405Y-510496D02*
G01*
X-844407Y-510496D01*
X-813427Y-399514D02*
G01*
X-813427Y-479513D01*
X-1402666Y-368947D02*
G01*
X-1482669Y-368947D01*
X-1371681Y-257972D02*
G01*
X-1371681Y-337969D01*
X-1513646Y-257972D02*
G01*
X-1513646Y-337969D01*
X-1371099Y-200383D02*
G01*
X-1371099Y-120383D01*
X-1402082Y-89400D02*
G01*
X-1482079Y-89400D01*
X-1513060Y-200383D02*
G01*
X-1513060Y-120383D01*
X5510415Y44658D02*
G01*
X5470415Y4658D01*
X5460415Y-5341D01*
X5470415Y-15367D01*
X5510415Y-55366D01*
X5510415Y44658D02*
G01*
X5510415Y-55366D01*
X5534738Y-107068D02*
G01*
X5689678Y-107068D01*
X5689678Y96131D01*
X5534738Y96131D01*
X5455998Y-109608D02*
G01*
X5308678Y-109608D01*
X5268038Y-68968D01*
X5268038Y58031D01*
X5306138Y96131D01*
X5458538Y96131D01*
X5510415Y603920D02*
G01*
X5470415Y563920D01*
X5460415Y553920D01*
X5470415Y543895D01*
X5510415Y503895D01*
X5510415Y603920D02*
G01*
X5510415Y503895D01*
X5534738Y452193D02*
G01*
X5689678Y452193D01*
X5689678Y655393D01*
X5534738Y655393D01*
X5455998Y449653D02*
G01*
X5308678Y449653D01*
X5268038Y490293D01*
X5268038Y617293D01*
X5306138Y655393D01*
X5458538Y655393D01*
D12*
X4614997Y147734D02*
G01*
X4310715Y147734D01*
X4310715Y652975D01*
X4614997Y652975D01*
X4614997Y147734D01*
X4867175Y-941765D02*
G01*
X4337936Y-941765D01*
X4867175Y-670524D02*
G01*
X4337936Y-670524D01*
X4729485Y-941765D02*
G01*
X4729485Y-670524D01*
X4337936Y-941765D02*
G01*
X4337936Y-903414D01*
X4337936Y-670524D02*
G01*
X4337936Y-708875D01*
X4867175Y-522665D02*
G01*
X4337936Y-522665D01*
X4867175Y-251424D02*
G01*
X4337936Y-251424D01*
X4729485Y-522665D02*
G01*
X4729485Y-251424D01*
X4337936Y-522665D02*
G01*
X4337936Y-484314D01*
X4337936Y-251424D02*
G01*
X4337936Y-289775D01*
D10*
X2324803Y810333D02*
G01*
X2324803Y830955D01*
X2324803Y955575D02*
G01*
X2324803Y935954D01*
D12*
X2149558Y955575D02*
G01*
X2324803Y955575D01*
X2149558Y810333D02*
G01*
X2324803Y810333D01*
X2190003Y955575D02*
G01*
X2190003Y810333D01*
D11*
X1437855Y-1997958D02*
G01*
X1437855Y-2157958D01*
X1137856Y-2157958D02*
G01*
X1137856Y-1997958D01*
D12*
X2399520Y147734D02*
G01*
X2095238Y147734D01*
X2095238Y652975D01*
X2399520Y652975D01*
X2399520Y147734D01*
D11*
X2400609Y-548144D02*
G01*
X2323266Y-548144D01*
X2100610Y-548144D02*
G01*
X2177981Y-548144D01*
X2100610Y-548144D02*
G01*
X2060110Y-548144D01*
X2060110Y-539003D01*
X2400609Y-48145D02*
G01*
X2441110Y-48145D01*
X2441110Y-57287D01*
X2400609Y-548144D02*
G01*
X2441110Y-548144D01*
X2441110Y-539003D01*
X2100610Y-48145D02*
G01*
X2060110Y-48145D01*
X2060110Y-57287D01*
X2100610Y-48145D02*
G01*
X2400609Y-48145D01*
X3935806Y-1390345D02*
G01*
X3745306Y-1390345D01*
X3745306Y-1212545D02*
G01*
X3935806Y-1212545D01*
X3961206Y-1237945D02*
G01*
X3961206Y-1364945D01*
X3719906Y-1237945D02*
G01*
X3719906Y-1364945D01*
D10*
X117820Y-932977D02*
G01*
X117820Y-1009177D01*
X117820Y-1185979D02*
G01*
X117820Y-1109779D01*
X249941Y-1185979D02*
G01*
X249941Y-1109779D01*
D12*
X249941Y-1185979D02*
G01*
X234698Y-1201209D01*
X133055Y-1201209D01*
X117820Y-1185979D01*
D10*
X249941Y-932977D02*
G01*
X249941Y-1009177D01*
D12*
X117820Y-932977D02*
G01*
X133055Y-917735D01*
X234698Y-917735D01*
X249941Y-932977D01*
D10*
X-1048776Y-234812D02*
G01*
X-1124976Y-234812D01*
X-1301777Y-234812D02*
G01*
X-1225577Y-234812D01*
X-1301777Y-366933D02*
G01*
X-1225577Y-366933D01*
D12*
X-1301777Y-366933D02*
G01*
X-1317007Y-351690D01*
X-1317007Y-250047D01*
X-1301777Y-234812D01*
D10*
X-1048776Y-366933D02*
G01*
X-1124976Y-366933D01*
D12*
X-1048776Y-234812D02*
G01*
X-1033533Y-250047D01*
X-1033533Y-351690D01*
X-1048776Y-366933D01*
X-1636722Y2826275D02*
G01*
X-1781964Y2826275D01*
X-1781964Y2723113D01*
X-1636722Y2521033D02*
G01*
X-1781964Y2521033D01*
X-1781964Y2624195D01*
X-1636722Y2719194D02*
G01*
X-1636722Y2628115D01*
X3031335Y-996866D02*
G01*
X3176577Y-996866D01*
X3176577Y-893704D01*
X3031335Y-691624D02*
G01*
X3176577Y-691624D01*
X3176577Y-794786D01*
X3031335Y-889784D02*
G01*
X3031335Y-798705D01*
X3671877Y-691624D02*
G01*
X3526635Y-691624D01*
X3526635Y-794786D01*
X3671877Y-996866D02*
G01*
X3526635Y-996866D01*
X3526635Y-893704D01*
X3671877Y-798705D02*
G01*
X3671877Y-889784D01*
X2199076Y-1448572D02*
G01*
X2327569Y-1448572D01*
X2327569Y-1265153D01*
X2199076Y-1265153D01*
X2103836Y-1448572D02*
G01*
X1975342Y-1448572D01*
X1975342Y-1265153D01*
X2103836Y-1265153D01*
X2225344Y-2719069D02*
G01*
X2225344Y-2847563D01*
X2408763Y-2847563D01*
X2408763Y-2719069D01*
X2225344Y-2623830D02*
G01*
X2225344Y-2495336D01*
X2408763Y-2495336D01*
X2408763Y-2623830D01*
X1652976Y-1448572D02*
G01*
X1781469Y-1448572D01*
X1781469Y-1265153D01*
X1652976Y-1265153D01*
X1557736Y-1448572D02*
G01*
X1429242Y-1448572D01*
X1429242Y-1265153D01*
X1557736Y-1265153D01*
X1010036Y-2657538D02*
G01*
X881542Y-2657538D01*
X881542Y-2840956D01*
X1010036Y-2840956D01*
X1105275Y-2657538D02*
G01*
X1233769Y-2657538D01*
X1233769Y-2840956D01*
X1105275Y-2840956D01*
X5526476Y181185D02*
G01*
X5654969Y181185D01*
X5654969Y364604D01*
X5526476Y364604D01*
X5431236Y181185D02*
G01*
X5302742Y181185D01*
X5302742Y364604D01*
X5431236Y364604D01*
X5431236Y923864D02*
G01*
X5302742Y923864D01*
X5302742Y740445D01*
X5431236Y740445D01*
X5526476Y923864D02*
G01*
X5654969Y923864D01*
X5654969Y740445D01*
X5526476Y740445D01*
X3551636Y837671D02*
G01*
X3423142Y837671D01*
X3423142Y654253D01*
X3551636Y654253D01*
X3646876Y837671D02*
G01*
X3775369Y837671D01*
X3775369Y654253D01*
X3646876Y654253D01*
X3646876Y919599D02*
G01*
X3775369Y919599D01*
X3775369Y1103017D01*
X3646876Y1103017D01*
X3551636Y919599D02*
G01*
X3423142Y919599D01*
X3423142Y1103017D01*
X3551636Y1103017D01*
X3551636Y1368364D02*
G01*
X3423142Y1368364D01*
X3423142Y1184945D01*
X3551636Y1184945D01*
X3646876Y1368364D02*
G01*
X3775369Y1368364D01*
X3775369Y1184945D01*
X3646876Y1184945D01*
X2961388Y384474D02*
G01*
X2961388Y512968D01*
X2777970Y512968D01*
X2777970Y384474D01*
X2961388Y289234D02*
G01*
X2961388Y160741D01*
X2777970Y160741D01*
X2777970Y289234D01*
X1697065Y153294D02*
G01*
X1697065Y281787D01*
X1513646Y281787D01*
X1513646Y153294D01*
X1697065Y58054D02*
G01*
X1697065Y-70439D01*
X1513646Y-70439D01*
X1513646Y58054D01*
X1513646Y530534D02*
G01*
X1513646Y402041D01*
X1697065Y402041D01*
X1697065Y530534D01*
X1513646Y625774D02*
G01*
X1513646Y754268D01*
X1697065Y754268D01*
X1697065Y625774D01*
X3694376Y-431454D02*
G01*
X3830368Y-431454D01*
X3830368Y-215635D01*
X3694376Y-215635D01*
X3504135Y-431454D02*
G01*
X3368144Y-431454D01*
X3368144Y-215635D01*
X3504135Y-215635D01*
X938476Y203545D02*
G01*
X1074468Y203545D01*
X1074468Y419364D01*
X938476Y419364D01*
X748235Y203545D02*
G01*
X612244Y203545D01*
X612244Y419364D01*
X748235Y419364D01*
X-1118664Y2768864D02*
G01*
X-1254655Y2768864D01*
X-1254655Y2553045D01*
X-1118664Y2553045D01*
X-928423Y2768864D02*
G01*
X-792431Y2768864D01*
X-792431Y2553045D01*
X-928423Y2553045D01*
X-756201Y774877D02*
G01*
X-756201Y910869D01*
X-972019Y910869D01*
X-972019Y774877D01*
X-756201Y584636D02*
G01*
X-756201Y448645D01*
X-972019Y448645D01*
X-972019Y584636D01*
X2780065Y-876124D02*
G01*
X2780065Y-740133D01*
X2564246Y-740133D01*
X2564246Y-876124D01*
X2780065Y-1066365D02*
G01*
X2780065Y-1202357D01*
X2564246Y-1202357D01*
X2564246Y-1066365D01*
X890976Y-326758D02*
G01*
X1019469Y-326758D01*
X1019469Y-143339D01*
X890976Y-143339D01*
X795736Y-326758D02*
G01*
X667242Y-326758D01*
X667242Y-143339D01*
X795736Y-143339D01*
X795736Y136464D02*
G01*
X667242Y136464D01*
X667242Y-46954D01*
X795736Y-46954D01*
X890976Y136464D02*
G01*
X1019469Y136464D01*
X1019469Y-46954D01*
X890976Y-46954D01*
D11*
X2181860Y-1770379D02*
G01*
X2181860Y-1861819D01*
X2181860Y-1998979D02*
G01*
X2181860Y-2090419D01*
X2180399Y-2155400D02*
G01*
X2168834Y-2155400D01*
X1691965Y-2155400D02*
G01*
X1680400Y-2155400D01*
X1680400Y-1705399D01*
X1691965Y-1705399D01*
X2168834Y-1705399D02*
G01*
X2180399Y-1705399D01*
X2181860Y-2090419D02*
G01*
X2181860Y-2155400D01*
X2181860Y-1770379D02*
G01*
X2181860Y-1705399D01*
X4059354Y-2739252D02*
G01*
X4059354Y-3046242D01*
X2580358Y-3046242D01*
X2580358Y-2739262D01*
X2583860Y-2926638D02*
G01*
X3320859Y-2926638D01*
X2580358Y-2473035D02*
G01*
X2580358Y-1744261D01*
X4059354Y-1744256D02*
G01*
X4059354Y-2473025D01*
X3602972Y-1596146D02*
G01*
X3901754Y-1596146D01*
D13*
X-1087043Y3295954D02*
G01*
X-1277543Y3295954D01*
X-1277543Y3041954D01*
X246456Y3041954D01*
X246456Y3295954D01*
D14*
X246456Y3295954D02*
G01*
X-1087043Y3295954D01*
D11*
X644956Y3382556D02*
G01*
X1244955Y3382556D01*
X644956Y3382556D02*
G01*
X644956Y2622552D01*
X1244955Y2622552D02*
G01*
X1244955Y3378456D01*
X644956Y2622552D02*
G01*
X744956Y2622552D01*
X744956Y2782554D01*
X1244950Y2622557D02*
G01*
X1144950Y2622557D01*
X1144950Y2782554D01*
X744956Y2782554D02*
G01*
X744956Y3162556D01*
X804959Y3162556D01*
X804959Y2782554D01*
X1084953Y2782554D02*
G01*
X1084953Y3162556D01*
X1144955Y3162556D01*
X1144955Y2782554D01*
X844956Y3382556D02*
G01*
X844956Y2952554D01*
X1044956Y2952554D01*
X1044956Y3372558D01*
X744956Y2782554D02*
G01*
X746841Y2782554D01*
X943071Y2782554D02*
G01*
X946840Y2782554D01*
X1143071Y2782554D02*
G01*
X1144950Y2782554D01*
X2219756Y3382556D02*
G01*
X2819755Y3382556D01*
X2219756Y3382556D02*
G01*
X2219756Y2622552D01*
X2819755Y2622552D02*
G01*
X2819755Y3378456D01*
X2219756Y2622552D02*
G01*
X2319756Y2622552D01*
X2319756Y2782554D01*
X2819750Y2622557D02*
G01*
X2719750Y2622557D01*
X2719750Y2782554D01*
X2319756Y2782554D02*
G01*
X2319756Y3162556D01*
X2379759Y3162556D01*
X2379759Y2782554D01*
X2659753Y2782554D02*
G01*
X2659753Y3162556D01*
X2719755Y3162556D01*
X2719755Y2782554D01*
X2419756Y3382556D02*
G01*
X2419756Y2952554D01*
X2619756Y2952554D01*
X2619756Y3372558D01*
X2319756Y2782554D02*
G01*
X2321641Y2782554D01*
X2517871Y2782554D02*
G01*
X2521640Y2782554D01*
X2717871Y2782554D02*
G01*
X2719750Y2782554D01*
D12*
X5720176Y2029457D02*
G01*
X5720176Y2199698D01*
X6025418Y2029457D02*
G01*
X6025418Y2199698D01*
X5920437Y2199698D02*
G01*
X5825157Y2199698D01*
D11*
X-2255540Y-373054D02*
G01*
X-2255540Y-426943D01*
X-2255540Y-426943D02*
G01*
X-2248905Y-426943D01*
X-2248905Y-172943D02*
G01*
X-2255540Y-172943D01*
X-2255540Y-226832D01*
X-1982678Y-426948D02*
G01*
X-1976043Y-426948D01*
X-1976043Y-373059D01*
X-1976043Y-226837D02*
G01*
X-1976043Y-172948D01*
X-1976043Y-172948D02*
G01*
X-1982678Y-172948D01*
X-2255540Y-373054D02*
G01*
X-2255540Y-226832D01*
X513156Y-323545D02*
G01*
X513156Y-425145D01*
X360756Y-425145D02*
G01*
X360756Y-323545D01*
D15*
X-962345Y-907846D02*
G01*
X-1092344Y-907846D01*
X-1092344Y-1047846D01*
X-832357Y-937844D02*
G01*
X-832357Y-1207846D01*
X-1062354Y-1207846D01*
X-1062354Y-937844D01*
X-832357Y-937844D01*
D12*
G75*
G01*
X-1812404Y-380967D02*
G03*
X-1797164Y-396207I15240J0D01*
G75*
G01*
X-1646923Y-396207D02*
G03*
X-1631683Y-380967I0J15240D01*
G75*
G01*
X-1812404Y-18727D02*
G02*
X-1797164Y-3487I15240J0D01*
G75*
G01*
X-1646923Y-3487D02*
G02*
X-1631683Y-18727I0J-15240D01*
G75*
G01*
X-221983Y-879025D02*
G03*
X-237223Y-863785I-15240J0D01*
G75*
G01*
X-387464Y-863785D02*
G03*
X-402704Y-879025I0J-15240D01*
G75*
G01*
X-221983Y-1241265D02*
G02*
X-237223Y-1256505I-15240J0D01*
G75*
G01*
X-387464Y-1256505D02*
G02*
X-402704Y-1241265I0J15240D01*
D11*
G75*
G01*
X3964447Y1408801D02*
G02*
X3966157Y1404673I-4127J-4127D01*
D12*
G75*
G01*
X662236Y-707664D02*
G03*
X646996Y-722904I0J-15240D01*
G75*
G01*
X646996Y-873145D02*
G03*
X662236Y-888385I15240J0D01*
G75*
G01*
X1024476Y-707664D02*
G02*
X1039716Y-722904I0J-15240D01*
G75*
G01*
X1039716Y-873145D02*
G02*
X1024476Y-888385I-15240J0D01*
G75*
G01*
X662236Y-430550D02*
G03*
X646996Y-445790I0J-15240D01*
G75*
G01*
X646996Y-596031D02*
G03*
X662236Y-611271I15240J0D01*
G75*
G01*
X1024476Y-430550D02*
G02*
X1039716Y-445790I0J-15240D01*
G75*
G01*
X1039716Y-596031D02*
G02*
X1024476Y-611271I-15240J0D01*
G75*
G01*
X-682104Y-1253965D02*
G03*
X-666864Y-1269205I15240J0D01*
G75*
G01*
X-516623Y-1269205D02*
G03*
X-501383Y-1253965I0J15240D01*
G75*
G01*
X-682104Y-891725D02*
G02*
X-666864Y-876485I15240J0D01*
G75*
G01*
X-516623Y-876485D02*
G02*
X-501383Y-891725I0J-15240D01*
G75*
G01*
X-373731Y498638D02*
G03*
X-358491Y483398I15240J0D01*
G75*
G01*
X-208250Y483398D02*
G03*
X-193010Y498638I0J15240D01*
G75*
G01*
X-373731Y860877D02*
G02*
X-358491Y876117I15240J0D01*
G75*
G01*
X-208250Y876117D02*
G02*
X-193010Y860877I0J-15240D01*
G75*
G01*
X-92133Y498635D02*
G03*
X-76893Y483395I15240J0D01*
G75*
G01*
X73348Y483395D02*
G03*
X88588Y498635I0J15240D01*
G75*
G01*
X-92133Y860875D02*
G02*
X-76893Y876115I15240J0D01*
G75*
G01*
X73348Y876115D02*
G02*
X88588Y860875I0J-15240D01*
G75*
G01*
X-1253604Y498638D02*
G03*
X-1238364Y483398I15240J0D01*
G75*
G01*
X-1088123Y483398D02*
G03*
X-1072883Y498638I0J15240D01*
G75*
G01*
X-1253604Y860877D02*
G02*
X-1238364Y876117I15240J0D01*
G75*
G01*
X-1088123Y876117D02*
G02*
X-1072883Y860877I0J-15240D01*
G75*
G01*
X-655330Y498638D02*
G03*
X-640090Y483398I15240J0D01*
G75*
G01*
X-489849Y483398D02*
G03*
X-474609Y498638I0J15240D01*
G75*
G01*
X-655330Y860877D02*
G02*
X-640090Y876117I15240J0D01*
G75*
G01*
X-489849Y876117D02*
G02*
X-474609Y860877I0J-15240D01*
G75*
G01*
X-1185324Y157594D02*
G03*
X-1170084Y172834I0J15240D01*
G75*
G01*
X-1170084Y323075D02*
G03*
X-1185324Y338315I-15240J0D01*
G75*
G01*
X-1547564Y157594D02*
G02*
X-1562804Y172834I0J15240D01*
G75*
G01*
X-1562804Y323075D02*
G02*
X-1547564Y338315I15240J0D01*
G75*
G01*
X-1572964Y-715785D02*
G03*
X-1588204Y-731025I0J-15240D01*
G75*
G01*
X-1588204Y-881266D02*
G03*
X-1572964Y-896506I15240J0D01*
G75*
G01*
X-1210724Y-715785D02*
G02*
X-1195484Y-731025I0J-15240D01*
G75*
G01*
X-1195484Y-881266D02*
G02*
X-1210724Y-896506I-15240J0D01*
G75*
G01*
X-136004Y-1241265D02*
G03*
X-120764Y-1256505I15240J0D01*
G75*
G01*
X29477Y-1256505D02*
G03*
X44717Y-1241265I0J15240D01*
G75*
G01*
X-136004Y-879025D02*
G02*
X-120764Y-863785I15240J0D01*
G75*
G01*
X29477Y-863785D02*
G02*
X44717Y-879025I0J-15240D01*
G75*
G01*
X-1444104Y-1393665D02*
G03*
X-1428864Y-1408905I15240J0D01*
G75*
G01*
X-1278623Y-1408905D02*
G03*
X-1263383Y-1393665I0J15240D01*
G75*
G01*
X-1444104Y-1031425D02*
G02*
X-1428864Y-1016185I15240J0D01*
G75*
G01*
X-1278623Y-1016185D02*
G02*
X-1263383Y-1031425I0J-15240D01*
G75*
G01*
X-1115764Y-1299980D02*
G03*
X-1131004Y-1315220I0J-15240D01*
G75*
G01*
X-1131004Y-1465461D02*
G03*
X-1115764Y-1480701I15240J0D01*
G75*
G01*
X-753524Y-1299980D02*
G02*
X-738284Y-1315220I0J-15240D01*
G75*
G01*
X-738284Y-1465461D02*
G02*
X-753524Y-1480701I-15240J0D01*
G75*
G01*
X662236Y-1261885D02*
G03*
X646996Y-1277125I0J-15240D01*
G75*
G01*
X646996Y-1427366D02*
G03*
X662236Y-1442606I15240J0D01*
G75*
G01*
X1024476Y-1261885D02*
G02*
X1039716Y-1277125I0J-15240D01*
G75*
G01*
X1039716Y-1427366D02*
G02*
X1024476Y-1442606I-15240J0D01*
G75*
G01*
X471053Y498635D02*
G03*
X486293Y483395I15240J0D01*
G75*
G01*
X636534Y483395D02*
G03*
X651774Y498635I0J15240D01*
G75*
G01*
X471053Y860875D02*
G02*
X486293Y876115I15240J0D01*
G75*
G01*
X636534Y876115D02*
G02*
X651774Y860875I0J-15240D01*
G75*
G01*
X-1572964Y-461785D02*
G03*
X-1588204Y-477025I0J-15240D01*
G75*
G01*
X-1588204Y-627266D02*
G03*
X-1572964Y-642506I15240J0D01*
G75*
G01*
X-1210724Y-461785D02*
G02*
X-1195484Y-477025I0J-15240D01*
G75*
G01*
X-1195484Y-627266D02*
G02*
X-1210724Y-642506I-15240J0D01*
G75*
G01*
X1024476Y-1165492D02*
G03*
X1039716Y-1150252I0J15240D01*
G75*
G01*
X1039716Y-1000011D02*
G03*
X1024476Y-984771I-15240J0D01*
G75*
G01*
X662236Y-1165492D02*
G02*
X646996Y-1150252I0J15240D01*
G75*
G01*
X646996Y-1000011D02*
G02*
X662236Y-984771I15240J0D01*
G75*
G01*
X3780373Y128948D02*
G03*
X3795613Y144188I0J15240D01*
G75*
G01*
X3795613Y294429D02*
G03*
X3780373Y309669I-15240J0D01*
G75*
G01*
X3418134Y128948D02*
G02*
X3402894Y144188I0J15240D01*
G75*
G01*
X3402894Y294429D02*
G02*
X3418134Y309669I15240J0D01*
G75*
G01*
X3780376Y391602D02*
G03*
X3795616Y406842I0J15240D01*
G75*
G01*
X3795616Y557083D02*
G03*
X3780376Y572323I-15240J0D01*
G75*
G01*
X3418136Y391602D02*
G02*
X3402896Y406842I0J15240D01*
G75*
G01*
X3402896Y557083D02*
G02*
X3418136Y572323I15240J0D01*
G75*
G01*
X5297742Y-194661D02*
G03*
X5282502Y-209901I0J-15240D01*
G75*
G01*
X5282502Y-360142D02*
G03*
X5297742Y-375382I15240J0D01*
G75*
G01*
X5659981Y-194661D02*
G02*
X5675221Y-209901I0J-15240D01*
G75*
G01*
X5675221Y-360142D02*
G02*
X5659981Y-375382I-15240J0D01*
G75*
G01*
X5659976Y1008918D02*
G03*
X5675216Y1024158I0J15240D01*
G75*
G01*
X5675216Y1174399D02*
G03*
X5659976Y1189639I-15240J0D01*
G75*
G01*
X5297736Y1008918D02*
G02*
X5282496Y1024158I0J15240D01*
G75*
G01*
X5282496Y1174399D02*
G02*
X5297736Y1189639I15240J0D01*
G75*
G01*
X3780376Y-133708D02*
G03*
X3795616Y-118468I0J15240D01*
G75*
G01*
X3795616Y31773D02*
G03*
X3780376Y47013I-15240J0D01*
G75*
G01*
X3418136Y-133708D02*
G02*
X3402896Y-118468I0J15240D01*
G75*
G01*
X3402896Y31773D02*
G02*
X3418136Y47013I15240J0D01*
G75*
G01*
X6040171Y1592694D02*
G03*
X6055411Y1607934I0J15240D01*
G75*
G01*
X6055411Y1758175D02*
G03*
X6040171Y1773415I-15240J0D01*
G75*
G01*
X5677931Y1592694D02*
G02*
X5662691Y1607934I0J15240D01*
G75*
G01*
X5662691Y1758175D02*
G02*
X5677931Y1773415I15240J0D01*
G75*
G01*
X5677931Y2624318D02*
G03*
X5662691Y2609078I0J-15240D01*
G75*
G01*
X5662691Y2458837D02*
G03*
X5677931Y2443597I15240J0D01*
G75*
G01*
X6040171Y2624318D02*
G02*
X6055411Y2609078I0J-15240D01*
G75*
G01*
X6055411Y2458837D02*
G02*
X6040171Y2443597I-15240J0D01*
G75*
G01*
X1514996Y-568165D02*
G03*
X1530236Y-583405I15240J0D01*
G75*
G01*
X1680477Y-583405D02*
G03*
X1695717Y-568165I0J15240D01*
G75*
G01*
X1514996Y-205925D02*
G02*
X1530236Y-190685I15240J0D01*
G75*
G01*
X1680477Y-190685D02*
G02*
X1695717Y-205925I0J-15240D01*
G75*
G01*
X2960040Y-15425D02*
G03*
X2944800Y-185I-15240J0D01*
G75*
G01*
X2794559Y-185D02*
G03*
X2779319Y-15425I0J-15240D01*
G75*
G01*
X2960040Y-377665D02*
G02*
X2944800Y-392905I-15240J0D01*
G75*
G01*
X2794559Y-392905D02*
G02*
X2779319Y-377665I0J15240D01*
G75*
G01*
X189456Y498635D02*
G03*
X204696Y483395I15240J0D01*
G75*
G01*
X354937Y483395D02*
G03*
X370177Y498635I0J15240D01*
G75*
G01*
X189456Y860875D02*
G02*
X204696Y876115I15240J0D01*
G75*
G01*
X354937Y876115D02*
G02*
X370177Y860875I0J-15240D01*
D11*
G75*
G01*
X-924405Y-510502D02*
G02*
X-955388Y-479519I0J30983D01*
G75*
G01*
X-813422Y-479519D02*
G02*
X-844408Y-510502I-30983J0D01*
G75*
G01*
X-954806Y-261932D02*
G02*
X-923821Y-230949I30983J0D01*
G75*
G01*
X-843824Y-230949D02*
G02*
X-812841Y-261932I0J-30983D01*
G75*
G01*
X-1402083Y-89395D02*
G02*
X-1371100Y-120378I0J-30983D01*
G75*
G01*
X-1513065Y-120378D02*
G02*
X-1482080Y-89395I30983J0D01*
G75*
G01*
X-1371681Y-337965D02*
G02*
X-1402667Y-368948I-30983J0D01*
G75*
G01*
X-1482664Y-368948D02*
G02*
X-1513647Y-337965I0J30983D01*
G75*
G01*
X2323267Y-548145D02*
G03*
X2177981Y-547654I-72657J-3980D01*
G75*
G01*
X3961206Y-1237945D02*
G03*
X3935806Y-1212545I-25400J0D01*
G75*
G01*
X3935806Y-1390345D02*
G03*
X3961206Y-1364945I0J25400D01*
G75*
G01*
X3719906Y-1364945D02*
G03*
X3745306Y-1390345I25400J0D01*
G75*
G01*
X3745306Y-1212545D02*
G03*
X3719906Y-1237945I0J-25400D01*
G75*
G01*
X2181860Y-1998980D02*
G02*
X2181860Y-1861820I0J68580D01*
G75*
G01*
X3320860Y-2926639D02*
G02*
X3544496Y-3035694I-398732J-1101503D01*
D17*
G75*
G01
X-1892630Y3067355D02*
G03X-1892630Y3067355I-450012J0D01*
G75*
G01
X-1942643Y-2732634D02*
G03X-1942643Y-2732634I-399999J0D01*
G75*
G01
X6267374Y-2732634D02*
G03X6267374Y-2732634I-450012J0D01*
G75*
G01
X6267374Y3067355D02*
G03X6267374Y3067355I-450012J0D01*
D18*
G75*
G01
X120015Y-535102D02*
G03X120015Y-535102I-10008J0D01*
D11*
G75*
G01
X5196154Y2381555D02*
G03X5196154Y2381555I-999998J0D01*
D19*
G75*
G01
X4554779Y200355D02*
G03X4554779Y200355I-15011J0D01*
G75*
G01
X4753534Y128854D02*
G03X4753534Y128854I-15011J0D01*
D11*
G75*
G01
X1398067Y-1865452D02*
G03X1398067Y-1865452I-12700J0D01*
D19*
G75*
G01
X2339315Y209855D02*
G03X2339315Y209855I-15011J0D01*
G75*
G01
X2539644Y135204D02*
G03X2539644Y135204I-15011J0D01*
G75*
G01
X2532329Y-552145D02*
G03X2532329Y-552145I-15011J0D01*
D20*
G75*
G01
X2225396Y-1630401D02*
G03X2225396Y-1630401I-19990J0D01*
D19*
G75*
G01
X3741166Y-1528851D02*
G03X3741166Y-1528851I-15011J0D01*
G75*
G01
X5722722Y2000275D02*
G03X5722722Y2000275I-15011J0D01*
D11*
G75*
G01
X-2059000Y-299949D02*
G03X-2059000Y-299949I-56794J0D01*
M02*
