G04 Layer: BottomLayer*
G04 EasyEDA v6.5.54, 2026-04-14 14:33:15*
G04 27845933940048b08c14d6c4289a14c4,81a6330f3d4149d2af66a0b9843494eb,10*
G04 Gerber Generator version 0.2*
G04 Scale: 100 percent, Rotated: No, Reflected: No *
G04 Dimensions in millimeters *
G04 leading zeros omitted , absolute positions ,4 integer and 5 decimal *
%FSLAX45Y45*%
%MOMM*%

%AMMACRO1*21,1,$1,$2,0,0,$3*%
%ADD10C,0.1500*%
%ADD11C,0.5000*%
%ADD12C,2.0000*%
%ADD13C,0.2000*%
%ADD14MACRO1,1.8X1.2X0.0000*%
%ADD15MACRO1,5.32X7.35X0.0000*%
%ADD16MACRO1,1.35X1.41X-90.0000*%
%ADD17MACRO1,1.35X1.41X90.0000*%
%ADD18R,1.0000X1.3995*%
%ADD19R,0.0156X1.3995*%
%ADD20MACRO1,1X1.3995X0.0000*%
%ADD21MACRO1,1.377X1.1325X90.0000*%
%ADD22MACRO1,1.377X1.1325X-90.0000*%
%ADD23MACRO1,3.5X1.2X0.0000*%
%ADD24C,1.8000*%
%ADD25R,1.8000X1.8000*%
%ADD26R,1.5000X1.4000*%
%ADD27C,1.4000*%
%ADD28C,1.7000*%
%ADD29R,1.7000X1.7000*%
%ADD30C,0.6200*%
%ADD31C,0.3000*%
%ADD32C,0.3500*%
%ADD33C,0.6000*%
%ADD34C,0.4000*%

%LPD*%
G36*
X-1464513Y1409141D02*
G01*
X-1468424Y1409903D01*
X-1471726Y1412087D01*
X-1521155Y1461566D01*
X-1523390Y1464868D01*
X-1524152Y1468729D01*
X-1524152Y2307437D01*
X-1523390Y2311349D01*
X-1521155Y2314651D01*
X-1517853Y2316835D01*
X-1513992Y2317597D01*
X-1496110Y2317597D01*
X-1490980Y2318207D01*
X-1486662Y2319680D01*
X-1482801Y2322118D01*
X-1479550Y2325370D01*
X-1477111Y2329230D01*
X-1475587Y2333548D01*
X-1475028Y2338679D01*
X-1475028Y2475230D01*
X-1475587Y2480360D01*
X-1477111Y2484678D01*
X-1479550Y2488539D01*
X-1482801Y2491790D01*
X-1486662Y2494229D01*
X-1490980Y2495702D01*
X-1496110Y2496312D01*
X-1608226Y2496312D01*
X-1613306Y2495702D01*
X-1617624Y2494229D01*
X-1621536Y2491790D01*
X-1624736Y2488539D01*
X-1627174Y2484678D01*
X-1628698Y2480360D01*
X-1629257Y2475230D01*
X-1629257Y2338679D01*
X-1628698Y2333548D01*
X-1627174Y2329230D01*
X-1624736Y2325370D01*
X-1621536Y2322118D01*
X-1617624Y2319680D01*
X-1613306Y2318207D01*
X-1608226Y2317597D01*
X-1590294Y2317597D01*
X-1586433Y2316835D01*
X-1583131Y2314651D01*
X-1580896Y2311349D01*
X-1580134Y2307437D01*
X-1580134Y1503680D01*
X-1580896Y1499819D01*
X-1583131Y1496517D01*
X-1586433Y1494332D01*
X-1590294Y1493520D01*
X-1594205Y1494332D01*
X-1597507Y1496517D01*
X-2083562Y1982622D01*
X-2085644Y1985619D01*
X-2086508Y1989124D01*
X-2087321Y2001621D01*
X-2090013Y2015134D01*
X-2094484Y2028240D01*
X-2100580Y2040585D01*
X-2108250Y2052066D01*
X-2117344Y2062429D01*
X-2127707Y2071522D01*
X-2139188Y2079193D01*
X-2151532Y2085289D01*
X-2164638Y2089759D01*
X-2178151Y2092452D01*
X-2191918Y2093315D01*
X-2205685Y2092452D01*
X-2219198Y2089759D01*
X-2232304Y2085289D01*
X-2244648Y2079193D01*
X-2256129Y2071522D01*
X-2266492Y2062429D01*
X-2273096Y2054910D01*
X-2276348Y2052421D01*
X-2280310Y2051456D01*
X-2284323Y2052066D01*
X-2287778Y2054250D01*
X-2290114Y2057603D01*
X-2290927Y2061565D01*
X-2290927Y2168144D01*
X-2290114Y2172106D01*
X-2287778Y2175459D01*
X-2284323Y2177643D01*
X-2280310Y2178253D01*
X-2276348Y2177288D01*
X-2273096Y2174798D01*
X-2266492Y2167280D01*
X-2256129Y2158187D01*
X-2244648Y2150516D01*
X-2232304Y2144420D01*
X-2219198Y2139950D01*
X-2205685Y2137257D01*
X-2191918Y2136394D01*
X-2178151Y2137257D01*
X-2164638Y2139950D01*
X-2151532Y2144420D01*
X-2139188Y2150516D01*
X-2127707Y2158187D01*
X-2117344Y2167280D01*
X-2108250Y2177643D01*
X-2100580Y2189124D01*
X-2094484Y2201468D01*
X-2090013Y2214575D01*
X-2087321Y2228088D01*
X-2086457Y2241854D01*
X-2087321Y2255621D01*
X-2090013Y2269134D01*
X-2094484Y2282240D01*
X-2100580Y2294585D01*
X-2108250Y2306066D01*
X-2117344Y2316429D01*
X-2127707Y2325522D01*
X-2139188Y2333193D01*
X-2151532Y2339289D01*
X-2164638Y2343759D01*
X-2178151Y2346452D01*
X-2191918Y2347315D01*
X-2205685Y2346452D01*
X-2213508Y2344877D01*
X-2217775Y2344928D01*
X-2221636Y2346756D01*
X-2224430Y2350058D01*
X-2225598Y2354173D01*
X-2224989Y2358440D01*
X-2222652Y2362047D01*
X-1798980Y2785668D01*
X-1795678Y2787904D01*
X-1791817Y2788666D01*
X-1552956Y2788666D01*
X-1545894Y2789377D01*
X-1540002Y2791460D01*
X-1534718Y2794812D01*
X-1530248Y2799232D01*
X-1526946Y2804515D01*
X-1526133Y2806852D01*
X-1523949Y2810408D01*
X-1520596Y2812796D01*
X-1516532Y2813659D01*
X-1496110Y2813659D01*
X-1490472Y2813456D01*
X-1486814Y2811424D01*
X-1484325Y2808122D01*
X-1483309Y2804058D01*
X-1483106Y2797403D01*
X-1481734Y2791409D01*
X-1478991Y2785770D01*
X-1474927Y2780639D01*
X-1457350Y2763062D01*
X-1455115Y2759760D01*
X-1454353Y2755900D01*
X-1454353Y1419301D01*
X-1455115Y1415389D01*
X-1457350Y1412087D01*
X-1460652Y1409903D01*
G37*

%LPC*%
G36*
X-1912518Y2136394D02*
G01*
X-1898751Y2137257D01*
X-1885238Y2139950D01*
X-1872132Y2144420D01*
X-1859788Y2150516D01*
X-1848307Y2158187D01*
X-1837943Y2167280D01*
X-1828850Y2177643D01*
X-1821180Y2189124D01*
X-1815084Y2201468D01*
X-1810613Y2214575D01*
X-1807921Y2228088D01*
X-1807057Y2241854D01*
X-1807921Y2255621D01*
X-1810613Y2269134D01*
X-1815084Y2282240D01*
X-1821180Y2294585D01*
X-1828850Y2306066D01*
X-1837943Y2316429D01*
X-1848307Y2325522D01*
X-1859788Y2333193D01*
X-1872132Y2339289D01*
X-1885238Y2343759D01*
X-1898751Y2346452D01*
X-1912518Y2347315D01*
X-1926285Y2346452D01*
X-1939798Y2343759D01*
X-1952904Y2339289D01*
X-1965248Y2333193D01*
X-1976729Y2325522D01*
X-1987092Y2316429D01*
X-1996186Y2306066D01*
X-2003856Y2294585D01*
X-2009952Y2282240D01*
X-2014423Y2269134D01*
X-2017115Y2255621D01*
X-2017979Y2241854D01*
X-2017115Y2228088D01*
X-2014423Y2214575D01*
X-2009952Y2201468D01*
X-2003856Y2189124D01*
X-1996186Y2177643D01*
X-1987092Y2167280D01*
X-1976729Y2158187D01*
X-1965248Y2150516D01*
X-1952904Y2144420D01*
X-1939798Y2139950D01*
X-1926285Y2137257D01*
G37*

%LPD*%
G36*
X-741019Y-41046D02*
G01*
X-744778Y-40182D01*
X-747928Y-38049D01*
X-1729130Y943152D01*
X-1731365Y946454D01*
X-1732127Y950315D01*
X-1732127Y1492250D01*
X-1732838Y1498803D01*
X-1734921Y1504696D01*
X-1738223Y1509979D01*
X-1740509Y1512570D01*
X-1778203Y1550263D01*
X-1783334Y1554327D01*
X-1788972Y1557070D01*
X-1795068Y1558442D01*
X-1798523Y1558645D01*
X-2277719Y1558645D01*
X-2281580Y1559407D01*
X-2284882Y1561642D01*
X-2287930Y1564690D01*
X-2290165Y1567992D01*
X-2290927Y1571853D01*
X-2290927Y1618640D01*
X-2290013Y1622755D01*
X-2287524Y1626209D01*
X-2283866Y1628292D01*
X-2279599Y1628749D01*
X-2276348Y1628343D01*
X-2107488Y1628343D01*
X-2102358Y1628952D01*
X-2098040Y1630426D01*
X-2094179Y1632864D01*
X-2090928Y1636115D01*
X-2088489Y1639976D01*
X-2087016Y1644294D01*
X-2086406Y1649425D01*
X-2086406Y1818284D01*
X-2087016Y1823415D01*
X-2088489Y1827733D01*
X-2090928Y1831593D01*
X-2094179Y1834845D01*
X-2098040Y1837283D01*
X-2102358Y1838756D01*
X-2107488Y1839366D01*
X-2276348Y1839366D01*
X-2279599Y1838960D01*
X-2283866Y1839417D01*
X-2287524Y1841500D01*
X-2290013Y1844954D01*
X-2290927Y1849069D01*
X-2290927Y1914143D01*
X-2290114Y1918106D01*
X-2287778Y1921459D01*
X-2284323Y1923643D01*
X-2280310Y1924253D01*
X-2276348Y1923288D01*
X-2273096Y1920798D01*
X-2266492Y1913280D01*
X-2256129Y1904187D01*
X-2244648Y1896516D01*
X-2232304Y1890420D01*
X-2219198Y1885950D01*
X-2205685Y1883257D01*
X-2191918Y1882393D01*
X-2178151Y1883257D01*
X-2164638Y1885950D01*
X-2151532Y1890420D01*
X-2139188Y1896516D01*
X-2127707Y1904187D01*
X-2117344Y1913280D01*
X-2113330Y1917852D01*
X-2110028Y1920341D01*
X-2106015Y1921306D01*
X-2101951Y1920595D01*
X-2098497Y1918360D01*
X-1305204Y1125067D01*
X-1302867Y1121410D01*
X-1302258Y1117142D01*
X-1303477Y1112977D01*
X-1306322Y1109726D01*
X-1310284Y1107948D01*
X-1313891Y1107186D01*
X-1320647Y1104138D01*
X-1324508Y1101953D01*
X-1327658Y1101445D01*
X-1417878Y1101445D01*
X-1421028Y1101953D01*
X-1424889Y1104138D01*
X-1431645Y1107186D01*
X-1438910Y1108710D01*
X-1446326Y1108710D01*
X-1453591Y1107186D01*
X-1460347Y1104138D01*
X-1466342Y1099769D01*
X-1471269Y1094282D01*
X-1474978Y1087882D01*
X-1477264Y1080820D01*
X-1478076Y1073454D01*
X-1477264Y1066088D01*
X-1474978Y1059027D01*
X-1471269Y1052626D01*
X-1466342Y1047140D01*
X-1460347Y1042771D01*
X-1453591Y1039723D01*
X-1446326Y1038199D01*
X-1438910Y1038199D01*
X-1431645Y1039723D01*
X-1424889Y1042771D01*
X-1421028Y1044956D01*
X-1417878Y1045464D01*
X-1327658Y1045464D01*
X-1324508Y1044956D01*
X-1320647Y1042771D01*
X-1313891Y1039723D01*
X-1306626Y1038199D01*
X-1299210Y1038199D01*
X-1291945Y1039723D01*
X-1285189Y1042771D01*
X-1279194Y1047140D01*
X-1274267Y1052626D01*
X-1270558Y1059027D01*
X-1267968Y1066901D01*
X-1265936Y1070508D01*
X-1262634Y1072997D01*
X-1258620Y1073962D01*
X-1254556Y1073251D01*
X-1251153Y1070965D01*
X-800506Y620318D01*
X-798271Y617016D01*
X-797509Y613156D01*
X-797509Y94894D01*
X-797864Y92252D01*
X-798880Y89814D01*
X-801878Y84582D01*
X-804164Y77520D01*
X-804976Y70154D01*
X-804164Y62788D01*
X-801878Y55727D01*
X-798169Y49326D01*
X-793242Y43840D01*
X-787247Y39471D01*
X-780491Y36423D01*
X-773226Y34899D01*
X-765810Y34899D01*
X-758545Y36423D01*
X-751789Y39471D01*
X-745794Y43840D01*
X-740867Y49326D01*
X-737158Y55727D01*
X-734872Y62788D01*
X-734060Y70154D01*
X-734872Y77520D01*
X-737158Y84582D01*
X-740156Y89814D01*
X-741172Y92252D01*
X-741527Y94894D01*
X-741527Y578205D01*
X-740765Y582066D01*
X-738530Y585368D01*
X-735228Y587603D01*
X-731367Y588365D01*
X-727456Y587603D01*
X-724154Y585368D01*
X-701090Y562305D01*
X-698855Y559003D01*
X-698093Y555091D01*
X-698093Y-29057D01*
X-698754Y-32715D01*
X-700684Y-35864D01*
X-703630Y-38100D01*
X-707136Y-39166D01*
X-710793Y-38912D01*
X-716229Y-37490D01*
X-723900Y-37084D01*
X-731520Y-38252D01*
X-737260Y-40386D01*
G37*

%LPD*%
G36*
X-2310688Y-3033572D02*
G01*
X-2314600Y-3032760D01*
X-2317902Y-3030575D01*
X-2320086Y-3027273D01*
X-2320848Y-3023412D01*
X-2320848Y-2962960D01*
X-2320188Y-2959354D01*
X-2318308Y-2956204D01*
X-2315413Y-2953969D01*
X-2311908Y-2952902D01*
X-2301138Y-2951632D01*
X-2280920Y-2947263D01*
X-2261209Y-2941066D01*
X-2242159Y-2933039D01*
X-2223973Y-2923286D01*
X-2206752Y-2911856D01*
X-2190648Y-2898851D01*
X-2175865Y-2884424D01*
X-2162505Y-2868676D01*
X-2150668Y-2851708D01*
X-2140458Y-2833725D01*
X-2132025Y-2814878D01*
X-2125370Y-2795320D01*
X-2120544Y-2775204D01*
X-2117648Y-2754731D01*
X-2116683Y-2734106D01*
X-2117648Y-2713431D01*
X-2120544Y-2692958D01*
X-2125370Y-2672892D01*
X-2132025Y-2653334D01*
X-2140458Y-2634437D01*
X-2150668Y-2616454D01*
X-2162505Y-2599537D01*
X-2175865Y-2583789D01*
X-2190648Y-2569311D01*
X-2206752Y-2556306D01*
X-2223973Y-2544876D01*
X-2242159Y-2535123D01*
X-2261209Y-2527096D01*
X-2280920Y-2520899D01*
X-2301138Y-2516581D01*
X-2311908Y-2515311D01*
X-2315413Y-2514244D01*
X-2318308Y-2511958D01*
X-2320188Y-2508808D01*
X-2320848Y-2505202D01*
X-2320848Y1496618D01*
X-2320086Y1500530D01*
X-2317851Y1503832D01*
X-2314498Y1506067D01*
X-2310587Y1506778D01*
X-2306675Y1505966D01*
X-2302662Y1504238D01*
X-2296668Y1502867D01*
X-2293213Y1502664D01*
X-1814017Y1502664D01*
X-1810156Y1501902D01*
X-1806854Y1499666D01*
X-1791106Y1483918D01*
X-1788871Y1480616D01*
X-1788109Y1476756D01*
X-1788109Y934821D01*
X-1787398Y928268D01*
X-1785315Y922375D01*
X-1782013Y917092D01*
X-1779727Y914501D01*
X-770483Y-94742D01*
X-765352Y-98806D01*
X-759714Y-101549D01*
X-753668Y-102920D01*
X-748284Y-103479D01*
X-745947Y-104597D01*
X-738682Y-109067D01*
X-731520Y-111760D01*
X-723900Y-112928D01*
X-718515Y-112623D01*
X-714502Y-113233D01*
X-710996Y-115417D01*
X-708660Y-118770D01*
X-707847Y-124104D01*
X-706323Y-131622D01*
X-703275Y-138684D01*
X-698906Y-144983D01*
X-693318Y-150266D01*
X-686816Y-154330D01*
X-679602Y-156972D01*
X-672033Y-158140D01*
X-664362Y-157734D01*
X-656945Y-155803D01*
X-650036Y-152450D01*
X-643940Y-147726D01*
X-638962Y-141935D01*
X-635254Y-135229D01*
X-632917Y-127863D01*
X-632155Y-120243D01*
X-632917Y-112623D01*
X-635254Y-105257D01*
X-638962Y-98552D01*
X-641451Y-94691D01*
X-642112Y-91135D01*
X-642112Y187198D01*
X-641400Y190957D01*
X-639318Y194157D01*
X-636168Y196392D01*
X-632460Y197307D01*
X-624078Y197764D01*
X-616661Y199694D01*
X-609752Y203047D01*
X-603656Y207771D01*
X-598678Y213563D01*
X-594969Y220268D01*
X-592632Y227634D01*
X-591870Y235254D01*
X-592632Y242874D01*
X-594969Y250240D01*
X-597814Y255371D01*
X-599033Y259537D01*
X-598424Y263804D01*
X-596087Y267462D01*
X-516382Y347167D01*
X-513334Y349300D01*
X-502361Y352094D01*
X-495452Y355447D01*
X-491693Y358343D01*
X-487984Y360172D01*
X-483920Y360375D01*
X-480110Y358952D01*
X-477113Y356158D01*
X-475488Y352399D01*
X-475488Y348284D01*
X-477062Y340715D01*
X-477062Y332994D01*
X-475538Y325475D01*
X-472490Y318414D01*
X-469138Y313639D01*
X-467766Y310845D01*
X-467309Y307797D01*
X-467309Y198323D01*
X-466598Y191820D01*
X-464515Y185877D01*
X-461213Y180594D01*
X-458927Y178054D01*
X-316890Y36017D01*
X-315366Y34086D01*
X-314401Y31902D01*
X-311759Y23672D01*
X-308051Y17272D01*
X-303072Y11785D01*
X-297078Y7416D01*
X-290322Y4368D01*
X-283057Y2844D01*
X-275691Y2844D01*
X-268427Y4368D01*
X-261670Y7416D01*
X-255727Y11785D01*
X-250698Y17272D01*
X-246989Y23672D01*
X-244703Y30733D01*
X-243941Y38100D01*
X-244703Y45466D01*
X-246989Y52527D01*
X-250698Y58928D01*
X-255727Y64414D01*
X-261670Y68783D01*
X-268427Y71831D01*
X-271932Y72542D01*
X-274624Y73558D01*
X-276961Y75285D01*
X-408330Y206654D01*
X-410565Y209956D01*
X-411327Y213867D01*
X-411327Y307746D01*
X-410667Y311302D01*
X-408178Y315163D01*
X-405028Y320852D01*
X-402640Y323748D01*
X-399389Y325526D01*
X-395681Y326085D01*
X-392023Y325221D01*
X-388975Y323088D01*
X-292506Y226618D01*
X-290271Y223316D01*
X-289509Y219456D01*
X-289509Y213512D01*
X-289966Y210464D01*
X-291338Y207670D01*
X-294690Y202895D01*
X-297738Y195834D01*
X-299262Y188315D01*
X-299262Y180594D01*
X-297738Y173075D01*
X-294690Y166014D01*
X-290322Y159715D01*
X-284734Y154432D01*
X-278231Y150368D01*
X-271018Y147726D01*
X-263448Y146558D01*
X-255778Y146964D01*
X-248361Y148894D01*
X-241452Y152247D01*
X-235356Y156972D01*
X-230378Y162763D01*
X-226669Y169468D01*
X-224637Y175869D01*
X-222605Y179476D01*
X-219354Y182016D01*
X-215290Y182981D01*
X-211277Y182270D01*
X-207771Y179984D01*
X-187655Y159867D01*
X-185877Y157530D01*
X-184861Y154736D01*
X-183438Y147675D01*
X-180390Y140614D01*
X-176022Y134315D01*
X-170434Y129032D01*
X-163931Y124968D01*
X-156718Y122326D01*
X-149148Y121158D01*
X-141478Y121564D01*
X-134061Y123494D01*
X-127152Y126847D01*
X-120548Y131978D01*
X-116484Y133858D01*
X-111963Y133807D01*
X-107950Y131826D01*
X-105156Y128320D01*
X-104190Y123901D01*
X-104190Y62839D01*
X-104495Y60198D01*
X-105511Y57759D01*
X-108559Y52527D01*
X-110845Y45466D01*
X-111607Y38100D01*
X-110845Y30733D01*
X-108559Y23672D01*
X-104851Y17272D01*
X-99872Y11785D01*
X-93878Y7416D01*
X-87122Y4368D01*
X-79857Y2844D01*
X-72491Y2844D01*
X-65227Y4368D01*
X-58470Y7416D01*
X-52527Y11785D01*
X-47498Y17272D01*
X-43789Y23672D01*
X-41503Y30733D01*
X-40741Y38100D01*
X-41503Y45466D01*
X-43789Y52527D01*
X-46837Y57759D01*
X-47853Y60198D01*
X-48158Y62839D01*
X-48158Y200253D01*
X-47244Y204520D01*
X-44704Y207975D01*
X-40792Y210058D01*
X-36474Y210312D01*
X-34848Y210058D01*
X-27178Y210464D01*
X-19761Y212394D01*
X-12852Y215747D01*
X-10160Y217830D01*
X-7213Y219405D01*
X-3962Y219964D01*
X77419Y219964D01*
X80213Y219557D01*
X82804Y218440D01*
X90068Y213867D01*
X97282Y211226D01*
X104851Y210058D01*
X112522Y210464D01*
X119938Y212394D01*
X126847Y215747D01*
X132943Y220471D01*
X137922Y226263D01*
X141630Y232968D01*
X143967Y240334D01*
X144729Y247954D01*
X143967Y255574D01*
X141630Y262940D01*
X137922Y269646D01*
X132943Y275437D01*
X126847Y280162D01*
X119938Y283514D01*
X112522Y285445D01*
X104851Y285851D01*
X97282Y284683D01*
X90068Y282041D01*
X82804Y277469D01*
X80213Y276352D01*
X77419Y275945D01*
X-3962Y275945D01*
X-7213Y276504D01*
X-10160Y278079D01*
X-12852Y280162D01*
X-19761Y283514D01*
X-27178Y285445D01*
X-34848Y285851D01*
X-36474Y285597D01*
X-40792Y285851D01*
X-44704Y287934D01*
X-47244Y291388D01*
X-48158Y295656D01*
X-48158Y372313D01*
X-48869Y378815D01*
X-50952Y384708D01*
X-54305Y390042D01*
X-60706Y396697D01*
X-62991Y400253D01*
X-63652Y404418D01*
X-62585Y408482D01*
X-59943Y411784D01*
X-56184Y413715D01*
X-51968Y413918D01*
X-47548Y413258D01*
X-39878Y413664D01*
X-32461Y415594D01*
X-25552Y418947D01*
X-22860Y421030D01*
X-19913Y422605D01*
X-16662Y423164D01*
X119176Y423164D01*
X125730Y423875D01*
X131622Y425958D01*
X136906Y429259D01*
X139446Y431546D01*
X151790Y443839D01*
X155854Y448970D01*
X158597Y454609D01*
X159969Y460705D01*
X160172Y464159D01*
X160172Y1146556D01*
X160934Y1150416D01*
X163169Y1153718D01*
X1650339Y2640939D01*
X1654454Y2646019D01*
X1657197Y2651658D01*
X1658569Y2657754D01*
X1658772Y2661615D01*
X1655978Y2885744D01*
X1656689Y2889707D01*
X1658874Y2893009D01*
X1662226Y2895244D01*
X1666138Y2896057D01*
X1897380Y2896057D01*
X1901291Y2895295D01*
X1904593Y2893060D01*
X1906778Y2889758D01*
X1907539Y2885897D01*
X1907539Y2864612D01*
X1908149Y2859532D01*
X1909622Y2855214D01*
X1912061Y2851302D01*
X1915312Y2848102D01*
X1919173Y2845663D01*
X1923491Y2844139D01*
X1928622Y2843580D01*
X2107488Y2843580D01*
X2112619Y2844139D01*
X2116937Y2845663D01*
X2120798Y2848102D01*
X2123998Y2851302D01*
X2126437Y2855214D01*
X2127961Y2859532D01*
X2128570Y2864612D01*
X2128570Y2983484D01*
X2127961Y2988614D01*
X2126234Y2993644D01*
X2125624Y2997352D01*
X2126488Y3001060D01*
X2128621Y3004159D01*
X2272639Y3148177D01*
X2275890Y3150362D01*
X2279802Y3151174D01*
X2332482Y3151174D01*
X2336393Y3150362D01*
X2339695Y3148177D01*
X2341880Y3144875D01*
X2342642Y3141014D01*
X2342642Y3113379D01*
X2343251Y3108248D01*
X2344724Y3103930D01*
X2347163Y3100070D01*
X2350414Y3096818D01*
X2354275Y3094380D01*
X2358593Y3092907D01*
X2363724Y3092297D01*
X2475839Y3092297D01*
X2480970Y3092907D01*
X2485288Y3094380D01*
X2489149Y3096818D01*
X2492400Y3100070D01*
X2494838Y3103930D01*
X2496312Y3108248D01*
X2496921Y3113379D01*
X2496921Y3249930D01*
X2496312Y3255060D01*
X2494838Y3259378D01*
X2492400Y3263239D01*
X2489149Y3266490D01*
X2485288Y3268929D01*
X2480970Y3270402D01*
X2475839Y3271012D01*
X2363724Y3271012D01*
X2358593Y3270402D01*
X2354275Y3268929D01*
X2350414Y3266490D01*
X2347163Y3263239D01*
X2344724Y3259378D01*
X2343251Y3255060D01*
X2342642Y3249930D01*
X2342642Y3222294D01*
X2341880Y3218434D01*
X2339695Y3215132D01*
X2336393Y3212947D01*
X2332482Y3212134D01*
X2263343Y3212134D01*
X2258314Y3211779D01*
X2252065Y3210052D01*
X2246376Y3207207D01*
X2241042Y3202838D01*
X2045716Y3007512D01*
X2042414Y3005328D01*
X2038502Y3004566D01*
X1928622Y3004566D01*
X1923491Y3003956D01*
X1919173Y3002483D01*
X1915312Y3000044D01*
X1912061Y2996793D01*
X1909622Y2992932D01*
X1908149Y2988614D01*
X1907539Y2983484D01*
X1907539Y2962198D01*
X1906778Y2958338D01*
X1904593Y2955036D01*
X1901291Y2952800D01*
X1897380Y2952038D01*
X1665173Y2952038D01*
X1661312Y2952800D01*
X1658010Y2954985D01*
X1655825Y2958236D01*
X1655013Y2962097D01*
X1653641Y3070656D01*
X1654403Y3074619D01*
X1656588Y3077921D01*
X1659889Y3080156D01*
X1663801Y3080969D01*
X1699107Y3080969D01*
X1704238Y3081528D01*
X1708556Y3083052D01*
X1712417Y3085490D01*
X1715668Y3088690D01*
X1718106Y3092602D01*
X1719630Y3096920D01*
X1720189Y3102000D01*
X1720189Y3235909D01*
X1719630Y3240989D01*
X1718106Y3245307D01*
X1715668Y3249218D01*
X1712417Y3252419D01*
X1708556Y3254857D01*
X1704238Y3256381D01*
X1699107Y3256940D01*
X1559255Y3256940D01*
X1554124Y3256381D01*
X1549806Y3254857D01*
X1545945Y3252419D01*
X1542694Y3249218D01*
X1540256Y3245307D01*
X1538782Y3240989D01*
X1538173Y3235909D01*
X1538173Y3102000D01*
X1538782Y3096920D01*
X1540256Y3092602D01*
X1542694Y3088690D01*
X1545945Y3085490D01*
X1549806Y3083052D01*
X1554124Y3081528D01*
X1559255Y3080969D01*
X1587500Y3080969D01*
X1591360Y3080207D01*
X1594612Y3078022D01*
X1596847Y3074771D01*
X1597660Y3070910D01*
X1598980Y2962351D01*
X1598269Y2958388D01*
X1596085Y2955086D01*
X1592783Y2952851D01*
X1588820Y2952038D01*
X1338732Y2952038D01*
X1334820Y2952800D01*
X1331518Y2955036D01*
X1329334Y2958338D01*
X1328521Y2962198D01*
X1328521Y2983484D01*
X1327962Y2988614D01*
X1326438Y2992932D01*
X1324000Y2996793D01*
X1320800Y3000044D01*
X1316939Y3002483D01*
X1312621Y3003956D01*
X1307490Y3004566D01*
X1128572Y3004566D01*
X1123492Y3003956D01*
X1119174Y3002483D01*
X1115314Y3000044D01*
X1112062Y2996793D01*
X1109624Y2992932D01*
X1108151Y2988614D01*
X1107541Y2983484D01*
X1107541Y2864612D01*
X1107186Y2860141D01*
X1105052Y2856433D01*
X1101648Y2853944D01*
X1097483Y2853029D01*
X970534Y2853029D01*
X965453Y2852470D01*
X961136Y2850946D01*
X957224Y2848508D01*
X954024Y2845308D01*
X951585Y2841396D01*
X950061Y2837078D01*
X949502Y2831998D01*
X949502Y2693111D01*
X950061Y2688031D01*
X951585Y2683713D01*
X954024Y2679801D01*
X957224Y2676601D01*
X961136Y2674162D01*
X965453Y2672638D01*
X970534Y2672080D01*
X1119428Y2672080D01*
X1124508Y2672638D01*
X1128826Y2674162D01*
X1132738Y2676601D01*
X1135938Y2679801D01*
X1138377Y2683713D01*
X1139901Y2688031D01*
X1140460Y2693111D01*
X1140460Y2831998D01*
X1140866Y2836468D01*
X1142949Y2840177D01*
X1146403Y2842666D01*
X1150518Y2843580D01*
X1307490Y2843580D01*
X1312621Y2844139D01*
X1316939Y2845663D01*
X1320800Y2848102D01*
X1324000Y2851302D01*
X1326438Y2855214D01*
X1327962Y2859532D01*
X1328521Y2864612D01*
X1328521Y2885897D01*
X1329334Y2889758D01*
X1331518Y2893060D01*
X1334820Y2895295D01*
X1338732Y2896057D01*
X1589786Y2896057D01*
X1593596Y2895295D01*
X1596948Y2893110D01*
X1599133Y2889859D01*
X1599946Y2885998D01*
X1602587Y2676702D01*
X1601825Y2672740D01*
X1599590Y2669387D01*
X112572Y1182370D01*
X108508Y1177239D01*
X105765Y1171600D01*
X104394Y1165504D01*
X104190Y1162050D01*
X104190Y720699D01*
X103378Y716686D01*
X101041Y713333D01*
X97536Y711149D01*
X93522Y710539D01*
X89560Y711555D01*
X81838Y715314D01*
X74422Y717245D01*
X66751Y717651D01*
X59182Y716483D01*
X51968Y713841D01*
X44704Y709269D01*
X42113Y708152D01*
X39319Y707745D01*
X-80568Y707745D01*
X-84785Y708660D01*
X-88239Y711250D01*
X-90322Y715060D01*
X-144221Y898296D01*
X-144627Y901141D01*
X-144627Y985215D01*
X-144272Y987856D01*
X-143256Y990295D01*
X-140258Y995527D01*
X-137972Y1002588D01*
X-137160Y1009954D01*
X-137972Y1017320D01*
X-140258Y1024382D01*
X-143967Y1030782D01*
X-148894Y1036269D01*
X-154889Y1040637D01*
X-161645Y1043686D01*
X-168910Y1045210D01*
X-176326Y1045210D01*
X-183591Y1043686D01*
X-190347Y1040637D01*
X-196342Y1036269D01*
X-201269Y1030782D01*
X-204978Y1024382D01*
X-207264Y1017320D01*
X-208076Y1009954D01*
X-207264Y1002588D01*
X-204978Y995527D01*
X-201980Y990295D01*
X-200964Y987856D01*
X-200609Y985215D01*
X-200558Y894334D01*
X-199339Y887221D01*
X-136144Y672388D01*
X-133502Y666089D01*
X-129844Y661009D01*
X-125171Y656894D01*
X-119684Y653897D01*
X-113487Y652170D01*
X-108712Y651764D01*
X39319Y651764D01*
X42113Y651357D01*
X44704Y650240D01*
X51968Y645668D01*
X59182Y643026D01*
X66751Y641858D01*
X74422Y642264D01*
X81838Y644194D01*
X89560Y647954D01*
X93522Y648970D01*
X97536Y648360D01*
X101041Y646176D01*
X103378Y642823D01*
X104190Y638810D01*
X104190Y489305D01*
X103428Y485444D01*
X101193Y482142D01*
X97891Y479907D01*
X94030Y479145D01*
X-16662Y479145D01*
X-19913Y479704D01*
X-22860Y481279D01*
X-25552Y483362D01*
X-32461Y486714D01*
X-39878Y488645D01*
X-47548Y489051D01*
X-55117Y487883D01*
X-62331Y485241D01*
X-68834Y481177D01*
X-74422Y475894D01*
X-78790Y469595D01*
X-81838Y462534D01*
X-83362Y455015D01*
X-83362Y447293D01*
X-82956Y445312D01*
X-83007Y441045D01*
X-84836Y437134D01*
X-88087Y434340D01*
X-92252Y433171D01*
X-96469Y433781D01*
X-100076Y436118D01*
X-243027Y579018D01*
X-245008Y581863D01*
X-245922Y585165D01*
X-246176Y587400D01*
X-248462Y594715D01*
X-252171Y601421D01*
X-257200Y607263D01*
X-263245Y611936D01*
X-270154Y615340D01*
X-277571Y617270D01*
X-285242Y617677D01*
X-292862Y616508D01*
X-300024Y613816D01*
X-306578Y609752D01*
X-312115Y604469D01*
X-316534Y598170D01*
X-319532Y591108D01*
X-321106Y583590D01*
X-321106Y575919D01*
X-319532Y568401D01*
X-316534Y561340D01*
X-312115Y555040D01*
X-306578Y549757D01*
X-300024Y545693D01*
X-292862Y543001D01*
X-288290Y542340D01*
X-285242Y541324D01*
X-282651Y539445D01*
X-107137Y363982D01*
X-104952Y360680D01*
X-104190Y356768D01*
X-104190Y194208D01*
X-105156Y189788D01*
X-107950Y186283D01*
X-111963Y184302D01*
X-116484Y184251D01*
X-120548Y186131D01*
X-127152Y191262D01*
X-134061Y194614D01*
X-145034Y197408D01*
X-148082Y199542D01*
X-548030Y599490D01*
X-550265Y602792D01*
X-551027Y606653D01*
X-551027Y765454D01*
X-550265Y769315D01*
X-548030Y772617D01*
X-544728Y774801D01*
X-540867Y775614D01*
X-536956Y774801D01*
X-533654Y772617D01*
X-479755Y718667D01*
X-477977Y716330D01*
X-476961Y713536D01*
X-475538Y706475D01*
X-472490Y699414D01*
X-468122Y693115D01*
X-462534Y687832D01*
X-456031Y683768D01*
X-448818Y681126D01*
X-441248Y679958D01*
X-433578Y680364D01*
X-426161Y682294D01*
X-419252Y685647D01*
X-413156Y690372D01*
X-408178Y696163D01*
X-404469Y702868D01*
X-402132Y710234D01*
X-401370Y717854D01*
X-402132Y725474D01*
X-404469Y732840D01*
X-408178Y739546D01*
X-413156Y745337D01*
X-419252Y750062D01*
X-426161Y753414D01*
X-437134Y756208D01*
X-440182Y758342D01*
X-509930Y828090D01*
X-512165Y831392D01*
X-512927Y835253D01*
X-512927Y1048715D01*
X-512572Y1051356D01*
X-511556Y1053795D01*
X-508558Y1059027D01*
X-505917Y1067257D01*
X-504901Y1069441D01*
X-503428Y1071372D01*
X-254609Y1320139D01*
X-250545Y1325270D01*
X-247802Y1330909D01*
X-246430Y1337005D01*
X-246227Y1340459D01*
X-246227Y2492756D01*
X-245465Y2496616D01*
X-243230Y2499918D01*
X-83159Y2659989D01*
X-79095Y2665120D01*
X-76352Y2670759D01*
X-74980Y2676855D01*
X-74777Y2680309D01*
X-74777Y2833420D01*
X-74015Y2837281D01*
X-71780Y2840583D01*
X-68478Y2842768D01*
X-64617Y2843580D01*
X-13309Y2843580D01*
X-8178Y2844139D01*
X-3860Y2845663D01*
X0Y2848102D01*
X3251Y2851302D01*
X5689Y2855214D01*
X7162Y2859532D01*
X7772Y2864612D01*
X7772Y2885897D01*
X8534Y2889758D01*
X10718Y2893060D01*
X14020Y2895295D01*
X17932Y2896057D01*
X576580Y2896057D01*
X580491Y2895295D01*
X583793Y2893060D01*
X585978Y2889758D01*
X586740Y2885897D01*
X586740Y2864612D01*
X587349Y2859532D01*
X588822Y2855214D01*
X591261Y2851302D01*
X594512Y2848102D01*
X598373Y2845663D01*
X602691Y2844139D01*
X607822Y2843580D01*
X786688Y2843580D01*
X791819Y2844139D01*
X796137Y2845663D01*
X799998Y2848102D01*
X803249Y2851302D01*
X805688Y2855214D01*
X807161Y2859532D01*
X807770Y2864612D01*
X807770Y2983484D01*
X807161Y2988614D01*
X805688Y2992932D01*
X803249Y2996793D01*
X799998Y3000044D01*
X796137Y3002483D01*
X793851Y3003296D01*
X790346Y3005378D01*
X787958Y3008680D01*
X787044Y3012643D01*
X787755Y3016656D01*
X789990Y3020060D01*
X847953Y3077972D01*
X851255Y3080207D01*
X855116Y3080969D01*
X965708Y3080969D01*
X970838Y3081528D01*
X975156Y3083052D01*
X979017Y3085490D01*
X982268Y3088690D01*
X984707Y3092602D01*
X986180Y3096920D01*
X986790Y3102000D01*
X986790Y3235909D01*
X986180Y3240989D01*
X984707Y3245307D01*
X982268Y3249218D01*
X979017Y3252419D01*
X975156Y3254857D01*
X970838Y3256381D01*
X965708Y3256940D01*
X825855Y3256940D01*
X820724Y3256381D01*
X816406Y3254857D01*
X812546Y3252419D01*
X809294Y3249218D01*
X806856Y3245307D01*
X805332Y3240989D01*
X804722Y3235909D01*
X804722Y3207105D01*
X804011Y3203244D01*
X801827Y3199942D01*
X798525Y3197707D01*
X794613Y3196945D01*
X738581Y3196945D01*
X734669Y3197707D01*
X731367Y3199942D01*
X729183Y3203244D01*
X728421Y3207105D01*
X728421Y3237230D01*
X727811Y3242360D01*
X726338Y3246678D01*
X723900Y3250539D01*
X720648Y3253790D01*
X716788Y3256229D01*
X712419Y3257702D01*
X707339Y3258312D01*
X595172Y3258312D01*
X590092Y3257702D01*
X585774Y3256229D01*
X581914Y3253790D01*
X578662Y3250539D01*
X576275Y3246678D01*
X574751Y3242360D01*
X574141Y3237230D01*
X574141Y3100679D01*
X574751Y3095548D01*
X576275Y3091230D01*
X578662Y3087370D01*
X581914Y3084118D01*
X585774Y3081680D01*
X590092Y3080207D01*
X595172Y3079597D01*
X613105Y3079597D01*
X617016Y3078835D01*
X620318Y3076651D01*
X622503Y3073349D01*
X623265Y3069437D01*
X623265Y3014726D01*
X622503Y3010814D01*
X620318Y3007512D01*
X617016Y3005328D01*
X613105Y3004566D01*
X607822Y3004566D01*
X602691Y3003956D01*
X598373Y3002483D01*
X594512Y3000044D01*
X591261Y2996793D01*
X588822Y2992932D01*
X587349Y2988614D01*
X586740Y2983484D01*
X586740Y2962198D01*
X585978Y2958338D01*
X583793Y2955036D01*
X580491Y2952800D01*
X576580Y2952038D01*
X17932Y2952038D01*
X14020Y2952800D01*
X10718Y2955036D01*
X8534Y2958338D01*
X7772Y2962198D01*
X7772Y2983433D01*
X7010Y2989884D01*
X7366Y2994152D01*
X9499Y2997860D01*
X12903Y3000349D01*
X17068Y3001264D01*
X311200Y3001264D01*
X317754Y3001975D01*
X323596Y3004058D01*
X328930Y3007360D01*
X331520Y3009646D01*
X398475Y3076651D01*
X401777Y3078835D01*
X405638Y3079597D01*
X507339Y3079597D01*
X512470Y3080207D01*
X516788Y3081680D01*
X520649Y3084118D01*
X523900Y3087370D01*
X526338Y3091230D01*
X527812Y3095548D01*
X528421Y3100679D01*
X528421Y3237230D01*
X527812Y3242360D01*
X526338Y3246678D01*
X523900Y3250539D01*
X520649Y3253790D01*
X516788Y3256229D01*
X512470Y3257702D01*
X507339Y3258312D01*
X395224Y3258312D01*
X390093Y3257702D01*
X385775Y3256229D01*
X381914Y3253790D01*
X378663Y3250539D01*
X376224Y3246678D01*
X374751Y3242360D01*
X374142Y3237230D01*
X374142Y3135680D01*
X373380Y3131820D01*
X371195Y3128518D01*
X302869Y3060242D01*
X299567Y3058007D01*
X295706Y3057245D01*
X184353Y3057245D01*
X180238Y3058160D01*
X176784Y3060649D01*
X174701Y3064357D01*
X174294Y3068624D01*
X175666Y3072638D01*
X178562Y3075736D01*
X188366Y3082594D01*
X198831Y3092094D01*
X208025Y3102864D01*
X215747Y3114751D01*
X221894Y3127502D01*
X226364Y3140913D01*
X229057Y3154832D01*
X229971Y3168954D01*
X229057Y3183077D01*
X226364Y3196996D01*
X221894Y3210407D01*
X215747Y3223158D01*
X208025Y3235045D01*
X198831Y3245815D01*
X188366Y3255314D01*
X176733Y3263442D01*
X164185Y3269996D01*
X150926Y3274872D01*
X137109Y3278022D01*
X123037Y3279394D01*
X108864Y3278936D01*
X94894Y3276650D01*
X81330Y3272637D01*
X68376Y3266897D01*
X56286Y3259582D01*
X45212Y3250742D01*
X35356Y3240582D01*
X26873Y3229203D01*
X19964Y3216910D01*
X14630Y3203752D01*
X10972Y3190087D01*
X9245Y3176016D01*
X9245Y3161893D01*
X10972Y3147822D01*
X14630Y3134156D01*
X19964Y3120999D01*
X26873Y3108706D01*
X35356Y3097326D01*
X45212Y3087166D01*
X56286Y3078327D01*
X59994Y3076092D01*
X63144Y3073095D01*
X64719Y3069031D01*
X64516Y3064662D01*
X62433Y3060852D01*
X58978Y3058210D01*
X54711Y3057245D01*
X-69646Y3057245D01*
X-73761Y3058160D01*
X-77216Y3060649D01*
X-79298Y3064357D01*
X-79705Y3068624D01*
X-78333Y3072638D01*
X-75438Y3075736D01*
X-65633Y3082594D01*
X-55168Y3092094D01*
X-45974Y3102864D01*
X-38252Y3114751D01*
X-32105Y3127502D01*
X-27635Y3140913D01*
X-24942Y3154832D01*
X-24028Y3168954D01*
X-24942Y3183077D01*
X-27635Y3196996D01*
X-32105Y3210407D01*
X-38252Y3223158D01*
X-45974Y3235045D01*
X-55168Y3245815D01*
X-65633Y3255314D01*
X-77266Y3263442D01*
X-89814Y3269996D01*
X-103073Y3274872D01*
X-116890Y3278022D01*
X-130962Y3279394D01*
X-145135Y3278936D01*
X-159105Y3276650D01*
X-172669Y3272637D01*
X-185623Y3266897D01*
X-197713Y3259582D01*
X-208788Y3250742D01*
X-218643Y3240582D01*
X-227126Y3229203D01*
X-234035Y3216910D01*
X-239369Y3203752D01*
X-243027Y3190087D01*
X-244754Y3176016D01*
X-244754Y3161893D01*
X-243027Y3147822D01*
X-239369Y3134156D01*
X-234035Y3120999D01*
X-227126Y3108706D01*
X-218643Y3097326D01*
X-208788Y3087166D01*
X-197713Y3078327D01*
X-194005Y3076092D01*
X-190855Y3073095D01*
X-189280Y3069031D01*
X-189484Y3064662D01*
X-191566Y3060852D01*
X-195021Y3058210D01*
X-199288Y3057245D01*
X-323646Y3057245D01*
X-327761Y3058160D01*
X-331216Y3060649D01*
X-333298Y3064357D01*
X-333705Y3068624D01*
X-332333Y3072638D01*
X-329438Y3075736D01*
X-319633Y3082594D01*
X-309168Y3092094D01*
X-299974Y3102864D01*
X-292252Y3114751D01*
X-286105Y3127502D01*
X-281635Y3140913D01*
X-278942Y3154832D01*
X-278028Y3168954D01*
X-278942Y3183077D01*
X-281635Y3196996D01*
X-286105Y3210407D01*
X-292252Y3223158D01*
X-299974Y3235045D01*
X-309168Y3245815D01*
X-319633Y3255314D01*
X-331266Y3263442D01*
X-343814Y3269996D01*
X-357073Y3274872D01*
X-370890Y3278022D01*
X-384962Y3279394D01*
X-399135Y3278936D01*
X-413105Y3276650D01*
X-426669Y3272637D01*
X-439623Y3266897D01*
X-451713Y3259582D01*
X-462788Y3250742D01*
X-472643Y3240582D01*
X-481126Y3229203D01*
X-488035Y3216910D01*
X-493369Y3203752D01*
X-497027Y3190087D01*
X-498754Y3176016D01*
X-498754Y3161893D01*
X-497027Y3147822D01*
X-493369Y3134156D01*
X-488035Y3120999D01*
X-481126Y3108706D01*
X-472643Y3097326D01*
X-462788Y3087166D01*
X-451713Y3078327D01*
X-447446Y3075736D01*
X-444398Y3072892D01*
X-442722Y3069031D01*
X-442772Y3064865D01*
X-444500Y3061055D01*
X-447598Y3058261D01*
X-451561Y3056940D01*
X-455676Y3056483D01*
X-461619Y3054400D01*
X-466902Y3051098D01*
X-471322Y3046679D01*
X-474624Y3041396D01*
X-476707Y3035452D01*
X-477469Y3028696D01*
X-477520Y2431643D01*
X-477875Y2429052D01*
X-478891Y2426563D01*
X-481888Y2421382D01*
X-484174Y2414320D01*
X-484936Y2406954D01*
X-484174Y2399588D01*
X-481888Y2392527D01*
X-478180Y2386126D01*
X-473201Y2380640D01*
X-467207Y2376271D01*
X-460451Y2373223D01*
X-453186Y2371699D01*
X-445820Y2371699D01*
X-438556Y2373223D01*
X-431800Y2376271D01*
X-425805Y2380640D01*
X-420827Y2386126D01*
X-417118Y2392527D01*
X-414832Y2399588D01*
X-414070Y2406954D01*
X-414832Y2414320D01*
X-417118Y2421382D01*
X-420166Y2426614D01*
X-421182Y2429052D01*
X-421487Y2431694D01*
X-421487Y2991104D01*
X-420725Y2994964D01*
X-418490Y2998266D01*
X-415188Y3000502D01*
X-411327Y3001264D01*
X-222554Y3001264D01*
X-218389Y3000349D01*
X-214934Y2997860D01*
X-212852Y2994152D01*
X-212445Y2989884D01*
X-213258Y2983433D01*
X-213258Y2864612D01*
X-212648Y2859532D01*
X-211124Y2855214D01*
X-208737Y2851302D01*
X-205486Y2848102D01*
X-201625Y2845663D01*
X-197307Y2844139D01*
X-192227Y2843580D01*
X-140919Y2843580D01*
X-137058Y2842768D01*
X-133756Y2840583D01*
X-131521Y2837281D01*
X-130759Y2833420D01*
X-130759Y2695803D01*
X-131521Y2691942D01*
X-133756Y2688640D01*
X-293827Y2528570D01*
X-297891Y2523439D01*
X-300634Y2517800D01*
X-302006Y2511704D01*
X-302209Y2508250D01*
X-302209Y1355953D01*
X-302971Y1352092D01*
X-305206Y1348790D01*
X-533654Y1120292D01*
X-536956Y1118108D01*
X-540867Y1117295D01*
X-544728Y1118108D01*
X-548030Y1120292D01*
X-550265Y1123594D01*
X-551027Y1127455D01*
X-551027Y3104388D01*
X-550621Y3107283D01*
X-549351Y3109976D01*
X-546252Y3114751D01*
X-540105Y3127502D01*
X-535635Y3140913D01*
X-532942Y3154832D01*
X-532028Y3168954D01*
X-532942Y3183077D01*
X-535635Y3196996D01*
X-540105Y3210407D01*
X-546252Y3223158D01*
X-553974Y3235045D01*
X-563168Y3245815D01*
X-573633Y3255314D01*
X-585266Y3263442D01*
X-597814Y3269996D01*
X-611073Y3274872D01*
X-624890Y3278022D01*
X-638962Y3279394D01*
X-653135Y3278936D01*
X-667105Y3276650D01*
X-680669Y3272637D01*
X-693623Y3266897D01*
X-705713Y3259582D01*
X-716788Y3250742D01*
X-726643Y3240582D01*
X-735126Y3229203D01*
X-742035Y3216910D01*
X-747369Y3203752D01*
X-750976Y3190087D01*
X-752754Y3176016D01*
X-752754Y3161893D01*
X-750976Y3147822D01*
X-747369Y3134156D01*
X-742035Y3120999D01*
X-735126Y3108706D01*
X-726643Y3097326D01*
X-716788Y3087166D01*
X-705713Y3078327D01*
X-693623Y3071012D01*
X-680669Y3065272D01*
X-667105Y3061258D01*
X-653135Y3058972D01*
X-638962Y3058515D01*
X-624890Y3059887D01*
X-619455Y3061157D01*
X-615797Y3061309D01*
X-612343Y3060192D01*
X-609549Y3057906D01*
X-607669Y3054807D01*
X-607009Y3051251D01*
X-607009Y2254148D01*
X-607974Y2249830D01*
X-610717Y2246325D01*
X-614629Y2244344D01*
X-619099Y2244191D01*
X-623163Y2245969D01*
X-624789Y2247138D01*
X-631545Y2250186D01*
X-635050Y2250897D01*
X-637794Y2251913D01*
X-640130Y2253640D01*
X-700582Y2314092D01*
X-702564Y2316886D01*
X-703478Y2320137D01*
X-703326Y2323541D01*
X-701090Y2328113D01*
X-699617Y2332431D01*
X-699008Y2337562D01*
X-699008Y2476347D01*
X-699617Y2481478D01*
X-701090Y2485796D01*
X-703529Y2489657D01*
X-706780Y2492908D01*
X-710641Y2495346D01*
X-714959Y2496870D01*
X-720090Y2497429D01*
X-731367Y2497429D01*
X-735228Y2498191D01*
X-738530Y2500426D01*
X-740765Y2503678D01*
X-741527Y2507589D01*
X-741527Y2802382D01*
X-740765Y2806242D01*
X-738530Y2809544D01*
X-735228Y2811780D01*
X-731367Y2812542D01*
X-720090Y2812542D01*
X-714959Y2813100D01*
X-710641Y2814624D01*
X-706780Y2817063D01*
X-703529Y2820314D01*
X-701090Y2824175D01*
X-699617Y2828493D01*
X-699008Y2833624D01*
X-699008Y2972409D01*
X-699617Y2977540D01*
X-701090Y2981858D01*
X-703529Y2985719D01*
X-706780Y2988970D01*
X-710641Y2991408D01*
X-714959Y2992882D01*
X-720090Y2993491D01*
X-818946Y2993491D01*
X-824077Y2992882D01*
X-828395Y2991408D01*
X-832256Y2988970D01*
X-835507Y2985719D01*
X-837946Y2981858D01*
X-839419Y2977540D01*
X-840028Y2972409D01*
X-840028Y2833624D01*
X-839419Y2828493D01*
X-837946Y2824175D01*
X-835507Y2820314D01*
X-832256Y2817063D01*
X-828395Y2814624D01*
X-824077Y2813100D01*
X-818946Y2812542D01*
X-807669Y2812542D01*
X-803808Y2811780D01*
X-800506Y2809544D01*
X-798271Y2806242D01*
X-797509Y2802382D01*
X-797509Y2507589D01*
X-798271Y2503678D01*
X-800506Y2500426D01*
X-803808Y2498191D01*
X-807669Y2497429D01*
X-818946Y2497429D01*
X-824077Y2496870D01*
X-828395Y2495346D01*
X-832256Y2492908D01*
X-835507Y2489657D01*
X-837946Y2485796D01*
X-839469Y2481478D01*
X-840028Y2476347D01*
X-840028Y2337562D01*
X-839469Y2332431D01*
X-837946Y2328113D01*
X-835507Y2324252D01*
X-832256Y2321001D01*
X-828395Y2318562D01*
X-824077Y2317038D01*
X-818946Y2316480D01*
X-786333Y2316480D01*
X-782472Y2315718D01*
X-779170Y2313482D01*
X-680008Y2214372D01*
X-678535Y2212441D01*
X-677519Y2210257D01*
X-674878Y2202027D01*
X-671880Y2196795D01*
X-670864Y2194356D01*
X-670509Y2191715D01*
X-670509Y2117953D01*
X-671271Y2114092D01*
X-673506Y2110790D01*
X-1152906Y1631340D01*
X-1155242Y1629613D01*
X-1157986Y1628597D01*
X-1161491Y1627886D01*
X-1168247Y1624838D01*
X-1174242Y1620469D01*
X-1179169Y1614982D01*
X-1182878Y1608582D01*
X-1185164Y1601520D01*
X-1185976Y1594154D01*
X-1185164Y1586788D01*
X-1182878Y1579727D01*
X-1179169Y1573326D01*
X-1174242Y1567840D01*
X-1168247Y1563471D01*
X-1161491Y1560423D01*
X-1154226Y1558899D01*
X-1146810Y1558899D01*
X-1139545Y1560423D01*
X-1132789Y1563471D01*
X-1126794Y1567840D01*
X-1121867Y1573326D01*
X-1118158Y1579727D01*
X-1115517Y1587957D01*
X-1114501Y1590141D01*
X-1113028Y1592072D01*
X-624382Y2080717D01*
X-621080Y2082901D01*
X-617169Y2083714D01*
X-613308Y2082901D01*
X-610006Y2080717D01*
X-607771Y2077415D01*
X-607009Y2073554D01*
X-607009Y644855D01*
X-607771Y640994D01*
X-610006Y637692D01*
X-613308Y635508D01*
X-617169Y634695D01*
X-621080Y635508D01*
X-624382Y637692D01*
X-1395374Y1408734D01*
X-1397609Y1412036D01*
X-1398371Y1415897D01*
X-1398371Y2307437D01*
X-1397609Y2311349D01*
X-1395374Y2314651D01*
X-1392072Y2316835D01*
X-1388211Y2317597D01*
X-1296060Y2317597D01*
X-1290980Y2318207D01*
X-1286662Y2319680D01*
X-1282750Y2322118D01*
X-1279550Y2325370D01*
X-1277112Y2329230D01*
X-1275588Y2333548D01*
X-1275029Y2338679D01*
X-1275029Y2368804D01*
X-1274216Y2372664D01*
X-1272032Y2375966D01*
X-1268730Y2378202D01*
X-1264869Y2378964D01*
X-1060246Y2378964D01*
X-1056335Y2378202D01*
X-1053033Y2375966D01*
X-1050848Y2372664D01*
X-1050086Y2368804D01*
X-1050086Y2337562D01*
X-1049528Y2332431D01*
X-1048003Y2328113D01*
X-1045565Y2324252D01*
X-1042314Y2321001D01*
X-1038453Y2318562D01*
X-1034135Y2317038D01*
X-1029004Y2316480D01*
X-930148Y2316480D01*
X-925017Y2317038D01*
X-920699Y2318562D01*
X-916838Y2321001D01*
X-913587Y2324252D01*
X-911148Y2328113D01*
X-909675Y2332431D01*
X-909066Y2337562D01*
X-909066Y2476347D01*
X-909675Y2481478D01*
X-911148Y2485796D01*
X-913587Y2489657D01*
X-916838Y2492908D01*
X-920699Y2495346D01*
X-925017Y2496870D01*
X-930148Y2497429D01*
X-1029004Y2497429D01*
X-1034135Y2496870D01*
X-1038453Y2495346D01*
X-1042314Y2492908D01*
X-1045565Y2489657D01*
X-1048003Y2485796D01*
X-1049528Y2481478D01*
X-1050086Y2476347D01*
X-1050086Y2445105D01*
X-1050848Y2441244D01*
X-1053033Y2437942D01*
X-1056335Y2435707D01*
X-1060246Y2434945D01*
X-1264869Y2434945D01*
X-1268730Y2435707D01*
X-1272032Y2437942D01*
X-1274216Y2441244D01*
X-1275029Y2445105D01*
X-1275029Y2475230D01*
X-1275588Y2480360D01*
X-1277112Y2484678D01*
X-1279550Y2488539D01*
X-1282750Y2491790D01*
X-1286662Y2494229D01*
X-1290980Y2495702D01*
X-1296060Y2496312D01*
X-1388211Y2496312D01*
X-1392072Y2497074D01*
X-1395374Y2499258D01*
X-1397609Y2502560D01*
X-1398371Y2506472D01*
X-1398371Y2771394D01*
X-1399082Y2777947D01*
X-1401165Y2783840D01*
X-1404467Y2789123D01*
X-1411376Y2796336D01*
X-1413611Y2799588D01*
X-1414373Y2803499D01*
X-1413611Y2807411D01*
X-1411376Y2810662D01*
X-1408074Y2812897D01*
X-1404213Y2813659D01*
X-1296060Y2813659D01*
X-1290980Y2814218D01*
X-1286662Y2815742D01*
X-1282750Y2818180D01*
X-1279550Y2821432D01*
X-1277112Y2825292D01*
X-1275588Y2829610D01*
X-1275029Y2834741D01*
X-1275029Y2864866D01*
X-1274216Y2868726D01*
X-1272032Y2872028D01*
X-1268730Y2874264D01*
X-1264869Y2875026D01*
X-1060246Y2875026D01*
X-1056335Y2874264D01*
X-1053033Y2872028D01*
X-1050848Y2868726D01*
X-1050086Y2864866D01*
X-1050086Y2833624D01*
X-1049477Y2828493D01*
X-1048003Y2824175D01*
X-1045565Y2820314D01*
X-1042314Y2817063D01*
X-1038453Y2814624D01*
X-1034135Y2813100D01*
X-1029004Y2812542D01*
X-930148Y2812542D01*
X-925017Y2813100D01*
X-920699Y2814624D01*
X-916838Y2817063D01*
X-913587Y2820314D01*
X-911148Y2824175D01*
X-909675Y2828493D01*
X-909066Y2833624D01*
X-909066Y2972409D01*
X-909675Y2977540D01*
X-911148Y2981858D01*
X-913587Y2985719D01*
X-916838Y2988970D01*
X-920699Y2991408D01*
X-925017Y2992882D01*
X-930148Y2993491D01*
X-1029004Y2993491D01*
X-1034135Y2992882D01*
X-1038453Y2991408D01*
X-1042314Y2988970D01*
X-1045565Y2985719D01*
X-1048003Y2981858D01*
X-1049477Y2977540D01*
X-1050086Y2972409D01*
X-1050086Y2941167D01*
X-1050848Y2937306D01*
X-1053033Y2934004D01*
X-1056335Y2931769D01*
X-1060246Y2931007D01*
X-1264869Y2931007D01*
X-1268730Y2931769D01*
X-1272032Y2934004D01*
X-1274216Y2937306D01*
X-1275029Y2941167D01*
X-1275029Y2971292D01*
X-1275588Y2976422D01*
X-1277112Y2980740D01*
X-1279550Y2984601D01*
X-1282750Y2987852D01*
X-1286662Y2990291D01*
X-1290980Y2991764D01*
X-1296060Y2992374D01*
X-1402689Y2992374D01*
X-1406601Y2993136D01*
X-1409852Y2995320D01*
X-1412087Y2998622D01*
X-1412849Y3002534D01*
X-1412087Y3006394D01*
X-1409852Y3009696D01*
X-1408582Y3010966D01*
X-1405280Y3013202D01*
X-1401419Y3013964D01*
X-1023823Y3013964D01*
X-1017269Y3014675D01*
X-1011377Y3016758D01*
X-1006094Y3020060D01*
X-1003503Y3022346D01*
X-957580Y3068320D01*
X-954176Y3070555D01*
X-950214Y3071266D01*
X-946251Y3070402D01*
X-934669Y3065272D01*
X-921105Y3061258D01*
X-907135Y3058972D01*
X-892962Y3058515D01*
X-878890Y3059887D01*
X-865073Y3063036D01*
X-851814Y3067913D01*
X-839266Y3074466D01*
X-827633Y3082594D01*
X-817168Y3092094D01*
X-807974Y3102864D01*
X-800252Y3114751D01*
X-794105Y3127502D01*
X-789635Y3140913D01*
X-786942Y3154832D01*
X-786028Y3168954D01*
X-786942Y3183077D01*
X-789635Y3196996D01*
X-794105Y3210407D01*
X-800252Y3223158D01*
X-807974Y3235045D01*
X-817168Y3245815D01*
X-827633Y3255314D01*
X-839266Y3263442D01*
X-851814Y3269996D01*
X-865073Y3274872D01*
X-878890Y3278022D01*
X-892962Y3279394D01*
X-907135Y3278936D01*
X-921105Y3276650D01*
X-934669Y3272637D01*
X-947623Y3266897D01*
X-959713Y3259582D01*
X-970787Y3250742D01*
X-980643Y3240582D01*
X-989126Y3229203D01*
X-996035Y3216910D01*
X-1001369Y3203752D01*
X-1004976Y3190087D01*
X-1006754Y3176016D01*
X-1006754Y3161893D01*
X-1004976Y3147822D01*
X-1001369Y3134156D01*
X-996035Y3120999D01*
X-994257Y3115868D01*
X-994816Y3111550D01*
X-997203Y3107893D01*
X-1022654Y3082391D01*
X-1025956Y3080207D01*
X-1029868Y3079394D01*
X-1033729Y3080207D01*
X-1037031Y3082391D01*
X-1039266Y3085693D01*
X-1040028Y3089554D01*
X-1040028Y3258362D01*
X-1040587Y3263493D01*
X-1042111Y3267811D01*
X-1044549Y3271672D01*
X-1047800Y3274923D01*
X-1051661Y3277362D01*
X-1055979Y3278886D01*
X-1061110Y3279444D01*
X-1239926Y3279444D01*
X-1245057Y3278886D01*
X-1249375Y3277362D01*
X-1253236Y3274923D01*
X-1256487Y3271672D01*
X-1258925Y3267811D01*
X-1260449Y3263493D01*
X-1261008Y3258362D01*
X-1261008Y3080105D01*
X-1261770Y3076244D01*
X-1264005Y3072942D01*
X-1267307Y3070707D01*
X-1271168Y3069945D01*
X-1416913Y3069945D01*
X-1423466Y3069234D01*
X-1429359Y3067151D01*
X-1434642Y3063849D01*
X-1437233Y3061563D01*
X-1474927Y3023870D01*
X-1478991Y3018739D01*
X-1481734Y3013100D01*
X-1483106Y3007055D01*
X-1483309Y3001873D01*
X-1484325Y2997860D01*
X-1486865Y2994558D01*
X-1490472Y2992577D01*
X-1496110Y2992374D01*
X-1608226Y2992374D01*
X-1613306Y2991764D01*
X-1617624Y2990291D01*
X-1621536Y2987852D01*
X-1624736Y2984601D01*
X-1627174Y2980740D01*
X-1628698Y2976422D01*
X-1629257Y2971292D01*
X-1629257Y2854807D01*
X-1630019Y2850946D01*
X-1632254Y2847644D01*
X-1635556Y2845409D01*
X-1639417Y2844647D01*
X-1807311Y2844647D01*
X-1813864Y2843936D01*
X-1819757Y2841853D01*
X-1825040Y2838551D01*
X-1827631Y2836265D01*
X-2303526Y2360320D01*
X-2306828Y2358136D01*
X-2310688Y2357374D01*
X-2314600Y2358136D01*
X-2317902Y2360320D01*
X-2320086Y2363622D01*
X-2320848Y2367534D01*
X-2320848Y2837027D01*
X-2320188Y2840685D01*
X-2318308Y2843784D01*
X-2315413Y2846070D01*
X-2311908Y2847136D01*
X-2301138Y2848406D01*
X-2280920Y2852724D01*
X-2261209Y2858922D01*
X-2242159Y2866948D01*
X-2223973Y2876753D01*
X-2206752Y2888183D01*
X-2190648Y2901137D01*
X-2175865Y2915615D01*
X-2162505Y2931363D01*
X-2150668Y2948330D01*
X-2140458Y2966313D01*
X-2132025Y2985160D01*
X-2125370Y3004718D01*
X-2120544Y3024835D01*
X-2117648Y3045307D01*
X-2116683Y3065932D01*
X-2117648Y3086557D01*
X-2120544Y3107029D01*
X-2125370Y3127146D01*
X-2132025Y3146704D01*
X-2140458Y3165551D01*
X-2150668Y3183534D01*
X-2162505Y3200501D01*
X-2175865Y3216249D01*
X-2190648Y3230727D01*
X-2206752Y3243681D01*
X-2223973Y3255111D01*
X-2242159Y3264915D01*
X-2261209Y3272942D01*
X-2280920Y3279140D01*
X-2301138Y3283458D01*
X-2311908Y3284728D01*
X-2315413Y3285794D01*
X-2318308Y3288080D01*
X-2320188Y3291179D01*
X-2320848Y3294837D01*
X-2320848Y3355289D01*
X-2320086Y3359150D01*
X-2317902Y3362451D01*
X-2314600Y3364687D01*
X-2310688Y3365449D01*
X5937453Y3365449D01*
X5956249Y3364484D01*
X5973673Y3361842D01*
X5990742Y3357524D01*
X6007303Y3351529D01*
X6023203Y3343960D01*
X6038291Y3334867D01*
X6052413Y3324351D01*
X6065418Y3312464D01*
X6077204Y3299409D01*
X6087668Y3285236D01*
X6096660Y3270097D01*
X6104128Y3254146D01*
X6110020Y3237534D01*
X6114288Y3220466D01*
X6116828Y3203041D01*
X6117285Y3193338D01*
X6116980Y3189681D01*
X6116980Y1776679D01*
X6117132Y1774240D01*
X6118910Y1767839D01*
X6121298Y1763725D01*
X6123178Y1761591D01*
X6358534Y1526286D01*
X6360718Y1522984D01*
X6361480Y1519123D01*
X6360718Y1515211D01*
X6358534Y1511909D01*
X6355232Y1509725D01*
X6351320Y1508963D01*
X5848248Y1508963D01*
X5843117Y1508353D01*
X5838799Y1506880D01*
X5834938Y1504442D01*
X5831687Y1501190D01*
X5829249Y1497330D01*
X5827725Y1493012D01*
X5827166Y1487881D01*
X5827166Y1357731D01*
X5826404Y1353820D01*
X5824169Y1350518D01*
X5820867Y1348333D01*
X5817006Y1347571D01*
X5159654Y1347520D01*
X5150967Y1346301D01*
X5143042Y1343660D01*
X5135676Y1339545D01*
X5128869Y1333906D01*
X4310430Y515416D01*
X4307128Y513232D01*
X4303217Y512470D01*
X4009390Y512470D01*
X4005427Y513283D01*
X3999280Y515874D01*
X3990289Y517956D01*
X3981094Y518363D01*
X3971950Y517143D01*
X3963162Y514248D01*
X3959707Y512775D01*
X3957218Y512470D01*
X3657346Y512470D01*
X3653434Y513232D01*
X3650132Y515416D01*
X2771444Y1394104D01*
X2769260Y1397406D01*
X2768498Y1401318D01*
X2768498Y2592578D01*
X2769260Y2596489D01*
X2771444Y2599791D01*
X2774696Y2601976D01*
X2778658Y2602738D01*
X2783738Y2602738D01*
X2787599Y2601976D01*
X2790901Y2599791D01*
X2793136Y2596489D01*
X2793898Y2592578D01*
X2793898Y2588818D01*
X2794457Y2583688D01*
X2795981Y2579370D01*
X2798419Y2575509D01*
X2801569Y2572258D01*
X2805531Y2569819D01*
X2809849Y2568346D01*
X2814929Y2567736D01*
X3163824Y2567736D01*
X3168904Y2568346D01*
X3173272Y2569819D01*
X3177133Y2572258D01*
X3180334Y2575509D01*
X3182772Y2579370D01*
X3184296Y2583688D01*
X3184855Y2588818D01*
X3184855Y2707690D01*
X3184296Y2712821D01*
X3182772Y2717139D01*
X3180334Y2721000D01*
X3177133Y2724251D01*
X3173272Y2726639D01*
X3168904Y2728163D01*
X3163824Y2728772D01*
X2814929Y2728772D01*
X2809849Y2728163D01*
X2805531Y2726639D01*
X2801569Y2724251D01*
X2798419Y2721000D01*
X2795981Y2717139D01*
X2794457Y2712821D01*
X2793898Y2707690D01*
X2793898Y2703931D01*
X2793136Y2700020D01*
X2790901Y2696718D01*
X2787599Y2694533D01*
X2783738Y2693771D01*
X2744927Y2693670D01*
X2740812Y2694381D01*
X2737358Y2696667D01*
X2718257Y2715717D01*
X2716072Y2719019D01*
X2715260Y2722930D01*
X2715260Y2831998D01*
X2714701Y2837078D01*
X2713177Y2841396D01*
X2710738Y2845308D01*
X2707538Y2848508D01*
X2703626Y2850946D01*
X2699308Y2852470D01*
X2694228Y2853029D01*
X2545334Y2853029D01*
X2540254Y2852470D01*
X2535936Y2850946D01*
X2532024Y2848508D01*
X2528824Y2845308D01*
X2526385Y2841396D01*
X2524861Y2837078D01*
X2524302Y2831998D01*
X2524302Y2796946D01*
X2523490Y2792984D01*
X2521204Y2789682D01*
X2517851Y2787497D01*
X2513888Y2786786D01*
X2509926Y2787700D01*
X2506675Y2790037D01*
X2504592Y2793441D01*
X2502408Y2799334D01*
X2496515Y2810510D01*
X2489098Y2820720D01*
X2480310Y2829814D01*
X2470353Y2837535D01*
X2459431Y2843885D01*
X2447747Y2848610D01*
X2435504Y2851658D01*
X2422956Y2852978D01*
X2410307Y2852521D01*
X2397912Y2850337D01*
X2385872Y2846425D01*
X2374544Y2840888D01*
X2364079Y2833827D01*
X2354681Y2825394D01*
X2346604Y2815742D01*
X2339898Y2805023D01*
X2334768Y2793492D01*
X2331262Y2781350D01*
X2329535Y2768854D01*
X2329535Y2756255D01*
X2331262Y2743758D01*
X2334768Y2731617D01*
X2339898Y2720086D01*
X2347315Y2708351D01*
X2348484Y2705760D01*
X2348890Y2702966D01*
X2348890Y2469692D01*
X2348128Y2465832D01*
X2345893Y2462530D01*
X1800606Y1917141D01*
X1795322Y1910181D01*
X1791614Y1902663D01*
X1789277Y1894586D01*
X1788464Y1885797D01*
X1788464Y1401876D01*
X1787855Y1398320D01*
X1785366Y1391666D01*
X1783740Y1382776D01*
X1783740Y1373733D01*
X1785366Y1364843D01*
X1788515Y1356360D01*
X1793138Y1348587D01*
X1799132Y1341780D01*
X1806193Y1336141D01*
X1814169Y1331874D01*
X1822754Y1329080D01*
X1831695Y1327861D01*
X1840738Y1328267D01*
X1849577Y1330248D01*
X1857908Y1333804D01*
X1865426Y1338783D01*
X1871980Y1345082D01*
X1877314Y1352397D01*
X1881225Y1360525D01*
X1883613Y1369263D01*
X1884425Y1378254D01*
X1883613Y1387246D01*
X1881225Y1395984D01*
X1879752Y1399641D01*
X1879498Y1401927D01*
X1879498Y1863191D01*
X1880260Y1867103D01*
X1882444Y1870405D01*
X2427782Y2415743D01*
X2433015Y2422702D01*
X2436774Y2430221D01*
X2439060Y2438298D01*
X2439873Y2447137D01*
X2439873Y2666593D01*
X2440838Y2670962D01*
X2443581Y2674467D01*
X2447747Y2676499D01*
X2459431Y2681224D01*
X2470353Y2687574D01*
X2480310Y2695295D01*
X2489098Y2704388D01*
X2496515Y2714599D01*
X2502408Y2725775D01*
X2504592Y2731668D01*
X2506675Y2735072D01*
X2509926Y2737408D01*
X2513888Y2738323D01*
X2517851Y2737612D01*
X2521204Y2735427D01*
X2523490Y2732125D01*
X2524302Y2728163D01*
X2524302Y2693111D01*
X2524861Y2688031D01*
X2526385Y2683713D01*
X2528824Y2679801D01*
X2532024Y2676601D01*
X2535936Y2674162D01*
X2540254Y2672638D01*
X2545334Y2672080D01*
X2629052Y2672080D01*
X2632913Y2671267D01*
X2636215Y2669082D01*
X2674518Y2630779D01*
X2676702Y2627477D01*
X2677464Y2623616D01*
X2677515Y1376527D01*
X2678734Y1367840D01*
X2681376Y1359916D01*
X2685491Y1352550D01*
X2691130Y1345742D01*
X3603396Y433578D01*
X3610356Y428294D01*
X3617874Y424586D01*
X3625951Y422300D01*
X3634740Y421436D01*
X3957218Y421436D01*
X3959707Y421132D01*
X3963162Y419658D01*
X3971950Y416763D01*
X3981094Y415543D01*
X3990289Y415950D01*
X3999280Y418033D01*
X4005427Y420624D01*
X4009440Y421436D01*
X4328007Y421487D01*
X4336694Y422706D01*
X4344619Y425399D01*
X4351985Y429463D01*
X4358792Y435101D01*
X5177231Y1253591D01*
X5180533Y1255776D01*
X5184444Y1256538D01*
X5817006Y1256538D01*
X5820867Y1255776D01*
X5824169Y1253591D01*
X5826404Y1250289D01*
X5827166Y1246378D01*
X5827166Y754024D01*
X5827725Y748893D01*
X5829249Y744575D01*
X5831687Y740714D01*
X5834938Y737463D01*
X5838799Y735025D01*
X5843117Y733552D01*
X5848248Y732942D01*
X5983020Y732942D01*
X5986881Y732180D01*
X5990183Y729996D01*
X5992368Y726694D01*
X5993180Y722782D01*
X5993180Y577900D01*
X5993384Y573938D01*
X5993384Y318312D01*
X5993180Y314350D01*
X5993180Y-390906D01*
X5992368Y-394766D01*
X5990183Y-398068D01*
X5986881Y-400253D01*
X5983020Y-401066D01*
X5848248Y-401066D01*
X5843117Y-401624D01*
X5838799Y-403148D01*
X5834938Y-405587D01*
X5831687Y-408787D01*
X5829249Y-412699D01*
X5827725Y-417017D01*
X5827166Y-422097D01*
X5827166Y-1155954D01*
X5827725Y-1161084D01*
X5829249Y-1165402D01*
X5831687Y-1169263D01*
X5834938Y-1172514D01*
X5838799Y-1174953D01*
X5843117Y-1176477D01*
X5848248Y-1177036D01*
X6342583Y-1177036D01*
X6346444Y-1177798D01*
X6349746Y-1180033D01*
X6351981Y-1183335D01*
X6352743Y-1187196D01*
X6351981Y-1191107D01*
X6349746Y-1194409D01*
X6123178Y-1420926D01*
X6121603Y-1422755D01*
X6118352Y-1428597D01*
X6117132Y-1433169D01*
X6116980Y-1436014D01*
X6116980Y-2849168D01*
X6117539Y-2856230D01*
X6116726Y-2872130D01*
X6114084Y-2889554D01*
X6109766Y-2906623D01*
X6103772Y-2923184D01*
X6096203Y-2939084D01*
X6087110Y-2954172D01*
X6076543Y-2968294D01*
X6064707Y-2981299D01*
X6051600Y-2993085D01*
X6037427Y-3003550D01*
X6022340Y-3012541D01*
X6006388Y-3020009D01*
X5989777Y-3025902D01*
X5972708Y-3030169D01*
X5955233Y-3032709D01*
X5937351Y-3033572D01*
G37*

%LPC*%
G36*
X5807659Y-2954477D02*
G01*
X5828284Y-2954020D01*
X5848858Y-2951581D01*
X5869025Y-2947263D01*
X5888786Y-2941066D01*
X5907836Y-2933039D01*
X5926023Y-2923235D01*
X5943244Y-2911805D01*
X5959297Y-2898851D01*
X5974130Y-2884373D01*
X5987491Y-2868625D01*
X5999327Y-2851658D01*
X6009487Y-2833674D01*
X6017971Y-2814828D01*
X6024626Y-2795270D01*
X6029452Y-2775153D01*
X6032347Y-2754680D01*
X6033312Y-2734056D01*
X6032347Y-2713431D01*
X6029452Y-2692958D01*
X6024626Y-2672842D01*
X6017971Y-2653284D01*
X6009487Y-2634437D01*
X5999327Y-2616454D01*
X5987491Y-2599486D01*
X5974130Y-2583738D01*
X5959297Y-2569260D01*
X5943244Y-2556306D01*
X5926023Y-2544876D01*
X5907836Y-2535072D01*
X5888786Y-2527046D01*
X5869025Y-2520848D01*
X5848858Y-2516530D01*
X5828284Y-2514092D01*
X5807659Y-2513634D01*
X5787034Y-2515108D01*
X5766612Y-2518460D01*
X5746648Y-2523744D01*
X5727242Y-2530856D01*
X5708599Y-2539746D01*
X5690819Y-2550363D01*
X5674207Y-2562606D01*
X5658764Y-2576322D01*
X5644642Y-2591460D01*
X5632043Y-2607818D01*
X5620969Y-2625293D01*
X5611672Y-2643733D01*
X5604103Y-2662986D01*
X5598363Y-2682849D01*
X5594502Y-2703118D01*
X5592572Y-2723743D01*
X5592572Y-2744368D01*
X5594502Y-2764993D01*
X5598363Y-2785262D01*
X5604103Y-2805125D01*
X5611672Y-2824378D01*
X5620969Y-2842818D01*
X5632043Y-2860294D01*
X5644642Y-2876651D01*
X5658764Y-2891790D01*
X5674207Y-2905506D01*
X5690819Y-2917748D01*
X5708599Y-2928366D01*
X5727242Y-2937256D01*
X5746648Y-2944368D01*
X5766612Y-2949651D01*
X5787034Y-2953004D01*
G37*
G36*
X2402890Y-2806700D02*
G01*
X2410307Y-2806700D01*
X2417572Y-2805176D01*
X2424328Y-2802178D01*
X2430322Y-2797810D01*
X2435250Y-2792323D01*
X2438958Y-2785872D01*
X2441244Y-2778810D01*
X2442362Y-2776524D01*
X2443988Y-2774543D01*
X2462326Y-2757373D01*
X2466746Y-2752140D01*
X2469642Y-2746603D01*
X2471267Y-2740355D01*
X2471572Y-2736189D01*
X2471572Y-2083612D01*
X2472334Y-2079701D01*
X2474569Y-2076399D01*
X2862224Y-1688795D01*
X2865221Y-1686712D01*
X2876245Y-1683867D01*
X2883154Y-1680514D01*
X2889199Y-1675790D01*
X2894228Y-1669999D01*
X2897936Y-1663293D01*
X2900222Y-1655927D01*
X2900984Y-1648307D01*
X2900222Y-1640687D01*
X2897936Y-1633321D01*
X2894228Y-1626616D01*
X2889199Y-1620824D01*
X2883154Y-1616100D01*
X2876245Y-1612747D01*
X2868828Y-1610817D01*
X2861157Y-1610410D01*
X2853537Y-1611579D01*
X2846374Y-1614220D01*
X2839821Y-1618284D01*
X2834284Y-1623568D01*
X2829864Y-1629867D01*
X2826867Y-1636928D01*
X2825394Y-1643989D01*
X2824378Y-1646783D01*
X2822651Y-1649171D01*
X2423972Y-2047798D01*
X2419908Y-2052929D01*
X2417165Y-2058568D01*
X2415794Y-2064664D01*
X2415590Y-2068068D01*
X2415590Y-2720035D01*
X2414727Y-2724048D01*
X2412390Y-2727452D01*
X2405126Y-2734259D01*
X2402840Y-2735834D01*
X2400249Y-2736799D01*
X2395626Y-2737764D01*
X2388819Y-2740761D01*
X2382875Y-2745130D01*
X2377948Y-2750616D01*
X2374239Y-2757068D01*
X2371953Y-2764078D01*
X2371140Y-2771495D01*
X2371953Y-2778861D01*
X2374239Y-2785872D01*
X2377948Y-2792323D01*
X2382875Y-2797810D01*
X2388819Y-2802178D01*
X2395626Y-2805176D01*
G37*
G36*
X953973Y-2784500D02*
G01*
X961390Y-2784500D01*
X968654Y-2782976D01*
X975410Y-2779928D01*
X981405Y-2775559D01*
X986332Y-2770073D01*
X990041Y-2763672D01*
X992327Y-2756611D01*
X993140Y-2749245D01*
X992327Y-2741879D01*
X990041Y-2734818D01*
X987044Y-2729585D01*
X986028Y-2727147D01*
X985672Y-2724505D01*
X985672Y-2555341D01*
X986434Y-2551480D01*
X988669Y-2548178D01*
X1347317Y-2189530D01*
X1350619Y-2187346D01*
X1354480Y-2186533D01*
X1427886Y-2186533D01*
X1434439Y-2185822D01*
X1440332Y-2183739D01*
X1445615Y-2180437D01*
X1448206Y-2178151D01*
X1459179Y-2167128D01*
X1463294Y-2162048D01*
X1465986Y-2156409D01*
X1467408Y-2150262D01*
X1467612Y-2146858D01*
X1467612Y-2064562D01*
X1468221Y-2061057D01*
X1470761Y-2057146D01*
X1474419Y-2050440D01*
X1476756Y-2043125D01*
X1477518Y-2035505D01*
X1476756Y-2027834D01*
X1474419Y-2020519D01*
X1470761Y-2013813D01*
X1465732Y-2007971D01*
X1463598Y-2006295D01*
X1460804Y-2003043D01*
X1459636Y-1998929D01*
X1460246Y-1994662D01*
X1462633Y-1991106D01*
X1484934Y-1968804D01*
X1487932Y-1966722D01*
X1498955Y-1963877D01*
X1505864Y-1960524D01*
X1511909Y-1955800D01*
X1516938Y-1950008D01*
X1520647Y-1943303D01*
X1522933Y-1935937D01*
X1523695Y-1928317D01*
X1522933Y-1920697D01*
X1520647Y-1913331D01*
X1516938Y-1906625D01*
X1511909Y-1900834D01*
X1505864Y-1896110D01*
X1498955Y-1892757D01*
X1491538Y-1890826D01*
X1483868Y-1890420D01*
X1476248Y-1891588D01*
X1469085Y-1894230D01*
X1462532Y-1898294D01*
X1456994Y-1903577D01*
X1452575Y-1909876D01*
X1449578Y-1916938D01*
X1448104Y-1923999D01*
X1447088Y-1926793D01*
X1445361Y-1929180D01*
X1333246Y-2041296D01*
X1329944Y-2043480D01*
X1326032Y-2044242D01*
X1322171Y-2043480D01*
X1318869Y-2041296D01*
X1316634Y-2037994D01*
X1315872Y-2034082D01*
X1315872Y-1681073D01*
X1316634Y-1677162D01*
X1318869Y-1673860D01*
X1320393Y-1672336D01*
X1323441Y-1670253D01*
X1327048Y-1669389D01*
X1331722Y-1669135D01*
X1339138Y-1667205D01*
X1346047Y-1663852D01*
X1352143Y-1659128D01*
X1357122Y-1653336D01*
X1360830Y-1646631D01*
X1363167Y-1639265D01*
X1363878Y-1632102D01*
X1364792Y-1628749D01*
X1366824Y-1625904D01*
X1504492Y-1488236D01*
X1507540Y-1486154D01*
X1518564Y-1483309D01*
X1525473Y-1479956D01*
X1531518Y-1475232D01*
X1536547Y-1469440D01*
X1540256Y-1462735D01*
X1542542Y-1455369D01*
X1543304Y-1447749D01*
X1542542Y-1440129D01*
X1540256Y-1432763D01*
X1536547Y-1426057D01*
X1531518Y-1420266D01*
X1525473Y-1415542D01*
X1518564Y-1412189D01*
X1511147Y-1410258D01*
X1503476Y-1409852D01*
X1495856Y-1411020D01*
X1488694Y-1413662D01*
X1482140Y-1417726D01*
X1476603Y-1423009D01*
X1472184Y-1429308D01*
X1469186Y-1436370D01*
X1467713Y-1443431D01*
X1466697Y-1446225D01*
X1464970Y-1448562D01*
X1321358Y-1592173D01*
X1317650Y-1594510D01*
X1309268Y-1597609D01*
X1302766Y-1601622D01*
X1297178Y-1606905D01*
X1292809Y-1613204D01*
X1289761Y-1620266D01*
X1288491Y-1624431D01*
X1286713Y-1626819D01*
X1263192Y-1650339D01*
X1258925Y-1655673D01*
X1256233Y-1661312D01*
X1254861Y-1667408D01*
X1254861Y-1673656D01*
X1256233Y-1679752D01*
X1258874Y-1685239D01*
X1259890Y-1689658D01*
X1259890Y-1871725D01*
X1259128Y-1875637D01*
X1256893Y-1878939D01*
X1253591Y-1881124D01*
X1249730Y-1881886D01*
X1245819Y-1881124D01*
X1242517Y-1878939D01*
X-68529Y-567842D01*
X-70002Y-565962D01*
X-71018Y-563778D01*
X-73660Y-555498D01*
X-77368Y-549097D01*
X-82296Y-543610D01*
X-88290Y-539242D01*
X-95046Y-536244D01*
X-102311Y-534720D01*
X-109728Y-534720D01*
X-116992Y-536244D01*
X-123748Y-539242D01*
X-129743Y-543610D01*
X-134670Y-549097D01*
X-138379Y-555548D01*
X-140665Y-562559D01*
X-141478Y-569976D01*
X-140665Y-577342D01*
X-138379Y-584352D01*
X-134670Y-590804D01*
X-129743Y-596290D01*
X-123748Y-600659D01*
X-116992Y-603656D01*
X-113487Y-604418D01*
X-110744Y-605383D01*
X-108407Y-607161D01*
X-18288Y-697280D01*
X-16052Y-700582D01*
X-15290Y-704494D01*
X-16052Y-708355D01*
X-18288Y-711657D01*
X-21590Y-713892D01*
X-25450Y-714654D01*
X-67919Y-714654D01*
X-71780Y-713892D01*
X-75082Y-711657D01*
X-198628Y-588162D01*
X-200101Y-586232D01*
X-201117Y-584047D01*
X-203758Y-575818D01*
X-207467Y-569417D01*
X-212394Y-563930D01*
X-218389Y-559562D01*
X-225145Y-556514D01*
X-232410Y-554990D01*
X-239826Y-554990D01*
X-247091Y-556514D01*
X-253847Y-559562D01*
X-259842Y-563930D01*
X-264769Y-569417D01*
X-268478Y-575818D01*
X-270764Y-582879D01*
X-271576Y-590245D01*
X-270764Y-597611D01*
X-268478Y-604672D01*
X-264769Y-611073D01*
X-259842Y-616559D01*
X-253847Y-620928D01*
X-247091Y-623976D01*
X-243586Y-624687D01*
X-240842Y-625703D01*
X-238506Y-627430D01*
X-103733Y-762254D01*
X-98602Y-766318D01*
X-92964Y-769061D01*
X-86969Y-770432D01*
X-80162Y-770636D01*
X-76200Y-771601D01*
X-72898Y-774039D01*
X-70866Y-777595D01*
X-70358Y-781659D01*
X-71577Y-785622D01*
X-74168Y-788771D01*
X-81178Y-794359D01*
X-86156Y-800049D01*
X-89611Y-802640D01*
X-93827Y-803554D01*
X-855319Y-803554D01*
X-859180Y-802792D01*
X-862482Y-800557D01*
X-1096670Y-566369D01*
X-1099058Y-562660D01*
X-1099616Y-558292D01*
X-1099058Y-552145D01*
X-1099870Y-542950D01*
X-1102360Y-534060D01*
X-1106322Y-525729D01*
X-1111758Y-518312D01*
X-1118412Y-511911D01*
X-1126134Y-506831D01*
X-1134618Y-503224D01*
X-1143609Y-501142D01*
X-1152804Y-500735D01*
X-1161948Y-501954D01*
X-1170736Y-504850D01*
X-1178864Y-509219D01*
X-1186078Y-514959D01*
X-1192123Y-521919D01*
X-1196898Y-529844D01*
X-1200099Y-538480D01*
X-1201775Y-547522D01*
X-1201775Y-556768D01*
X-1200099Y-565810D01*
X-1196898Y-574497D01*
X-1192123Y-582371D01*
X-1186078Y-589330D01*
X-1178864Y-595071D01*
X-1170736Y-599440D01*
X-1161948Y-602335D01*
X-1152804Y-603554D01*
X-1143812Y-603148D01*
X-1139647Y-603808D01*
X-1136142Y-606094D01*
X-891133Y-851153D01*
X-886002Y-855218D01*
X-880364Y-857961D01*
X-874268Y-859332D01*
X-870813Y-859536D01*
X-93827Y-859536D01*
X-89611Y-860450D01*
X-86156Y-863041D01*
X-81178Y-868730D01*
X-73964Y-874471D01*
X-65836Y-878840D01*
X-57048Y-881735D01*
X-47904Y-882954D01*
X-38709Y-882548D01*
X-29718Y-880465D01*
X-21234Y-876858D01*
X-13512Y-871778D01*
X-6858Y-865378D01*
X-1422Y-857961D01*
X2540Y-849630D01*
X5029Y-840740D01*
X5842Y-831545D01*
X5029Y-822350D01*
X2540Y-813460D01*
X-1422Y-805129D01*
X-4064Y-801573D01*
X-5791Y-797661D01*
X-5740Y-793343D01*
X-3911Y-789432D01*
X-660Y-786638D01*
X3505Y-785469D01*
X7721Y-786079D01*
X11379Y-788416D01*
X853744Y-1630832D01*
X855522Y-1633169D01*
X856538Y-1635963D01*
X857961Y-1643024D01*
X861009Y-1650085D01*
X865378Y-1656384D01*
X870966Y-1661668D01*
X877468Y-1665732D01*
X884682Y-1668373D01*
X892251Y-1669542D01*
X899921Y-1669135D01*
X907338Y-1667205D01*
X914247Y-1663852D01*
X920343Y-1659128D01*
X923899Y-1654962D01*
X927201Y-1652422D01*
X931265Y-1651406D01*
X935329Y-1652117D01*
X938834Y-1654403D01*
X1216152Y-1931720D01*
X1218336Y-1935022D01*
X1219098Y-1938883D01*
X1219098Y-2126691D01*
X1219809Y-2133193D01*
X1221892Y-2139086D01*
X1225245Y-2144420D01*
X1227531Y-2146960D01*
X1258722Y-2178151D01*
X1261668Y-2180793D01*
X1264107Y-2184095D01*
X1265072Y-2188057D01*
X1264361Y-2192121D01*
X1262075Y-2195576D01*
X938072Y-2519578D01*
X934008Y-2524658D01*
X931265Y-2530297D01*
X929894Y-2536444D01*
X929690Y-2539847D01*
X929690Y-2724505D01*
X929335Y-2727147D01*
X928319Y-2729585D01*
X925321Y-2734818D01*
X923036Y-2741879D01*
X922223Y-2749245D01*
X923036Y-2756611D01*
X925321Y-2763672D01*
X929030Y-2770073D01*
X933958Y-2775559D01*
X939952Y-2779928D01*
X946708Y-2782976D01*
G37*
G36*
X3624884Y-2716631D02*
G01*
X3635908Y-2715768D01*
X3646678Y-2713177D01*
X3656888Y-2708910D01*
X3666286Y-2703169D01*
X3674719Y-2695956D01*
X3681882Y-2687574D01*
X3687673Y-2678125D01*
X3691890Y-2667914D01*
X3694480Y-2657144D01*
X3695344Y-2646172D01*
X3694480Y-2635148D01*
X3691890Y-2624378D01*
X3687673Y-2614168D01*
X3681882Y-2604719D01*
X3674719Y-2596337D01*
X3666286Y-2589123D01*
X3656888Y-2583383D01*
X3646678Y-2579116D01*
X3635908Y-2576525D01*
X3624884Y-2575661D01*
X3613861Y-2576525D01*
X3603091Y-2579116D01*
X3592880Y-2583383D01*
X3583482Y-2589123D01*
X3575050Y-2596337D01*
X3567887Y-2604719D01*
X3562096Y-2614168D01*
X3557879Y-2624378D01*
X3555288Y-2635148D01*
X3554425Y-2646172D01*
X3555288Y-2657144D01*
X3557879Y-2667914D01*
X3562096Y-2678125D01*
X3567887Y-2687574D01*
X3575050Y-2695956D01*
X3583482Y-2703169D01*
X3592880Y-2708910D01*
X3603091Y-2713177D01*
X3613861Y-2715768D01*
G37*
G36*
X2824886Y-2716631D02*
G01*
X2835910Y-2715768D01*
X2846679Y-2713177D01*
X2856890Y-2708910D01*
X2866288Y-2703169D01*
X2874721Y-2695956D01*
X2881884Y-2687574D01*
X2887675Y-2678125D01*
X2891891Y-2667914D01*
X2894482Y-2657144D01*
X2895346Y-2646172D01*
X2894482Y-2635148D01*
X2891891Y-2624378D01*
X2887675Y-2614168D01*
X2881884Y-2604719D01*
X2874721Y-2596337D01*
X2866288Y-2589123D01*
X2856890Y-2583383D01*
X2846679Y-2579116D01*
X2835910Y-2576525D01*
X2824886Y-2575661D01*
X2813862Y-2576525D01*
X2803093Y-2579116D01*
X2792882Y-2583383D01*
X2783484Y-2589123D01*
X2775051Y-2596337D01*
X2767888Y-2604719D01*
X2762097Y-2614168D01*
X2757881Y-2624378D01*
X2755290Y-2635148D01*
X2754426Y-2646172D01*
X2755290Y-2657144D01*
X2757881Y-2667914D01*
X2762097Y-2678125D01*
X2767888Y-2687574D01*
X2775051Y-2695956D01*
X2783484Y-2703169D01*
X2792882Y-2708910D01*
X2803093Y-2713177D01*
X2813862Y-2715768D01*
G37*
G36*
X4592929Y-2613863D02*
G01*
X4941824Y-2613863D01*
X4946904Y-2613253D01*
X4951222Y-2611729D01*
X4955133Y-2609291D01*
X4958334Y-2606090D01*
X4960772Y-2602230D01*
X4962296Y-2597912D01*
X4962855Y-2592781D01*
X4962855Y-2473909D01*
X4962296Y-2468778D01*
X4960772Y-2464460D01*
X4958334Y-2460599D01*
X4955133Y-2457348D01*
X4951222Y-2454910D01*
X4946904Y-2453436D01*
X4941824Y-2452827D01*
X4936744Y-2452827D01*
X4932883Y-2452065D01*
X4929581Y-2449880D01*
X4927396Y-2446578D01*
X4926584Y-2442667D01*
X4927396Y-2438806D01*
X4929581Y-2435504D01*
X5062677Y-2302408D01*
X5065979Y-2300224D01*
X5069840Y-2299462D01*
X5442508Y-2299411D01*
X5451195Y-2298192D01*
X5459120Y-2295550D01*
X5466486Y-2291435D01*
X5473293Y-2285796D01*
X5766257Y-1992731D01*
X5771540Y-1985772D01*
X5775248Y-1978253D01*
X5777585Y-1970176D01*
X5778398Y-1961388D01*
X5778398Y-743204D01*
X5779363Y-738784D01*
X5781040Y-735330D01*
X5783529Y-726440D01*
X5784342Y-717245D01*
X5783529Y-708050D01*
X5781040Y-699160D01*
X5777077Y-690829D01*
X5771642Y-683412D01*
X5764987Y-677011D01*
X5757265Y-671931D01*
X5748782Y-668324D01*
X5739790Y-666242D01*
X5730595Y-665835D01*
X5721451Y-667054D01*
X5712663Y-669950D01*
X5704535Y-674319D01*
X5697321Y-680059D01*
X5691276Y-687019D01*
X5686501Y-694944D01*
X5683300Y-703580D01*
X5681624Y-712622D01*
X5681624Y-721868D01*
X5683300Y-730910D01*
X5686755Y-740156D01*
X5687364Y-743712D01*
X5687364Y-1938782D01*
X5686602Y-1942693D01*
X5684418Y-1945995D01*
X5424932Y-2205482D01*
X5421630Y-2207666D01*
X5417718Y-2208428D01*
X5045049Y-2208479D01*
X5036362Y-2209698D01*
X5028438Y-2212340D01*
X5021122Y-2216454D01*
X5014264Y-2222093D01*
X4786528Y-2449880D01*
X4783226Y-2452065D01*
X4779365Y-2452827D01*
X4592929Y-2452827D01*
X4587849Y-2453436D01*
X4583531Y-2454910D01*
X4579569Y-2457348D01*
X4576419Y-2460599D01*
X4573981Y-2464460D01*
X4572457Y-2468778D01*
X4571898Y-2473909D01*
X4571898Y-2592781D01*
X4572457Y-2597912D01*
X4573981Y-2602230D01*
X4576419Y-2606090D01*
X4579569Y-2609291D01*
X4583531Y-2611729D01*
X4587849Y-2613253D01*
G37*
G36*
X1724202Y-2484323D02*
G01*
X1731568Y-2484323D01*
X1738833Y-2482799D01*
X1745589Y-2479802D01*
X1751584Y-2475433D01*
X1756562Y-2469946D01*
X1760270Y-2463546D01*
X1762912Y-2455265D01*
X1763877Y-2453081D01*
X1765401Y-2451201D01*
X2769819Y-1446733D01*
X2773172Y-1444498D01*
X2777032Y-1443736D01*
X3295142Y-1443736D01*
X3298291Y-1444244D01*
X3302152Y-1446428D01*
X3308908Y-1449476D01*
X3316173Y-1451000D01*
X3323590Y-1451000D01*
X3330854Y-1449476D01*
X3337610Y-1446428D01*
X3343605Y-1442059D01*
X3348532Y-1436573D01*
X3352241Y-1430172D01*
X3354527Y-1423111D01*
X3355340Y-1415745D01*
X3354527Y-1408379D01*
X3352241Y-1401318D01*
X3348532Y-1394917D01*
X3343605Y-1389430D01*
X3337610Y-1385062D01*
X3330854Y-1382014D01*
X3323590Y-1380490D01*
X3316173Y-1380490D01*
X3308908Y-1382014D01*
X3302152Y-1385062D01*
X3298291Y-1387246D01*
X3295142Y-1387754D01*
X2761538Y-1387754D01*
X2755036Y-1388465D01*
X2749092Y-1390548D01*
X2743809Y-1393850D01*
X2741269Y-1396136D01*
X1725523Y-2411882D01*
X1723186Y-2413609D01*
X1720443Y-2414625D01*
X1716938Y-2415387D01*
X1710182Y-2418384D01*
X1704187Y-2422753D01*
X1699209Y-2428240D01*
X1695500Y-2434691D01*
X1693214Y-2441702D01*
X1692452Y-2449118D01*
X1693214Y-2456484D01*
X1695500Y-2463495D01*
X1699209Y-2469946D01*
X1704187Y-2475433D01*
X1710182Y-2479802D01*
X1716938Y-2482799D01*
G37*
G36*
X1725320Y-1942896D02*
G01*
X1732991Y-1942490D01*
X1740407Y-1940560D01*
X1747316Y-1937207D01*
X1753362Y-1932482D01*
X1758391Y-1926691D01*
X1762099Y-1919986D01*
X1764385Y-1912620D01*
X1765147Y-1905000D01*
X1764385Y-1897380D01*
X1762099Y-1890014D01*
X1758391Y-1883308D01*
X1753362Y-1877517D01*
X1747316Y-1872792D01*
X1740407Y-1869439D01*
X1729435Y-1866595D01*
X1726488Y-1864563D01*
X1720189Y-1858213D01*
X1717954Y-1854911D01*
X1717192Y-1851050D01*
X1717192Y-1488541D01*
X1717903Y-1484884D01*
X1719884Y-1481683D01*
X1722882Y-1479448D01*
X1725472Y-1478178D01*
X1731518Y-1473454D01*
X1736547Y-1467662D01*
X1740255Y-1460957D01*
X1742541Y-1453591D01*
X1743303Y-1445971D01*
X1742541Y-1438351D01*
X1740255Y-1430985D01*
X1736547Y-1424279D01*
X1731518Y-1418488D01*
X1725472Y-1413764D01*
X1718564Y-1410411D01*
X1711147Y-1408480D01*
X1703476Y-1408074D01*
X1695856Y-1409242D01*
X1688693Y-1411884D01*
X1682140Y-1415948D01*
X1676146Y-1421384D01*
X1671777Y-1424127D01*
X1667357Y-1428546D01*
X1664055Y-1433830D01*
X1661972Y-1439773D01*
X1661210Y-1446530D01*
X1661210Y-1866544D01*
X1661922Y-1873097D01*
X1664004Y-1878990D01*
X1667306Y-1884273D01*
X1669592Y-1886864D01*
X1686763Y-1904034D01*
X1688541Y-1906371D01*
X1689557Y-1909165D01*
X1691030Y-1916379D01*
X1694027Y-1923440D01*
X1698447Y-1929739D01*
X1703984Y-1935022D01*
X1710537Y-1939086D01*
X1717700Y-1941728D01*
G37*
G36*
X66751Y-1593342D02*
G01*
X74422Y-1592935D01*
X81838Y-1591005D01*
X88747Y-1587652D01*
X94843Y-1582928D01*
X99822Y-1577136D01*
X103530Y-1570431D01*
X105867Y-1563065D01*
X106070Y-1560880D01*
X106984Y-1557528D01*
X109016Y-1554734D01*
X178917Y-1484833D01*
X182219Y-1482598D01*
X186080Y-1481836D01*
X458419Y-1481836D01*
X461213Y-1482242D01*
X463804Y-1483360D01*
X471068Y-1487932D01*
X478282Y-1490573D01*
X485851Y-1491742D01*
X493522Y-1491335D01*
X500938Y-1489405D01*
X507847Y-1486052D01*
X513943Y-1481328D01*
X518922Y-1475536D01*
X522630Y-1468831D01*
X524967Y-1461465D01*
X525729Y-1453845D01*
X524967Y-1446225D01*
X522630Y-1438859D01*
X518922Y-1432153D01*
X513943Y-1426362D01*
X507847Y-1421638D01*
X500938Y-1418285D01*
X493522Y-1416354D01*
X485851Y-1415948D01*
X478282Y-1417116D01*
X471068Y-1419758D01*
X463804Y-1424330D01*
X461213Y-1425448D01*
X458419Y-1425854D01*
X170586Y-1425854D01*
X164033Y-1426565D01*
X158140Y-1428648D01*
X152857Y-1431950D01*
X150266Y-1434236D01*
X69392Y-1515160D01*
X66802Y-1517040D01*
X63754Y-1518005D01*
X59182Y-1518716D01*
X51968Y-1521358D01*
X45466Y-1525422D01*
X39878Y-1530705D01*
X35509Y-1537004D01*
X32461Y-1544066D01*
X30937Y-1551584D01*
X30937Y-1559306D01*
X32461Y-1566824D01*
X35509Y-1573885D01*
X39878Y-1580184D01*
X45466Y-1585468D01*
X51968Y-1589532D01*
X59182Y-1592173D01*
G37*
G36*
X3697020Y-989634D02*
G01*
X3706063Y-989228D01*
X3714851Y-987247D01*
X3723182Y-983691D01*
X3730751Y-978712D01*
X3737254Y-972413D01*
X3742588Y-965098D01*
X3746347Y-957326D01*
X3748328Y-954532D01*
X4026357Y-676452D01*
X4031640Y-669493D01*
X4035348Y-661974D01*
X4037685Y-653897D01*
X4038498Y-645058D01*
X4038498Y-232917D01*
X4039463Y-228498D01*
X4040225Y-226974D01*
X4042613Y-218236D01*
X4043426Y-209245D01*
X4042613Y-200253D01*
X4040225Y-191516D01*
X4036314Y-183388D01*
X4030979Y-176072D01*
X4024426Y-169773D01*
X4016908Y-164795D01*
X4008577Y-161239D01*
X3999737Y-159258D01*
X3990695Y-158851D01*
X3981754Y-160070D01*
X3973169Y-162864D01*
X3965194Y-167132D01*
X3958132Y-172770D01*
X3952138Y-179578D01*
X3947515Y-187350D01*
X3944365Y-195834D01*
X3942740Y-204724D01*
X3942740Y-213766D01*
X3944365Y-222656D01*
X3946855Y-229311D01*
X3947464Y-232867D01*
X3947464Y-622503D01*
X3946702Y-626364D01*
X3944518Y-629666D01*
X3683965Y-890219D01*
X3682085Y-891692D01*
X3679444Y-892860D01*
X3671468Y-897128D01*
X3664407Y-902766D01*
X3658463Y-909574D01*
X3653840Y-917346D01*
X3650640Y-925830D01*
X3649014Y-934719D01*
X3649014Y-943762D01*
X3650640Y-952652D01*
X3653840Y-961136D01*
X3658463Y-968908D01*
X3664407Y-975715D01*
X3671468Y-981354D01*
X3679444Y-985621D01*
X3688029Y-988415D01*
G37*
G36*
X3697020Y-799642D02*
G01*
X3706063Y-799236D01*
X3714851Y-797255D01*
X3723182Y-793699D01*
X3730751Y-788720D01*
X3737254Y-782421D01*
X3742588Y-775106D01*
X3746500Y-766978D01*
X3748938Y-758240D01*
X3749751Y-749249D01*
X3748938Y-740257D01*
X3746500Y-731520D01*
X3745026Y-727862D01*
X3744772Y-725576D01*
X3744772Y195630D01*
X3745788Y200050D01*
X3748328Y204012D01*
X3796182Y251866D01*
X3799484Y254101D01*
X3803396Y254863D01*
X4163161Y254863D01*
X4166311Y254355D01*
X4176014Y251155D01*
X4184954Y249936D01*
X4193997Y250342D01*
X4202785Y252374D01*
X4206697Y254050D01*
X4210710Y254863D01*
X5525414Y254863D01*
X5528818Y254254D01*
X5531866Y252526D01*
X5534101Y249885D01*
X5538114Y243179D01*
X5544108Y236372D01*
X5551119Y230733D01*
X5559145Y226466D01*
X5567730Y223672D01*
X5576671Y222453D01*
X5585714Y222859D01*
X5594553Y224840D01*
X5602884Y228396D01*
X5610402Y233375D01*
X5616956Y239674D01*
X5622290Y246989D01*
X5626201Y255117D01*
X5628589Y263855D01*
X5629402Y272846D01*
X5628589Y281838D01*
X5626201Y290576D01*
X5622290Y298704D01*
X5616956Y306019D01*
X5610402Y312318D01*
X5602884Y317296D01*
X5597702Y319481D01*
X5594502Y321614D01*
X5582259Y333806D01*
X5575401Y338988D01*
X5567883Y342747D01*
X5559806Y345033D01*
X5550966Y345846D01*
X4210710Y345846D01*
X4206697Y346659D01*
X4202785Y348335D01*
X4193997Y350367D01*
X4184954Y350774D01*
X4176014Y349554D01*
X4166311Y346354D01*
X4163161Y345846D01*
X3778554Y345795D01*
X3769918Y344576D01*
X3761943Y341934D01*
X3754628Y337870D01*
X3747820Y332181D01*
X3683965Y268325D01*
X3682085Y266852D01*
X3679444Y265684D01*
X3671468Y261416D01*
X3664407Y255778D01*
X3658463Y248970D01*
X3653840Y241198D01*
X3650640Y232714D01*
X3649014Y223824D01*
X3649014Y214782D01*
X3650640Y205892D01*
X3653129Y199237D01*
X3653790Y195681D01*
X3653790Y-725627D01*
X3653129Y-729183D01*
X3650640Y-735838D01*
X3649014Y-744728D01*
X3649014Y-753770D01*
X3650640Y-762660D01*
X3653840Y-771144D01*
X3658463Y-778916D01*
X3664407Y-785723D01*
X3671468Y-791362D01*
X3679444Y-795629D01*
X3688029Y-798423D01*
G37*
G36*
X1603451Y-525018D02*
G01*
X1611122Y-524611D01*
X1618538Y-522681D01*
X1625447Y-519328D01*
X1631543Y-514604D01*
X1636522Y-508812D01*
X1640230Y-502107D01*
X1642567Y-494741D01*
X1643329Y-487121D01*
X1642567Y-479501D01*
X1640230Y-472135D01*
X1636522Y-465429D01*
X1631543Y-459638D01*
X1625447Y-454914D01*
X1618538Y-451561D01*
X1607566Y-448767D01*
X1604518Y-446633D01*
X1467459Y-309575D01*
X1465224Y-306273D01*
X1464462Y-302412D01*
X1464462Y146304D01*
X1465224Y150164D01*
X1467459Y153466D01*
X1470761Y155702D01*
X1474622Y156464D01*
X1604822Y156464D01*
X1611579Y157226D01*
X1617522Y159308D01*
X1622806Y162610D01*
X1627225Y167030D01*
X1630527Y172313D01*
X1632712Y178460D01*
X1634591Y181711D01*
X1636522Y183997D01*
X1640230Y190703D01*
X1642567Y198018D01*
X1643329Y205638D01*
X1642567Y213309D01*
X1640230Y220624D01*
X1636522Y227329D01*
X1631543Y233171D01*
X1625447Y237845D01*
X1618538Y241249D01*
X1611122Y243179D01*
X1603451Y243586D01*
X1595882Y242417D01*
X1588668Y239725D01*
X1582166Y235661D01*
X1576578Y230378D01*
X1572209Y224078D01*
X1569872Y218592D01*
X1567637Y215392D01*
X1564386Y213207D01*
X1560525Y212445D01*
X1288186Y212445D01*
X1281582Y211734D01*
X1274267Y209804D01*
X1265682Y208483D01*
X1258468Y205841D01*
X1251966Y201777D01*
X1246378Y196494D01*
X1242009Y190195D01*
X1238961Y183134D01*
X1237437Y175615D01*
X1237437Y167894D01*
X1238961Y160375D01*
X1242009Y153314D01*
X1246378Y147015D01*
X1251966Y141732D01*
X1258468Y137668D01*
X1265682Y135026D01*
X1273251Y133858D01*
X1280922Y134264D01*
X1288338Y136194D01*
X1295247Y139547D01*
X1301343Y144272D01*
X1306322Y150063D01*
X1309217Y154025D01*
X1312316Y155803D01*
X1315872Y156464D01*
X1398320Y156464D01*
X1402181Y155702D01*
X1405483Y153466D01*
X1407718Y150164D01*
X1408480Y146304D01*
X1408480Y-317906D01*
X1409192Y-324459D01*
X1411274Y-330352D01*
X1414576Y-335635D01*
X1416862Y-338226D01*
X1564944Y-486308D01*
X1566722Y-488645D01*
X1567738Y-491439D01*
X1569161Y-498500D01*
X1572209Y-505561D01*
X1576578Y-511860D01*
X1582166Y-517143D01*
X1588668Y-521208D01*
X1595882Y-523849D01*
G37*
G36*
X1145895Y-285038D02*
G01*
X1154938Y-284632D01*
X1163777Y-282651D01*
X1172108Y-279095D01*
X1179626Y-274116D01*
X1186180Y-267817D01*
X1191514Y-260502D01*
X1195425Y-252374D01*
X1197813Y-243636D01*
X1198626Y-234645D01*
X1197813Y-225653D01*
X1195425Y-216916D01*
X1193952Y-213258D01*
X1193698Y-210972D01*
X1193698Y301091D01*
X1194460Y305003D01*
X1196644Y308305D01*
X1303426Y415035D01*
X1306626Y417220D01*
X1311808Y419404D01*
X1319326Y424383D01*
X1325880Y430682D01*
X1331214Y437997D01*
X1335125Y446125D01*
X1337513Y454863D01*
X1338326Y463854D01*
X1337513Y472846D01*
X1335125Y481584D01*
X1331214Y489712D01*
X1325880Y497027D01*
X1319326Y503326D01*
X1311808Y508304D01*
X1303477Y511860D01*
X1294638Y513842D01*
X1285595Y514248D01*
X1276654Y513029D01*
X1268069Y510235D01*
X1260094Y505968D01*
X1253032Y500329D01*
X1247038Y493522D01*
X1242415Y485749D01*
X1241399Y483006D01*
X1239062Y479399D01*
X1114806Y355041D01*
X1109522Y348081D01*
X1105814Y340563D01*
X1103477Y332486D01*
X1102664Y323697D01*
X1102664Y-211023D01*
X1102055Y-214579D01*
X1099566Y-221234D01*
X1097940Y-230124D01*
X1097940Y-239166D01*
X1099566Y-248056D01*
X1102715Y-256540D01*
X1107338Y-264312D01*
X1113332Y-271119D01*
X1120394Y-276758D01*
X1128369Y-281025D01*
X1136954Y-283819D01*
G37*
G36*
X741476Y-272948D02*
G01*
X749147Y-272542D01*
X756564Y-270611D01*
X763473Y-267258D01*
X769518Y-262534D01*
X774547Y-256743D01*
X778256Y-250037D01*
X780542Y-242671D01*
X781304Y-235051D01*
X780542Y-227431D01*
X778256Y-220065D01*
X774547Y-213360D01*
X772007Y-209499D01*
X771398Y-205943D01*
X771398Y15646D01*
X772007Y19202D01*
X774547Y23063D01*
X778256Y29768D01*
X780542Y37134D01*
X781304Y44754D01*
X780542Y52374D01*
X778256Y59740D01*
X774547Y66446D01*
X769518Y72237D01*
X763473Y76962D01*
X756564Y80314D01*
X749147Y82245D01*
X741476Y82651D01*
X733856Y81483D01*
X726694Y78841D01*
X720140Y74777D01*
X714603Y69494D01*
X710184Y63195D01*
X707186Y56134D01*
X705612Y48615D01*
X705612Y40894D01*
X707186Y33375D01*
X710184Y26314D01*
X713587Y21539D01*
X714908Y18745D01*
X715365Y15697D01*
X715365Y-205994D01*
X714908Y-209042D01*
X713587Y-211836D01*
X710184Y-216611D01*
X707186Y-223672D01*
X705612Y-231190D01*
X705612Y-238912D01*
X707186Y-246430D01*
X710184Y-253492D01*
X714603Y-259791D01*
X720140Y-265074D01*
X726694Y-269138D01*
X733856Y-271780D01*
G37*
G36*
X1978202Y-272542D02*
G01*
X1985873Y-272135D01*
X1993290Y-270205D01*
X2000199Y-266852D01*
X2006295Y-262128D01*
X2011273Y-256336D01*
X2014982Y-249631D01*
X2017318Y-242265D01*
X2017522Y-240080D01*
X2018436Y-236728D01*
X2020468Y-233934D01*
X2039569Y-214833D01*
X2042820Y-212598D01*
X2046732Y-211836D01*
X2160219Y-211836D01*
X2163013Y-212242D01*
X2165604Y-213360D01*
X2172868Y-217932D01*
X2180082Y-220573D01*
X2187651Y-221742D01*
X2195322Y-221335D01*
X2202738Y-219405D01*
X2209647Y-216052D01*
X2215743Y-211328D01*
X2220722Y-205536D01*
X2224430Y-198831D01*
X2226767Y-191465D01*
X2227529Y-183845D01*
X2226767Y-176225D01*
X2224430Y-168859D01*
X2220722Y-162153D01*
X2215743Y-156362D01*
X2209647Y-151638D01*
X2202738Y-148285D01*
X2195322Y-146354D01*
X2187651Y-145948D01*
X2180082Y-147116D01*
X2172868Y-149758D01*
X2165604Y-154330D01*
X2163013Y-155448D01*
X2160219Y-155854D01*
X2031187Y-155854D01*
X2024684Y-156565D01*
X2018792Y-158648D01*
X2013457Y-161950D01*
X2010918Y-164236D01*
X1980844Y-194360D01*
X1978202Y-196240D01*
X1975154Y-197205D01*
X1970633Y-197916D01*
X1963369Y-200558D01*
X1956917Y-204622D01*
X1951329Y-209905D01*
X1946960Y-216204D01*
X1943912Y-223266D01*
X1942388Y-230784D01*
X1942388Y-238506D01*
X1943912Y-246024D01*
X1946960Y-253085D01*
X1951329Y-259384D01*
X1956917Y-264668D01*
X1963369Y-268732D01*
X1970633Y-271373D01*
G37*
G36*
X1978202Y-145542D02*
G01*
X1985873Y-145135D01*
X1993290Y-143205D01*
X2000199Y-139852D01*
X2006295Y-135128D01*
X2011273Y-129336D01*
X2014982Y-122631D01*
X2017318Y-115265D01*
X2018080Y-107645D01*
X2017318Y-100025D01*
X2014982Y-92659D01*
X2011273Y-85953D01*
X2006295Y-80162D01*
X2000199Y-75438D01*
X1993290Y-72085D01*
X1982317Y-69291D01*
X1979269Y-67157D01*
X1886813Y25247D01*
X1881682Y29362D01*
X1876043Y32105D01*
X1869948Y33477D01*
X1866544Y33680D01*
X1697482Y33680D01*
X1693621Y34442D01*
X1690319Y36626D01*
X1688134Y39928D01*
X1687322Y43840D01*
X1688134Y47701D01*
X1690319Y51003D01*
X1940763Y301447D01*
X1944573Y303834D01*
X1949043Y304342D01*
X1960676Y300126D01*
X1968246Y298958D01*
X1975916Y299364D01*
X1983333Y301294D01*
X1990242Y304647D01*
X1996338Y309372D01*
X2001316Y315163D01*
X2005025Y321868D01*
X2007362Y329234D01*
X2008124Y336854D01*
X2007362Y344474D01*
X2005025Y351840D01*
X2001316Y358546D01*
X1996338Y364337D01*
X1990242Y369062D01*
X1983333Y372414D01*
X1975916Y374345D01*
X1968246Y374751D01*
X1960676Y373583D01*
X1953463Y370941D01*
X1946198Y366369D01*
X1943760Y365302D01*
X1941118Y364845D01*
X1933295Y364642D01*
X1927301Y363270D01*
X1921662Y360527D01*
X1916582Y356463D01*
X1606042Y45974D01*
X1603451Y44094D01*
X1600403Y43078D01*
X1595882Y42418D01*
X1588668Y39725D01*
X1582166Y35661D01*
X1576578Y30378D01*
X1572209Y24079D01*
X1569161Y17018D01*
X1567637Y9499D01*
X1567637Y1828D01*
X1569161Y-5689D01*
X1572209Y-12750D01*
X1576578Y-19050D01*
X1582166Y-24333D01*
X1588668Y-28397D01*
X1595882Y-31089D01*
X1603451Y-32258D01*
X1611122Y-31851D01*
X1618538Y-29921D01*
X1625447Y-26517D01*
X1628139Y-24434D01*
X1631086Y-22860D01*
X1634388Y-22301D01*
X1850999Y-22301D01*
X1854911Y-23114D01*
X1858162Y-25298D01*
X1939696Y-106832D01*
X1941474Y-109220D01*
X1942490Y-111963D01*
X1943912Y-119024D01*
X1946960Y-126085D01*
X1951329Y-132384D01*
X1956917Y-137668D01*
X1963369Y-141732D01*
X1970633Y-144373D01*
G37*
G36*
X1982673Y9499D02*
G01*
X1990089Y9499D01*
X1997354Y11023D01*
X2004110Y14071D01*
X2010105Y18440D01*
X2015032Y23926D01*
X2018741Y30327D01*
X2021382Y38557D01*
X2022398Y40741D01*
X2023872Y42672D01*
X2287117Y305866D01*
X2290419Y308102D01*
X2294280Y308864D01*
X2499918Y308864D01*
X2503068Y308356D01*
X2506929Y306171D01*
X2513685Y303123D01*
X2520950Y301599D01*
X2528366Y301599D01*
X2535631Y303123D01*
X2542387Y306171D01*
X2548382Y310540D01*
X2553309Y316026D01*
X2557018Y322427D01*
X2559304Y329488D01*
X2560116Y336854D01*
X2559304Y344220D01*
X2557018Y351282D01*
X2553309Y357682D01*
X2548382Y363169D01*
X2542387Y367538D01*
X2535631Y370586D01*
X2528366Y372110D01*
X2520950Y372110D01*
X2513685Y370586D01*
X2506929Y367538D01*
X2503068Y365353D01*
X2499918Y364845D01*
X2278786Y364845D01*
X2272233Y364134D01*
X2266340Y362051D01*
X2261057Y358749D01*
X2258466Y356463D01*
X1983993Y81940D01*
X1981657Y80213D01*
X1978914Y79197D01*
X1975408Y78486D01*
X1968652Y75438D01*
X1962657Y71069D01*
X1957730Y65582D01*
X1954022Y59182D01*
X1951736Y52120D01*
X1950923Y44754D01*
X1951736Y37388D01*
X1954022Y30327D01*
X1957730Y23926D01*
X1962657Y18440D01*
X1968652Y14071D01*
X1975408Y11023D01*
G37*
G36*
X989330Y273558D02*
G01*
X997000Y273964D01*
X1004417Y275894D01*
X1011326Y279247D01*
X1017422Y283972D01*
X1022400Y289763D01*
X1026109Y296468D01*
X1028446Y303834D01*
X1029208Y311454D01*
X1028446Y319074D01*
X1026109Y326440D01*
X1022400Y333146D01*
X1019860Y337058D01*
X1019251Y340563D01*
X1019251Y667359D01*
X1020267Y672134D01*
X1021029Y679754D01*
X1020267Y687374D01*
X1017930Y694740D01*
X1014221Y701446D01*
X1009243Y707237D01*
X1003147Y711962D01*
X996238Y715314D01*
X988821Y717245D01*
X981151Y717651D01*
X973582Y716483D01*
X966368Y713841D01*
X959866Y709777D01*
X954278Y704494D01*
X949909Y698195D01*
X946861Y691134D01*
X945337Y683615D01*
X945337Y675894D01*
X946861Y668375D01*
X949909Y661314D01*
X954278Y655015D01*
X960069Y649528D01*
X962456Y646176D01*
X963269Y642162D01*
X963269Y340512D01*
X962812Y337464D01*
X961440Y334670D01*
X958087Y329895D01*
X955040Y322834D01*
X953516Y315315D01*
X953516Y307594D01*
X955040Y300075D01*
X958087Y293014D01*
X962456Y286715D01*
X968044Y281432D01*
X974547Y277368D01*
X981760Y274726D01*
G37*
G36*
X2238095Y1428445D02*
G01*
X2247290Y1428851D01*
X2256282Y1430934D01*
X2264765Y1434541D01*
X2272487Y1439621D01*
X2279142Y1446022D01*
X2284577Y1453438D01*
X2288540Y1461770D01*
X2291029Y1470660D01*
X2291842Y1479854D01*
X2291029Y1489049D01*
X2288540Y1497939D01*
X2286152Y1503578D01*
X2285898Y1505813D01*
X2285898Y1758696D01*
X2286863Y1763115D01*
X2288540Y1766570D01*
X2291029Y1775460D01*
X2291842Y1784654D01*
X2291029Y1793849D01*
X2288540Y1802739D01*
X2284577Y1811070D01*
X2279142Y1818487D01*
X2272487Y1824888D01*
X2264765Y1829968D01*
X2256282Y1833575D01*
X2247290Y1835657D01*
X2238095Y1836064D01*
X2228951Y1834845D01*
X2220163Y1831949D01*
X2212035Y1827580D01*
X2204821Y1821840D01*
X2198776Y1814880D01*
X2194001Y1806956D01*
X2190800Y1798320D01*
X2189124Y1789277D01*
X2189124Y1780032D01*
X2190800Y1770989D01*
X2194255Y1761743D01*
X2194864Y1758188D01*
X2194864Y1506321D01*
X2194255Y1502765D01*
X2190800Y1493520D01*
X2189124Y1484477D01*
X2189124Y1475232D01*
X2190800Y1466189D01*
X2194001Y1457502D01*
X2198776Y1449628D01*
X2204821Y1442669D01*
X2212035Y1436928D01*
X2220163Y1432560D01*
X2228951Y1429664D01*
G37*
G36*
X5775502Y1878838D02*
G01*
X5784697Y1879244D01*
X5793740Y1881276D01*
X5802223Y1884934D01*
X5809894Y1890014D01*
X5816549Y1896364D01*
X5821984Y1903831D01*
X5827014Y1914550D01*
X5828588Y1916633D01*
X5893257Y1981352D01*
X5898540Y1988312D01*
X5902248Y1995830D01*
X5904585Y2003907D01*
X5905398Y2012696D01*
X5905347Y2573782D01*
X5904128Y2582468D01*
X5901486Y2590393D01*
X5897372Y2597759D01*
X5891733Y2604566D01*
X5707481Y2788818D01*
X5705906Y2790850D01*
X5700877Y2801670D01*
X5695442Y2809087D01*
X5688787Y2815488D01*
X5681065Y2820568D01*
X5672582Y2824175D01*
X5663590Y2826258D01*
X5654395Y2826664D01*
X5645251Y2825445D01*
X5636463Y2822549D01*
X5628335Y2818180D01*
X5621121Y2812440D01*
X5615076Y2805480D01*
X5610301Y2797556D01*
X5607100Y2788920D01*
X5605424Y2779877D01*
X5605424Y2770632D01*
X5607100Y2761589D01*
X5610555Y2752242D01*
X5611215Y2748381D01*
X5610352Y2744571D01*
X5608116Y2741371D01*
X5604814Y2739237D01*
X5600954Y2738526D01*
X5597144Y2739288D01*
X5593892Y2741472D01*
X5199481Y3135884D01*
X5195620Y3139186D01*
X5190032Y3142386D01*
X5183987Y3144367D01*
X5177078Y3145078D01*
X5013502Y3145078D01*
X5009794Y3145790D01*
X5006594Y3147822D01*
X5004358Y3150819D01*
X5003342Y3154476D01*
X5003088Y3157931D01*
X5001920Y3164128D01*
X4999837Y3170377D01*
X4997094Y3175863D01*
X4993386Y3181248D01*
X4989271Y3185769D01*
X4984191Y3189986D01*
X4979009Y3193186D01*
X4972964Y3195878D01*
X4967122Y3197555D01*
X4960518Y3198469D01*
X4946853Y3198622D01*
X4942992Y3199384D01*
X4939741Y3201568D01*
X4838496Y3302863D01*
X4833366Y3306927D01*
X4827727Y3309670D01*
X4821631Y3311042D01*
X4818176Y3311245D01*
X2721660Y3311245D01*
X2715158Y3310534D01*
X2709265Y3308451D01*
X2703931Y3305149D01*
X2701391Y3302863D01*
X2672486Y3273958D01*
X2669235Y3271774D01*
X2665323Y3271012D01*
X2563723Y3271012D01*
X2558592Y3270402D01*
X2554274Y3268929D01*
X2550414Y3266490D01*
X2547162Y3263239D01*
X2544775Y3259378D01*
X2543251Y3255060D01*
X2542641Y3249930D01*
X2542641Y3113379D01*
X2543251Y3108248D01*
X2544775Y3103930D01*
X2547162Y3100070D01*
X2550414Y3096818D01*
X2554274Y3094380D01*
X2558592Y3092907D01*
X2563723Y3092297D01*
X2675839Y3092297D01*
X2680919Y3092907D01*
X2685288Y3094380D01*
X2689148Y3096818D01*
X2692400Y3100070D01*
X2694838Y3103930D01*
X2696311Y3108248D01*
X2696921Y3113379D01*
X2696921Y3214979D01*
X2697683Y3218891D01*
X2699867Y3222142D01*
X2729992Y3252266D01*
X2733294Y3254502D01*
X2737205Y3255264D01*
X4802682Y3255264D01*
X4806543Y3254502D01*
X4809845Y3252266D01*
X4846218Y3215944D01*
X4848402Y3212642D01*
X4849164Y3208782D01*
X4848402Y3204870D01*
X4846218Y3201568D01*
X4842916Y3199384D01*
X4839004Y3198622D01*
X4815027Y3198622D01*
X4807356Y3197961D01*
X4800955Y3196488D01*
X4795266Y3194253D01*
X4789474Y3191052D01*
X4784648Y3187395D01*
X4779975Y3182721D01*
X4776266Y3177844D01*
X4773066Y3172053D01*
X4770882Y3166364D01*
X4769358Y3159912D01*
X4768748Y3154222D01*
X4767732Y3150666D01*
X4765497Y3147720D01*
X4762296Y3145790D01*
X4758639Y3145078D01*
X4582668Y3145078D01*
X4578756Y3145891D01*
X4575454Y3148076D01*
X4573219Y3151378D01*
X4572508Y3155238D01*
X4572508Y3187547D01*
X4571898Y3192678D01*
X4570425Y3196996D01*
X4567986Y3200857D01*
X4564735Y3204108D01*
X4560874Y3206546D01*
X4556556Y3208070D01*
X4551426Y3208629D01*
X4452569Y3208629D01*
X4447438Y3208070D01*
X4443120Y3206546D01*
X4439259Y3204108D01*
X4436008Y3200857D01*
X4433519Y3196996D01*
X4432096Y3192678D01*
X4431487Y3187547D01*
X4431487Y3048762D01*
X4432096Y3043631D01*
X4433519Y3039313D01*
X4436008Y3035452D01*
X4439259Y3032201D01*
X4443120Y3029762D01*
X4447438Y3028238D01*
X4452569Y3027680D01*
X4551426Y3027680D01*
X4556556Y3028238D01*
X4560874Y3029762D01*
X4564735Y3032201D01*
X4567986Y3035452D01*
X4570425Y3039313D01*
X4571898Y3043631D01*
X4572508Y3048762D01*
X4572508Y3073958D01*
X4573219Y3077819D01*
X4575454Y3081121D01*
X4578756Y3083356D01*
X4582668Y3084118D01*
X4758588Y3084118D01*
X4762347Y3083356D01*
X4765598Y3081274D01*
X4767834Y3078124D01*
X4768748Y3074365D01*
X4769002Y3067100D01*
X4770272Y3062173D01*
X4772710Y3056229D01*
X4775657Y3051098D01*
X4779568Y3046018D01*
X4783836Y3041802D01*
X4788966Y3037992D01*
X4794148Y3035046D01*
X4800142Y3032709D01*
X4805934Y3031337D01*
X4812487Y3030626D01*
X4852162Y3030626D01*
X4857242Y3031185D01*
X4861509Y3032658D01*
X4869129Y3037840D01*
X4872583Y3038754D01*
X4876139Y3038348D01*
X4879340Y3036773D01*
X4884064Y3033268D01*
X4888890Y3031337D01*
X4894681Y3030626D01*
X4957114Y3030626D01*
X4964836Y3031236D01*
X4971186Y3032709D01*
X4976876Y3034944D01*
X4982667Y3038144D01*
X4987493Y3041802D01*
X4992166Y3046476D01*
X4995875Y3051352D01*
X4999075Y3057144D01*
X5001260Y3062833D01*
X5002784Y3069285D01*
X5003393Y3074974D01*
X5004409Y3078530D01*
X5006644Y3081477D01*
X5009845Y3083407D01*
X5013502Y3084118D01*
X5160772Y3084118D01*
X5164683Y3083306D01*
X5167985Y3081121D01*
X5722416Y2526690D01*
X5723890Y2524810D01*
X5725922Y2519527D01*
X5729630Y2513126D01*
X5734558Y2507640D01*
X5740552Y2503271D01*
X5747308Y2500223D01*
X5754573Y2498699D01*
X5761990Y2498699D01*
X5769254Y2500223D01*
X5776010Y2503271D01*
X5782005Y2507640D01*
X5786932Y2513126D01*
X5790641Y2519527D01*
X5792927Y2526588D01*
X5793740Y2533954D01*
X5792927Y2541320D01*
X5788914Y2553055D01*
X5789320Y2557170D01*
X5791352Y2560828D01*
X5794603Y2563368D01*
X5798667Y2564333D01*
X5802731Y2563672D01*
X5806236Y2561386D01*
X5811418Y2556205D01*
X5813602Y2552903D01*
X5814364Y2548991D01*
X5814364Y2035302D01*
X5813602Y2031390D01*
X5811418Y2028088D01*
X5764123Y1980844D01*
X5762244Y1979371D01*
X5757570Y1977542D01*
X5749442Y1973173D01*
X5742228Y1967433D01*
X5736183Y1960473D01*
X5731459Y1952548D01*
X5728208Y1943912D01*
X5726582Y1934819D01*
X5726582Y1925624D01*
X5728208Y1916531D01*
X5731459Y1907895D01*
X5736183Y1899970D01*
X5742228Y1893011D01*
X5749442Y1887270D01*
X5757570Y1882902D01*
X5766358Y1880057D01*
G37*
G36*
X5807659Y2845460D02*
G01*
X5828284Y2845968D01*
X5848858Y2848356D01*
X5869025Y2852724D01*
X5888786Y2858922D01*
X5907836Y2866948D01*
X5926023Y2876702D01*
X5943244Y2888132D01*
X5959297Y2901137D01*
X5974130Y2915564D01*
X5987491Y2931312D01*
X5999327Y2948279D01*
X6009487Y2966262D01*
X6017971Y2985109D01*
X6024626Y3004667D01*
X6029452Y3024784D01*
X6032347Y3045256D01*
X6033312Y3065881D01*
X6032347Y3086557D01*
X6029452Y3107029D01*
X6024626Y3127095D01*
X6017971Y3146653D01*
X6009487Y3165551D01*
X5999327Y3183534D01*
X5987491Y3200450D01*
X5974130Y3216198D01*
X5959297Y3230676D01*
X5943244Y3243681D01*
X5926023Y3255111D01*
X5907836Y3264865D01*
X5888786Y3272891D01*
X5869025Y3279089D01*
X5848858Y3283407D01*
X5828284Y3285845D01*
X5807659Y3286302D01*
X5787034Y3284880D01*
X5766612Y3281476D01*
X5746648Y3276193D01*
X5727242Y3269081D01*
X5708599Y3260191D01*
X5690819Y3249574D01*
X5674207Y3237331D01*
X5658764Y3223615D01*
X5644642Y3208477D01*
X5632043Y3192119D01*
X5620969Y3174644D01*
X5611672Y3156204D01*
X5604103Y3136950D01*
X5598363Y3117138D01*
X5594502Y3096818D01*
X5592572Y3076244D01*
X5592572Y3055569D01*
X5594502Y3034995D01*
X5598363Y3014675D01*
X5604103Y2994812D01*
X5611672Y2975610D01*
X5620969Y2957169D01*
X5632043Y2939643D01*
X5644642Y2923286D01*
X5658764Y2908147D01*
X5674207Y2894431D01*
X5690819Y2882188D01*
X5708599Y2871571D01*
X5727242Y2862681D01*
X5746648Y2855569D01*
X5766612Y2850286D01*
X5787034Y2846933D01*
G37*
G36*
X4242511Y3027680D02*
G01*
X4341368Y3027680D01*
X4346498Y3028238D01*
X4350816Y3029762D01*
X4354677Y3032201D01*
X4357928Y3035452D01*
X4360367Y3039313D01*
X4361840Y3043631D01*
X4362450Y3048762D01*
X4362450Y3187547D01*
X4361840Y3192678D01*
X4360367Y3196996D01*
X4357928Y3200857D01*
X4354677Y3204108D01*
X4350816Y3206546D01*
X4346498Y3208070D01*
X4341368Y3208629D01*
X4242511Y3208629D01*
X4237380Y3208070D01*
X4233062Y3206546D01*
X4229201Y3204108D01*
X4225950Y3200857D01*
X4223512Y3196996D01*
X4222038Y3192678D01*
X4221429Y3187547D01*
X4221429Y3158794D01*
X4220667Y3154934D01*
X4218482Y3151632D01*
X4215180Y3149447D01*
X4211269Y3148634D01*
X3989781Y3148634D01*
X3985869Y3149447D01*
X3982567Y3151632D01*
X3980383Y3154934D01*
X3979621Y3158794D01*
X3979621Y3186430D01*
X3979011Y3191560D01*
X3977538Y3195878D01*
X3975100Y3199739D01*
X3971848Y3202990D01*
X3967987Y3205429D01*
X3963619Y3206902D01*
X3958539Y3207512D01*
X3846423Y3207512D01*
X3841292Y3206902D01*
X3836974Y3205429D01*
X3833114Y3202990D01*
X3829862Y3199739D01*
X3827475Y3195878D01*
X3825951Y3191560D01*
X3825341Y3186430D01*
X3825341Y3049879D01*
X3825951Y3044748D01*
X3827475Y3040430D01*
X3829862Y3036570D01*
X3833114Y3033318D01*
X3836974Y3030880D01*
X3841292Y3029407D01*
X3846423Y3028797D01*
X3958539Y3028797D01*
X3963619Y3029407D01*
X3967987Y3030880D01*
X3971848Y3033318D01*
X3975100Y3036570D01*
X3977538Y3040430D01*
X3979011Y3044748D01*
X3979621Y3049879D01*
X3979621Y3077514D01*
X3980383Y3081375D01*
X3982567Y3084677D01*
X3985869Y3086862D01*
X3989781Y3087674D01*
X4211269Y3087674D01*
X4215180Y3086862D01*
X4218482Y3084677D01*
X4220667Y3081375D01*
X4221429Y3077514D01*
X4221429Y3048762D01*
X4222038Y3043631D01*
X4223512Y3039313D01*
X4225950Y3035452D01*
X4229201Y3032201D01*
X4233062Y3029762D01*
X4237380Y3028238D01*
G37*

%LPD*%
D10*
X-642543Y3168954D02*
G01*
X-579043Y3105454D01*
X-579043Y590854D01*
X-147243Y159054D01*
X1218031Y2924048D02*
G01*
X2018030Y2924048D01*
X-102742Y2924048D02*
G01*
X697230Y2924048D01*
D11*
X2722956Y2624665D02*
G01*
X2746545Y2648254D01*
X2989351Y2648254D01*
D10*
X1338656Y-2158552D02*
G01*
X957656Y-2539552D01*
X957656Y-2749245D01*
X-106044Y-569958D02*
G01*
X1247089Y-1923092D01*
X1247089Y-2126952D01*
X1278686Y-2158550D01*
X1428165Y-2158550D01*
X1485747Y-1928327D02*
G01*
X1338656Y-2075418D01*
X1338656Y-2101545D01*
D11*
X1287856Y463854D02*
G01*
X1148156Y324154D01*
X1148156Y-234645D01*
D10*
X1275156Y171754D02*
G01*
X1287856Y184454D01*
X1605356Y184454D01*
X1605356Y205790D01*
X1986356Y44754D02*
G01*
X2278456Y336854D01*
X2524620Y336854D01*
X-1150543Y1594154D02*
G01*
X-642543Y2102154D01*
X-642543Y2216454D01*
X68656Y-1555445D02*
G01*
X170256Y-1453845D01*
X487756Y-1453845D01*
X1436446Y184454D02*
G01*
X1436446Y-318211D01*
X1605356Y-487121D01*
X2619756Y3181654D02*
G01*
X2721356Y3283254D01*
X4818456Y3283254D01*
X4938435Y3163275D01*
X4938435Y3114603D01*
X-32943Y247954D02*
G01*
X106756Y247954D01*
X-515543Y387654D02*
G01*
X-629843Y273354D01*
X-629843Y235254D01*
X-1442643Y1073454D02*
G01*
X-1302943Y1073454D01*
X-439343Y717854D02*
G01*
X-540943Y819454D01*
X-540943Y1073454D01*
X-279400Y38100D02*
G01*
X-439343Y198043D01*
X-439343Y336854D01*
X983056Y679754D02*
G01*
X991229Y671581D01*
X991229Y311454D01*
X1980100Y-234645D02*
G01*
X2030900Y-183845D01*
X2189556Y-183845D01*
X1605356Y5674D02*
G01*
X1936536Y336854D01*
X1970138Y336854D01*
X1980100Y-107645D02*
G01*
X1866780Y5674D01*
X1605356Y5674D01*
X-236143Y-590245D02*
G01*
X-83743Y-742645D01*
X5156Y-742645D01*
X894156Y-1631645D01*
X3319856Y-1415745D02*
G01*
X2761223Y-1415745D01*
X1727865Y-2449101D01*
X-1552168Y2903009D02*
G01*
X-1552168Y2816623D01*
X-1552168Y2406947D02*
G01*
X-1552168Y1452948D01*
X-670128Y570908D01*
X-670128Y-120251D01*
X1287856Y-2088845D02*
G01*
X1287856Y-1675823D01*
X1282573Y-1670540D01*
X1282573Y-1670540D02*
G01*
X1321465Y-1631645D01*
X1325956Y-1631645D01*
X1325956Y-1631645D02*
G01*
X1325956Y-1627154D01*
X1505356Y-1447756D01*
X1428165Y-2158550D02*
G01*
X1439570Y-2147145D01*
X1439570Y-2035487D01*
D11*
X5578932Y272846D02*
G01*
X5551424Y300355D01*
X4187190Y300355D01*
X3699256Y-939241D02*
G01*
X3992956Y-645540D01*
X3992956Y-209245D01*
X3699256Y-749249D02*
G01*
X3699253Y219308D01*
X3699253Y219308D02*
G01*
X3780299Y300355D01*
X4187190Y300355D01*
D12*
X6113632Y314680D02*
G01*
X6113856Y314901D01*
X6113856Y451154D01*
X6113635Y-789040D02*
G01*
X6113635Y-214325D01*
X6113635Y-214325D02*
G01*
X6113635Y48564D01*
X6113856Y451154D02*
G01*
X6113856Y577349D01*
X6113632Y577573D01*
X6113635Y577570D02*
G01*
X6113635Y1120937D01*
D13*
X5758256Y2533954D02*
G01*
X5177609Y3114601D01*
X4938435Y3114601D01*
X4501969Y3118154D02*
G01*
X4505520Y3114603D01*
X4836835Y3114603D01*
X3902456Y3118154D02*
G01*
X4291911Y3118154D01*
D10*
X743356Y-235049D02*
G01*
X743356Y44754D01*
X-76200Y38100D02*
G01*
X-76200Y372582D01*
X-283372Y579755D01*
X-45643Y-831545D02*
G01*
X-871143Y-831545D01*
X-1150543Y-552145D01*
D13*
X895756Y3168954D02*
G01*
X697230Y2970428D01*
X697230Y2911348D01*
X2018030Y2936748D02*
G01*
X2262936Y3181654D01*
X2419756Y3181654D01*
D11*
X2240356Y1784654D02*
G01*
X2240356Y1479854D01*
X6113627Y1120952D02*
G01*
X5932525Y1302054D01*
X5161356Y1302054D01*
X4326257Y466956D01*
X3983357Y466956D01*
X5656656Y2775254D02*
G01*
X5859856Y2572054D01*
X5859856Y2012238D01*
X5777814Y1930196D01*
X2594356Y2775254D02*
G01*
X2722956Y2646654D01*
X2722956Y1378254D01*
X3634254Y466956D01*
X3983357Y466956D01*
D10*
X2443556Y-2736545D02*
G01*
X2443556Y-2067798D01*
X2863039Y-1648315D01*
X2406472Y-2771343D02*
G01*
X2443556Y-2736545D01*
D11*
X2394356Y2775254D02*
G01*
X2394356Y2446655D01*
X1833956Y1886254D01*
X1833956Y1378254D01*
D10*
X451180Y3168954D02*
G01*
X311480Y3029254D01*
X-449503Y3029254D01*
X-449503Y2903016D01*
X651256Y3168954D02*
G01*
X895756Y3168954D01*
X651256Y3168954D02*
G01*
X651256Y2936722D01*
X1630756Y2660954D02*
G01*
X132156Y1162354D01*
X132156Y463854D01*
X119456Y451154D01*
X-45643Y451154D01*
X1629156Y3168954D02*
G01*
X1624444Y3164243D01*
X1630756Y2660954D01*
X-261543Y184454D02*
G01*
X-261543Y235254D01*
X-1426390Y1400101D01*
X-1426390Y2771701D01*
X-1455343Y2800654D01*
X-1455343Y3003854D01*
X-1417243Y3041954D01*
X-1023543Y3041954D01*
X-896543Y3168954D01*
X-1861743Y1721154D02*
G01*
X-769543Y628949D01*
X-769543Y70154D01*
X-449534Y2903009D02*
G01*
X-449536Y2406954D01*
X-642543Y2216454D02*
G01*
X-769543Y2343454D01*
X-769543Y2406954D01*
X-769543Y2903016D02*
G01*
X-769543Y2406954D01*
X-1352168Y2903016D02*
G01*
X-979601Y2903016D01*
X-1352168Y2406954D02*
G01*
X-979601Y2406954D01*
X-540943Y1073454D02*
G01*
X-274243Y1340154D01*
X-274243Y2508554D01*
X-102793Y2680004D01*
X-102793Y2911398D01*
D12*
X6113635Y48564D02*
G01*
X6113635Y314680D01*
D10*
X-1552117Y2816656D02*
G01*
X-1807641Y2816656D01*
X-2318943Y2305354D01*
X-2318943Y1556054D01*
X-2293543Y1530654D01*
X-1798243Y1530654D01*
X-1760143Y1492554D01*
X-1760143Y934516D01*
X-750493Y-75133D01*
X-722045Y-75133D01*
X-2191943Y1987854D02*
G01*
X-2128443Y1987854D01*
X-1861743Y1721154D01*
X-172643Y1009954D02*
G01*
X-172643Y895654D01*
X-109143Y679754D01*
X68656Y679754D01*
X1705432Y-1445971D02*
G01*
X1689176Y-1445971D01*
X1689176Y-1866849D01*
X1727276Y-1904949D01*
D11*
X5732856Y-717245D02*
G01*
X5732856Y-1961845D01*
X5440756Y-2253945D01*
X5046764Y-2253945D01*
X4767364Y-2533345D01*
D14*
G01*
X2018030Y2924048D03*
G01*
X2018030Y2474061D03*
G01*
X1218031Y2474061D03*
G01*
X1218031Y2924048D03*
D15*
G01*
X-2057347Y-789045D03*
G01*
X6113635Y-789045D03*
G01*
X-2057347Y1120950D03*
G01*
X6113635Y1120950D03*
D16*
G01*
X1095758Y3168954D03*
G01*
X895753Y3168954D03*
D17*
G01*
X1429153Y3168954D03*
G01*
X1629158Y3168954D03*
D18*
G01*
X-979601Y2903016D03*
D20*
G01*
X-769548Y2903009D03*
D18*
G01*
X4291914Y3118154D03*
D20*
G01*
X4501969Y3118154D03*
D18*
G01*
X-979601Y2406954D03*
D20*
G01*
X-769551Y2406954D03*
D14*
G01*
X697242Y2924048D03*
G01*
X697242Y2474061D03*
G01*
X-102755Y2474061D03*
G01*
X-102755Y2924048D03*
G36*
X4884460Y3114603D02*
G01*
X4852710Y3178103D01*
X4852710Y3178103D01*
X4814610Y3178103D01*
X4814610Y3178103D01*
X4814610Y3178103D01*
X4814610Y3178103D01*
X4814610Y3178103D01*
X4814610Y3178103D01*
X4812266Y3177994D01*
X4812266Y3177994D01*
X4809944Y3177672D01*
X4809944Y3177672D01*
X4807658Y3177133D01*
X4807658Y3177133D01*
X4805436Y3176389D01*
X4805436Y3176389D01*
X4803289Y3175441D01*
X4803289Y3175441D01*
X4801240Y3174298D01*
X4801240Y3174298D01*
X4799304Y3172973D01*
X4799304Y3172973D01*
X4797498Y3171474D01*
X4797498Y3171474D01*
X4795840Y3169815D01*
X4795840Y3169815D01*
X4794341Y3168009D01*
X4794341Y3168009D01*
X4793015Y3166074D01*
X4793015Y3166074D01*
X4791872Y3164024D01*
X4791872Y3164024D01*
X4790925Y3161878D01*
X4790925Y3161878D01*
X4790180Y3159655D01*
X4790180Y3159655D01*
X4789642Y3157369D01*
X4789642Y3157369D01*
X4789319Y3155048D01*
X4789319Y3155048D01*
X4789210Y3152703D01*
X4789210Y3152703D01*
X4789210Y3070153D01*
X4789210Y3070153D01*
X4789878Y3067969D01*
X4789878Y3067969D01*
X4790742Y3065851D01*
X4790742Y3065851D01*
X4791793Y3063821D01*
X4791793Y3063821D01*
X4793020Y3061893D01*
X4793020Y3061893D01*
X4794417Y3060085D01*
X4794417Y3060085D01*
X4795969Y3058408D01*
X4795969Y3058408D01*
X4797668Y3056877D01*
X4797668Y3056877D01*
X4799497Y3055505D01*
X4799497Y3055505D01*
X4801440Y3054304D01*
X4801440Y3054304D01*
X4803485Y3053283D01*
X4803485Y3053283D01*
X4805613Y3052450D01*
X4805613Y3052450D01*
X4807808Y3051810D01*
X4807808Y3051810D01*
X4810051Y3051370D01*
X4810051Y3051370D01*
X4812324Y3051134D01*
X4812324Y3051134D01*
X4814610Y3051103D01*
X4814610Y3051103D01*
X4852710Y3051103D01*
X4852710Y3051103D01*
X4884460Y3114603D01*
G37*
G36*
X4893985Y3178103D02*
G01*
X4957485Y3178103D01*
X4957485Y3178103D01*
X4959830Y3177994D01*
X4959830Y3177994D01*
X4962151Y3177672D01*
X4962151Y3177672D01*
X4964437Y3177133D01*
X4964437Y3177133D01*
X4966660Y3176389D01*
X4966660Y3176389D01*
X4968806Y3175441D01*
X4968806Y3175441D01*
X4970856Y3174298D01*
X4970856Y3174298D01*
X4972791Y3172973D01*
X4972791Y3172973D01*
X4974597Y3171474D01*
X4974597Y3171474D01*
X4976256Y3169815D01*
X4976256Y3169815D01*
X4977754Y3168009D01*
X4977754Y3168009D01*
X4979080Y3166074D01*
X4979080Y3166074D01*
X4980223Y3164024D01*
X4980223Y3164024D01*
X4981171Y3161878D01*
X4981171Y3161878D01*
X4981915Y3159655D01*
X4981915Y3159655D01*
X4982453Y3157369D01*
X4982453Y3157369D01*
X4982776Y3155048D01*
X4982776Y3155048D01*
X4982885Y3152703D01*
X4982885Y3152703D01*
X4982885Y3076503D01*
X4982885Y3076503D01*
X4982776Y3074159D01*
X4982776Y3074159D01*
X4982453Y3071837D01*
X4982453Y3071837D01*
X4981915Y3069551D01*
X4981915Y3069551D01*
X4981171Y3067329D01*
X4981171Y3067329D01*
X4980223Y3065183D01*
X4980223Y3065183D01*
X4979080Y3063133D01*
X4979080Y3063133D01*
X4977754Y3061197D01*
X4977754Y3061197D01*
X4976256Y3059391D01*
X4976256Y3059391D01*
X4974597Y3057733D01*
X4974597Y3057733D01*
X4972791Y3056234D01*
X4972791Y3056234D01*
X4970856Y3054908D01*
X4970856Y3054908D01*
X4968806Y3053765D01*
X4968806Y3053765D01*
X4966660Y3052818D01*
X4966660Y3052818D01*
X4964437Y3052074D01*
X4964437Y3052074D01*
X4962151Y3051535D01*
X4962151Y3051535D01*
X4959830Y3051213D01*
X4959830Y3051213D01*
X4957485Y3051103D01*
X4957485Y3051103D01*
X4893985Y3051103D01*
X4893985Y3051103D01*
X4925735Y3114603D01*
X4925735Y3114603D01*
X4893985Y3178103D01*
G37*
D21*
G01*
X451251Y3168954D03*
G01*
X651261Y3168954D03*
D22*
G01*
X3902461Y3118154D03*
G01*
X3702451Y3118154D03*
G01*
X-1352163Y2406954D03*
G01*
X-1552173Y2406954D03*
G01*
X-1352161Y2903009D03*
G01*
X-1552171Y2903009D03*
G01*
X2619761Y3181654D03*
G01*
X2419751Y3181654D03*
D23*
G01*
X5301345Y-2533340D03*
G01*
X4767351Y-2533340D03*
G01*
X3523353Y2648254D03*
G01*
X2989359Y2648254D03*
D24*
G01*
X119456Y3168954D03*
G01*
X-134543Y3168954D03*
G01*
X-388543Y3168954D03*
G01*
X-642543Y3168954D03*
G01*
X-896543Y3168954D03*
D25*
G01*
X-1150543Y3168954D03*
D26*
G01*
X1044956Y2762554D03*
D27*
G01*
X844956Y2762554D03*
D26*
G01*
X2619756Y2762554D03*
D27*
G01*
X2419756Y2762554D03*
D28*
G01*
X-1912543Y2241854D03*
G01*
X-1912543Y2495854D03*
G01*
X-2191943Y2241854D03*
G01*
X-2191943Y1987854D03*
D29*
G01*
X-2191943Y1733854D03*
D30*
G01*
X-1150543Y-552145D03*
G01*
X-45643Y-831545D03*
D31*
G01*
X-76200Y38100D03*
D32*
G01*
X-283362Y579755D03*
G01*
X743356Y44754D03*
G01*
X743356Y-235051D03*
D31*
G01*
X-275005Y-136499D03*
G01*
X-275005Y-72999D03*
G01*
X-215747Y-267741D03*
G01*
X-211505Y-326999D03*
G01*
X-402005Y-136499D03*
G01*
X-402005Y-199999D03*
G01*
X-341299Y-200101D03*
G01*
X-338505Y-136499D03*
G01*
X-338505Y-72999D03*
G01*
X-211505Y-72999D03*
G01*
X-211505Y-136499D03*
G01*
X-211505Y-199999D03*
G01*
X-148005Y-199999D03*
G01*
X-148005Y-136499D03*
G01*
X-148005Y-263499D03*
G01*
X-338505Y-326999D03*
G01*
X-338505Y-263499D03*
G01*
X-403351Y-262153D03*
G01*
X-275005Y-263499D03*
G01*
X-275005Y-326999D03*
G01*
X-402005Y-326999D03*
G01*
X-152247Y-331241D03*
G01*
X-148005Y-72999D03*
G01*
X-402005Y-72999D03*
G01*
X-275005Y-200101D03*
G01*
X-1609343Y2768650D03*
G01*
X-875664Y2660954D03*
G01*
X5758256Y2533954D03*
G01*
X4767935Y1238529D03*
G01*
X5378856Y1099286D03*
G01*
X6113627Y577570D03*
G01*
X6113856Y451154D03*
G01*
X6113627Y314680D03*
G01*
X6113627Y185039D03*
G01*
X6113627Y48564D03*
G01*
X6113627Y-77851D03*
G01*
X6113627Y-214325D03*
D33*
G01*
X6113627Y1120927D03*
G01*
X3699256Y219303D03*
G01*
X4187190Y300355D03*
G01*
X3699256Y-749249D03*
G01*
X3992956Y-209245D03*
G01*
X3699256Y-939241D03*
G01*
X5578932Y272846D03*
G01*
X3699256Y1276654D03*
G01*
X3499256Y481965D03*
G01*
X3499256Y219303D03*
G01*
X3499256Y-43357D03*
G01*
X4352188Y-387045D03*
G01*
X4958156Y209854D03*
D31*
G01*
X1338656Y-2101545D03*
D32*
G01*
X1485747Y-1928317D03*
D31*
G01*
X-106044Y-569950D03*
D32*
G01*
X1439570Y-2035479D03*
D31*
G01*
X-236143Y-590245D03*
D32*
G01*
X1505356Y-1447749D03*
D31*
G01*
X1287856Y-2088845D03*
D32*
G01*
X-670128Y-120243D03*
G01*
X-722020Y-75006D03*
G01*
X-147243Y159054D03*
G01*
X-261543Y184454D03*
D31*
G01*
X-769543Y70154D03*
G01*
X2406573Y-2771470D03*
D32*
G01*
X2863037Y-1648307D03*
G01*
X1705356Y-1445971D03*
G01*
X1727200Y-1905000D03*
D31*
G01*
X1727860Y-2449093D03*
G01*
X3319856Y-1415745D03*
G01*
X-883843Y-439953D03*
G01*
X-892352Y-1002842D03*
G01*
X-1002334Y-1142847D03*
G01*
X-1491843Y-552145D03*
G01*
X-1491843Y-806145D03*
G01*
X-1353743Y-1312544D03*
G01*
X-1034643Y-1390345D03*
G01*
X-591743Y-1172844D03*
D32*
G01*
X-312343Y-1160144D03*
G01*
X-45643Y-1160144D03*
D31*
G01*
X-1722043Y-99948D03*
G01*
X-1442643Y-159943D03*
G01*
X-1466443Y247954D03*
G01*
X-1163243Y779754D03*
D32*
G01*
X-283362Y779754D03*
G01*
X-1777Y779754D03*
G01*
X279806Y779754D03*
G01*
X561416Y779754D03*
G01*
X1484706Y-1847545D03*
G01*
X2994863Y-1546148D03*
G01*
X2672156Y-1119123D03*
G01*
X943356Y44754D03*
G01*
X2521127Y-361645D03*
G01*
X2869692Y-296544D03*
G01*
X1980107Y-361645D03*
G01*
X1605356Y-287045D03*
D31*
G01*
X5958255Y2533954D03*
D32*
G01*
X944956Y-1466545D03*
G01*
X894156Y-1631645D03*
G01*
X1325956Y-1631645D03*
G01*
X1970151Y590854D03*
G01*
X1605356Y5664D03*
G01*
X1980107Y-107645D03*
G01*
X1970151Y336854D03*
G01*
X1980107Y-234645D03*
G01*
X2189556Y-183845D03*
G01*
X983056Y679754D03*
G01*
X991235Y311454D03*
D31*
G01*
X-172643Y1009954D03*
G01*
X-279400Y38100D03*
D32*
G01*
X-439343Y336854D03*
G01*
X-439343Y717854D03*
D31*
G01*
X-540943Y1073454D03*
G01*
X-1442643Y1073454D03*
G01*
X-1302943Y1073454D03*
D32*
G01*
X-45643Y451154D03*
G01*
X-629843Y235254D03*
G01*
X-515543Y387654D03*
G01*
X-32943Y247954D03*
G01*
X106756Y247954D03*
G01*
X1605356Y205663D03*
G01*
X1605356Y-487121D03*
G01*
X487756Y-1453845D03*
G01*
X68656Y-1555445D03*
D31*
G01*
X-1150543Y1594154D03*
G01*
X-769543Y2406954D03*
G01*
X-642543Y2216454D03*
G01*
X1986356Y44754D03*
G01*
X2524633Y336854D03*
G01*
X2619756Y3181654D03*
D33*
G01*
X1833956Y1378254D03*
D32*
G01*
X1275156Y171754D03*
D33*
G01*
X1287856Y463854D03*
G01*
X1148156Y-234645D03*
D31*
G01*
X-1175943Y-425145D03*
G01*
X-1239443Y-425145D03*
G01*
X-1302943Y-425145D03*
G01*
X-1366443Y-425145D03*
G01*
X-1429943Y-425145D03*
G01*
X-1493443Y-425145D03*
G01*
X-1556943Y-425145D03*
G01*
X-909243Y-183845D03*
G01*
X-972743Y-183845D03*
G01*
X-1036243Y-183845D03*
G01*
X-1099743Y-183845D03*
G01*
X-1163243Y-183845D03*
G01*
X-1226743Y-183845D03*
G01*
X-1290243Y-183845D03*
G01*
X-1607743Y-183845D03*
G01*
X-1544243Y-183845D03*
G01*
X-1112443Y-425145D03*
G01*
X-1048943Y-425145D03*
G01*
X-1683943Y-425145D03*
G01*
X-1620443Y-425145D03*
G01*
X-1747443Y-425145D03*
G01*
X-1810943Y-425145D03*
G01*
X-1658543Y-183845D03*
G01*
X-1722043Y-183845D03*
G01*
X-1849043Y-183845D03*
G01*
X-1785543Y-183845D03*
G01*
X-1963343Y-183845D03*
G01*
X-1899843Y-183845D03*
G01*
X-1874443Y-425145D03*
G01*
X-1937943Y-425145D03*
D34*
G01*
X4373956Y2191054D03*
G01*
X4373956Y2445054D03*
G01*
X4119956Y2191054D03*
G01*
X4119956Y2445054D03*
G01*
X4246956Y2191054D03*
G01*
X4246956Y2445054D03*
G01*
X3992956Y2191054D03*
G01*
X3992956Y2445054D03*
G01*
X4373956Y2318054D03*
G01*
X4373956Y2572054D03*
G01*
X4119956Y2318054D03*
G01*
X4119956Y2572054D03*
G01*
X4246956Y2318054D03*
G01*
X4246956Y2572054D03*
G01*
X3992956Y2318054D03*
G01*
X3992956Y2572054D03*
G01*
X4183456Y2254554D03*
G01*
X4183456Y2508554D03*
G01*
X4437456Y2508554D03*
G01*
X4437456Y2254554D03*
G01*
X3929456Y2254554D03*
G01*
X3929456Y2508554D03*
G01*
X4056456Y2381554D03*
G01*
X4056456Y2635554D03*
G01*
X4310456Y2635554D03*
G01*
X4310456Y2381554D03*
G01*
X4310456Y2127554D03*
G01*
X4056456Y2127554D03*
G01*
X4310456Y2254554D03*
G01*
X4310456Y2508554D03*
G01*
X4056456Y2254554D03*
G01*
X4056456Y2508554D03*
G01*
X3929456Y2127554D03*
G01*
X3929456Y2635554D03*
G01*
X3929456Y2381554D03*
G01*
X4183456Y2127554D03*
G01*
X4437456Y2127554D03*
G01*
X4437456Y2381554D03*
G01*
X4437456Y2635554D03*
G01*
X4183456Y2635554D03*
G01*
X4183456Y2381554D03*
D30*
G01*
X3983355Y466953D03*
G01*
X2240356Y1784654D03*
G01*
X2240356Y1479854D03*
G01*
X5656656Y2775254D03*
G01*
X5777788Y1930222D03*
D34*
G01*
X-2293467Y-509600D03*
D31*
G01*
X957656Y-2749245D03*
G01*
X451180Y3168954D03*
D30*
G01*
X5732856Y-717245D03*
D31*
G01*
X-449529Y2406954D03*
D32*
G01*
X68656Y679754D03*
D30*
G01*
X1968500Y-1879600D03*
M02*
