G04 Layer: TopSolderMaskLayer*
G04 EasyEDA v6.5.54, 2026-04-14 14:33:15*
G04 27845933940048b08c14d6c4289a14c4,81a6330f3d4149d2af66a0b9843494eb,10*
G04 Gerber Generator version 0.2*
G04 Scale: 100 percent, Rotated: No, Reflected: No *
G04 Dimensions in millimeters *
G04 leading zeros omitted , absolute positions ,4 integer and 5 decimal *
%FSLAX45Y45*%
%MOMM*%

%AMMACRO1*4,1,8,-2.0211,-2.0508,-2.0508,-2.021,-2.0508,2.0211,-2.0211,2.0508,2.021,2.0508,2.0508,2.0211,2.0508,-2.021,2.021,-2.0508,-2.0211,-2.0508,0*%
%AMMACRO2*4,1,8,-1.6711,-1.9008,-1.7008,-1.871,-1.7008,1.8711,-1.6711,1.9008,1.671,1.9008,1.7008,1.8711,1.7008,-1.871,1.671,-1.9008,-1.6711,-1.9008,0*%
%AMMACRO3*4,1,8,-0.6961,-0.7558,-0.7258,-0.726,-0.7258,0.7261,-0.6961,0.7558,0.696,0.7558,0.7258,0.7261,0.7258,-0.726,0.696,-0.7558,-0.6961,-0.7558,0*%
%AMMACRO4*4,1,8,-1.5211,-1.5508,-1.5508,-1.521,-1.5508,1.5211,-1.5211,1.5508,1.521,1.5508,1.5508,1.5211,1.5508,-1.521,1.521,-1.5508,-1.5211,-1.5508,0*%
%AMMACRO5*4,1,8,-0.7261,-0.7258,-0.7558,-0.696,-0.7558,0.6961,-0.7261,0.7258,0.726,0.7258,0.7558,0.6961,0.7558,-0.696,0.726,-0.7258,-0.7261,-0.7258,0*%
%AMMACRO6*4,1,8,-0.4711,-0.4508,-0.5008,-0.421,-0.5008,0.4211,-0.4711,0.4508,0.471,0.4508,0.5008,0.4211,0.5008,-0.421,0.471,-0.4508,-0.4711,-0.4508,0*%
%AMMACRO7*4,1,8,-0.5211,-0.7506,-0.5508,-0.7208,-0.5508,0.7208,-0.5211,0.7506,0.521,0.7506,0.5508,0.7208,0.5508,-0.7208,0.521,-0.7506,-0.5211,-0.7506,0*%
%AMMACRO8*4,1,8,-1.0523,-0.8203,-1.0821,-0.7905,-1.0821,0.7905,-1.0523,0.8203,1.0523,0.8203,1.0821,0.7905,1.0821,-0.7905,1.0523,-0.8203,-1.0523,-0.8203,0*%
%AMMACRO9*4,1,8,-0.5211,-0.4258,-0.5508,-0.396,-0.5508,0.3961,-0.5211,0.4258,0.521,0.4258,0.5508,0.3961,0.5508,-0.396,0.521,-0.4258,-0.5211,-0.4258,0*%
%AMMACRO10*4,1,8,-0.2961,-0.6508,-0.3258,-0.621,-0.3258,0.6211,-0.2961,0.6508,0.296,0.6508,0.3258,0.6211,0.3258,-0.621,0.296,-0.6508,-0.2961,-0.6508,0*%
%AMMACRO11*4,1,8,-0.4531,-0.4508,-0.4828,-0.421,-0.4828,0.4211,-0.4531,0.4508,0.453,0.4508,0.4828,0.4211,0.4828,-0.421,0.453,-0.4508,-0.4531,-0.4508,0*%
%AMMACRO12*4,1,8,-0.4211,-0.4828,-0.4508,-0.453,-0.4508,0.4531,-0.4211,0.4828,0.421,0.4828,0.4508,0.4531,0.4508,-0.453,0.421,-0.4828,-0.4211,-0.4828,0*%
%AMMACRO13*4,1,8,-0.646,-0.4008,-0.6758,-0.371,-0.6758,0.3711,-0.646,0.4008,0.646,0.4008,0.6758,0.3711,0.6758,-0.371,0.646,-0.4008,-0.646,-0.4008,0*%
%AMMACRO14*4,1,8,-0.5873,-0.7393,-0.6171,-0.7095,-0.6171,0.7095,-0.5873,0.7393,0.5873,0.7393,0.6171,0.7095,0.6171,-0.7095,0.5873,-0.7393,-0.5873,-0.7393,0*%
%AMMACRO15*4,1,8,-0.7095,-0.6171,-0.7393,-0.5873,-0.7393,0.5873,-0.7095,0.6171,0.7095,0.6171,0.7393,0.5873,0.7393,-0.5873,0.7095,-0.6171,-0.7095,-0.6171,0*%
%AMMACRO16*4,1,8,-0.6248,-0.9013,-0.6546,-0.8715,-0.6546,0.8716,-0.6248,0.9013,0.6248,0.9013,0.6546,0.8716,0.6546,-0.8715,0.6248,-0.9013,-0.6248,-0.9013,0*%
%AMMACRO17*4,1,8,-0.8716,-0.6546,-0.9013,-0.6248,-0.9013,0.6248,-0.8716,0.6546,0.8715,0.6546,0.9013,0.6248,0.9013,-0.6248,0.8715,-0.6546,-0.8716,-0.6546,0*%
%AMMACRO18*4,1,8,-0.2211,-0.9008,-0.2508,-0.871,-0.2508,0.8711,-0.2211,0.9008,0.221,0.9008,0.2508,0.8711,0.2508,-0.871,0.221,-0.9008,-0.2211,-0.9008,0*%
%AMMACRO19*4,1,8,-0.3711,-0.8508,-0.4008,-0.821,-0.4008,0.8211,-0.3711,0.8508,0.371,0.8508,0.4008,0.8211,0.4008,-0.821,0.371,-0.8508,-0.3711,-0.8508,0*%
%AMMACRO20*4,1,8,-0.6211,-0.8008,-0.6508,-0.771,-0.6508,0.7711,-0.6211,0.8008,0.621,0.8008,0.6508,0.7711,0.6508,-0.771,0.621,-0.8008,-0.6211,-0.8008,0*%
%AMMACRO21*4,1,8,-0.8211,-0.8008,-0.8508,-0.771,-0.8508,0.7711,-0.8211,0.8008,0.821,0.8008,0.8508,0.7711,0.8508,-0.771,0.821,-0.8008,-0.8211,-0.8008,0*%
%AMMACRO22*4,1,8,-0.6211,-1.1508,-0.6508,-1.121,-0.6508,1.1211,-0.6211,1.1508,0.621,1.1508,0.6508,1.1211,0.6508,-1.121,0.621,-1.1508,-0.6211,-1.1508,0*%
%AMMACRO23*4,1,8,-0.9211,-0.9508,-0.9508,-0.921,-0.9508,0.9211,-0.9211,0.9508,0.921,0.9508,0.9508,0.9211,0.9508,-0.921,0.921,-0.9508,-0.9211,-0.9508,0*%
%AMMACRO24*4,1,8,-0.7711,-0.7508,-0.8008,-0.721,-0.8008,0.7211,-0.7711,0.7508,0.771,0.7508,0.8008,0.7211,0.8008,-0.721,0.771,-0.7508,-0.7711,-0.7508,0*%
%AMMACRO25*4,1,8,-0.2661,-0.6293,-0.2958,-0.5995,-0.2958,0.5996,-0.2661,0.6293,0.266,0.6293,0.2958,0.5996,0.2958,-0.5995,0.266,-0.6293,-0.2661,-0.6293,0*%
%AMMACRO26*4,1,8,-0.2661,-0.6383,-0.2958,-0.6085,-0.2958,0.6086,-0.2661,0.6383,0.266,0.6383,0.2958,0.6086,0.2958,-0.6085,0.266,-0.6383,-0.2661,-0.6383,0*%
%AMMACRO27*4,1,8,-0.546,-0.5508,-0.5758,-0.521,-0.5758,0.5211,-0.546,0.5508,0.546,0.5508,0.5758,0.5211,0.5758,-0.521,0.546,-0.5508,-0.546,-0.5508,0*%
%AMMACRO28*4,1,8,-1.1211,-0.5758,-1.1508,-0.546,-1.1508,0.546,-1.1211,0.5758,1.121,0.5758,1.1508,0.546,1.1508,-0.546,1.121,-0.5758,-1.1211,-0.5758,0*%
%AMMACRO29*4,1,8,-0.9211,-0.5508,-0.9508,-0.521,-0.9508,0.5211,-0.9211,0.5508,0.921,0.5508,0.9508,0.5211,0.9508,-0.521,0.921,-0.5508,-0.9211,-0.5508,0*%
%AMMACRO30*4,1,8,-0.4211,-0.5008,-0.4508,-0.471,-0.4508,0.4711,-0.4211,0.5008,0.421,0.5008,0.4508,0.4711,0.4508,-0.471,0.421,-0.5008,-0.4211,-0.5008,0*%
%AMMACRO31*4,1,8,-0.421,-0.5008,-0.4508,-0.471,-0.4508,0.471,-0.421,0.5008,0.421,0.5008,0.4508,0.471,0.4508,-0.471,0.421,-0.5008,-0.421,-0.5008,0*%
%AMMACRO32*4,1,8,-0.4211,-0.5008,-0.4508,-0.471,-0.4508,0.471,-0.4211,0.5008,0.421,0.5008,0.4508,0.471,0.4508,-0.471,0.421,-0.5008,-0.4211,-0.5008,0*%
%AMMACRO33*4,1,8,-0.8711,-0.9008,-0.9008,-0.871,-0.9008,0.8711,-0.8711,0.9008,0.871,0.9008,0.9008,0.8711,0.9008,-0.871,0.871,-0.9008,-0.8711,-0.9008,0*%
%ADD10C,0.3516*%
%ADD11MACRO1*%
%ADD12MACRO2*%
%ADD13MACRO3*%
%ADD14MACRO4*%
%ADD15C,0.0173*%
%ADD16C,14.1016*%
%ADD17MACRO5*%
%ADD18MACRO6*%
%ADD19MACRO7*%
%ADD20O,2.115109X0.626593*%
%ADD21MACRO8*%
%ADD22MACRO9*%
%ADD23MACRO10*%
%ADD24O,2.146605X0.68961*%
%ADD25O,2.051812X0.670001*%
%ADD26MACRO11*%
%ADD27MACRO12*%
%ADD28MACRO13*%
%ADD29MACRO14*%
%ADD30MACRO15*%
%ADD31MACRO16*%
%ADD32MACRO17*%
%ADD33MACRO18*%
%ADD34MACRO19*%
%ADD35MACRO20*%
%ADD36MACRO21*%
%ADD37MACRO22*%
%ADD38C,1.9016*%
%ADD39MACRO23*%
%ADD40MACRO24*%
%ADD41C,1.5016*%
%ADD42MACRO25*%
%ADD43MACRO26*%
%ADD44MACRO27*%
%ADD45MACRO28*%
%ADD46MACRO29*%
%ADD47MACRO30*%
%ADD48MACRO31*%
%ADD49MACRO32*%
%ADD50C,1.8016*%
%ADD51MACRO33*%

%LPD*%
G36*
X3827881Y-1237945D02*
G01*
X3796131Y-1301445D01*
X3827881Y-1364945D01*
X3878681Y-1364945D01*
X3846931Y-1301445D01*
X3878681Y-1237945D01*
G37*
D10*
G01*
X-599998Y74904D03*
D11*
G01*
X-275005Y-200101D03*
D10*
G01*
X-550011Y124891D03*
G01*
X-499998Y124891D03*
G01*
X-450011Y124891D03*
G01*
X-399999Y124891D03*
G01*
X-350011Y124891D03*
G01*
X-299999Y124891D03*
G01*
X-250012Y124891D03*
G01*
X-199999Y124891D03*
G01*
X-150012Y124891D03*
G01*
X-99999Y124891D03*
G01*
X-50012Y124891D03*
G01*
X0Y124891D03*
G01*
X-475005Y74904D03*
G01*
X-425018Y74904D03*
G01*
X-375005Y74904D03*
G01*
X-325018Y74904D03*
G01*
X-275005Y74904D03*
G01*
X-225018Y74904D03*
G01*
X-175005Y74904D03*
G01*
X-75006Y74904D03*
G01*
X0Y49911D03*
G01*
X-599998Y24892D03*
G01*
X-550011Y-101D03*
G01*
X0Y-101D03*
G01*
X-599998Y-25095D03*
G01*
X49987Y-25095D03*
G01*
X-550011Y-50114D03*
G01*
X-599998Y-75107D03*
G01*
X49987Y-75107D03*
G01*
X-550011Y-100101D03*
G01*
X0Y-100101D03*
G01*
X-599998Y-125094D03*
G01*
X49987Y-125094D03*
G01*
X-550011Y-150113D03*
G01*
X0Y-150088D03*
G01*
X-599998Y-175107D03*
G01*
X49987Y-175107D03*
G01*
X0Y-200101D03*
G01*
X-599998Y-225094D03*
G01*
X49987Y-225094D03*
G01*
X0Y-250088D03*
G01*
X-599998Y-275107D03*
G01*
X49987Y-275107D03*
G01*
X-550011Y-300101D03*
G01*
X0Y-300101D03*
G01*
X49987Y-325094D03*
G01*
X-550011Y-350088D03*
G01*
X0Y-350088D03*
G01*
X-599998Y-375107D03*
G01*
X-550011Y-400100D03*
G01*
X0Y-400100D03*
G01*
X49987Y-425094D03*
G01*
X-599998Y-475106D03*
G01*
X-425018Y-475106D03*
G01*
X-375005Y-475106D03*
G01*
X-325018Y-475106D03*
G01*
X-275005Y-475106D03*
G01*
X-225018Y-475106D03*
G01*
X-175005Y-475106D03*
G01*
X-125018Y-475106D03*
G01*
X-75006Y-475106D03*
G01*
X-25018Y-475106D03*
G01*
X49987Y-475106D03*
G01*
X-550011Y-525094D03*
G01*
X-499998Y-525094D03*
G01*
X-450011Y-525094D03*
G01*
X-399999Y-525094D03*
G01*
X-350011Y-525094D03*
G01*
X-299999Y-525094D03*
G01*
X-250012Y-525094D03*
G01*
X-199999Y-525094D03*
G01*
X-150012Y-525094D03*
D12*
G01*
X4659641Y-1733245D03*
G01*
X5459642Y-1733245D03*
D13*
G01*
X-1722043Y-299849D03*
G01*
X-1722043Y-99844D03*
G01*
X-312343Y-960142D03*
G01*
X-312343Y-1160147D03*
D14*
G01*
X3006156Y2381554D03*
G01*
X5386156Y2381554D03*
D16*
G01*
X4183456Y2381554D03*
D17*
G01*
X743353Y-798024D03*
G01*
X943358Y-798024D03*
G01*
X743353Y-520910D03*
G01*
X943358Y-520910D03*
D13*
G01*
X-591743Y-1172847D03*
G01*
X-591743Y-972842D03*
G01*
X-283370Y579755D03*
G01*
X-283370Y779759D03*
G01*
X-1772Y579752D03*
G01*
X-1772Y779757D03*
G01*
X-1163243Y579755D03*
G01*
X-1163243Y779759D03*
G01*
X-564969Y579755D03*
G01*
X-564969Y779759D03*
D17*
G01*
X-1266441Y247954D03*
G01*
X-1466446Y247954D03*
G01*
X-1491846Y-806145D03*
G01*
X-1291841Y-806145D03*
D13*
G01*
X-45643Y-1160147D03*
G01*
X-45643Y-960142D03*
G01*
X-1353743Y-1312547D03*
G01*
X-1353743Y-1112542D03*
D17*
G01*
X-1034646Y-1390340D03*
G01*
X-834641Y-1390340D03*
G01*
X743353Y-1352245D03*
G01*
X943358Y-1352245D03*
D13*
G01*
X561413Y579752D03*
G01*
X561413Y779757D03*
D17*
G01*
X-1491846Y-552145D03*
G01*
X-1291841Y-552145D03*
G01*
X943358Y-1075131D03*
G01*
X743353Y-1075131D03*
G01*
X3699256Y219308D03*
G01*
X3499251Y219308D03*
G01*
X3699258Y481962D03*
G01*
X3499253Y481962D03*
G01*
X5378858Y-285021D03*
G01*
X5578863Y-285021D03*
G01*
X5578858Y1099278D03*
G01*
X5378853Y1099278D03*
G01*
X3699258Y-43347D03*
G01*
X3499253Y-43347D03*
G01*
X5959053Y1683054D03*
G01*
X5759048Y1683054D03*
G01*
X5759048Y2533957D03*
G01*
X5959053Y2533957D03*
D13*
G01*
X1605356Y-487047D03*
G01*
X1605356Y-287042D03*
G01*
X2869679Y-96542D03*
G01*
X2869679Y-296547D03*
G01*
X279816Y579752D03*
G01*
X279816Y779757D03*
D18*
G01*
X-883843Y-299951D03*
G01*
X-883843Y-439950D03*
G01*
X-1442643Y-299946D03*
G01*
X-1442643Y-159946D03*
D19*
G01*
X5385386Y-5341D03*
G01*
X5595444Y-5341D03*
G01*
X5385386Y553920D03*
G01*
X5595444Y553920D03*
D20*
G01*
X4738522Y200355D03*
G01*
X4738522Y300355D03*
G01*
X4738522Y400354D03*
G01*
X4738522Y500354D03*
G01*
X4738522Y600354D03*
G01*
X4187190Y200355D03*
G01*
X4187190Y300355D03*
G01*
X4187190Y400354D03*
G01*
X4187190Y500354D03*
G01*
X4187190Y600354D03*
D21*
G01*
X4352182Y-806145D03*
G01*
X4852930Y-806145D03*
G01*
X4352182Y-387045D03*
G01*
X4852930Y-387045D03*
D22*
G01*
X2351934Y882954D03*
G01*
X2117429Y882954D03*
D23*
G01*
X1287856Y-2197958D03*
G01*
X1382852Y-1957957D03*
G01*
X1287856Y-1957957D03*
G01*
X1192860Y-1957957D03*
G01*
X1192860Y-2197958D03*
G01*
X1382852Y-2197958D03*
D24*
G01*
X2524633Y209854D03*
G01*
X2524633Y336854D03*
G01*
X2524633Y463854D03*
G01*
X2524633Y590854D03*
G01*
X1970151Y209854D03*
G01*
X1970151Y336854D03*
G01*
X1970151Y463854D03*
G01*
X1970151Y590854D03*
D25*
G01*
X2521127Y-488645D03*
G01*
X2521127Y-361645D03*
G01*
X2521127Y-234645D03*
G01*
X2521127Y-107645D03*
G01*
X1980107Y-488645D03*
G01*
X1980107Y-361645D03*
G01*
X1980107Y-234645D03*
G01*
X1980107Y-107645D03*
G36*
X3875481Y-1370025D02*
G01*
X3874970Y-1369999D01*
X3874465Y-1369923D01*
X3873969Y-1369796D01*
X3873489Y-1369618D01*
X3873030Y-1369395D01*
X3872595Y-1369126D01*
X3872191Y-1368816D01*
X3871818Y-1368465D01*
X3871483Y-1368079D01*
X3871188Y-1367662D01*
X3870937Y-1367215D01*
X3839187Y-1303715D01*
X3838978Y-1303238D01*
X3838818Y-1302738D01*
X3838712Y-1302227D01*
X3838658Y-1301706D01*
X3838658Y-1301183D01*
X3838712Y-1300662D01*
X3838818Y-1300152D01*
X3838978Y-1299651D01*
X3839187Y-1299174D01*
X3870937Y-1235674D01*
X3871188Y-1235227D01*
X3871483Y-1234810D01*
X3871818Y-1234424D01*
X3872191Y-1234074D01*
X3872595Y-1233764D01*
X3873030Y-1233495D01*
X3873489Y-1233271D01*
X3873969Y-1233093D01*
X3874465Y-1232966D01*
X3874970Y-1232890D01*
X3875481Y-1232865D01*
X3913581Y-1232865D01*
X3913817Y-1232870D01*
X3916161Y-1232979D01*
X3916624Y-1233022D01*
X3918945Y-1233345D01*
X3919413Y-1233431D01*
X3921699Y-1233970D01*
X3922146Y-1234099D01*
X3924368Y-1234843D01*
X3924808Y-1235011D01*
X3926954Y-1235958D01*
X3927375Y-1236169D01*
X3929425Y-1237312D01*
X3929821Y-1237559D01*
X3931757Y-1238884D01*
X3932130Y-1239166D01*
X3933936Y-1240665D01*
X3934284Y-1240983D01*
X3935943Y-1242641D01*
X3936260Y-1242989D01*
X3937759Y-1244795D01*
X3938041Y-1245168D01*
X3939367Y-1247104D01*
X3939613Y-1247500D01*
X3940756Y-1249550D01*
X3940967Y-1249972D01*
X3941914Y-1252118D01*
X3942082Y-1252557D01*
X3942826Y-1254780D01*
X3942956Y-1255227D01*
X3943494Y-1257513D01*
X3943581Y-1257980D01*
X3943903Y-1260302D01*
X3943946Y-1260764D01*
X3944056Y-1263108D01*
X3944061Y-1263345D01*
X3944061Y-1345895D01*
X3944051Y-1346197D01*
X3944025Y-1346497D01*
X3943979Y-1346794D01*
X3943918Y-1347088D01*
X3943840Y-1347381D01*
X3943172Y-1349565D01*
X3943017Y-1349997D01*
X3942153Y-1352115D01*
X3941960Y-1352534D01*
X3940909Y-1354564D01*
X3940683Y-1354955D01*
X3939456Y-1356883D01*
X3939192Y-1357261D01*
X3937795Y-1359070D01*
X3937502Y-1359415D01*
X3935950Y-1361092D01*
X3935623Y-1361414D01*
X3933924Y-1362946D01*
X3933571Y-1363235D01*
X3931742Y-1364607D01*
X3931366Y-1364863D01*
X3929423Y-1366065D01*
X3929021Y-1366288D01*
X3926977Y-1367309D01*
X3926558Y-1367495D01*
X3924429Y-1368328D01*
X3924000Y-1368475D01*
X3921805Y-1369115D01*
X3921361Y-1369225D01*
X3919118Y-1369664D01*
X3918666Y-1369730D01*
X3916392Y-1369966D01*
X3915935Y-1369994D01*
X3913649Y-1370025D01*
G37*
G36*
X3770706Y-1370025D02*
G01*
X3770469Y-1370020D01*
X3768125Y-1369910D01*
X3767663Y-1369867D01*
X3765341Y-1369545D01*
X3764874Y-1369458D01*
X3762588Y-1368920D01*
X3762141Y-1368790D01*
X3759918Y-1368046D01*
X3759479Y-1367878D01*
X3757333Y-1366931D01*
X3756911Y-1366720D01*
X3754861Y-1365577D01*
X3754465Y-1365331D01*
X3752529Y-1364005D01*
X3752156Y-1363723D01*
X3750350Y-1362224D01*
X3750002Y-1361907D01*
X3748344Y-1360248D01*
X3748026Y-1359900D01*
X3746527Y-1358094D01*
X3746246Y-1357721D01*
X3744920Y-1355785D01*
X3744673Y-1355389D01*
X3743530Y-1353339D01*
X3743319Y-1352918D01*
X3742372Y-1350771D01*
X3742204Y-1350332D01*
X3741460Y-1348110D01*
X3741331Y-1347663D01*
X3740792Y-1345377D01*
X3740706Y-1344909D01*
X3740383Y-1342588D01*
X3740340Y-1342125D01*
X3740231Y-1339781D01*
X3740226Y-1339545D01*
X3740226Y-1263345D01*
X3740231Y-1263108D01*
X3740340Y-1260764D01*
X3740383Y-1260302D01*
X3740706Y-1257980D01*
X3740792Y-1257513D01*
X3741331Y-1255227D01*
X3741460Y-1254780D01*
X3742204Y-1252557D01*
X3742372Y-1252118D01*
X3743319Y-1249972D01*
X3743530Y-1249550D01*
X3744673Y-1247500D01*
X3744920Y-1247104D01*
X3746246Y-1245168D01*
X3746527Y-1244795D01*
X3748026Y-1242989D01*
X3748344Y-1242641D01*
X3750002Y-1240983D01*
X3750350Y-1240665D01*
X3752156Y-1239166D01*
X3752529Y-1238884D01*
X3754465Y-1237559D01*
X3754861Y-1237312D01*
X3756911Y-1236169D01*
X3757333Y-1235958D01*
X3759479Y-1235011D01*
X3759918Y-1234843D01*
X3762141Y-1234099D01*
X3762588Y-1233970D01*
X3764874Y-1233431D01*
X3765341Y-1233345D01*
X3767663Y-1233022D01*
X3768125Y-1232979D01*
X3770469Y-1232870D01*
X3770706Y-1232865D01*
X3834206Y-1232865D01*
X3834696Y-1232888D01*
X3835184Y-1232959D01*
X3835661Y-1233078D01*
X3836126Y-1233241D01*
X3836570Y-1233449D01*
X3836995Y-1233698D01*
X3837393Y-1233990D01*
X3837759Y-1234315D01*
X3838094Y-1234676D01*
X3838392Y-1235067D01*
X3838651Y-1235486D01*
X3838869Y-1235928D01*
X3839042Y-1236388D01*
X3839169Y-1236863D01*
X3839250Y-1237348D01*
X3839286Y-1237841D01*
X3839270Y-1238331D01*
X3839210Y-1238818D01*
X3839103Y-1239299D01*
X3838948Y-1239766D01*
X3838750Y-1240215D01*
X3808135Y-1301445D01*
X3838750Y-1362674D01*
X3838948Y-1363124D01*
X3839103Y-1363591D01*
X3839210Y-1364071D01*
X3839270Y-1364559D01*
X3839286Y-1365049D01*
X3839250Y-1365542D01*
X3839169Y-1366027D01*
X3839042Y-1366502D01*
X3838869Y-1366961D01*
X3838651Y-1367403D01*
X3838392Y-1367823D01*
X3838094Y-1368214D01*
X3837759Y-1368574D01*
X3837393Y-1368899D01*
X3836995Y-1369192D01*
X3836570Y-1369440D01*
X3836126Y-1369649D01*
X3835661Y-1369811D01*
X3835184Y-1369931D01*
X3834696Y-1370002D01*
X3834206Y-1370025D01*
G37*
D26*
G01*
X182968Y-990145D03*
G01*
X182968Y-1130145D03*
D27*
G01*
X-1105943Y-299961D03*
G01*
X-1245943Y-299961D03*
D28*
G01*
X-1609343Y2578658D03*
G01*
X-1609343Y2768649D03*
G01*
X-1809343Y2673653D03*
G01*
X3003956Y-749249D03*
G01*
X3003956Y-939239D03*
G01*
X3203956Y-844243D03*
G01*
X3699256Y-939241D03*
G01*
X3699256Y-749250D03*
G01*
X3499256Y-844246D03*
D29*
G01*
X2251461Y-1356862D03*
G01*
X2051451Y-1356862D03*
D30*
G01*
X2317054Y-2771454D03*
G01*
X2317054Y-2571445D03*
D29*
G01*
X1705361Y-1356862D03*
G01*
X1505351Y-1356862D03*
G01*
X957651Y-2749247D03*
G01*
X1157660Y-2749247D03*
G01*
X5578861Y272895D03*
G01*
X5378851Y272895D03*
G01*
X5378851Y832154D03*
G01*
X5578861Y832154D03*
G01*
X3499251Y745962D03*
G01*
X3699261Y745962D03*
G01*
X3699261Y1011308D03*
G01*
X3499251Y1011308D03*
G01*
X3499251Y1276654D03*
G01*
X3699261Y1276654D03*
D30*
G01*
X2869679Y436859D03*
G01*
X2869679Y236849D03*
G01*
X1605356Y205679D03*
G01*
X1605356Y5669D03*
G01*
X1605356Y478149D03*
G01*
X1605356Y678159D03*
D31*
G01*
X3747132Y-323545D03*
G01*
X3451379Y-323545D03*
G01*
X991232Y311454D03*
G01*
X695479Y311454D03*
G01*
X-1171420Y2660954D03*
G01*
X-875667Y2660954D03*
D32*
G01*
X-864110Y827633D03*
G01*
X-864110Y531881D03*
G01*
X2672156Y-823368D03*
G01*
X2672156Y-1119121D03*
D29*
G01*
X943361Y-235049D03*
G01*
X743351Y-235049D03*
G01*
X743351Y44754D03*
G01*
X943361Y44754D03*
D33*
G01*
X2125395Y-1650390D03*
G01*
X2060397Y-1650390D03*
G01*
X1995398Y-1650390D03*
G01*
X1930400Y-1650390D03*
G01*
X1865401Y-1650390D03*
G01*
X1800402Y-1650390D03*
G01*
X1735404Y-1650390D03*
G01*
X1735404Y-2210409D03*
G01*
X1800402Y-2210409D03*
G01*
X1865401Y-2210409D03*
G01*
X1930400Y-2210409D03*
G01*
X1995398Y-2210409D03*
G01*
X2060397Y-2210409D03*
G01*
X2125395Y-2210409D03*
D34*
G01*
X2664860Y-1546141D03*
G01*
X2774859Y-1546141D03*
G01*
X2884859Y-1546141D03*
G01*
X2994859Y-1546141D03*
G01*
X3104859Y-1546141D03*
G01*
X3214858Y-1546141D03*
G01*
X3324858Y-1546141D03*
G01*
X3434858Y-1546141D03*
G01*
X3544858Y-1546141D03*
D35*
G01*
X2544859Y-1646147D03*
D36*
G01*
X4004868Y-1646142D03*
D37*
G01*
X2544859Y-2606149D03*
G01*
X4094855Y-2606139D03*
D38*
G01*
X119456Y3168954D03*
G01*
X-134543Y3168954D03*
G01*
X-388543Y3168954D03*
G01*
X-642543Y3168954D03*
G01*
X-896543Y3168954D03*
D39*
G01*
X-1150543Y3168954D03*
D40*
G01*
X1044957Y2762554D03*
D41*
G01*
X844956Y2762554D03*
D40*
G01*
X2619757Y2762554D03*
D41*
G01*
X2419756Y2762554D03*
D42*
G01*
X5777801Y1999211D03*
G01*
X5872797Y1999211D03*
G01*
X5967793Y1999211D03*
D43*
G01*
X5967793Y2229944D03*
G01*
X5777801Y2229944D03*
D44*
G01*
X-1963292Y-299948D03*
D45*
G01*
X-2115792Y-152448D03*
G01*
X-2115792Y-447448D03*
D46*
G01*
X436956Y-249344D03*
G01*
X436956Y-499346D03*
D47*
G01*
X-1002344Y-1142846D03*
G01*
X-892345Y-1142846D03*
D48*
G01*
X-892343Y-1002845D03*
D49*
G01*
X-1002344Y-1002845D03*
D50*
G01*
X-1912543Y2241854D03*
G01*
X-1912543Y2495854D03*
G01*
X-2191943Y2241854D03*
G01*
X-2191943Y1987854D03*
D51*
G01*
X-2191943Y1733854D03*
M02*
