G04 Layer: BottomSolderMaskLayer*
G04 EasyEDA v6.5.54, 2026-04-14 14:33:15*
G04 27845933940048b08c14d6c4289a14c4,81a6330f3d4149d2af66a0b9843494eb,10*
G04 Gerber Generator version 0.2*
G04 Scale: 100 percent, Rotated: No, Reflected: No *
G04 Dimensions in millimeters *
G04 leading zeros omitted , absolute positions ,4 integer and 5 decimal *
%FSLAX45Y45*%
%MOMM*%

%AMMACRO1*4,1,8,-0.9207,-0.65,-0.95,-0.6207,-0.95,0.6207,-0.9207,0.65,0.9207,0.65,0.95,0.6207,0.95,-0.6207,0.9207,-0.65,-0.9207,-0.65,0*%
%AMMACRO2*4,1,8,-2.6811,-3.7258,-2.7108,-3.696,-2.7108,3.6961,-2.6811,3.7258,2.681,3.7258,2.7108,3.6961,2.7108,-3.696,2.681,-3.7258,-2.6811,-3.7258,0*%
%AMMACRO3*4,1,8,-2.681,-3.7258,-2.7108,-3.696,-2.7108,3.6961,-2.681,3.7258,2.681,3.7258,2.7108,3.6961,2.7108,-3.696,2.681,-3.7258,-2.681,-3.7258,0*%
%AMMACRO4*4,1,8,-0.7261,-0.7258,-0.7558,-0.696,-0.7558,0.6961,-0.7261,0.7258,0.726,0.7258,0.7558,0.6961,0.7558,-0.696,0.726,-0.7258,-0.7261,-0.7258,0*%
%AMMACRO5*4,1,8,-0.5211,-0.7506,-0.5508,-0.7208,-0.5508,0.7208,-0.5211,0.7506,0.521,0.7506,0.5508,0.7208,0.5508,-0.7208,0.521,-0.7506,-0.5211,-0.7506,0*%
%AMMACRO6*4,1,8,-0.5873,-0.7393,-0.6171,-0.7095,-0.6171,0.7095,-0.5873,0.7393,0.5873,0.7393,0.6171,0.7095,0.6171,-0.7095,0.5873,-0.7393,-0.5873,-0.7393,0*%
%AMMACRO7*4,1,8,-1.7711,-0.6508,-1.8008,-0.621,-1.8008,0.6211,-1.7711,0.6508,1.771,0.6508,1.8008,0.6211,1.8008,-0.621,1.771,-0.6508,-1.7711,-0.6508,0*%
%AMMACRO8*4,1,8,-0.9211,-0.9508,-0.9508,-0.921,-0.9508,0.9211,-0.9211,0.9508,0.921,0.9508,0.9508,0.9211,0.9508,-0.921,0.921,-0.9508,-0.9211,-0.9508,0*%
%AMMACRO9*4,1,8,-0.7711,-0.7508,-0.8008,-0.721,-0.8008,0.7211,-0.7711,0.7508,0.771,0.7508,0.8008,0.7211,0.8008,-0.721,0.771,-0.7508,-0.7711,-0.7508,0*%
%AMMACRO10*4,1,8,-0.8711,-0.9008,-0.9008,-0.871,-0.9008,0.8711,-0.8711,0.9008,0.871,0.9008,0.9008,0.8711,0.9008,-0.871,0.871,-0.9008,-0.8711,-0.9008,0*%
%ADD10MACRO1*%
%ADD11MACRO2*%
%ADD12MACRO3*%
%ADD13MACRO4*%
%ADD14MACRO5*%
%ADD15C,0.0132*%
%ADD16MACRO6*%
%ADD17MACRO7*%
%ADD18C,1.9016*%
%ADD19MACRO8*%
%ADD20MACRO9*%
%ADD21C,1.5016*%
%ADD22C,1.8016*%
%ADD23MACRO10*%

%LPD*%
G36*
X4849520Y3178098D02*
G01*
X4881270Y3114598D01*
X4849520Y3051098D01*
X4900320Y3051098D01*
X4932070Y3114598D01*
X4900320Y3178098D01*
G37*
D10*
G01*
X2018030Y2924048D03*
G01*
X2018030Y2474061D03*
G01*
X1218031Y2474061D03*
G01*
X1218031Y2924048D03*
D11*
G01*
X-2057347Y-789045D03*
D12*
G01*
X6113635Y-789045D03*
D11*
G01*
X-2057347Y1120950D03*
D12*
G01*
X6113635Y1120950D03*
D13*
G01*
X1095758Y3168954D03*
G01*
X895753Y3168954D03*
G01*
X1429153Y3168954D03*
G01*
X1629158Y3168954D03*
D14*
G01*
X-979606Y2903009D03*
G01*
X-769548Y2903009D03*
G01*
X4291911Y3118154D03*
G01*
X4501969Y3118154D03*
G01*
X-979609Y2406954D03*
G01*
X-769551Y2406954D03*
D10*
G01*
X697242Y2924048D03*
G01*
X697242Y2474061D03*
G01*
X-102755Y2474061D03*
G01*
X-102755Y2924048D03*
G36*
X4814542Y3046023D02*
G01*
X4812256Y3046054D01*
X4811798Y3046082D01*
X4809525Y3046318D01*
X4809073Y3046384D01*
X4806830Y3046823D01*
X4806386Y3046933D01*
X4804191Y3047573D01*
X4803762Y3047720D01*
X4801633Y3048553D01*
X4801214Y3048739D01*
X4799169Y3049760D01*
X4798768Y3049983D01*
X4796825Y3051185D01*
X4796449Y3051441D01*
X4794620Y3052813D01*
X4794267Y3053102D01*
X4792568Y3054634D01*
X4792240Y3054957D01*
X4790688Y3056633D01*
X4790396Y3056978D01*
X4788999Y3058787D01*
X4788735Y3059165D01*
X4787508Y3061093D01*
X4787282Y3061484D01*
X4786231Y3063514D01*
X4786038Y3063933D01*
X4785174Y3066051D01*
X4785019Y3066483D01*
X4784351Y3068667D01*
X4784272Y3068960D01*
X4784211Y3069254D01*
X4784166Y3069551D01*
X4784140Y3069851D01*
X4784130Y3070153D01*
X4784130Y3152703D01*
X4784135Y3152940D01*
X4784244Y3155284D01*
X4784288Y3155746D01*
X4784610Y3158068D01*
X4784697Y3158535D01*
X4785235Y3160821D01*
X4785365Y3161268D01*
X4786109Y3163491D01*
X4786276Y3163930D01*
X4787224Y3166076D01*
X4787435Y3166498D01*
X4788578Y3168548D01*
X4788824Y3168944D01*
X4790150Y3170880D01*
X4790432Y3171253D01*
X4791930Y3173059D01*
X4792248Y3173407D01*
X4793907Y3175066D01*
X4794255Y3175383D01*
X4796061Y3176882D01*
X4796434Y3177164D01*
X4798369Y3178489D01*
X4798766Y3178736D01*
X4800815Y3179879D01*
X4801237Y3180090D01*
X4803383Y3181037D01*
X4803823Y3181205D01*
X4806045Y3181949D01*
X4806492Y3182078D01*
X4808778Y3182617D01*
X4809246Y3182703D01*
X4811567Y3183026D01*
X4812030Y3183069D01*
X4814374Y3183178D01*
X4814610Y3183183D01*
X4852710Y3183183D01*
X4853221Y3183158D01*
X4853726Y3183082D01*
X4854221Y3182955D01*
X4854702Y3182777D01*
X4855161Y3182553D01*
X4855596Y3182284D01*
X4855999Y3181974D01*
X4856373Y3181624D01*
X4856708Y3181238D01*
X4857003Y3180821D01*
X4857254Y3180374D01*
X4889004Y3116874D01*
X4889212Y3116397D01*
X4889373Y3115896D01*
X4889479Y3115386D01*
X4889533Y3114865D01*
X4889533Y3114342D01*
X4889479Y3113821D01*
X4889373Y3113311D01*
X4889212Y3112810D01*
X4889004Y3112333D01*
X4857254Y3048833D01*
X4857003Y3048386D01*
X4856708Y3047969D01*
X4856373Y3047583D01*
X4855999Y3047232D01*
X4855596Y3046923D01*
X4855161Y3046653D01*
X4854702Y3046430D01*
X4854221Y3046252D01*
X4853726Y3046125D01*
X4853221Y3046049D01*
X4852710Y3046023D01*
G37*
G36*
X4893985Y3046023D02*
G01*
X4893495Y3046046D01*
X4893007Y3046117D01*
X4892530Y3046237D01*
X4892065Y3046399D01*
X4891620Y3046608D01*
X4891196Y3046857D01*
X4890797Y3047149D01*
X4890432Y3047474D01*
X4890096Y3047834D01*
X4889799Y3048226D01*
X4889540Y3048645D01*
X4889322Y3049087D01*
X4889149Y3049546D01*
X4889022Y3050021D01*
X4888941Y3050506D01*
X4888905Y3050999D01*
X4888920Y3051489D01*
X4888981Y3051977D01*
X4889088Y3052457D01*
X4889243Y3052925D01*
X4889441Y3053374D01*
X4920056Y3114603D01*
X4889441Y3175833D01*
X4889243Y3176282D01*
X4889088Y3176750D01*
X4888981Y3177230D01*
X4888920Y3177717D01*
X4888905Y3178208D01*
X4888941Y3178700D01*
X4889022Y3179185D01*
X4889149Y3179660D01*
X4889322Y3180120D01*
X4889540Y3180562D01*
X4889799Y3180981D01*
X4890096Y3181372D01*
X4890432Y3181733D01*
X4890797Y3182058D01*
X4891196Y3182350D01*
X4891620Y3182599D01*
X4892065Y3182807D01*
X4892530Y3182970D01*
X4893007Y3183089D01*
X4893495Y3183161D01*
X4893985Y3183183D01*
X4957485Y3183183D01*
X4957721Y3183178D01*
X4960066Y3183069D01*
X4960528Y3183026D01*
X4962850Y3182703D01*
X4963317Y3182617D01*
X4965603Y3182078D01*
X4966050Y3181949D01*
X4968273Y3181205D01*
X4968712Y3181037D01*
X4970858Y3180090D01*
X4971280Y3179879D01*
X4973330Y3178736D01*
X4973726Y3178489D01*
X4975661Y3177164D01*
X4976035Y3176882D01*
X4977841Y3175383D01*
X4978189Y3175066D01*
X4979847Y3173407D01*
X4980165Y3173059D01*
X4981663Y3171253D01*
X4981945Y3170880D01*
X4983271Y3168944D01*
X4983518Y3168548D01*
X4984661Y3166498D01*
X4984871Y3166076D01*
X4985819Y3163930D01*
X4985986Y3163491D01*
X4986731Y3161268D01*
X4986860Y3160821D01*
X4987399Y3158535D01*
X4987485Y3158068D01*
X4987808Y3155746D01*
X4987851Y3155284D01*
X4987960Y3152940D01*
X4987965Y3152703D01*
X4987965Y3076503D01*
X4987960Y3076267D01*
X4987851Y3073923D01*
X4987808Y3073460D01*
X4987485Y3071139D01*
X4987399Y3070672D01*
X4986860Y3068386D01*
X4986731Y3067939D01*
X4985986Y3065716D01*
X4985819Y3065277D01*
X4984871Y3063130D01*
X4984661Y3062709D01*
X4983518Y3060659D01*
X4983271Y3060263D01*
X4981945Y3058327D01*
X4981663Y3057954D01*
X4980165Y3056148D01*
X4979847Y3055800D01*
X4978189Y3054141D01*
X4977841Y3053824D01*
X4976035Y3052325D01*
X4975661Y3052043D01*
X4973726Y3050717D01*
X4973330Y3050471D01*
X4971280Y3049328D01*
X4970858Y3049117D01*
X4968712Y3048170D01*
X4968273Y3048002D01*
X4966050Y3047258D01*
X4965603Y3047128D01*
X4963317Y3046590D01*
X4962850Y3046503D01*
X4960528Y3046181D01*
X4960066Y3046138D01*
X4957721Y3046028D01*
X4957485Y3046023D01*
G37*
D16*
G01*
X451251Y3168954D03*
G01*
X651261Y3168954D03*
G01*
X3902461Y3118154D03*
G01*
X3702451Y3118154D03*
G01*
X-1352163Y2406954D03*
G01*
X-1552173Y2406954D03*
G01*
X-1352161Y2903009D03*
G01*
X-1552171Y2903009D03*
G01*
X2619761Y3181654D03*
G01*
X2419751Y3181654D03*
D17*
G01*
X5301345Y-2533340D03*
G01*
X4767351Y-2533340D03*
G01*
X3523353Y2648254D03*
G01*
X2989359Y2648254D03*
D18*
G01*
X119456Y3168954D03*
G01*
X-134543Y3168954D03*
G01*
X-388543Y3168954D03*
G01*
X-642543Y3168954D03*
G01*
X-896543Y3168954D03*
D19*
G01*
X-1150543Y3168954D03*
D20*
G01*
X1044957Y2762554D03*
D21*
G01*
X844956Y2762554D03*
D20*
G01*
X2619757Y2762554D03*
D21*
G01*
X2419756Y2762554D03*
D22*
G01*
X-1912543Y2241854D03*
G01*
X-1912543Y2495854D03*
G01*
X-2191943Y2241854D03*
G01*
X-2191943Y1987854D03*
D23*
G01*
X-2191943Y1733854D03*
M02*
