G04 Layer: TopPasteMaskLayer*
G04 EasyEDA v6.5.54, 2026-04-14 14:33:15*
G04 27845933940048b08c14d6c4289a14c4,81a6330f3d4149d2af66a0b9843494eb,10*
G04 Gerber Generator version 0.2*
G04 Scale: 100 percent, Rotated: No, Reflected: No *
G04 Dimensions in millimeters *
G04 leading zeros omitted , absolute positions ,4 integer and 5 decimal *
%FSLAX45Y45*%
%MOMM*%

%AMMACRO1*21,1,$1,$2,0,0,$3*%
%AMMACRO2*4,1,37,-0.1588,0.635,0.2223,0.635,0.2457,0.6339,0.2689,0.6307,0.2918,0.6253,0.314,0.6179,0.3355,0.6084,0.356,0.597,0.3753,0.5837,0.3934,0.5687,0.41,0.5521,0.4249,0.5341,0.4382,0.5147,0.4496,0.4942,0.4591,0.4727,0.4665,0.4505,0.4719,0.4277,0.4752,0.4044,0.4763,0.381,0.4763,-0.4445,0.4696,-0.4663,0.4609,-0.4875,0.4504,-0.5078,0.4382,-0.5271,0.4242,-0.5452,0.4087,-0.5619,0.3917,-0.5773,0.3734,-0.591,0.3539,-0.603,0.3335,-0.6132,0.3122,-0.6215,0.2903,-0.6279,0.2678,-0.6323,0.2451,-0.6347,0.2223,-0.635,-0.1588,-0.635,-0.4763,0,-0.1588,0.635,0*%
%AMMACRO3*4,1,39,-0.1905,0.635,-0.2139,0.6339,-0.2372,0.6307,-0.26,0.6253,-0.2822,0.6179,-0.3037,0.6084,-0.3242,0.597,-0.3436,0.5837,-0.3616,0.5687,-0.3782,0.5521,-0.3932,0.5341,-0.4065,0.5147,-0.4179,0.4942,-0.4274,0.4727,-0.4348,0.4505,-0.4402,0.4277,-0.4434,0.4044,-0.4445,0.381,-0.4445,-0.381,-0.4434,-0.4044,-0.4402,-0.4277,-0.4348,-0.4505,-0.4274,-0.4727,-0.4179,-0.4942,-0.4065,-0.5147,-0.3932,-0.5341,-0.3782,-0.5521,-0.3616,-0.5687,-0.3436,-0.5837,-0.3242,-0.597,-0.3037,-0.6084,-0.2822,-0.6179,-0.26,-0.6253,-0.2372,-0.6307,-0.2139,-0.6339,-0.1905,-0.635,0.4445,-0.635,0.127,0,0.4445,0.635,-0.1905,0.635,0*%
%ADD10R,3.3000X3.7000*%
%ADD11R,0.9000X0.8000*%
%ADD12MACRO1,1X1.3995X0.0000*%
%ADD13R,1.0000X1.3995*%
%ADD14O,2.013509X0.524993*%
%ADD15MACRO1,1.539X2.0625X-90.0000*%
%ADD16R,1.0000X0.7500*%
%ADD17R,0.5500X1.2000*%
%ADD18O,2.045005X0.58801*%
%ADD19O,0.0111X0.58801*%
%ADD20O,1.950212X0.568401*%
%ADD21MACRO2*%
%ADD22MACRO3*%
%ADD23R,1.2500X0.7000*%
%ADD24R,0.4000X1.7000*%
%ADD25R,0.7000X1.6000*%
%ADD26R,1.2000X1.5000*%
%ADD27R,1.6000X1.5000*%
%ADD28R,1.2000X2.2000*%
%ADD29R,0.4900X1.1570*%
%ADD30R,0.4900X1.1750*%
%ADD31R,1.0500X1.0000*%
%ADD32R,2.2000X1.0500*%
%ADD33R,1.8000X1.0000*%
%ADD34R,0.8000X0.9000*%

%LPD*%
G36*
X-507542Y137414D02*
G01*
X-512521Y132435D01*
X-512521Y117398D01*
X-507542Y112420D01*
X-492506Y112420D01*
X-487527Y117398D01*
X-487527Y132435D01*
X-492506Y137414D01*
G37*
G36*
X-557530Y137414D02*
G01*
X-562508Y132384D01*
X-562508Y117398D01*
X-557530Y112420D01*
X-542544Y112420D01*
X-537514Y117398D01*
X-537514Y132384D01*
X-542544Y137414D01*
G37*
G36*
X-607517Y87426D02*
G01*
X-612495Y82397D01*
X-612495Y67411D01*
X-607517Y62433D01*
X-592531Y62433D01*
X-587502Y67411D01*
X-587502Y82397D01*
X-592531Y87426D01*
G37*
G36*
X-607517Y37388D02*
G01*
X-612495Y32410D01*
X-612495Y17424D01*
X-607517Y12446D01*
X-592531Y12446D01*
X-587502Y17424D01*
X-587502Y32410D01*
X-592531Y37388D01*
G37*
G36*
X-557530Y12395D02*
G01*
X-562508Y7416D01*
X-562508Y-7569D01*
X-557530Y-12598D01*
X-542493Y-12598D01*
X-537514Y-7569D01*
X-537514Y7416D01*
X-542493Y12395D01*
G37*
G36*
X-557530Y-287578D02*
G01*
X-562508Y-292608D01*
X-562508Y-307594D01*
X-557530Y-312572D01*
X-542544Y-312572D01*
X-537514Y-307594D01*
X-537514Y-292608D01*
X-542544Y-287578D01*
G37*
G36*
X-557530Y-337566D02*
G01*
X-562508Y-342595D01*
X-562508Y-357581D01*
X-557530Y-362559D01*
X-542544Y-362559D01*
X-537514Y-357581D01*
X-537514Y-342595D01*
X-542544Y-337566D01*
G37*
G36*
X-557530Y-387604D02*
G01*
X-562508Y-392582D01*
X-562508Y-407568D01*
X-557530Y-412546D01*
X-542544Y-412546D01*
X-537514Y-407568D01*
X-537514Y-392582D01*
X-542544Y-387604D01*
G37*
G36*
X-607517Y-362610D02*
G01*
X-612495Y-367588D01*
X-612495Y-382574D01*
X-607517Y-387604D01*
X-592531Y-387604D01*
X-587502Y-382574D01*
X-587502Y-367588D01*
X-592531Y-362610D01*
G37*
G36*
X-607517Y-462584D02*
G01*
X-612495Y-467563D01*
X-612495Y-482600D01*
X-607517Y-487578D01*
X-592531Y-487578D01*
X-587502Y-482600D01*
X-587502Y-467563D01*
X-592531Y-462584D01*
G37*
G36*
X42468Y-462584D02*
G01*
X37490Y-467563D01*
X37490Y-482600D01*
X42468Y-487578D01*
X57454Y-487578D01*
X62484Y-482600D01*
X62484Y-467563D01*
X57454Y-462584D01*
G37*
G36*
X42468Y-412597D02*
G01*
X37490Y-417576D01*
X37490Y-432562D01*
X42468Y-437591D01*
X57454Y-437591D01*
X62484Y-432562D01*
X62484Y-417576D01*
X57454Y-412597D01*
G37*
G36*
X-7518Y137414D02*
G01*
X-12496Y132435D01*
X-12496Y117398D01*
X-7518Y112420D01*
X7467Y112420D01*
X12496Y117398D01*
X12496Y132435D01*
X7467Y137414D01*
G37*
G36*
X42468Y-12598D02*
G01*
X37490Y-17576D01*
X37490Y-32562D01*
X42468Y-37592D01*
X57454Y-37592D01*
X62433Y-32562D01*
X62433Y-17576D01*
X57454Y-12598D01*
G37*
G36*
X-7518Y12395D02*
G01*
X-12496Y7416D01*
X-12496Y-7620D01*
X-7518Y-12598D01*
X7467Y-12598D01*
X12496Y-7620D01*
X12496Y7416D01*
X7467Y12395D01*
G37*
G36*
X-7518Y62433D02*
G01*
X-12496Y57404D01*
X-12496Y42418D01*
X-7518Y37388D01*
X7467Y37388D01*
X12496Y42418D01*
X12496Y57404D01*
X7467Y62433D01*
G37*
G36*
X-7518Y-87579D02*
G01*
X-12496Y-92608D01*
X-12496Y-107543D01*
X-7518Y-112572D01*
X7467Y-112572D01*
X12496Y-107594D01*
X12496Y-92608D01*
X7467Y-87579D01*
G37*
G36*
X-82499Y87426D02*
G01*
X-87528Y82397D01*
X-87528Y67411D01*
X-82499Y62433D01*
X-67513Y62433D01*
X-62484Y67411D01*
X-62484Y82397D01*
X-67513Y87426D01*
G37*
G36*
X-182473Y87426D02*
G01*
X-187502Y82397D01*
X-187502Y67411D01*
X-182473Y62433D01*
X-167487Y62433D01*
X-162509Y67411D01*
X-162509Y82397D01*
X-167487Y87426D01*
G37*
G36*
X-232511Y87426D02*
G01*
X-237490Y82448D01*
X-237490Y67411D01*
X-232511Y62433D01*
X-217525Y62433D01*
X-212496Y67411D01*
X-212496Y82448D01*
X-217525Y87426D01*
G37*
G36*
X-282498Y87426D02*
G01*
X-287477Y82448D01*
X-287477Y67411D01*
X-282498Y62433D01*
X-267512Y62433D01*
X-262483Y67411D01*
X-262483Y82448D01*
X-267512Y87426D01*
G37*
G36*
X-332486Y87426D02*
G01*
X-337515Y82448D01*
X-337515Y67411D01*
X-332486Y62433D01*
X-317500Y62433D01*
X-312521Y67411D01*
X-312521Y82448D01*
X-317500Y87426D01*
G37*
G36*
X-382524Y87426D02*
G01*
X-387502Y82448D01*
X-387502Y67411D01*
X-382524Y62433D01*
X-367487Y62433D01*
X-362508Y67411D01*
X-362508Y82448D01*
X-367487Y87426D01*
G37*
G36*
X-432511Y87426D02*
G01*
X-437489Y82448D01*
X-437489Y67411D01*
X-432511Y62433D01*
X-417474Y62433D01*
X-412496Y67411D01*
X-412496Y82448D01*
X-417474Y87426D01*
G37*
G36*
X-482498Y87426D02*
G01*
X-487476Y82448D01*
X-487476Y67411D01*
X-482498Y62433D01*
X-467512Y62433D01*
X-462483Y67411D01*
X-462483Y82448D01*
X-467512Y87426D01*
G37*
G36*
X-557530Y-37592D02*
G01*
X-562508Y-42621D01*
X-562508Y-57607D01*
X-557530Y-62585D01*
X-542544Y-62585D01*
X-537514Y-57607D01*
X-537514Y-42621D01*
X-542544Y-37592D01*
G37*
G36*
X-557530Y-87579D02*
G01*
X-562508Y-92608D01*
X-562508Y-107594D01*
X-557530Y-112623D01*
X-542544Y-112623D01*
X-537514Y-107594D01*
X-537514Y-92608D01*
X-542544Y-87579D01*
G37*
G36*
X-557530Y-137617D02*
G01*
X-562508Y-142595D01*
X-562508Y-157581D01*
X-557530Y-162610D01*
X-542544Y-162610D01*
X-537514Y-157581D01*
X-537514Y-142595D01*
X-542544Y-137617D01*
G37*
G36*
X-607517Y-12598D02*
G01*
X-612495Y-17576D01*
X-612495Y-32562D01*
X-607517Y-37592D01*
X-592531Y-37592D01*
X-587502Y-32562D01*
X-587502Y-17576D01*
X-592531Y-12598D01*
G37*
G36*
X-607517Y-62585D02*
G01*
X-612495Y-67564D01*
X-612495Y-82600D01*
X-607517Y-87579D01*
X-592531Y-87579D01*
X-587502Y-82600D01*
X-587502Y-67564D01*
X-592531Y-62585D01*
G37*
G36*
X-607517Y-112572D02*
G01*
X-612495Y-117602D01*
X-612495Y-132588D01*
X-607517Y-137566D01*
X-592531Y-137566D01*
X-587502Y-132588D01*
X-587502Y-117602D01*
X-592531Y-112572D01*
G37*
G36*
X-607568Y-162610D02*
G01*
X-612546Y-167589D01*
X-612546Y-182575D01*
X-607568Y-187604D01*
X-592531Y-187604D01*
X-587502Y-182575D01*
X-587552Y-167589D01*
X-592531Y-162610D01*
G37*
G36*
X-607568Y-212598D02*
G01*
X-612546Y-217576D01*
X-612546Y-232562D01*
X-607568Y-237591D01*
X-592531Y-237591D01*
X-587502Y-232562D01*
X-587502Y-217576D01*
X-592531Y-212598D01*
G37*
G36*
X-607568Y-262585D02*
G01*
X-612546Y-267563D01*
X-612546Y-282600D01*
X-607568Y-287578D01*
X-592531Y-287578D01*
X-587552Y-282600D01*
X-587502Y-267563D01*
X-592531Y-262585D01*
G37*
G36*
X-157530Y-512572D02*
G01*
X-162509Y-517601D01*
X-162509Y-532587D01*
X-157530Y-537565D01*
X-142494Y-537565D01*
X-137515Y-532587D01*
X-137515Y-517601D01*
X-142494Y-512572D01*
G37*
G36*
X-207517Y-512572D02*
G01*
X-212496Y-517601D01*
X-212496Y-532587D01*
X-207517Y-537565D01*
X-192481Y-537565D01*
X-187502Y-532587D01*
X-187502Y-517601D01*
X-192481Y-512572D01*
G37*
G36*
X-257505Y-512572D02*
G01*
X-262483Y-517601D01*
X-262483Y-532587D01*
X-257505Y-537565D01*
X-242519Y-537565D01*
X-237490Y-532587D01*
X-237490Y-517601D01*
X-242519Y-512572D01*
G37*
G36*
X-307492Y-512572D02*
G01*
X-312470Y-517550D01*
X-312470Y-532587D01*
X-307492Y-537565D01*
X-292506Y-537565D01*
X-287477Y-532587D01*
X-287477Y-517550D01*
X-292506Y-512572D01*
G37*
G36*
X-357479Y-512572D02*
G01*
X-362508Y-517550D01*
X-362508Y-532587D01*
X-357479Y-537565D01*
X-342493Y-537565D01*
X-337464Y-532587D01*
X-337464Y-517550D01*
X-342493Y-512572D01*
G37*
G36*
X-407466Y-512572D02*
G01*
X-412496Y-517550D01*
X-412496Y-532587D01*
X-407466Y-537565D01*
X-392480Y-537565D01*
X-387502Y-532587D01*
X-387502Y-517550D01*
X-392480Y-512572D01*
G37*
G36*
X-457504Y-512572D02*
G01*
X-462483Y-517601D01*
X-462483Y-532587D01*
X-457504Y-537565D01*
X-442518Y-537565D01*
X-437489Y-532587D01*
X-437489Y-517601D01*
X-442518Y-512572D01*
G37*
G36*
X-507492Y-512572D02*
G01*
X-512521Y-517601D01*
X-512521Y-532587D01*
X-507492Y-537565D01*
X-492506Y-537565D01*
X-487476Y-532587D01*
X-487476Y-517601D01*
X-492506Y-512572D01*
G37*
G36*
X-557479Y-512572D02*
G01*
X-562508Y-517601D01*
X-562508Y-532587D01*
X-557479Y-537565D01*
X-542493Y-537565D01*
X-537514Y-532587D01*
X-537514Y-517601D01*
X-542493Y-512572D01*
G37*
G36*
X-332486Y-462584D02*
G01*
X-337515Y-467614D01*
X-337515Y-482600D01*
X-332486Y-487578D01*
X-317500Y-487578D01*
X-312521Y-482600D01*
X-312521Y-467614D01*
X-317500Y-462584D01*
G37*
G36*
X-382524Y-462584D02*
G01*
X-387502Y-467614D01*
X-387502Y-482600D01*
X-382524Y-487578D01*
X-367487Y-487578D01*
X-362508Y-482600D01*
X-362508Y-467614D01*
X-367487Y-462584D01*
G37*
G36*
X-432511Y-462584D02*
G01*
X-437489Y-467614D01*
X-437489Y-482600D01*
X-432511Y-487578D01*
X-417525Y-487578D01*
X-412496Y-482600D01*
X-412496Y-467614D01*
X-417525Y-462584D01*
G37*
G36*
X-182473Y-462584D02*
G01*
X-187502Y-467614D01*
X-187502Y-482600D01*
X-182473Y-487578D01*
X-167487Y-487578D01*
X-162509Y-482600D01*
X-162509Y-467614D01*
X-167487Y-462584D01*
G37*
G36*
X-232460Y-462584D02*
G01*
X-237490Y-467614D01*
X-237490Y-482600D01*
X-232460Y-487578D01*
X-217474Y-487578D01*
X-212496Y-482600D01*
X-212496Y-467614D01*
X-217474Y-462584D01*
G37*
G36*
X-282498Y-462584D02*
G01*
X-287477Y-467614D01*
X-287477Y-482600D01*
X-282498Y-487578D01*
X-267512Y-487578D01*
X-262483Y-482600D01*
X-262483Y-467614D01*
X-267512Y-462584D01*
G37*
G36*
X-32512Y-462584D02*
G01*
X-37490Y-467563D01*
X-37490Y-482600D01*
X-32512Y-487578D01*
X-17526Y-487578D01*
X-12496Y-482600D01*
X-12496Y-467563D01*
X-17526Y-462584D01*
G37*
G36*
X-82499Y-462584D02*
G01*
X-87477Y-467563D01*
X-87477Y-482600D01*
X-82499Y-487578D01*
X-67513Y-487578D01*
X-62484Y-482600D01*
X-62484Y-467563D01*
X-67513Y-462584D01*
G37*
G36*
X-132486Y-462584D02*
G01*
X-137515Y-467563D01*
X-137515Y-482600D01*
X-132486Y-487578D01*
X-117500Y-487578D01*
X-112522Y-482600D01*
X-112522Y-467563D01*
X-117500Y-462584D01*
G37*
G36*
X-7518Y-137566D02*
G01*
X-12496Y-142595D01*
X-12496Y-157581D01*
X-7518Y-162610D01*
X7467Y-162610D01*
X12496Y-157581D01*
X12496Y-142595D01*
X7467Y-137566D01*
G37*
G36*
X-7518Y-187553D02*
G01*
X-12496Y-192582D01*
X-12496Y-207568D01*
X-7518Y-212547D01*
X7467Y-212547D01*
X12496Y-207568D01*
X12496Y-192582D01*
X7467Y-187553D01*
G37*
G36*
X-7518Y-237591D02*
G01*
X-12496Y-242570D01*
X-12496Y-257606D01*
X-7518Y-262585D01*
X7467Y-262585D01*
X12496Y-257556D01*
X12496Y-242570D01*
X7467Y-237591D01*
G37*
G36*
X-7518Y-287578D02*
G01*
X-12496Y-292608D01*
X-12496Y-307594D01*
X-7518Y-312572D01*
X7467Y-312572D01*
X12496Y-307594D01*
X12496Y-292608D01*
X7467Y-287578D01*
G37*
G36*
X-7518Y-337566D02*
G01*
X-12496Y-342595D01*
X-12496Y-357581D01*
X-7518Y-362559D01*
X7467Y-362559D01*
X12496Y-357581D01*
X12496Y-342595D01*
X7467Y-337566D01*
G37*
G36*
X-7518Y-387604D02*
G01*
X-12496Y-392582D01*
X-12496Y-407619D01*
X-7518Y-412597D01*
X7467Y-412597D01*
X12496Y-407619D01*
X12496Y-392582D01*
X7467Y-387604D01*
G37*
G36*
X42468Y-62585D02*
G01*
X37490Y-67614D01*
X37490Y-82600D01*
X42468Y-87579D01*
X57454Y-87579D01*
X62433Y-82600D01*
X62433Y-67614D01*
X57454Y-62585D01*
G37*
G36*
X42468Y-112572D02*
G01*
X37490Y-117602D01*
X37490Y-132588D01*
X42468Y-137566D01*
X57454Y-137566D01*
X62433Y-132588D01*
X62433Y-117602D01*
X57454Y-112572D01*
G37*
G36*
X42468Y-162610D02*
G01*
X37490Y-167589D01*
X37490Y-182626D01*
X42468Y-187604D01*
X57454Y-187604D01*
X62433Y-182626D01*
X62433Y-167589D01*
X57454Y-162610D01*
G37*
G36*
X42468Y-212547D02*
G01*
X37490Y-217576D01*
X37490Y-232562D01*
X42468Y-237591D01*
X57454Y-237591D01*
X62484Y-232562D01*
X62484Y-217576D01*
X57454Y-212547D01*
G37*
G36*
X42468Y-262585D02*
G01*
X37490Y-267563D01*
X37490Y-282549D01*
X42468Y-287578D01*
X57454Y-287578D01*
X62484Y-282549D01*
X62484Y-267563D01*
X57454Y-262585D01*
G37*
G36*
X42468Y-312572D02*
G01*
X37490Y-317601D01*
X37490Y-332587D01*
X42468Y-337566D01*
X57454Y-337566D01*
X62484Y-332587D01*
X62484Y-317601D01*
X57454Y-312572D01*
G37*
G36*
X-57505Y137414D02*
G01*
X-62484Y132435D01*
X-62484Y117398D01*
X-57505Y112420D01*
X-42519Y112420D01*
X-37490Y117398D01*
X-37490Y132435D01*
X-42519Y137414D01*
G37*
G36*
X-107492Y137414D02*
G01*
X-112471Y132435D01*
X-112471Y117398D01*
X-107492Y112420D01*
X-92506Y112420D01*
X-87477Y117398D01*
X-87477Y132435D01*
X-92506Y137414D01*
G37*
G36*
X-157480Y137414D02*
G01*
X-162509Y132435D01*
X-162509Y117398D01*
X-157480Y112420D01*
X-142494Y112420D01*
X-137515Y117398D01*
X-137515Y132435D01*
X-142494Y137414D01*
G37*
G36*
X-207517Y137414D02*
G01*
X-212496Y132384D01*
X-212496Y117398D01*
X-207517Y112420D01*
X-192481Y112420D01*
X-187502Y117398D01*
X-187502Y132384D01*
X-192481Y137414D01*
G37*
G36*
X-257505Y137414D02*
G01*
X-262483Y132384D01*
X-262483Y117398D01*
X-257505Y112420D01*
X-242468Y112420D01*
X-237490Y117398D01*
X-237490Y132384D01*
X-242468Y137414D01*
G37*
G36*
X-307492Y137414D02*
G01*
X-312470Y132384D01*
X-312470Y117398D01*
X-307492Y112420D01*
X-292506Y112420D01*
X-287477Y117398D01*
X-287477Y132384D01*
X-292506Y137414D01*
G37*
G36*
X-457504Y137414D02*
G01*
X-462534Y132384D01*
X-462534Y117398D01*
X-457504Y112420D01*
X-442518Y112420D01*
X-437489Y117398D01*
X-437489Y132384D01*
X-442518Y137414D01*
G37*
G36*
X-357530Y137414D02*
G01*
X-362508Y132384D01*
X-362508Y117398D01*
X-357530Y112420D01*
X-342493Y112420D01*
X-337515Y117398D01*
X-337515Y132384D01*
X-342493Y137414D01*
G37*
G36*
X-407517Y137414D02*
G01*
X-412496Y132384D01*
X-412496Y117398D01*
X-407517Y112420D01*
X-392480Y112420D01*
X-387502Y117398D01*
X-387502Y132384D01*
X-392480Y137414D01*
G37*
G36*
X-468985Y-6096D02*
G01*
X-468985Y-394106D01*
X-81026Y-394106D01*
X-81026Y-6096D01*
G37*
G36*
X-1786026Y-29362D02*
G01*
X-1791055Y-34340D01*
X-1791055Y-149352D01*
X-1786026Y-154330D01*
X-1744065Y-153873D01*
X-1744065Y-109829D01*
X-1699056Y-109829D01*
X-1699056Y-154838D01*
X-1658061Y-154330D01*
X-1653032Y-149352D01*
X-1653032Y-34340D01*
X-1658061Y-29362D01*
G37*
G36*
X-1745030Y-244856D02*
G01*
X-1786026Y-245364D01*
X-1791055Y-250342D01*
X-1791055Y-365353D01*
X-1786026Y-370332D01*
X-1658061Y-370332D01*
X-1653032Y-365353D01*
X-1653032Y-250342D01*
X-1658061Y-245364D01*
X-1700022Y-245821D01*
X-1700022Y-289864D01*
X-1745030Y-289864D01*
G37*
G36*
X-335330Y-1105154D02*
G01*
X-376326Y-1105662D01*
X-381355Y-1110640D01*
X-381355Y-1225651D01*
X-376326Y-1230630D01*
X-248361Y-1230630D01*
X-243332Y-1225651D01*
X-243332Y-1110640D01*
X-248361Y-1105662D01*
X-290322Y-1106119D01*
X-290322Y-1150162D01*
X-335330Y-1150162D01*
G37*
G36*
X-376326Y-889660D02*
G01*
X-381355Y-894638D01*
X-381355Y-1009650D01*
X-376326Y-1014628D01*
X-334365Y-1014171D01*
X-334365Y-970127D01*
X-289356Y-970127D01*
X-289356Y-1015136D01*
X-248361Y-1014628D01*
X-243332Y-1009650D01*
X-243332Y-894638D01*
X-248361Y-889660D01*
G37*
G36*
X2856179Y2531567D02*
G01*
X2856179Y2231542D01*
X3156153Y2231542D01*
X3156153Y2531567D01*
G37*
G36*
X5236159Y2531567D02*
G01*
X5236159Y2231542D01*
X5536133Y2231542D01*
X5536133Y2531567D01*
G37*
G36*
X890879Y-731012D02*
G01*
X885850Y-736041D01*
X886358Y-778002D01*
X930351Y-778002D01*
X930351Y-823010D01*
X885342Y-823010D01*
X885850Y-864006D01*
X890879Y-869035D01*
X1005840Y-869035D01*
X1010869Y-864006D01*
X1010869Y-736041D01*
X1005840Y-731012D01*
G37*
G36*
X675843Y-731012D02*
G01*
X670864Y-736041D01*
X670864Y-864006D01*
X675843Y-869035D01*
X790854Y-869035D01*
X795883Y-864006D01*
X795375Y-823010D01*
X751382Y-823010D01*
X751382Y-778002D01*
X795832Y-778002D01*
X795883Y-736041D01*
X790854Y-731012D01*
G37*
G36*
X890879Y-453898D02*
G01*
X885850Y-458927D01*
X886358Y-500888D01*
X930351Y-500888D01*
X930351Y-545896D01*
X885342Y-545896D01*
X885850Y-586892D01*
X890879Y-591921D01*
X1005840Y-591921D01*
X1010869Y-586892D01*
X1010869Y-458927D01*
X1005840Y-453898D01*
G37*
G36*
X675843Y-453898D02*
G01*
X670864Y-458927D01*
X670864Y-586892D01*
X675843Y-591921D01*
X790854Y-591921D01*
X795883Y-586892D01*
X795375Y-545896D01*
X751382Y-545896D01*
X751382Y-500888D01*
X795832Y-500888D01*
X795883Y-458927D01*
X790854Y-453898D01*
G37*
G36*
X-653745Y-905357D02*
G01*
X-658723Y-910336D01*
X-658723Y-1025347D01*
X-653745Y-1030325D01*
X-611733Y-1029868D01*
X-611733Y-985824D01*
X-566724Y-985824D01*
X-566724Y-1030833D01*
X-525729Y-1030325D01*
X-520750Y-1025347D01*
X-520750Y-910336D01*
X-525729Y-905357D01*
G37*
G36*
X-653745Y-1120343D02*
G01*
X-658723Y-1125321D01*
X-658723Y-1240332D01*
X-653745Y-1245362D01*
X-525729Y-1245362D01*
X-520750Y-1240332D01*
X-520750Y-1125321D01*
X-525729Y-1120343D01*
X-566724Y-1120851D01*
X-566724Y-1164844D01*
X-611733Y-1164844D01*
X-611733Y-1120343D01*
G37*
G36*
X-345389Y847242D02*
G01*
X-350367Y842264D01*
X-350367Y727252D01*
X-345389Y722274D01*
X-303377Y722782D01*
X-303377Y766775D01*
X-258368Y766775D01*
X-258368Y721766D01*
X-217373Y722274D01*
X-212344Y727252D01*
X-212344Y842264D01*
X-217373Y847242D01*
G37*
G36*
X-345389Y632256D02*
G01*
X-350367Y627278D01*
X-350367Y512267D01*
X-345389Y507238D01*
X-217373Y507238D01*
X-212344Y512267D01*
X-212344Y627278D01*
X-217373Y632256D01*
X-258368Y631748D01*
X-258368Y587756D01*
X-303377Y587756D01*
X-303377Y632256D01*
G37*
G36*
X-63754Y847242D02*
G01*
X-68783Y842264D01*
X-68783Y727252D01*
X-63754Y722274D01*
X-21793Y722731D01*
X-21793Y766775D01*
X23215Y766775D01*
X23215Y721766D01*
X64211Y722274D01*
X69240Y727252D01*
X69240Y842264D01*
X64211Y847242D01*
G37*
G36*
X-63754Y632256D02*
G01*
X-68783Y627278D01*
X-68783Y512267D01*
X-63754Y507238D01*
X64211Y507238D01*
X69240Y512267D01*
X69240Y627278D01*
X64211Y632256D01*
X23215Y631748D01*
X23215Y587756D01*
X-21793Y587756D01*
X-21793Y632256D01*
G37*
G36*
X-1225245Y847242D02*
G01*
X-1230223Y842264D01*
X-1230223Y727252D01*
X-1225245Y722274D01*
X-1183233Y722782D01*
X-1183233Y766775D01*
X-1138224Y766775D01*
X-1138224Y721766D01*
X-1097229Y722274D01*
X-1092250Y727252D01*
X-1092250Y842264D01*
X-1097229Y847242D01*
G37*
G36*
X-1225245Y632256D02*
G01*
X-1230223Y627278D01*
X-1230223Y512267D01*
X-1225245Y507238D01*
X-1097229Y507238D01*
X-1092250Y512267D01*
X-1092250Y627278D01*
X-1097229Y632256D01*
X-1138224Y631748D01*
X-1138224Y587756D01*
X-1183233Y587756D01*
X-1183233Y632256D01*
G37*
G36*
X-626973Y847242D02*
G01*
X-631952Y842264D01*
X-631952Y727252D01*
X-626973Y722274D01*
X-584962Y722782D01*
X-584962Y766775D01*
X-539953Y766775D01*
X-539953Y721766D01*
X-498957Y722274D01*
X-493979Y727252D01*
X-493979Y842264D01*
X-498957Y847242D01*
G37*
G36*
X-626973Y632256D02*
G01*
X-631952Y627278D01*
X-631952Y512267D01*
X-626973Y507238D01*
X-498957Y507238D01*
X-493979Y512267D01*
X-493979Y627278D01*
X-498957Y632256D01*
X-539953Y631748D01*
X-539953Y587756D01*
X-584962Y587756D01*
X-584962Y632256D01*
G37*
G36*
X-1528927Y318973D02*
G01*
X-1533956Y313944D01*
X-1533956Y185978D01*
X-1528927Y180949D01*
X-1413967Y180949D01*
X-1408938Y185978D01*
X-1409446Y227939D01*
X-1453438Y227939D01*
X-1453438Y272948D01*
X-1408430Y272948D01*
X-1408938Y313944D01*
X-1413967Y318973D01*
G37*
G36*
X-1313942Y318973D02*
G01*
X-1318920Y313944D01*
X-1318463Y272948D01*
X-1274419Y272948D01*
X-1274419Y227939D01*
X-1318920Y227939D01*
X-1318920Y185978D01*
X-1313942Y180949D01*
X-1198930Y180949D01*
X-1193952Y185978D01*
X-1193952Y313944D01*
X-1198930Y318973D01*
G37*
G36*
X-1344320Y-739140D02*
G01*
X-1349349Y-744169D01*
X-1348841Y-786130D01*
X-1304848Y-786130D01*
X-1304848Y-831138D01*
X-1349857Y-831138D01*
X-1349349Y-872134D01*
X-1344320Y-877163D01*
X-1229360Y-877163D01*
X-1224330Y-872134D01*
X-1224330Y-744169D01*
X-1229360Y-739140D01*
G37*
G36*
X-1559356Y-739140D02*
G01*
X-1564335Y-744169D01*
X-1564335Y-872134D01*
X-1559356Y-877163D01*
X-1444345Y-877163D01*
X-1439316Y-872134D01*
X-1439824Y-831138D01*
X-1483817Y-831138D01*
X-1483817Y-786130D01*
X-1439367Y-786130D01*
X-1439316Y-744169D01*
X-1444345Y-739140D01*
G37*
G36*
X-107645Y-892657D02*
G01*
X-112623Y-897636D01*
X-112623Y-1012647D01*
X-107645Y-1017625D01*
X-65633Y-1017168D01*
X-65633Y-973124D01*
X-20624Y-973124D01*
X-20624Y-1018133D01*
X20370Y-1017625D01*
X25349Y-1012647D01*
X25349Y-897636D01*
X20370Y-892657D01*
G37*
G36*
X-107645Y-1107643D02*
G01*
X-112623Y-1112621D01*
X-112623Y-1227632D01*
X-107645Y-1232662D01*
X20370Y-1232662D01*
X25349Y-1227632D01*
X25349Y-1112621D01*
X20370Y-1107643D01*
X-20624Y-1108151D01*
X-20624Y-1152144D01*
X-65633Y-1152144D01*
X-65633Y-1107643D01*
G37*
G36*
X-1415745Y-1045057D02*
G01*
X-1420723Y-1050036D01*
X-1420723Y-1165047D01*
X-1415745Y-1170025D01*
X-1373733Y-1169568D01*
X-1373733Y-1125524D01*
X-1328724Y-1125524D01*
X-1328724Y-1170533D01*
X-1287729Y-1170025D01*
X-1282750Y-1165047D01*
X-1282750Y-1050036D01*
X-1287729Y-1045057D01*
G37*
G36*
X-1415745Y-1260043D02*
G01*
X-1420723Y-1265021D01*
X-1420723Y-1380032D01*
X-1415745Y-1385062D01*
X-1287729Y-1385062D01*
X-1282750Y-1380032D01*
X-1282750Y-1265021D01*
X-1287729Y-1260043D01*
X-1328724Y-1260551D01*
X-1328724Y-1304544D01*
X-1373733Y-1304544D01*
X-1373733Y-1260043D01*
G37*
G36*
X-887120Y-1323340D02*
G01*
X-892149Y-1328369D01*
X-891641Y-1370330D01*
X-847648Y-1370330D01*
X-847648Y-1415338D01*
X-892657Y-1415338D01*
X-892149Y-1456334D01*
X-887120Y-1461363D01*
X-772160Y-1461363D01*
X-767130Y-1456334D01*
X-767130Y-1328369D01*
X-772160Y-1323340D01*
G37*
G36*
X-1102156Y-1323340D02*
G01*
X-1107135Y-1328369D01*
X-1107135Y-1456334D01*
X-1102156Y-1461363D01*
X-987145Y-1461363D01*
X-982116Y-1456334D01*
X-982624Y-1415338D01*
X-1026617Y-1415338D01*
X-1026617Y-1370330D01*
X-982167Y-1370330D01*
X-982116Y-1328369D01*
X-987145Y-1323340D01*
G37*
G36*
X890879Y-1285240D02*
G01*
X885850Y-1290269D01*
X886358Y-1332230D01*
X930351Y-1332230D01*
X930351Y-1377238D01*
X885342Y-1377238D01*
X885850Y-1418234D01*
X890879Y-1423263D01*
X1005840Y-1423263D01*
X1010869Y-1418234D01*
X1010869Y-1290269D01*
X1005840Y-1285240D01*
G37*
G36*
X675843Y-1285240D02*
G01*
X670864Y-1290269D01*
X670864Y-1418234D01*
X675843Y-1423263D01*
X790854Y-1423263D01*
X795883Y-1418234D01*
X795375Y-1377238D01*
X751382Y-1377238D01*
X751382Y-1332230D01*
X795832Y-1332230D01*
X795883Y-1290269D01*
X790854Y-1285240D01*
G37*
G36*
X499414Y847242D02*
G01*
X494436Y842264D01*
X494436Y727252D01*
X499414Y722274D01*
X541426Y722731D01*
X541426Y766775D01*
X586435Y766775D01*
X586435Y721766D01*
X627430Y722274D01*
X632409Y727252D01*
X632409Y842264D01*
X627430Y847242D01*
G37*
G36*
X499414Y632256D02*
G01*
X494436Y627278D01*
X494436Y512267D01*
X499414Y507238D01*
X627430Y507238D01*
X632409Y512267D01*
X632409Y627278D01*
X627430Y632256D01*
X586435Y631748D01*
X586435Y587756D01*
X541426Y587756D01*
X541426Y632256D01*
G37*
G36*
X-1344320Y-485140D02*
G01*
X-1349349Y-490169D01*
X-1348841Y-532130D01*
X-1304848Y-532130D01*
X-1304848Y-577138D01*
X-1349857Y-577138D01*
X-1349349Y-618134D01*
X-1344320Y-623163D01*
X-1229360Y-623163D01*
X-1224330Y-618134D01*
X-1224330Y-490169D01*
X-1229360Y-485140D01*
G37*
G36*
X-1559356Y-485140D02*
G01*
X-1564335Y-490169D01*
X-1564335Y-618134D01*
X-1559356Y-623163D01*
X-1444345Y-623163D01*
X-1439316Y-618134D01*
X-1439824Y-577138D01*
X-1483817Y-577138D01*
X-1483817Y-532130D01*
X-1439367Y-532130D01*
X-1439316Y-490169D01*
X-1444345Y-485140D01*
G37*
G36*
X680872Y-1004112D02*
G01*
X675843Y-1009142D01*
X675843Y-1137107D01*
X680872Y-1142136D01*
X795832Y-1142136D01*
X800862Y-1137107D01*
X800354Y-1095146D01*
X756361Y-1095146D01*
X756361Y-1050137D01*
X801370Y-1050137D01*
X800862Y-1009142D01*
X795832Y-1004112D01*
G37*
G36*
X895858Y-1004112D02*
G01*
X890879Y-1009142D01*
X891336Y-1050137D01*
X935380Y-1050137D01*
X935380Y-1095146D01*
X890879Y-1095146D01*
X890879Y-1137107D01*
X895858Y-1142136D01*
X1010869Y-1142136D01*
X1015847Y-1137107D01*
X1015847Y-1009142D01*
X1010869Y-1004112D01*
G37*
G36*
X3436772Y290322D02*
G01*
X3431743Y285292D01*
X3431743Y157327D01*
X3436772Y152298D01*
X3551732Y152298D01*
X3556762Y157327D01*
X3556254Y199288D01*
X3512261Y199288D01*
X3512261Y244297D01*
X3557270Y244297D01*
X3556762Y285292D01*
X3551732Y290322D01*
G37*
G36*
X3651758Y290322D02*
G01*
X3646728Y285292D01*
X3647236Y244297D01*
X3691229Y244297D01*
X3691229Y199288D01*
X3646779Y199288D01*
X3646728Y157327D01*
X3651758Y152298D01*
X3766769Y152298D01*
X3771747Y157327D01*
X3771747Y285292D01*
X3766769Y290322D01*
G37*
G36*
X3436772Y552958D02*
G01*
X3431743Y547979D01*
X3431743Y419963D01*
X3436772Y414985D01*
X3551732Y414985D01*
X3556762Y419963D01*
X3556254Y461975D01*
X3512261Y461975D01*
X3512261Y506984D01*
X3557270Y506984D01*
X3556762Y547979D01*
X3551732Y552958D01*
G37*
G36*
X3651758Y552958D02*
G01*
X3646779Y547979D01*
X3647236Y506984D01*
X3691280Y506984D01*
X3691280Y461975D01*
X3646779Y461975D01*
X3646779Y419963D01*
X3651758Y414985D01*
X3766769Y414985D01*
X3771747Y419963D01*
X3771747Y547979D01*
X3766769Y552958D01*
G37*
G36*
X5526379Y-218033D02*
G01*
X5521350Y-223012D01*
X5521858Y-265023D01*
X5565851Y-265023D01*
X5565851Y-310032D01*
X5520842Y-310032D01*
X5521350Y-351028D01*
X5526379Y-356006D01*
X5641340Y-356006D01*
X5646369Y-351028D01*
X5646369Y-223012D01*
X5641340Y-218033D01*
G37*
G36*
X5311343Y-218033D02*
G01*
X5306364Y-223012D01*
X5306364Y-351028D01*
X5311343Y-356006D01*
X5426354Y-356006D01*
X5431383Y-351028D01*
X5430875Y-310032D01*
X5386882Y-310032D01*
X5386882Y-265023D01*
X5431383Y-265023D01*
X5431383Y-223012D01*
X5426354Y-218033D01*
G37*
G36*
X5316372Y1170279D02*
G01*
X5311343Y1165301D01*
X5311343Y1037285D01*
X5316372Y1032306D01*
X5431332Y1032306D01*
X5436362Y1037285D01*
X5435854Y1079296D01*
X5391861Y1079296D01*
X5391861Y1124254D01*
X5436870Y1124254D01*
X5436362Y1165301D01*
X5431332Y1170279D01*
G37*
G36*
X5531358Y1170279D02*
G01*
X5526379Y1165301D01*
X5526836Y1124254D01*
X5570880Y1124254D01*
X5570880Y1079296D01*
X5526379Y1079296D01*
X5526379Y1037285D01*
X5531358Y1032306D01*
X5646369Y1032306D01*
X5651347Y1037285D01*
X5651347Y1165301D01*
X5646369Y1170279D01*
G37*
G36*
X3436772Y27635D02*
G01*
X3431743Y22656D01*
X3431743Y-105359D01*
X3436772Y-110337D01*
X3551732Y-110337D01*
X3556762Y-105359D01*
X3556254Y-63347D01*
X3512261Y-63347D01*
X3512261Y-18338D01*
X3557270Y-18338D01*
X3556762Y22656D01*
X3551732Y27635D01*
G37*
G36*
X3651758Y27635D02*
G01*
X3646779Y22656D01*
X3647236Y-18338D01*
X3691280Y-18338D01*
X3691280Y-63347D01*
X3646779Y-63347D01*
X3646779Y-105359D01*
X3651758Y-110337D01*
X3766769Y-110337D01*
X3771747Y-105359D01*
X3771747Y22656D01*
X3766769Y27635D01*
G37*
G36*
X5696559Y1754073D02*
G01*
X5691530Y1749043D01*
X5691530Y1621078D01*
X5696559Y1616049D01*
X5811570Y1616049D01*
X5816549Y1621078D01*
X5816041Y1663039D01*
X5772048Y1663039D01*
X5772048Y1708048D01*
X5817057Y1708048D01*
X5816549Y1749043D01*
X5811570Y1754073D01*
G37*
G36*
X5911545Y1754073D02*
G01*
X5906566Y1749043D01*
X5907074Y1708048D01*
X5951067Y1708048D01*
X5951067Y1663039D01*
X5906566Y1663039D01*
X5906566Y1621078D01*
X5911545Y1616049D01*
X6026556Y1616049D01*
X6031534Y1621078D01*
X6031534Y1749043D01*
X6026556Y1754073D01*
G37*
G36*
X5906566Y2600960D02*
G01*
X5901537Y2595930D01*
X5902045Y2553970D01*
X5946038Y2553970D01*
X5946038Y2508961D01*
X5901029Y2508961D01*
X5901537Y2467965D01*
X5906566Y2462936D01*
X6021578Y2462936D01*
X6026556Y2467965D01*
X6026556Y2595930D01*
X6021578Y2600960D01*
G37*
G36*
X5691530Y2600960D02*
G01*
X5686552Y2595930D01*
X5686552Y2467965D01*
X5691530Y2462936D01*
X5806541Y2462936D01*
X5811570Y2467965D01*
X5811062Y2508961D01*
X5767070Y2508961D01*
X5767070Y2553970D01*
X5811570Y2553970D01*
X5811570Y2595930D01*
X5806541Y2600960D01*
G37*
G36*
X1543354Y-219557D02*
G01*
X1538376Y-224536D01*
X1538376Y-339547D01*
X1543354Y-344525D01*
X1585366Y-344068D01*
X1585366Y-300024D01*
X1630375Y-300024D01*
X1630375Y-345033D01*
X1671370Y-344525D01*
X1676349Y-339547D01*
X1676349Y-224536D01*
X1671370Y-219557D01*
G37*
G36*
X1543354Y-434543D02*
G01*
X1538376Y-439521D01*
X1538376Y-554532D01*
X1543354Y-559562D01*
X1671370Y-559562D01*
X1676349Y-554532D01*
X1676349Y-439521D01*
X1671370Y-434543D01*
X1630375Y-435051D01*
X1630375Y-479043D01*
X1585366Y-479043D01*
X1585366Y-434543D01*
G37*
G36*
X2844698Y-238556D02*
G01*
X2803702Y-239064D01*
X2798673Y-244043D01*
X2798673Y-359054D01*
X2803702Y-364032D01*
X2931668Y-364032D01*
X2936697Y-359054D01*
X2936697Y-244043D01*
X2931668Y-239064D01*
X2889656Y-239521D01*
X2889656Y-283565D01*
X2844698Y-283565D01*
G37*
G36*
X2803702Y-24028D02*
G01*
X2798673Y-29057D01*
X2798673Y-144068D01*
X2803702Y-149047D01*
X2844698Y-148539D01*
X2844698Y-104546D01*
X2889656Y-104546D01*
X2889656Y-149047D01*
X2931668Y-149047D01*
X2936697Y-144068D01*
X2936697Y-29057D01*
X2931668Y-24028D01*
G37*
G36*
X217830Y847242D02*
G01*
X212801Y842264D01*
X212801Y727252D01*
X217830Y722274D01*
X259842Y722731D01*
X259842Y766775D01*
X304800Y766775D01*
X304800Y721766D01*
X345795Y722274D01*
X350824Y727252D01*
X350824Y842264D01*
X345795Y847242D01*
G37*
G36*
X217830Y632256D02*
G01*
X212801Y627278D01*
X212801Y512267D01*
X217830Y507238D01*
X345795Y507238D01*
X350824Y512267D01*
X350824Y627278D01*
X345795Y632256D01*
X304800Y631748D01*
X304800Y587756D01*
X259842Y587756D01*
X259842Y632256D01*
G37*
G36*
X146608Y-950823D02*
G01*
X140208Y-957224D01*
X140208Y-1007567D01*
X169621Y-1034999D01*
X197256Y-1034999D01*
X226618Y-1007567D01*
X226618Y-957224D01*
X220217Y-950823D01*
G37*
G36*
X170738Y-1086561D02*
G01*
X141376Y-1113942D01*
X141376Y-1164285D01*
X147777Y-1170686D01*
X221335Y-1170686D01*
X227736Y-1164285D01*
X227736Y-1113942D01*
X198374Y-1086561D01*
G37*
G36*
X-1123340Y-257200D02*
G01*
X-1150772Y-286613D01*
X-1150772Y-314248D01*
X-1123340Y-343611D01*
X-1073048Y-343611D01*
X-1066647Y-337210D01*
X-1066647Y-263601D01*
X-1073048Y-257200D01*
G37*
G36*
X-1280109Y-258368D02*
G01*
X-1286510Y-264769D01*
X-1286510Y-338328D01*
X-1280109Y-344728D01*
X-1229766Y-344728D01*
X-1202334Y-315366D01*
X-1202334Y-287731D01*
X-1229766Y-258368D01*
G37*
G36*
X1986432Y-1287881D02*
G01*
X1981454Y-1292860D01*
X1981454Y-1420876D01*
X1986432Y-1425854D01*
X2101443Y-1425854D01*
X2106472Y-1420876D01*
X2105964Y-1378864D01*
X2061972Y-1378864D01*
X2061972Y-1333855D01*
X2106980Y-1333855D01*
X2106472Y-1292860D01*
X2101443Y-1287881D01*
G37*
G36*
X2201468Y-1287881D02*
G01*
X2196439Y-1292860D01*
X2196947Y-1333855D01*
X2240940Y-1333855D01*
X2240940Y-1378864D01*
X2196439Y-1378864D01*
X2196439Y-1420876D01*
X2201468Y-1425854D01*
X2316480Y-1425854D01*
X2321458Y-1420876D01*
X2321458Y-1292860D01*
X2316480Y-1287881D01*
G37*
G36*
X2253030Y-2501442D02*
G01*
X2248052Y-2506472D01*
X2248052Y-2621432D01*
X2253030Y-2626461D01*
X2295042Y-2625953D01*
X2295042Y-2581960D01*
X2340051Y-2581960D01*
X2340051Y-2626969D01*
X2381046Y-2626461D01*
X2386076Y-2621432D01*
X2386076Y-2506472D01*
X2381046Y-2501442D01*
G37*
G36*
X2253030Y-2716428D02*
G01*
X2248052Y-2721457D01*
X2248052Y-2836468D01*
X2253030Y-2841447D01*
X2381046Y-2841447D01*
X2386076Y-2836468D01*
X2386076Y-2721457D01*
X2381046Y-2716428D01*
X2340051Y-2716936D01*
X2340051Y-2760929D01*
X2295042Y-2760929D01*
X2295042Y-2716428D01*
G37*
G36*
X1440332Y-1287881D02*
G01*
X1435354Y-1292860D01*
X1435354Y-1420876D01*
X1440332Y-1425854D01*
X1555343Y-1425854D01*
X1560372Y-1420876D01*
X1559864Y-1378864D01*
X1515872Y-1378864D01*
X1515872Y-1333855D01*
X1560880Y-1333855D01*
X1560372Y-1292860D01*
X1555343Y-1287881D01*
G37*
G36*
X1655368Y-1287881D02*
G01*
X1650339Y-1292860D01*
X1650847Y-1333855D01*
X1694840Y-1333855D01*
X1694840Y-1378864D01*
X1650339Y-1378864D01*
X1650339Y-1420876D01*
X1655368Y-1425854D01*
X1770380Y-1425854D01*
X1775358Y-1420876D01*
X1775358Y-1292860D01*
X1770380Y-1287881D01*
G37*
G36*
X1107643Y-2680258D02*
G01*
X1102664Y-2685237D01*
X1103172Y-2727248D01*
X1147165Y-2727248D01*
X1147165Y-2772257D01*
X1102156Y-2772257D01*
X1102664Y-2813253D01*
X1107643Y-2818231D01*
X1222654Y-2818231D01*
X1227683Y-2813253D01*
X1227683Y-2685237D01*
X1222654Y-2680258D01*
G37*
G36*
X892657Y-2680258D02*
G01*
X887679Y-2685237D01*
X887679Y-2813253D01*
X892657Y-2818231D01*
X1007668Y-2818231D01*
X1012647Y-2813253D01*
X1012139Y-2772257D01*
X968146Y-2772257D01*
X968146Y-2727248D01*
X1012647Y-2727248D01*
X1012647Y-2685237D01*
X1007668Y-2680258D01*
G37*
G36*
X5313832Y341884D02*
G01*
X5308854Y336905D01*
X5308854Y208889D01*
X5313832Y203911D01*
X5428843Y203911D01*
X5433872Y208889D01*
X5433364Y250901D01*
X5389372Y250901D01*
X5389372Y295910D01*
X5434380Y295910D01*
X5433872Y336905D01*
X5428843Y341884D01*
G37*
G36*
X5528868Y341884D02*
G01*
X5523839Y336905D01*
X5524347Y295910D01*
X5568340Y295910D01*
X5568340Y250901D01*
X5523839Y250901D01*
X5523839Y208889D01*
X5528868Y203911D01*
X5643880Y203911D01*
X5648858Y208889D01*
X5648858Y336905D01*
X5643880Y341884D01*
G37*
G36*
X5528868Y901141D02*
G01*
X5523839Y896162D01*
X5524347Y854151D01*
X5568340Y854151D01*
X5568340Y809142D01*
X5523331Y809142D01*
X5523839Y768146D01*
X5528868Y763168D01*
X5643880Y763168D01*
X5648858Y768146D01*
X5648858Y896162D01*
X5643880Y901141D01*
G37*
G36*
X5313883Y901141D02*
G01*
X5308854Y896162D01*
X5308854Y768146D01*
X5313883Y763168D01*
X5428843Y763168D01*
X5433872Y768146D01*
X5433364Y809142D01*
X5389372Y809142D01*
X5389372Y854151D01*
X5433872Y854151D01*
X5433872Y896162D01*
X5428843Y901141D01*
G37*
G36*
X3649268Y814984D02*
G01*
X3644239Y809955D01*
X3644747Y767943D01*
X3688740Y767943D01*
X3688740Y722985D01*
X3643731Y722985D01*
X3644239Y681990D01*
X3649268Y676960D01*
X3764279Y676960D01*
X3769258Y681990D01*
X3769258Y809955D01*
X3764279Y814984D01*
G37*
G36*
X3434283Y814984D02*
G01*
X3429254Y809955D01*
X3429254Y681990D01*
X3434283Y676960D01*
X3549243Y676960D01*
X3554272Y681990D01*
X3553764Y722985D01*
X3509772Y722985D01*
X3509772Y767943D01*
X3554272Y767943D01*
X3554272Y809955D01*
X3549243Y814984D01*
G37*
G36*
X3434232Y1080312D02*
G01*
X3429254Y1075283D01*
X3429254Y947318D01*
X3434232Y942289D01*
X3549243Y942289D01*
X3554272Y947318D01*
X3553764Y989330D01*
X3509772Y989330D01*
X3509772Y1034287D01*
X3554780Y1034287D01*
X3554272Y1075283D01*
X3549243Y1080312D01*
G37*
G36*
X3649268Y1080312D02*
G01*
X3644239Y1075283D01*
X3644747Y1034287D01*
X3688740Y1034287D01*
X3688740Y989330D01*
X3644239Y989330D01*
X3644239Y947318D01*
X3649268Y942289D01*
X3764279Y942289D01*
X3769258Y947318D01*
X3769258Y1075283D01*
X3764279Y1080312D01*
G37*
G36*
X3649268Y1345641D02*
G01*
X3644239Y1340662D01*
X3644747Y1298651D01*
X3688740Y1298651D01*
X3688740Y1253642D01*
X3643731Y1253642D01*
X3644239Y1212646D01*
X3649268Y1207668D01*
X3764279Y1207668D01*
X3769258Y1212646D01*
X3769258Y1340662D01*
X3764279Y1345641D01*
G37*
G36*
X3434283Y1345641D02*
G01*
X3429254Y1340662D01*
X3429254Y1212646D01*
X3434283Y1207668D01*
X3549243Y1207668D01*
X3554272Y1212646D01*
X3553764Y1253642D01*
X3509772Y1253642D01*
X3509772Y1298651D01*
X3554272Y1298651D01*
X3554272Y1340662D01*
X3549243Y1345641D01*
G37*
G36*
X2846679Y292354D02*
G01*
X2805684Y291846D01*
X2800705Y286867D01*
X2800705Y171856D01*
X2805684Y166827D01*
X2933700Y166827D01*
X2938678Y171856D01*
X2938678Y286867D01*
X2933700Y291846D01*
X2891688Y291338D01*
X2891688Y247345D01*
X2846679Y247345D01*
G37*
G36*
X2805684Y506831D02*
G01*
X2800705Y501853D01*
X2800705Y386842D01*
X2805684Y381863D01*
X2846679Y382371D01*
X2846679Y426364D01*
X2891688Y426364D01*
X2891688Y381863D01*
X2933700Y381863D01*
X2938678Y386842D01*
X2938678Y501853D01*
X2933700Y506831D01*
G37*
G36*
X1582369Y61163D02*
G01*
X1541373Y60655D01*
X1536344Y55676D01*
X1536344Y-59334D01*
X1541373Y-64312D01*
X1669338Y-64312D01*
X1674368Y-59334D01*
X1674368Y55676D01*
X1669338Y60655D01*
X1627378Y60198D01*
X1627378Y16154D01*
X1582369Y16154D01*
G37*
G36*
X1541373Y275691D02*
G01*
X1536344Y270662D01*
X1536344Y155651D01*
X1541373Y150672D01*
X1582369Y151180D01*
X1582369Y195173D01*
X1627378Y195173D01*
X1627378Y150672D01*
X1669338Y150672D01*
X1674368Y155651D01*
X1674368Y270662D01*
X1669338Y275691D01*
G37*
G36*
X1541373Y748182D02*
G01*
X1536344Y743153D01*
X1536344Y628142D01*
X1541373Y623163D01*
X1583334Y623671D01*
X1583334Y667664D01*
X1628343Y667664D01*
X1628343Y622655D01*
X1669338Y623163D01*
X1674368Y628142D01*
X1674368Y743153D01*
X1669338Y748182D01*
G37*
G36*
X1541373Y533146D02*
G01*
X1536344Y528167D01*
X1536344Y413156D01*
X1541373Y408178D01*
X1669338Y408178D01*
X1674368Y413156D01*
X1674368Y528167D01*
X1669338Y533146D01*
X1628343Y532638D01*
X1628343Y488645D01*
X1583334Y488645D01*
X1583334Y533146D01*
G37*
G36*
X3696766Y-238506D02*
G01*
X3686759Y-248513D01*
X3686759Y-284632D01*
X3696766Y-294640D01*
X3717798Y-294640D01*
X3727805Y-304647D01*
X3727805Y-342442D01*
X3717798Y-352450D01*
X3696766Y-352450D01*
X3686759Y-362458D01*
X3686759Y-398576D01*
X3696766Y-408584D01*
X3797503Y-408584D01*
X3807510Y-398576D01*
X3807510Y-248513D01*
X3797503Y-238506D01*
G37*
G36*
X3401009Y-238506D02*
G01*
X3391001Y-248513D01*
X3391001Y-398576D01*
X3401009Y-408584D01*
X3501745Y-408584D01*
X3511753Y-398576D01*
X3511753Y-362458D01*
X3501745Y-352450D01*
X3480714Y-352450D01*
X3470706Y-342442D01*
X3470706Y-304647D01*
X3480714Y-294640D01*
X3501745Y-294640D01*
X3511753Y-284632D01*
X3511753Y-248513D01*
X3501745Y-238506D01*
G37*
G36*
X940866Y396494D02*
G01*
X930859Y386486D01*
X930859Y350367D01*
X940866Y340360D01*
X961898Y340360D01*
X971905Y330352D01*
X971905Y292557D01*
X961898Y282549D01*
X940866Y282549D01*
X930859Y272542D01*
X930859Y236423D01*
X940866Y226415D01*
X1041603Y226415D01*
X1051610Y236423D01*
X1051610Y386486D01*
X1041603Y396494D01*
G37*
G36*
X645109Y396494D02*
G01*
X635101Y386486D01*
X635101Y236423D01*
X645109Y226415D01*
X745845Y226415D01*
X755853Y236423D01*
X755853Y272542D01*
X745845Y282549D01*
X724814Y282549D01*
X714806Y292557D01*
X714806Y330352D01*
X724814Y340360D01*
X745845Y340360D01*
X755853Y350367D01*
X755853Y386486D01*
X745845Y396494D01*
G37*
G36*
X-1221790Y2745994D02*
G01*
X-1231798Y2735986D01*
X-1231798Y2585923D01*
X-1221790Y2575915D01*
X-1121054Y2575915D01*
X-1111046Y2585923D01*
X-1111046Y2622042D01*
X-1121054Y2632049D01*
X-1142085Y2632049D01*
X-1152093Y2642057D01*
X-1152093Y2679852D01*
X-1142085Y2689860D01*
X-1121054Y2689860D01*
X-1111046Y2699867D01*
X-1111046Y2735986D01*
X-1121054Y2745994D01*
G37*
G36*
X-926033Y2745994D02*
G01*
X-936040Y2735986D01*
X-936040Y2699867D01*
X-926033Y2689860D01*
X-905002Y2689860D01*
X-894994Y2679852D01*
X-894994Y2642057D01*
X-905002Y2632049D01*
X-926033Y2632049D01*
X-936040Y2622042D01*
X-936040Y2585923D01*
X-926033Y2575915D01*
X-825296Y2575915D01*
X-815289Y2585923D01*
X-815289Y2735986D01*
X-825296Y2745994D01*
G37*
G36*
X-939139Y888034D02*
G01*
X-949147Y878027D01*
X-949147Y777240D01*
X-939139Y767283D01*
X-903020Y767283D01*
X-893013Y777240D01*
X-893013Y798322D01*
X-883005Y808329D01*
X-845210Y808329D01*
X-835202Y798322D01*
X-835202Y777240D01*
X-825195Y767283D01*
X-789076Y767283D01*
X-779068Y777240D01*
X-779068Y878027D01*
X-789076Y888034D01*
G37*
G36*
X-939139Y592277D02*
G01*
X-949147Y582269D01*
X-949147Y481482D01*
X-939139Y471525D01*
X-789076Y471525D01*
X-779068Y481482D01*
X-779068Y582269D01*
X-789076Y592277D01*
X-825195Y592277D01*
X-835202Y582269D01*
X-835202Y561187D01*
X-845210Y551180D01*
X-883005Y551180D01*
X-893013Y561187D01*
X-893013Y582269D01*
X-903020Y592277D01*
G37*
G36*
X2597099Y-763016D02*
G01*
X2587091Y-772972D01*
X2587091Y-873760D01*
X2597099Y-883767D01*
X2633218Y-883767D01*
X2643225Y-873760D01*
X2643225Y-852678D01*
X2653233Y-842670D01*
X2691079Y-842670D01*
X2701086Y-852678D01*
X2701086Y-873760D01*
X2711094Y-883767D01*
X2747213Y-883767D01*
X2757220Y-873760D01*
X2757220Y-772972D01*
X2747213Y-763016D01*
G37*
G36*
X2597099Y-1058722D02*
G01*
X2587091Y-1068730D01*
X2587091Y-1169517D01*
X2597099Y-1179474D01*
X2747213Y-1179474D01*
X2757220Y-1169517D01*
X2757220Y-1068730D01*
X2747213Y-1058722D01*
X2711094Y-1058722D01*
X2701086Y-1068730D01*
X2701086Y-1089812D01*
X2691079Y-1099820D01*
X2653233Y-1099820D01*
X2643225Y-1089812D01*
X2643225Y-1068730D01*
X2633218Y-1058722D01*
G37*
G36*
X678332Y-166065D02*
G01*
X673354Y-171043D01*
X673354Y-299059D01*
X678332Y-304038D01*
X793343Y-304038D01*
X798372Y-299059D01*
X797864Y-257048D01*
X753872Y-257048D01*
X753872Y-212039D01*
X798880Y-212039D01*
X798372Y-171043D01*
X793343Y-166065D01*
G37*
G36*
X893368Y-166065D02*
G01*
X888339Y-171043D01*
X888847Y-212039D01*
X932840Y-212039D01*
X932840Y-257048D01*
X888339Y-257048D01*
X888339Y-299059D01*
X893368Y-304038D01*
X1008380Y-304038D01*
X1013358Y-299059D01*
X1013358Y-171043D01*
X1008380Y-166065D01*
G37*
G36*
X893368Y113741D02*
G01*
X888339Y108762D01*
X888847Y66751D01*
X932840Y66751D01*
X932840Y21742D01*
X887831Y21742D01*
X888339Y-19253D01*
X893368Y-24231D01*
X1008380Y-24231D01*
X1013358Y-19253D01*
X1013358Y108762D01*
X1008380Y113741D01*
G37*
G36*
X678383Y113741D02*
G01*
X673354Y108762D01*
X673354Y-19253D01*
X678383Y-24231D01*
X793343Y-24231D01*
X798372Y-19253D01*
X797864Y21742D01*
X753872Y21742D01*
X753872Y66751D01*
X798372Y66751D01*
X798372Y108762D01*
X793343Y113741D01*
G37*
D10*
G01*
X4659630Y-1733245D03*
G01*
X5459653Y-1733245D03*
D11*
G01*
X-883843Y-299948D03*
G01*
X-883843Y-439953D03*
G01*
X-1442643Y-299948D03*
G01*
X-1442643Y-159943D03*
D12*
G01*
X5385386Y-5341D03*
D13*
G01*
X5595442Y-5334D03*
D12*
G01*
X5385386Y553920D03*
D13*
G01*
X5595442Y553923D03*
D14*
G01*
X4738522Y200355D03*
G01*
X4738522Y300355D03*
G01*
X4738522Y400354D03*
G01*
X4738522Y500354D03*
G01*
X4738522Y600354D03*
G01*
X4187190Y200355D03*
G01*
X4187190Y300355D03*
G01*
X4187190Y400354D03*
G01*
X4187190Y500354D03*
G01*
X4187190Y600354D03*
D15*
G01*
X4352182Y-806145D03*
G01*
X4852930Y-806145D03*
G01*
X4352182Y-387045D03*
G01*
X4852930Y-387045D03*
D16*
G01*
X2351938Y882954D03*
G01*
X2117420Y882954D03*
D17*
G01*
X1287856Y-2197963D03*
G01*
X1382852Y-1957959D03*
G01*
X1287856Y-1957959D03*
G01*
X1192860Y-1957959D03*
G01*
X1192860Y-2197963D03*
G01*
X1382852Y-2197963D03*
D18*
G01*
X2524633Y209854D03*
G01*
X2524633Y336854D03*
G01*
X2524633Y463854D03*
G01*
X2524633Y590854D03*
G01*
X1970151Y209854D03*
G01*
X1970151Y336854D03*
G01*
X1970151Y463854D03*
G01*
X1970151Y590854D03*
D20*
G01*
X2521127Y-488645D03*
G01*
X2521127Y-361645D03*
G01*
X2521127Y-234645D03*
G01*
X2521127Y-107645D03*
G01*
X1980107Y-488645D03*
G01*
X1980107Y-361645D03*
G01*
X1980107Y-234645D03*
G01*
X1980107Y-107645D03*
D21*
G01*
X3891356Y-1301445D03*
D22*
G01*
X3789756Y-1301445D03*
D23*
G01*
X-1609343Y2578658D03*
G01*
X-1609343Y2768650D03*
G01*
X-1809343Y2673654D03*
G01*
X3003956Y-749249D03*
G01*
X3003956Y-939241D03*
G01*
X3203956Y-844245D03*
G01*
X3699256Y-939241D03*
G01*
X3699256Y-749249D03*
G01*
X3499256Y-844245D03*
D24*
G01*
X2125395Y-1650390D03*
G01*
X2060397Y-1650390D03*
G01*
X1995398Y-1650390D03*
G01*
X1930400Y-1650390D03*
G01*
X1865401Y-1650390D03*
G01*
X1800402Y-1650390D03*
G01*
X1735404Y-1650390D03*
G01*
X1735404Y-2210409D03*
G01*
X1800402Y-2210409D03*
G01*
X1865401Y-2210409D03*
G01*
X1930400Y-2210409D03*
G01*
X1995398Y-2210409D03*
G01*
X2060397Y-2210409D03*
G01*
X2125395Y-2210409D03*
D25*
G01*
X2664866Y-1546148D03*
G01*
X2774848Y-1546148D03*
G01*
X2884855Y-1546148D03*
G01*
X2994863Y-1546148D03*
G01*
X3104870Y-1546148D03*
G01*
X3214852Y-1546148D03*
G01*
X3324860Y-1546148D03*
G01*
X3434867Y-1546148D03*
G01*
X3544849Y-1546148D03*
D26*
G01*
X2544851Y-1646148D03*
D27*
G01*
X4004868Y-1646148D03*
D28*
G01*
X2544851Y-2606141D03*
G01*
X4094861Y-2606141D03*
D29*
G01*
X5777814Y1999208D03*
G01*
X5872810Y1999208D03*
G01*
X5967806Y1999208D03*
D30*
G01*
X5967806Y2229942D03*
G01*
X5777814Y2229942D03*
D31*
G01*
X-1963292Y-299948D03*
D32*
G01*
X-2115794Y-152450D03*
G01*
X-2115794Y-447446D03*
D33*
G01*
X436956Y-249351D03*
G01*
X436956Y-499338D03*
D34*
G01*
X-1002334Y-1142847D03*
G01*
X-892352Y-1142847D03*
G01*
X-892352Y-1002842D03*
G01*
X-1002334Y-1002842D03*
M02*
